<svg width="604" height="298" viewBox="0 0 604 298" fill="none" xmlns="http://www.w3.org/2000/svg">
<g filter="url(#filter0_dd_58_1505)">
<rect x="32" y="24" width="540" height="238" rx="8" fill="white" shape-rendering="crispEdges"/>
<path d="M49.0568 52V43.2727H54.2898V44.2102H50.1136V47.1591H53.8977V48.0966H50.1136V52H49.0568ZM55.8931 52V45.4545H56.8647V46.4432H56.9329C57.0522 46.1193 57.2681 45.8565 57.5806 45.6548C57.8931 45.4531 58.2454 45.3523 58.6374 45.3523C58.7113 45.3523 58.8036 45.3537 58.9144 45.3565C59.0252 45.3594 59.109 45.3636 59.1658 45.3693V46.392C59.1317 46.3835 59.0536 46.3707 58.9315 46.3537C58.8121 46.3338 58.6857 46.3239 58.5522 46.3239C58.234 46.3239 57.9499 46.3906 57.6999 46.5241C57.4528 46.6548 57.2567 46.8366 57.1119 47.0696C56.9698 47.2997 56.8988 47.5625 56.8988 47.858V52H55.8931ZM62.8178 52.1364C62.2269 52.1364 61.7085 51.9957 61.2624 51.7145C60.8192 51.4332 60.4727 51.0398 60.2227 50.5341C59.9755 50.0284 59.8519 49.4375 59.8519 48.7614C59.8519 48.0795 59.9755 47.4844 60.2227 46.9759C60.4727 46.4673 60.8192 46.0724 61.2624 45.7912C61.7085 45.5099 62.2269 45.3693 62.8178 45.3693C63.4087 45.3693 63.9258 45.5099 64.369 45.7912C64.815 46.0724 65.1616 46.4673 65.4087 46.9759C65.6587 47.4844 65.7837 48.0795 65.7837 48.7614C65.7837 49.4375 65.6587 50.0284 65.4087 50.5341C65.1616 51.0398 64.815 51.4332 64.369 51.7145C63.9258 51.9957 63.4087 52.1364 62.8178 52.1364ZM62.8178 51.233C63.2667 51.233 63.636 51.1179 63.9258 50.8878C64.2156 50.6577 64.43 50.3551 64.5692 49.9801C64.7085 49.6051 64.7781 49.1989 64.7781 48.7614C64.7781 48.3239 64.7085 47.9162 64.5692 47.5384C64.43 47.1605 64.2156 46.8551 63.9258 46.6222C63.636 46.3892 63.2667 46.2727 62.8178 46.2727C62.369 46.2727 61.9996 46.3892 61.7099 46.6222C61.4201 46.8551 61.2056 47.1605 61.0664 47.5384C60.9272 47.9162 60.8576 48.3239 60.8576 48.7614C60.8576 49.1989 60.9272 49.6051 61.0664 49.9801C61.2056 50.3551 61.4201 50.6577 61.7099 50.8878C61.9996 51.1179 62.369 51.233 62.8178 51.233ZM67.3189 52V45.4545H68.2905V46.4773H68.3757C68.5121 46.1278 68.7322 45.8565 69.0362 45.6634C69.3402 45.4673 69.7053 45.3693 70.1314 45.3693C70.5632 45.3693 70.9226 45.4673 71.2095 45.6634C71.4993 45.8565 71.7251 46.1278 71.8871 46.4773H71.9553C72.1229 46.1392 72.3743 45.8707 72.7095 45.6719C73.0447 45.4702 73.4467 45.3693 73.9155 45.3693C74.5007 45.3693 74.9794 45.5526 75.3516 45.919C75.7237 46.2827 75.9098 46.8494 75.9098 47.6193V52H74.9041V47.6193C74.9041 47.1364 74.772 46.7912 74.5078 46.5838C74.2436 46.3764 73.9325 46.2727 73.5746 46.2727C73.1143 46.2727 72.7578 46.4119 72.505 46.6903C72.2521 46.9659 72.1257 47.3153 72.1257 47.7386V52H71.103V47.517C71.103 47.1449 70.9822 46.8452 70.7408 46.6179C70.4993 46.3878 70.1882 46.2727 69.8075 46.2727C69.5462 46.2727 69.3018 46.3423 69.0746 46.4815C68.8501 46.6207 68.6683 46.8139 68.5291 47.0611C68.3928 47.3054 68.3246 47.5881 68.3246 47.9091V52H67.3189Z" fill="#888EA5"/>
<rect x="84" y="34" width="156.11" height="28" rx="4" fill="#B9BCCD" fill-opacity="0.16"/>
<path d="M98.483 47.0739L97.429 47.3722C97.3627 47.1965 97.2649 47.0258 97.1357 46.8601C97.0097 46.6911 96.8374 46.5518 96.6186 46.4425C96.3999 46.3331 96.1198 46.2784 95.7784 46.2784C95.3111 46.2784 94.9216 46.3861 94.6101 46.6016C94.3018 46.8137 94.1477 47.0838 94.1477 47.4119C94.1477 47.7036 94.2538 47.9339 94.4659 48.103C94.678 48.272 95.0095 48.4129 95.4602 48.5256L96.5938 48.804C97.2765 48.9697 97.7853 49.2232 98.12 49.5646C98.4548 49.9027 98.6222 50.3385 98.6222 50.8722C98.6222 51.3097 98.4962 51.7008 98.2443 52.0455C97.9957 52.3902 97.6477 52.6619 97.2003 52.8608C96.7528 53.0597 96.2325 53.1591 95.6392 53.1591C94.8603 53.1591 94.2157 52.9901 93.7053 52.652C93.1948 52.3139 92.8717 51.8201 92.7358 51.1705L93.8494 50.892C93.9555 51.303 94.156 51.6113 94.451 51.8168C94.7493 52.0223 95.1387 52.125 95.6193 52.125C96.1662 52.125 96.6004 52.009 96.9219 51.777C97.2467 51.5417 97.4091 51.2599 97.4091 50.9318C97.4091 50.6667 97.3163 50.4446 97.1307 50.2656C96.9451 50.0833 96.66 49.9474 96.2756 49.858L95.0028 49.5597C94.3035 49.3939 93.7898 49.1371 93.4616 48.7891C93.1368 48.4377 92.9744 47.9986 92.9744 47.4716C92.9744 47.0407 93.0954 46.6596 93.3374 46.3281C93.5826 45.9967 93.9157 45.7365 94.3366 45.5476C94.7609 45.3587 95.2415 45.2642 95.7784 45.2642C96.5341 45.2642 97.1274 45.4299 97.5582 45.7614C97.9924 46.0928 98.3007 46.5303 98.483 47.0739ZM105.201 49.8778V45.3636H106.374V53H105.201V51.7074H105.121C104.942 52.0952 104.664 52.425 104.286 52.6967C103.908 52.9652 103.431 53.0994 102.854 53.0994C102.377 53.0994 101.953 52.995 101.581 52.7862C101.21 52.5741 100.919 52.2559 100.706 51.8317C100.494 51.4041 100.388 50.8655 100.388 50.2159V45.3636H101.562V50.1364C101.562 50.6932 101.717 51.1373 102.029 51.4688C102.344 51.8002 102.745 51.9659 103.232 51.9659C103.524 51.9659 103.82 51.8913 104.122 51.7422C104.427 51.593 104.682 51.3643 104.888 51.0561C105.096 50.7479 105.201 50.3551 105.201 49.8778ZM108.523 55.8636V45.3636H109.657V46.5767H109.796C109.882 46.4441 110.001 46.2751 110.154 46.0696C110.31 45.8608 110.532 45.6752 110.82 45.5128C111.112 45.3471 111.506 45.2642 112.003 45.2642C112.646 45.2642 113.213 45.425 113.703 45.7464C114.194 46.0679 114.577 46.5237 114.852 47.1136C115.127 47.7036 115.265 48.3996 115.265 49.2017C115.265 50.0104 115.127 50.7114 114.852 51.3047C114.577 51.8946 114.196 52.352 113.708 52.6768C113.221 52.9983 112.659 53.1591 112.023 53.1591C111.533 53.1591 111.14 53.0779 110.845 52.9155C110.55 52.7498 110.323 52.5625 110.164 52.3537C110.005 52.1416 109.882 51.9659 109.796 51.8267H109.696V55.8636H108.523ZM109.676 49.1818C109.676 49.7585 109.761 50.2673 109.93 50.7081C110.099 51.1456 110.346 51.4886 110.671 51.7372C110.996 51.9825 111.393 52.1051 111.864 52.1051C112.355 52.1051 112.764 51.9759 113.092 51.7173C113.423 51.4555 113.672 51.1042 113.838 50.6634C114.007 50.2192 114.091 49.7254 114.091 49.1818C114.091 48.6449 114.008 48.161 113.843 47.7301C113.68 47.2959 113.433 46.9529 113.102 46.701C112.774 46.4458 112.361 46.3182 111.864 46.3182C111.387 46.3182 110.986 46.4392 110.661 46.6811C110.336 46.9197 110.091 47.2545 109.925 47.6854C109.759 48.1129 109.676 48.6117 109.676 49.1818ZM117.054 55.8636V45.3636H118.188V46.5767H118.327C118.413 46.4441 118.533 46.2751 118.685 46.0696C118.841 45.8608 119.063 45.6752 119.351 45.5128C119.643 45.3471 120.037 45.2642 120.534 45.2642C121.177 45.2642 121.744 45.425 122.235 45.7464C122.725 46.0679 123.108 46.5237 123.383 47.1136C123.658 47.7036 123.796 48.3996 123.796 49.2017C123.796 50.0104 123.658 50.7114 123.383 51.3047C123.108 51.8946 122.727 52.352 122.24 52.6768C121.752 52.9983 121.191 53.1591 120.554 53.1591C120.064 53.1591 119.671 53.0779 119.376 52.9155C119.081 52.7498 118.854 52.5625 118.695 52.3537C118.536 52.1416 118.413 51.9659 118.327 51.8267H118.228V55.8636H117.054ZM118.208 49.1818C118.208 49.7585 118.292 50.2673 118.461 50.7081C118.63 51.1456 118.877 51.4886 119.202 51.7372C119.527 51.9825 119.925 52.1051 120.395 52.1051C120.886 52.1051 121.295 51.9759 121.623 51.7173C121.955 51.4555 122.203 51.1042 122.369 50.6634C122.538 50.2192 122.623 49.7254 122.623 49.1818C122.623 48.6449 122.54 48.161 122.374 47.7301C122.212 47.2959 121.965 46.9529 121.633 46.701C121.305 46.4458 120.892 46.3182 120.395 46.3182C119.918 46.3182 119.517 46.4392 119.192 46.6811C118.867 46.9197 118.622 47.2545 118.456 47.6854C118.291 48.1129 118.208 48.6117 118.208 49.1818ZM128.688 53.1591C127.998 53.1591 127.394 52.995 126.873 52.6669C126.356 52.3388 125.952 51.8797 125.66 51.2898C125.372 50.6998 125.228 50.0104 125.228 49.2216C125.228 48.4261 125.372 47.7318 125.66 47.1385C125.952 46.5452 126.356 46.0845 126.873 45.7564C127.394 45.4283 127.998 45.2642 128.688 45.2642C129.377 45.2642 129.98 45.4283 130.498 45.7564C131.018 46.0845 131.422 46.5452 131.711 47.1385C132.002 47.7318 132.148 48.4261 132.148 49.2216C132.148 50.0104 132.002 50.6998 131.711 51.2898C131.422 51.8797 131.018 52.3388 130.498 52.6669C129.98 52.995 129.377 53.1591 128.688 53.1591ZM128.688 52.1051C129.212 52.1051 129.642 51.9709 129.98 51.7024C130.319 51.4339 130.569 51.081 130.731 50.6435C130.894 50.206 130.975 49.732 130.975 49.2216C130.975 48.7112 130.894 48.2356 130.731 47.7947C130.569 47.3539 130.319 46.9976 129.98 46.7259C129.642 46.4541 129.212 46.3182 128.688 46.3182C128.164 46.3182 127.733 46.4541 127.395 46.7259C127.057 46.9976 126.807 47.3539 126.645 47.7947C126.482 48.2356 126.401 48.7112 126.401 49.2216C126.401 49.732 126.482 50.206 126.645 50.6435C126.807 51.081 127.057 51.4339 127.395 51.7024C127.733 51.9709 128.164 52.1051 128.688 52.1051ZM133.939 53V45.3636H135.073V46.517H135.152C135.291 46.1392 135.543 45.8326 135.908 45.5973C136.272 45.362 136.683 45.2443 137.141 45.2443C137.227 45.2443 137.335 45.246 137.464 45.2493C137.593 45.2526 137.691 45.2576 137.757 45.2642V46.4574C137.718 46.4474 137.626 46.4325 137.484 46.4126C137.345 46.3894 137.197 46.3778 137.041 46.3778C136.67 46.3778 136.339 46.4557 136.047 46.6115C135.759 46.764 135.53 46.9761 135.361 47.2479C135.195 47.5163 135.112 47.8229 135.112 48.1676V53H133.939ZM142.948 45.3636V46.358H138.99V45.3636H142.948ZM140.144 43.5341H141.317V50.8125C141.317 51.1439 141.365 51.3925 141.461 51.5582C141.561 51.7206 141.686 51.83 141.839 51.8864C141.995 51.9394 142.159 51.9659 142.331 51.9659C142.46 51.9659 142.566 51.9593 142.649 51.946C142.732 51.9295 142.798 51.9162 142.848 51.9062L143.087 52.9602C143.007 52.9901 142.896 53.0199 142.754 53.0497C142.611 53.0829 142.431 53.0994 142.212 53.0994C141.88 53.0994 141.556 53.0282 141.237 52.8857C140.923 52.7431 140.661 52.526 140.452 52.2344C140.246 51.9427 140.144 51.5748 140.144 51.1307V43.5341ZM150.579 55.6847C149.565 55.6847 148.668 55.5455 147.889 55.267C147.11 54.992 146.456 54.5859 145.926 54.049C145.395 53.5121 144.994 52.8542 144.722 52.0753C144.451 51.2964 144.315 50.4048 144.315 49.4006C144.315 48.4295 144.452 47.5611 144.727 46.7955C145.006 46.0298 145.409 45.3802 145.936 44.8466C146.466 44.3097 147.109 43.9003 147.865 43.6186C148.624 43.3369 149.482 43.196 150.44 43.196C151.371 43.196 152.186 43.3485 152.886 43.6534C153.588 43.955 154.175 44.3643 154.646 44.8814C155.12 45.3951 155.474 45.9735 155.71 46.6165C155.948 47.2595 156.068 47.9223 156.068 48.6051C156.068 49.0857 156.044 49.5729 155.998 50.0668C155.952 50.5606 155.854 51.0147 155.705 51.429C155.556 51.84 155.325 52.1714 155.014 52.4233C154.705 52.6752 154.288 52.8011 153.761 52.8011C153.529 52.8011 153.274 52.7647 152.995 52.6918C152.717 52.6188 152.47 52.4979 152.254 52.3288C152.039 52.1598 151.911 51.9328 151.872 51.6477H151.812C151.732 51.84 151.61 52.0223 151.444 52.1946C151.282 52.367 151.068 52.5045 150.803 52.6072C150.541 52.71 150.221 52.7547 149.843 52.7415C149.412 52.7249 149.033 52.6288 148.705 52.4531C148.377 52.2741 148.102 52.0322 147.879 51.7273C147.661 51.419 147.495 51.0627 147.382 50.6584C147.273 50.2507 147.218 49.8116 147.218 49.3409C147.218 48.8935 147.285 48.4841 147.417 48.1129C147.55 47.7417 147.734 47.4169 147.969 47.1385C148.208 46.8601 148.486 46.638 148.804 46.4723C149.126 46.3033 149.472 46.1989 149.843 46.1591C150.175 46.1259 150.476 46.1409 150.748 46.2038C151.02 46.2635 151.244 46.3546 151.419 46.4773C151.595 46.5966 151.706 46.7292 151.752 46.875H151.812V46.3182H152.866V50.8125C152.866 51.0909 152.944 51.3362 153.1 51.5483C153.255 51.7604 153.482 51.8665 153.781 51.8665C154.119 51.8665 154.377 51.7505 154.556 51.5185C154.739 51.2865 154.863 50.9285 154.929 50.4446C154.999 49.9607 155.034 49.3409 155.034 48.5852C155.034 48.1411 154.972 47.7036 154.85 47.2727C154.73 46.8385 154.548 46.4325 154.303 46.0547C154.061 45.6768 153.754 45.3437 153.383 45.0554C153.012 44.767 152.576 44.5417 152.075 44.3793C151.578 44.2135 151.013 44.1307 150.38 44.1307C149.601 44.1307 148.904 44.2517 148.287 44.4936C147.674 44.7322 147.152 45.0819 146.721 45.5426C146.294 46 145.967 46.5568 145.742 47.2131C145.52 47.866 145.409 48.6084 145.409 49.4403C145.409 50.2855 145.52 51.0362 145.742 51.6925C145.967 52.3487 146.298 52.9022 146.736 53.353C147.177 53.8037 147.722 54.1451 148.372 54.3771C149.021 54.6125 149.77 54.7301 150.619 54.7301C150.983 54.7301 151.343 54.6953 151.698 54.6257C152.052 54.5561 152.365 54.4799 152.637 54.397C152.909 54.3142 153.105 54.2528 153.224 54.2131L153.502 55.1278C153.297 55.214 153.028 55.3002 152.697 55.3864C152.369 55.4725 152.017 55.5438 151.643 55.6001C151.272 55.6565 150.917 55.6847 150.579 55.6847ZM150.002 51.7273C150.446 51.7273 150.806 51.6378 151.081 51.4588C151.356 51.2798 151.557 51.0097 151.683 50.6484C151.809 50.2872 151.872 49.8314 151.872 49.2812C151.872 48.7244 151.802 48.2902 151.663 47.9787C151.524 47.6671 151.318 47.4484 151.046 47.3224C150.775 47.1965 150.44 47.1335 150.042 47.1335C149.664 47.1335 149.341 47.233 149.073 47.4318C148.807 47.6274 148.604 47.8892 148.461 48.2173C148.322 48.5421 148.252 48.8968 148.252 49.2812C148.252 49.7055 148.309 50.1049 148.421 50.4794C148.534 50.8506 148.718 51.1522 148.973 51.3842C149.228 51.6129 149.571 51.7273 150.002 51.7273ZM160.071 53.179C159.587 53.179 159.148 53.0878 158.754 52.9055C158.359 52.7199 158.046 52.4531 157.814 52.1051C157.582 51.7538 157.466 51.3295 157.466 50.8324C157.466 50.3949 157.552 50.0402 157.724 49.7685C157.897 49.4934 158.127 49.2779 158.415 49.1222C158.704 48.9664 159.022 48.8504 159.37 48.7741C159.721 48.6946 160.074 48.6316 160.429 48.5852C160.893 48.5256 161.269 48.4808 161.558 48.451C161.849 48.4179 162.061 48.3632 162.194 48.2869C162.33 48.2107 162.398 48.0781 162.398 47.8892V47.8494C162.398 47.3589 162.263 46.9777 161.995 46.706C161.73 46.4342 161.327 46.2983 160.787 46.2983C160.227 46.2983 159.788 46.4209 159.469 46.6662C159.151 46.9115 158.928 47.1733 158.798 47.4517L157.685 47.054C157.884 46.59 158.149 46.2287 158.48 45.9702C158.815 45.7083 159.179 45.526 159.574 45.4233C159.972 45.3172 160.363 45.2642 160.747 45.2642C160.992 45.2642 161.274 45.294 161.592 45.3537C161.914 45.41 162.224 45.5277 162.522 45.7067C162.824 45.8857 163.074 46.1558 163.273 46.517C163.472 46.8783 163.571 47.3622 163.571 47.9688V53H162.398V51.9659H162.338C162.259 52.1316 162.126 52.3089 161.94 52.4979C161.755 52.6868 161.508 52.8475 161.2 52.9801C160.891 53.1127 160.515 53.179 160.071 53.179ZM160.25 52.125C160.714 52.125 161.105 52.0339 161.423 51.8516C161.745 51.6693 161.987 51.4339 162.149 51.1456C162.315 50.8572 162.398 50.554 162.398 50.2358V49.1619C162.348 49.2216 162.239 49.2763 162.07 49.326C161.904 49.3724 161.712 49.4138 161.493 49.4503C161.277 49.4834 161.067 49.5133 160.862 49.5398C160.659 49.563 160.495 49.5829 160.369 49.5994C160.064 49.6392 159.779 49.7038 159.514 49.7933C159.252 49.8795 159.04 50.0104 158.878 50.1861C158.719 50.3584 158.639 50.5937 158.639 50.892C158.639 51.2997 158.79 51.608 159.092 51.8168C159.397 52.0223 159.783 52.125 160.25 52.125ZM169.034 45.3636V46.358H165.076V45.3636H169.034ZM166.23 43.5341H167.403V50.8125C167.403 51.1439 167.451 51.3925 167.547 51.5582C167.646 51.7206 167.772 51.83 167.925 51.8864C168.081 51.9394 168.245 51.9659 168.417 51.9659C168.546 51.9659 168.652 51.9593 168.735 51.946C168.818 51.9295 168.884 51.9162 168.934 51.9062L169.173 52.9602C169.093 52.9901 168.982 53.0199 168.84 53.0497C168.697 53.0829 168.517 53.0994 168.298 53.0994C167.966 53.0994 167.642 53.0282 167.323 52.8857C167.008 52.7431 166.747 52.526 166.538 52.2344C166.332 51.9427 166.23 51.5748 166.23 51.1307V43.5341ZM170.798 53V45.3636H171.932V46.517H172.012C172.151 46.1392 172.403 45.8326 172.767 45.5973C173.132 45.362 173.543 45.2443 174 45.2443C174.086 45.2443 174.194 45.246 174.323 45.2493C174.453 45.2526 174.55 45.2576 174.617 45.2642V46.4574C174.577 46.4474 174.486 46.4325 174.343 46.4126C174.204 46.3894 174.057 46.3778 173.901 46.3778C173.53 46.3778 173.198 46.4557 172.906 46.6115C172.618 46.764 172.389 46.9761 172.22 47.2479C172.055 47.5163 171.972 47.8229 171.972 48.1676V53H170.798ZM176.007 53V45.3636H177.181V53H176.007ZM176.604 44.0909C176.375 44.0909 176.178 44.013 176.012 43.8572C175.85 43.7015 175.769 43.5142 175.769 43.2955C175.769 43.0767 175.85 42.8894 176.012 42.7337C176.178 42.5779 176.375 42.5 176.604 42.5C176.833 42.5 177.028 42.5779 177.191 42.7337C177.356 42.8894 177.439 43.0767 177.439 43.2955C177.439 43.5142 177.356 43.7015 177.191 43.8572C177.028 44.013 176.833 44.0909 176.604 44.0909ZM184.142 49.8778V45.3636H185.316V53H184.142V51.7074H184.063C183.884 52.0952 183.605 52.425 183.227 52.6967C182.85 52.9652 182.372 53.0994 181.796 53.0994C181.318 53.0994 180.894 52.995 180.523 52.7862C180.152 52.5741 179.86 52.2559 179.648 51.8317C179.436 51.4041 179.33 50.8655 179.33 50.2159V45.3636H180.503V50.1364C180.503 50.6932 180.659 51.1373 180.97 51.4688C181.285 51.8002 181.686 51.9659 182.173 51.9659C182.465 51.9659 182.762 51.8913 183.063 51.7422C183.368 51.593 183.624 51.3643 183.829 51.0561C184.038 50.7479 184.142 50.3551 184.142 49.8778ZM187.464 53V45.3636H188.598V46.5568H188.697C188.857 46.1491 189.113 45.8326 189.468 45.6072C189.823 45.3786 190.249 45.2642 190.746 45.2642C191.25 45.2642 191.669 45.3786 192.004 45.6072C192.342 45.8326 192.605 46.1491 192.794 46.5568H192.874C193.069 46.1624 193.362 45.8492 193.754 45.6172C194.145 45.3819 194.614 45.2642 195.161 45.2642C195.843 45.2642 196.402 45.478 196.836 45.9055C197.27 46.3298 197.487 46.991 197.487 47.8892V53H196.314V47.8892C196.314 47.3258 196.16 46.9231 195.852 46.6811C195.543 46.4392 195.18 46.3182 194.763 46.3182C194.226 46.3182 193.81 46.4806 193.515 46.8054C193.22 47.1269 193.072 47.5346 193.072 48.0284V53H191.879V47.7699C191.879 47.3357 191.738 46.986 191.457 46.7209C191.175 46.4524 190.812 46.3182 190.368 46.3182C190.063 46.3182 189.778 46.3994 189.513 46.5618C189.251 46.7242 189.039 46.9496 188.876 47.2379C188.717 47.523 188.638 47.8527 188.638 48.2273V53H187.464ZM200.488 53.0795C200.242 53.0795 200.032 52.9917 199.856 52.8161C199.681 52.6404 199.593 52.4299 199.593 52.1847C199.593 51.9394 199.681 51.7289 199.856 51.5533C200.032 51.3776 200.242 51.2898 200.488 51.2898C200.733 51.2898 200.943 51.3776 201.119 51.5533C201.295 51.7289 201.382 51.9394 201.382 52.1847C201.382 52.3471 201.341 52.4962 201.258 52.6321C201.179 52.768 201.071 52.8774 200.935 52.9602C200.802 53.0398 200.653 53.0795 200.488 53.0795ZM208.897 47.0739L207.843 47.3722C207.777 47.1965 207.679 47.0258 207.55 46.8601C207.424 46.6911 207.251 46.5518 207.033 46.4425C206.814 46.3331 206.534 46.2784 206.192 46.2784C205.725 46.2784 205.336 46.3861 205.024 46.6016C204.716 46.8137 204.562 47.0838 204.562 47.4119C204.562 47.7036 204.668 47.9339 204.88 48.103C205.092 48.272 205.424 48.4129 205.874 48.5256L207.008 48.804C207.691 48.9697 208.199 49.2232 208.534 49.5646C208.869 49.9027 209.036 50.3385 209.036 50.8722C209.036 51.3097 208.91 51.7008 208.658 52.0455C208.41 52.3902 208.062 52.6619 207.614 52.8608C207.167 53.0597 206.647 53.1591 206.053 53.1591C205.274 53.1591 204.63 52.9901 204.119 52.652C203.609 52.3139 203.286 51.8201 203.15 51.1705L204.263 50.892C204.37 51.303 204.57 51.6113 204.865 51.8168C205.163 52.0223 205.553 52.125 206.033 52.125C206.58 52.125 207.014 52.009 207.336 51.777C207.661 51.5417 207.823 51.2599 207.823 50.9318C207.823 50.6667 207.73 50.4446 207.545 50.2656C207.359 50.0833 207.074 49.9474 206.69 49.858L205.417 49.5597C204.718 49.3939 204.204 49.1371 203.876 48.7891C203.551 48.4377 203.388 47.9986 203.388 47.4716C203.388 47.0407 203.509 46.6596 203.751 46.3281C203.997 45.9967 204.33 45.7365 204.751 45.5476C205.175 45.3587 205.656 45.2642 206.192 45.2642C206.948 45.2642 207.541 45.4299 207.972 45.7614C208.406 46.0928 208.715 46.5303 208.897 47.0739ZM213.905 53.1591C213.215 53.1591 212.61 52.995 212.09 52.6669C211.573 52.3388 211.169 51.8797 210.877 51.2898C210.589 50.6998 210.444 50.0104 210.444 49.2216C210.444 48.4261 210.589 47.7318 210.877 47.1385C211.169 46.5452 211.573 46.0845 212.09 45.7564C212.61 45.4283 213.215 45.2642 213.905 45.2642C214.594 45.2642 215.197 45.4283 215.714 45.7564C216.235 46.0845 216.639 46.5452 216.927 47.1385C217.219 47.7318 217.365 48.4261 217.365 49.2216C217.365 50.0104 217.219 50.6998 216.927 51.2898C216.639 51.8797 216.235 52.3388 215.714 52.6669C215.197 52.995 214.594 53.1591 213.905 53.1591ZM213.905 52.1051C214.428 52.1051 214.859 51.9709 215.197 51.7024C215.535 51.4339 215.786 51.081 215.948 50.6435C216.11 50.206 216.192 49.732 216.192 49.2216C216.192 48.7112 216.11 48.2356 215.948 47.7947C215.786 47.3539 215.535 46.9976 215.197 46.7259C214.859 46.4541 214.428 46.3182 213.905 46.3182C213.381 46.3182 212.95 46.4541 212.612 46.7259C212.274 46.9976 212.024 47.3539 211.861 47.7947C211.699 48.2356 211.618 48.7112 211.618 49.2216C211.618 49.732 211.699 50.206 211.861 50.6435C212.024 51.081 212.274 51.4339 212.612 51.7024C212.95 51.9709 213.381 52.1051 213.905 52.1051Z" fill="#161A26"/>
<g clip-path="url(#clip0_58_1505)">
<g clip-path="url(#clip1_58_1505)">
<g clip-path="url(#clip2_58_1505)">
<path d="M228.585 49.725L226.635 47.775C226.397 47.5375 226.344 47.2656 226.476 46.9594C226.607 46.6531 226.841 46.5 227.179 46.5H231.041C231.379 46.5 231.613 46.6531 231.744 46.9594C231.876 47.2656 231.822 47.5375 231.585 47.775L229.635 49.725C229.56 49.8 229.479 49.8563 229.391 49.8937C229.304 49.9312 229.21 49.95 229.11 49.95C229.01 49.95 228.916 49.9312 228.829 49.8937C228.741 49.8563 228.66 49.8 228.585 49.725Z" fill="#888EA5"/>
</g>
</g>
</g>
<path d="M48.5795 76.2102V75.2727H55.125V76.2102H52.3807V84H51.3239V76.2102H48.5795ZM58.3295 84.1364C57.7386 84.1364 57.2202 83.9957 56.7741 83.7145C56.331 83.4332 55.9844 83.0398 55.7344 82.5341C55.4872 82.0284 55.3636 81.4375 55.3636 80.7614C55.3636 80.0795 55.4872 79.4844 55.7344 78.9759C55.9844 78.4673 56.331 78.0724 56.7741 77.7912C57.2202 77.5099 57.7386 77.3693 58.3295 77.3693C58.9205 77.3693 59.4375 77.5099 59.8807 77.7912C60.3267 78.0724 60.6733 78.4673 60.9205 78.9759C61.1705 79.4844 61.2955 80.0795 61.2955 80.7614C61.2955 81.4375 61.1705 82.0284 60.9205 82.5341C60.6733 83.0398 60.3267 83.4332 59.8807 83.7145C59.4375 83.9957 58.9205 84.1364 58.3295 84.1364ZM58.3295 83.233C58.7784 83.233 59.1477 83.1179 59.4375 82.8878C59.7273 82.6577 59.9418 82.3551 60.081 81.9801C60.2202 81.6051 60.2898 81.1989 60.2898 80.7614C60.2898 80.3239 60.2202 79.9162 60.081 79.5384C59.9418 79.1605 59.7273 78.8551 59.4375 78.6222C59.1477 78.3892 58.7784 78.2727 58.3295 78.2727C57.8807 78.2727 57.5114 78.3892 57.2216 78.6222C56.9318 78.8551 56.7173 79.1605 56.5781 79.5384C56.4389 79.9162 56.3693 80.3239 56.3693 80.7614C56.3693 81.1989 56.4389 81.6051 56.5781 81.9801C56.7173 82.3551 56.9318 82.6577 57.2216 82.8878C57.5114 83.1179 57.8807 83.233 58.3295 83.233Z" fill="#888EA5"/>
<path d="M95.321 85.179C94.8371 85.179 94.398 85.0878 94.0036 84.9055C93.6091 84.7199 93.2959 84.4531 93.0639 84.1051C92.8319 83.7538 92.7159 83.3295 92.7159 82.8324C92.7159 82.3949 92.8021 82.0402 92.9744 81.7685C93.1468 81.4934 93.3771 81.2779 93.6655 81.1222C93.9538 80.9664 94.272 80.8504 94.62 80.7741C94.9714 80.6946 95.3243 80.6316 95.679 80.5852C96.143 80.5256 96.5192 80.4808 96.8075 80.451C97.0992 80.4179 97.3113 80.3632 97.4439 80.2869C97.5798 80.2107 97.6477 80.0781 97.6477 79.8892V79.8494C97.6477 79.3589 97.5135 78.9777 97.245 78.706C96.9799 78.4342 96.5772 78.2983 96.0369 78.2983C95.4768 78.2983 95.0376 78.4209 94.7195 78.6662C94.4013 78.9115 94.1776 79.1733 94.0483 79.4517L92.9347 79.054C93.1335 78.59 93.3987 78.2287 93.7301 77.9702C94.0649 77.7083 94.4295 77.526 94.8239 77.4233C95.2216 77.3172 95.6127 77.2642 95.9972 77.2642C96.2424 77.2642 96.5241 77.294 96.8423 77.3537C97.1638 77.41 97.4737 77.5277 97.772 77.7067C98.0736 77.8857 98.3239 78.1558 98.5227 78.517C98.7216 78.8783 98.821 79.3622 98.821 79.9688V85H97.6477V83.9659H97.5881C97.5085 84.1316 97.3759 84.3089 97.1903 84.4979C97.0047 84.6868 96.7578 84.8475 96.4496 84.9801C96.1413 85.1127 95.7652 85.179 95.321 85.179ZM95.5 84.125C95.964 84.125 96.3551 84.0339 96.6733 83.8516C96.9948 83.6693 97.2367 83.4339 97.3991 83.1456C97.5649 82.8572 97.6477 82.554 97.6477 82.2358V81.1619C97.598 81.2216 97.4886 81.2763 97.3196 81.326C97.1539 81.3724 96.9616 81.4138 96.7429 81.4503C96.5275 81.4834 96.317 81.5133 96.1115 81.5398C95.9093 81.563 95.7453 81.5829 95.6193 81.5994C95.3144 81.6392 95.0294 81.7038 94.7642 81.7933C94.5024 81.8795 94.2902 82.0104 94.1278 82.1861C93.9688 82.3584 93.8892 82.5937 93.8892 82.892C93.8892 83.2997 94.04 83.608 94.3416 83.8168C94.6465 84.0223 95.0327 84.125 95.5 84.125ZM102.136 80.4062V85H100.963V77.3636H102.096V78.5568H102.195C102.374 78.169 102.646 77.8575 103.011 77.6222C103.375 77.3835 103.846 77.2642 104.423 77.2642C104.94 77.2642 105.392 77.3703 105.78 77.5824C106.168 77.7912 106.469 78.1094 106.685 78.5369C106.9 78.9612 107.008 79.4981 107.008 80.1477V85H105.835V80.2273C105.835 79.6274 105.679 79.16 105.367 78.8253C105.056 78.4872 104.628 78.3182 104.085 78.3182C103.71 78.3182 103.375 78.3994 103.08 78.5618C102.789 78.7242 102.558 78.9612 102.389 79.2727C102.22 79.5843 102.136 79.9621 102.136 80.4062ZM110.325 80.4062V85H109.152V77.3636H110.286V78.5568H110.385C110.564 78.169 110.836 77.8575 111.2 77.6222C111.565 77.3835 112.036 77.2642 112.612 77.2642C113.129 77.2642 113.582 77.3703 113.969 77.5824C114.357 77.7912 114.659 78.1094 114.874 78.5369C115.09 78.9612 115.197 79.4981 115.197 80.1477V85H114.024V80.2273C114.024 79.6274 113.868 79.16 113.557 78.8253C113.245 78.4872 112.818 78.3182 112.274 78.3182C111.9 78.3182 111.565 78.3994 111.27 78.5618C110.978 78.7242 110.748 78.9612 110.579 79.2727C110.41 79.5843 110.325 79.9621 110.325 80.4062ZM117.341 85V77.3636H118.515V85H117.341ZM117.938 76.0909C117.709 76.0909 117.512 76.013 117.346 75.8572C117.184 75.7015 117.103 75.5142 117.103 75.2955C117.103 75.0767 117.184 74.8894 117.346 74.7337C117.512 74.5779 117.709 74.5 117.938 74.5C118.167 74.5 118.362 74.5779 118.525 74.7337C118.69 74.8894 118.773 75.0767 118.773 75.2955C118.773 75.5142 118.69 75.7015 118.525 75.8572C118.362 76.013 118.167 76.0909 117.938 76.0909ZM123.865 85.1591C123.13 85.1591 122.495 84.9967 121.961 84.6719C121.431 84.3438 121.022 83.8864 120.733 83.2997C120.448 82.7098 120.306 82.0237 120.306 81.2415C120.306 80.4593 120.448 79.7699 120.733 79.1733C121.022 78.5734 121.423 78.1061 121.936 77.7713C122.453 77.4332 123.057 77.2642 123.746 77.2642C124.144 77.2642 124.537 77.3305 124.924 77.4631C125.312 77.5956 125.665 77.8111 125.983 78.1094C126.301 78.4044 126.555 78.7955 126.744 79.2827C126.933 79.7699 127.027 80.3698 127.027 81.0824V81.5795H121.141V80.5653H125.834C125.834 80.1345 125.748 79.75 125.576 79.4119C125.407 79.0739 125.165 78.8071 124.85 78.6115C124.538 78.416 124.17 78.3182 123.746 78.3182C123.279 78.3182 122.874 78.4342 122.533 78.6662C122.195 78.8949 121.935 79.1932 121.752 79.5611C121.57 79.929 121.479 80.3234 121.479 80.7443V81.4205C121.479 81.9972 121.578 82.486 121.777 82.8871C121.98 83.2848 122.26 83.5881 122.618 83.7969C122.975 84.0024 123.391 84.1051 123.865 84.1051C124.174 84.1051 124.452 84.062 124.701 83.9759C124.953 83.8864 125.17 83.7538 125.352 83.5781C125.534 83.3991 125.675 83.1771 125.775 82.9119L126.908 83.2301C126.789 83.6146 126.588 83.9527 126.306 84.2443C126.025 84.5327 125.677 84.758 125.262 84.9205C124.848 85.0795 124.382 85.1591 123.865 85.1591ZM134.679 87.6847C133.664 87.6847 132.768 87.5455 131.989 87.267C131.21 86.992 130.556 86.5859 130.025 86.049C129.495 85.5121 129.094 84.8542 128.822 84.0753C128.55 83.2964 128.414 82.4048 128.414 81.4006C128.414 80.4295 128.552 79.5611 128.827 78.7955C129.105 78.0298 129.508 77.3802 130.035 76.8466C130.565 76.3097 131.208 75.9003 131.964 75.6186C132.723 75.3369 133.582 75.196 134.539 75.196C135.471 75.196 136.286 75.3485 136.985 75.6534C137.688 75.955 138.275 76.3643 138.745 76.8814C139.219 77.3951 139.574 77.9735 139.809 78.6165C140.048 79.2595 140.167 79.9223 140.167 80.6051C140.167 81.0857 140.144 81.5729 140.098 82.0668C140.051 82.5606 139.953 83.0147 139.804 83.429C139.655 83.84 139.425 84.1714 139.113 84.4233C138.805 84.6752 138.387 84.8011 137.86 84.8011C137.628 84.8011 137.373 84.7647 137.095 84.6918C136.816 84.6188 136.569 84.4979 136.354 84.3288C136.139 84.1598 136.011 83.9328 135.971 83.6477H135.912C135.832 83.84 135.709 84.0223 135.544 84.1946C135.381 84.367 135.167 84.5045 134.902 84.6072C134.641 84.71 134.321 84.7547 133.943 84.7415C133.512 84.7249 133.132 84.6288 132.804 84.4531C132.476 84.2741 132.201 84.0322 131.979 83.7273C131.76 83.419 131.595 83.0627 131.482 82.6584C131.373 82.2507 131.318 81.8116 131.318 81.3409C131.318 80.8935 131.384 80.4841 131.517 80.1129C131.649 79.7417 131.833 79.4169 132.069 79.1385C132.307 78.8601 132.586 78.638 132.904 78.4723C133.225 78.3033 133.572 78.1989 133.943 78.1591C134.274 78.1259 134.576 78.1409 134.848 78.2038C135.119 78.2635 135.343 78.3546 135.519 78.4773C135.694 78.5966 135.806 78.7292 135.852 78.875H135.912V78.3182H136.966V82.8125C136.966 83.0909 137.043 83.3362 137.199 83.5483C137.355 83.7604 137.582 83.8665 137.88 83.8665C138.218 83.8665 138.477 83.7505 138.656 83.5185C138.838 83.2865 138.962 82.9285 139.029 82.4446C139.098 81.9607 139.133 81.3409 139.133 80.5852C139.133 80.1411 139.072 79.7036 138.949 79.2727C138.83 78.8385 138.648 78.4325 138.402 78.0547C138.16 77.6768 137.854 77.3437 137.483 77.0554C137.111 76.767 136.676 76.5417 136.175 76.3793C135.678 76.2135 135.113 76.1307 134.48 76.1307C133.701 76.1307 133.003 76.2517 132.387 76.4936C131.774 76.7322 131.252 77.0819 130.821 77.5426C130.393 78 130.067 78.5568 129.841 79.2131C129.619 79.866 129.508 80.6084 129.508 81.4403C129.508 82.2855 129.619 83.0362 129.841 83.6925C130.067 84.3487 130.398 84.9022 130.836 85.353C131.276 85.8037 131.822 86.1451 132.471 86.3771C133.121 86.6125 133.87 86.7301 134.718 86.7301C135.083 86.7301 135.443 86.6953 135.797 86.6257C136.152 86.5561 136.465 86.4799 136.737 86.397C137.009 86.3142 137.204 86.2528 137.324 86.2131L137.602 87.1278C137.396 87.214 137.128 87.3002 136.797 87.3864C136.468 87.4725 136.117 87.5438 135.743 87.6001C135.371 87.6565 135.017 87.6847 134.679 87.6847ZM134.102 83.7273C134.546 83.7273 134.906 83.6378 135.181 83.4588C135.456 83.2798 135.656 83.0097 135.782 82.6484C135.908 82.2872 135.971 81.8314 135.971 81.2812C135.971 80.7244 135.902 80.2902 135.762 79.9787C135.623 79.6671 135.418 79.4484 135.146 79.3224C134.874 79.1965 134.539 79.1335 134.142 79.1335C133.764 79.1335 133.441 79.233 133.172 79.4318C132.907 79.6274 132.703 79.8892 132.561 80.2173C132.422 80.5421 132.352 80.8968 132.352 81.2812C132.352 81.7055 132.408 82.1049 132.521 82.4794C132.634 82.8506 132.818 83.1522 133.073 83.3842C133.328 83.6129 133.671 83.7273 134.102 83.7273ZM145.006 88.0227C144.439 88.0227 143.952 87.9498 143.544 87.804C143.137 87.6615 142.797 87.4725 142.525 87.2372C142.257 87.0052 142.043 86.7566 141.884 86.4915L142.818 85.8352C142.924 85.9744 143.059 86.1335 143.221 86.3125C143.383 86.4948 143.606 86.6522 143.887 86.7848C144.172 86.9207 144.545 86.9886 145.006 86.9886C145.622 86.9886 146.131 86.8395 146.532 86.5412C146.933 86.2429 147.134 85.7756 147.134 85.1392V83.5881H147.034C146.948 83.7273 146.825 83.8996 146.666 84.1051C146.511 84.3073 146.285 84.4879 145.99 84.647C145.699 84.8028 145.304 84.8807 144.807 84.8807C144.191 84.8807 143.637 84.7348 143.146 84.4432C142.659 84.1515 142.273 83.7273 141.988 83.1705C141.706 82.6136 141.566 81.9375 141.566 81.142C141.566 80.3598 141.703 79.6787 141.978 79.0987C142.253 78.5154 142.636 78.0646 143.127 77.7464C143.617 77.425 144.184 77.2642 144.827 77.2642C145.324 77.2642 145.718 77.3471 146.01 77.5128C146.305 77.6752 146.53 77.8608 146.686 78.0696C146.845 78.2751 146.968 78.4441 147.054 78.5767H147.173V77.3636H148.307V85.2188C148.307 85.875 148.158 86.4086 147.86 86.8196C147.565 87.2339 147.167 87.5372 146.666 87.7294C146.169 87.925 145.616 88.0227 145.006 88.0227ZM144.966 83.8267C145.437 83.8267 145.834 83.719 146.159 83.5036C146.484 83.2881 146.731 82.9782 146.9 82.5739C147.069 82.1695 147.154 81.6856 147.154 81.1222C147.154 80.572 147.071 80.0864 146.905 79.6655C146.739 79.2446 146.494 78.9148 146.169 78.6761C145.844 78.4375 145.443 78.3182 144.966 78.3182C144.469 78.3182 144.055 78.4441 143.723 78.696C143.395 78.9479 143.148 79.286 142.982 79.7102C142.82 80.1345 142.739 80.6051 142.739 81.1222C142.739 81.6525 142.822 82.1214 142.987 82.5291C143.156 82.9335 143.405 83.2517 143.733 83.4837C144.065 83.7124 144.476 83.8267 144.966 83.8267ZM153.656 85.1591C152.921 85.1591 152.286 84.9967 151.752 84.6719C151.222 84.3438 150.813 83.8864 150.524 83.2997C150.239 82.7098 150.097 82.0237 150.097 81.2415C150.097 80.4593 150.239 79.7699 150.524 79.1733C150.813 78.5734 151.214 78.1061 151.727 77.7713C152.244 77.4332 152.848 77.2642 153.537 77.2642C153.935 77.2642 154.328 77.3305 154.715 77.4631C155.103 77.5956 155.456 77.8111 155.774 78.1094C156.093 78.4044 156.346 78.7955 156.535 79.2827C156.724 79.7699 156.818 80.3698 156.818 81.0824V81.5795H150.932V80.5653H155.625C155.625 80.1345 155.539 79.75 155.367 79.4119C155.198 79.0739 154.956 78.8071 154.641 78.6115C154.329 78.416 153.961 78.3182 153.537 78.3182C153.07 78.3182 152.665 78.4342 152.324 78.6662C151.986 78.8949 151.726 79.1932 151.544 79.5611C151.361 79.929 151.27 80.3234 151.27 80.7443V81.4205C151.27 81.9972 151.369 82.486 151.568 82.8871C151.771 83.2848 152.051 83.5881 152.409 83.7969C152.767 84.0024 153.182 84.1051 153.656 84.1051C153.965 84.1051 154.243 84.062 154.492 83.9759C154.744 83.8864 154.961 83.7538 155.143 83.5781C155.325 83.3991 155.466 83.1771 155.566 82.9119L156.699 83.2301C156.58 83.6146 156.379 83.9527 156.097 84.2443C155.816 84.5327 155.468 84.758 155.053 84.9205C154.639 85.0795 154.173 85.1591 153.656 85.1591ZM161.924 77.3636V78.358H157.967V77.3636H161.924ZM159.12 75.5341H160.294V82.8125C160.294 83.1439 160.342 83.3925 160.438 83.5582C160.537 83.7206 160.663 83.83 160.816 83.8864C160.971 83.9394 161.135 83.9659 161.308 83.9659C161.437 83.9659 161.543 83.9593 161.626 83.946C161.709 83.9295 161.775 83.9162 161.825 83.9062L162.063 84.9602C161.984 84.9901 161.873 85.0199 161.73 85.0497C161.588 85.0829 161.407 85.0994 161.188 85.0994C160.857 85.0994 160.532 85.0282 160.214 84.8857C159.899 84.7431 159.637 84.526 159.428 84.2344C159.223 83.9427 159.12 83.5748 159.12 83.1307V75.5341ZM163.689 85V77.3636H164.823V78.517H164.902C165.041 78.1392 165.293 77.8326 165.658 77.5973C166.022 77.362 166.433 77.2443 166.891 77.2443C166.977 77.2443 167.085 77.246 167.214 77.2493C167.343 77.2526 167.441 77.2576 167.507 77.2642V78.4574C167.468 78.4474 167.376 78.4325 167.234 78.4126C167.095 78.3894 166.947 78.3778 166.791 78.3778C166.42 78.3778 166.089 78.4557 165.797 78.6115C165.509 78.764 165.28 78.9761 165.111 79.2479C164.945 79.5163 164.862 79.8229 164.862 80.1676V85H163.689ZM171.867 85.1591C171.132 85.1591 170.497 84.9967 169.963 84.6719C169.433 84.3438 169.024 83.8864 168.735 83.2997C168.45 82.7098 168.308 82.0237 168.308 81.2415C168.308 80.4593 168.45 79.7699 168.735 79.1733C169.024 78.5734 169.425 78.1061 169.938 77.7713C170.455 77.4332 171.059 77.2642 171.748 77.2642C172.146 77.2642 172.539 77.3305 172.926 77.4631C173.314 77.5956 173.667 77.8111 173.985 78.1094C174.303 78.4044 174.557 78.7955 174.746 79.2827C174.935 79.7699 175.029 80.3698 175.029 81.0824V81.5795H169.143V80.5653H173.836C173.836 80.1345 173.75 79.75 173.578 79.4119C173.409 79.0739 173.167 78.8071 172.852 78.6115C172.54 78.416 172.172 78.3182 171.748 78.3182C171.281 78.3182 170.876 78.4342 170.535 78.6662C170.197 78.8949 169.937 79.1932 169.754 79.5611C169.572 79.929 169.481 80.3234 169.481 80.7443V81.4205C169.481 81.9972 169.58 82.486 169.779 82.8871C169.981 83.2848 170.262 83.5881 170.619 83.7969C170.977 84.0024 171.393 84.1051 171.867 84.1051C172.176 84.1051 172.454 84.062 172.703 83.9759C172.954 83.8864 173.172 83.7538 173.354 83.5781C173.536 83.3991 173.677 83.1771 173.776 82.9119L174.91 83.2301C174.791 83.6146 174.59 83.9527 174.308 84.2443C174.027 84.5327 173.679 84.758 173.264 84.9205C172.85 85.0795 172.384 85.1591 171.867 85.1591ZM182.223 79.0739L181.169 79.3722C181.103 79.1965 181.005 79.0258 180.876 78.8601C180.75 78.6911 180.578 78.5518 180.359 78.4425C180.14 78.3331 179.86 78.2784 179.519 78.2784C179.051 78.2784 178.662 78.3861 178.35 78.6016C178.042 78.8137 177.888 79.0838 177.888 79.4119C177.888 79.7036 177.994 79.9339 178.206 80.103C178.418 80.272 178.75 80.4129 179.2 80.5256L180.334 80.804C181.017 80.9697 181.526 81.2232 181.86 81.5646C182.195 81.9027 182.362 82.3385 182.362 82.8722C182.362 83.3097 182.236 83.7008 181.985 84.0455C181.736 84.3902 181.388 84.6619 180.941 84.8608C180.493 85.0597 179.973 85.1591 179.379 85.1591C178.601 85.1591 177.956 84.9901 177.445 84.652C176.935 84.3139 176.612 83.8201 176.476 83.1705L177.59 82.892C177.696 83.303 177.896 83.6113 178.191 83.8168C178.49 84.0223 178.879 84.125 179.36 84.125C179.906 84.125 180.341 84.009 180.662 83.777C180.987 83.5417 181.149 83.2599 181.149 82.9318C181.149 82.6667 181.057 82.4446 180.871 82.2656C180.685 82.0833 180.4 81.9474 180.016 81.858L178.743 81.5597C178.044 81.3939 177.53 81.1371 177.202 80.7891C176.877 80.4377 176.715 79.9986 176.715 79.4716C176.715 79.0407 176.836 78.6596 177.078 78.3281C177.323 77.9967 177.656 77.7365 178.077 77.5476C178.501 77.3587 178.982 77.2642 179.519 77.2642C180.274 77.2642 180.868 77.4299 181.298 77.7614C181.733 78.0928 182.041 78.5303 182.223 79.0739ZM187.231 85.1591C186.541 85.1591 185.937 84.995 185.416 84.6669C184.899 84.3388 184.495 83.8797 184.203 83.2898C183.915 82.6998 183.771 82.0104 183.771 81.2216C183.771 80.4261 183.915 79.7318 184.203 79.1385C184.495 78.5452 184.899 78.0845 185.416 77.7564C185.937 77.4283 186.541 77.2642 187.231 77.2642C187.92 77.2642 188.523 77.4283 189.04 77.7564C189.561 78.0845 189.965 78.5452 190.254 79.1385C190.545 79.7318 190.691 80.4261 190.691 81.2216C190.691 82.0104 190.545 82.6998 190.254 83.2898C189.965 83.8797 189.561 84.3388 189.04 84.6669C188.523 84.995 187.92 85.1591 187.231 85.1591ZM187.231 84.1051C187.754 84.1051 188.185 83.9709 188.523 83.7024C188.862 83.4339 189.112 83.081 189.274 82.6435C189.437 82.206 189.518 81.732 189.518 81.2216C189.518 80.7112 189.437 80.2356 189.274 79.7947C189.112 79.3539 188.862 78.9976 188.523 78.7259C188.185 78.4541 187.754 78.3182 187.231 78.3182C186.707 78.3182 186.276 78.4541 185.938 78.7259C185.6 78.9976 185.35 79.3539 185.188 79.7947C185.025 80.2356 184.944 80.7112 184.944 81.2216C184.944 81.732 185.025 82.206 185.188 82.6435C185.35 83.081 185.6 83.4339 185.938 83.7024C186.276 83.9709 186.707 84.1051 187.231 84.1051ZM193.655 74.8182V85H192.482V74.8182H193.655ZM202.049 77.3636L199.225 85H198.032L195.208 77.3636H196.48L198.588 83.4489H198.668L200.776 77.3636H202.049ZM206.526 85.1591C205.79 85.1591 205.155 84.9967 204.621 84.6719C204.091 84.3438 203.682 83.8864 203.393 83.2997C203.108 82.7098 202.966 82.0237 202.966 81.2415C202.966 80.4593 203.108 79.7699 203.393 79.1733C203.682 78.5734 204.083 78.1061 204.597 77.7713C205.114 77.4332 205.717 77.2642 206.406 77.2642C206.804 77.2642 207.197 77.3305 207.585 77.4631C207.972 77.5956 208.325 77.8111 208.643 78.1094C208.962 78.4044 209.215 78.7955 209.404 79.2827C209.593 79.7699 209.688 80.3698 209.688 81.0824V81.5795H203.801V80.5653H208.494C208.494 80.1345 208.408 79.75 208.236 79.4119C208.067 79.0739 207.825 78.8071 207.51 78.6115C207.198 78.416 206.83 78.3182 206.406 78.3182C205.939 78.3182 205.535 78.4342 205.193 78.6662C204.855 78.8949 204.595 79.1932 204.413 79.5611C204.23 79.929 204.139 80.3234 204.139 80.7443V81.4205C204.139 81.9972 204.239 82.486 204.438 82.8871C204.64 83.2848 204.92 83.5881 205.278 83.7969C205.636 84.0024 206.052 84.1051 206.526 84.1051C206.834 84.1051 207.112 84.062 207.361 83.9759C207.613 83.8864 207.83 83.7538 208.012 83.5781C208.194 83.3991 208.335 83.1771 208.435 82.9119L209.568 83.2301C209.449 83.6146 209.248 83.9527 208.967 84.2443C208.685 84.5327 208.337 84.758 207.923 84.9205C207.508 85.0795 207.043 85.1591 206.526 85.1591ZM212.327 85.0795C212.082 85.0795 211.872 84.9917 211.696 84.8161C211.52 84.6404 211.433 84.4299 211.433 84.1847C211.433 83.9394 211.52 83.7289 211.696 83.5533C211.872 83.3776 212.082 83.2898 212.327 83.2898C212.573 83.2898 212.783 83.3776 212.959 83.5533C213.134 83.7289 213.222 83.9394 213.222 84.1847C213.222 84.3471 213.181 84.4962 213.098 84.6321C213.018 84.768 212.911 84.8774 212.775 84.9602C212.642 85.0398 212.493 85.0795 212.327 85.0795ZM218.43 85.1591C217.714 85.1591 217.098 84.9901 216.581 84.652C216.064 84.3139 215.666 83.8482 215.387 83.255C215.109 82.6617 214.97 81.9839 214.97 81.2216C214.97 80.446 215.112 79.7616 215.397 79.1683C215.686 78.5717 216.087 78.1061 216.6 77.7713C217.118 77.4332 217.721 77.2642 218.41 77.2642C218.947 77.2642 219.431 77.3636 219.862 77.5625C220.293 77.7614 220.646 78.0398 220.921 78.3977C221.196 78.7557 221.367 79.1733 221.433 79.6506H220.26C220.17 79.3026 219.971 78.9943 219.663 78.7259C219.358 78.4541 218.947 78.3182 218.43 78.3182C217.973 78.3182 217.572 78.4375 217.227 78.6761C216.886 78.9115 216.619 79.2446 216.426 79.6754C216.238 80.103 216.143 80.6051 216.143 81.1818C216.143 81.7718 216.236 82.2855 216.422 82.723C216.61 83.1605 216.876 83.5002 217.217 83.7422C217.562 83.9841 217.966 84.1051 218.43 84.1051C218.735 84.1051 219.012 84.0521 219.26 83.946C219.509 83.84 219.719 83.6875 219.892 83.4886C220.064 83.2898 220.187 83.0511 220.26 82.7727H221.433C221.367 83.2235 221.203 83.6295 220.941 83.9908C220.682 84.3487 220.339 84.6338 219.912 84.8459C219.487 85.0547 218.993 85.1591 218.43 85.1591ZM226.25 85.1591C225.561 85.1591 224.956 84.995 224.436 84.6669C223.919 84.3388 223.514 83.8797 223.223 83.2898C222.934 82.6998 222.79 82.0104 222.79 81.2216C222.79 80.4261 222.934 79.7318 223.223 79.1385C223.514 78.5452 223.919 78.0845 224.436 77.7564C224.956 77.4283 225.561 77.2642 226.25 77.2642C226.94 77.2642 227.543 77.4283 228.06 77.7564C228.58 78.0845 228.985 78.5452 229.273 79.1385C229.565 79.7318 229.711 80.4261 229.711 81.2216C229.711 82.0104 229.565 82.6998 229.273 83.2898C228.985 83.8797 228.58 84.3388 228.06 84.6669C227.543 84.995 226.94 85.1591 226.25 85.1591ZM226.25 84.1051C226.774 84.1051 227.205 83.9709 227.543 83.7024C227.881 83.4339 228.131 83.081 228.294 82.6435C228.456 82.206 228.537 81.732 228.537 81.2216C228.537 80.7112 228.456 80.2356 228.294 79.7947C228.131 79.3539 227.881 78.9976 227.543 78.7259C227.205 78.4541 226.774 78.3182 226.25 78.3182C225.727 78.3182 225.296 78.4541 224.958 78.7259C224.62 78.9976 224.369 79.3539 224.207 79.7947C224.045 80.2356 223.963 80.7112 223.963 81.2216C223.963 81.732 224.045 82.206 224.207 82.6435C224.369 83.081 224.62 83.4339 224.958 83.7024C225.296 83.9709 225.727 84.1051 226.25 84.1051ZM231.502 85V77.3636H232.635V78.5568H232.735C232.894 78.1491 233.151 77.8326 233.505 77.6072C233.86 77.3786 234.286 77.2642 234.783 77.2642C235.287 77.2642 235.706 77.3786 236.041 77.6072C236.379 77.8326 236.642 78.1491 236.831 78.5568H236.911C237.106 78.1624 237.4 77.8492 237.791 77.6172C238.182 77.3819 238.651 77.2642 239.198 77.2642C239.88 77.2642 240.439 77.478 240.873 77.9055C241.307 78.3298 241.524 78.991 241.524 79.8892V85H240.351V79.8892C240.351 79.3258 240.197 78.9231 239.889 78.6811C239.58 78.4392 239.218 78.3182 238.8 78.3182C238.263 78.3182 237.847 78.4806 237.552 78.8054C237.257 79.1269 237.11 79.5346 237.11 80.0284V85H235.916V79.7699C235.916 79.3357 235.776 78.986 235.494 78.7209C235.212 78.4524 234.849 78.3182 234.405 78.3182C234.1 78.3182 233.815 78.3994 233.55 78.5618C233.288 78.7242 233.076 78.9496 232.914 79.2379C232.754 79.523 232.675 79.8527 232.675 80.2273V85H231.502Z" fill="#161A26"/>
<mask id="path-9-inside-1_58_1505" fill="white">
<path d="M32 24H572V104H32V24Z"/>
</mask>
<path d="M572 103H32V105H572V103Z" fill="#B9BCCD" fill-opacity="0.24" mask="url(#path-9-inside-1_58_1505)"/>
<path d="M49.1186 131V120.818H52.7479C53.5367 120.818 54.1913 120.954 54.7116 121.226C55.2353 121.498 55.6264 121.874 55.8849 122.354C56.1435 122.832 56.2727 123.384 56.2727 124.01C56.2727 124.633 56.1418 125.182 55.88 125.656C55.6214 126.126 55.2304 126.492 54.7067 126.754C54.1863 127.016 53.5317 127.147 52.7429 127.147H49.9936V125.825H52.6037C53.1009 125.825 53.5052 125.753 53.8168 125.611C54.1316 125.468 54.362 125.261 54.5078 124.989C54.6536 124.718 54.7266 124.391 54.7266 124.01C54.7266 123.625 54.652 123.292 54.5028 123.011C54.357 122.729 54.1267 122.513 53.8118 122.364C53.5002 122.212 53.0909 122.136 52.5838 122.136H50.6548V131H49.1186ZM54.1449 126.406L56.6605 131H54.9105L52.4446 126.406H54.1449ZM61.2182 131.154C60.4658 131.154 59.8179 130.993 59.2743 130.672C58.7341 130.347 58.3165 129.891 58.0215 129.305C57.7298 128.715 57.584 128.024 57.584 127.232C57.584 126.449 57.7298 125.76 58.0215 125.163C58.3165 124.567 58.7275 124.101 59.2544 123.766C59.7847 123.432 60.4045 123.264 61.1138 123.264C61.5447 123.264 61.9623 123.335 62.3667 123.478C62.771 123.621 63.1339 123.844 63.4554 124.149C63.7769 124.454 64.0305 124.85 64.2161 125.337C64.4017 125.821 64.4945 126.41 64.4945 127.102V127.629H58.4242V126.516H63.0378C63.0378 126.125 62.9583 125.778 62.7992 125.477C62.6401 125.172 62.4164 124.931 62.128 124.756C61.843 124.58 61.5082 124.492 61.1238 124.492C60.7061 124.492 60.3416 124.595 60.03 124.8C59.7218 125.003 59.4831 125.268 59.3141 125.596C59.1484 125.921 59.0655 126.274 59.0655 126.655V127.525C59.0655 128.035 59.155 128.469 59.334 128.827C59.5163 129.185 59.7698 129.459 60.0946 129.648C60.4194 129.833 60.7989 129.926 61.2331 129.926C61.5149 129.926 61.7717 129.886 62.0037 129.807C62.2357 129.724 62.4363 129.601 62.6053 129.439C62.7743 129.277 62.9036 129.076 62.9931 128.837L64.4 129.091C64.2873 129.505 64.0852 129.868 63.7935 130.18C63.5051 130.488 63.1422 130.728 62.7047 130.901C62.2705 131.07 61.775 131.154 61.2182 131.154ZM67.1232 131.094C66.8514 131.094 66.6178 130.998 66.4222 130.806C66.2267 130.611 66.1289 130.375 66.1289 130.1C66.1289 129.828 66.2267 129.596 66.4222 129.404C66.6178 129.209 66.8514 129.111 67.1232 129.111C67.395 129.111 67.6287 129.209 67.8242 129.404C68.0198 129.596 68.1175 129.828 68.1175 130.1C68.1175 130.282 68.0711 130.45 67.9783 130.602C67.8888 130.751 67.7695 130.871 67.6204 130.96C67.4712 131.05 67.3055 131.094 67.1232 131.094ZM67.1232 125.536C66.8514 125.536 66.6178 125.438 66.4222 125.243C66.2267 125.047 66.1289 124.814 66.1289 124.542C66.1289 124.27 66.2267 124.038 66.4222 123.846C66.6178 123.65 66.8514 123.553 67.1232 123.553C67.395 123.553 67.6287 123.65 67.8242 123.846C68.0198 124.038 68.1175 124.27 68.1175 124.542C68.1175 124.724 68.0711 124.892 67.9783 125.044C67.8888 125.193 67.7695 125.312 67.6204 125.402C67.4712 125.491 67.3055 125.536 67.1232 125.536ZM73.9331 131V120.818H77.5623C78.3545 120.818 79.0107 120.962 79.5311 121.251C80.0514 121.539 80.4409 121.933 80.6994 122.434C80.9579 122.931 81.0872 123.491 81.0872 124.114C81.0872 124.741 80.9563 125.304 80.6944 125.805C80.4359 126.302 80.0448 126.696 79.5211 126.988C79.0008 127.276 78.3462 127.42 77.5574 127.42H75.0616V126.118H77.4181C77.9186 126.118 78.3246 126.032 78.6362 125.859C78.9477 125.684 79.1764 125.445 79.3223 125.143C79.4681 124.842 79.541 124.499 79.541 124.114C79.541 123.73 79.4681 123.388 79.3223 123.09C79.1764 122.792 78.9461 122.558 78.6312 122.389C78.3197 122.22 77.9087 122.136 77.3983 122.136H75.4693V131H73.9331ZM82.7688 131V123.364H84.2056V124.577H84.2852C84.4244 124.166 84.6696 123.843 85.021 123.607C85.3756 123.369 85.7766 123.249 86.2241 123.249C86.3169 123.249 86.4263 123.253 86.5522 123.259C86.6815 123.266 86.7826 123.274 86.8555 123.284V124.706C86.7958 124.689 86.6897 124.671 86.5373 124.651C86.3848 124.628 86.2324 124.616 86.0799 124.616C85.7286 124.616 85.4154 124.691 85.1403 124.84C84.8685 124.986 84.6531 125.19 84.494 125.452C84.3349 125.71 84.2553 126.005 84.2553 126.337V131H82.7688ZM88.1419 131V123.364H89.6284V131H88.1419ZM88.8926 122.185C88.6341 122.185 88.412 122.099 88.2264 121.927C88.0441 121.751 87.9529 121.542 87.9529 121.3C87.9529 121.055 88.0441 120.846 88.2264 120.674C88.412 120.498 88.6341 120.411 88.8926 120.411C89.1511 120.411 89.3715 120.498 89.5538 120.674C89.7394 120.846 89.8322 121.055 89.8322 121.3C89.8322 121.542 89.7394 121.751 89.5538 121.927C89.3715 122.099 89.1511 122.185 88.8926 122.185ZM94.8448 131.154C94.1057 131.154 93.4693 130.987 92.9357 130.652C92.4054 130.314 91.9978 129.848 91.7127 129.255C91.4277 128.662 91.2852 127.982 91.2852 127.217C91.2852 126.441 91.431 125.757 91.7227 125.163C92.0143 124.567 92.4253 124.101 92.9556 123.766C93.4859 123.432 94.1107 123.264 94.8299 123.264C95.4099 123.264 95.927 123.372 96.381 123.587C96.8351 123.799 97.2013 124.098 97.4798 124.482C97.7615 124.867 97.9289 125.316 97.9819 125.83H96.5352C96.4556 125.472 96.2733 125.163 95.9883 124.905C95.7066 124.646 95.3287 124.517 94.8548 124.517C94.4405 124.517 94.0775 124.626 93.766 124.845C93.4577 125.061 93.2174 125.369 93.0451 125.77C92.8728 126.168 92.7866 126.638 92.7866 127.182C92.7866 127.739 92.8711 128.219 93.0401 128.624C93.2092 129.028 93.4478 129.341 93.756 129.563C94.0676 129.785 94.4338 129.896 94.8548 129.896C95.1365 129.896 95.3917 129.845 95.6204 129.742C95.8524 129.636 96.0463 129.485 96.2021 129.29C96.3612 129.094 96.4722 128.859 96.5352 128.584H97.9819C97.9289 129.078 97.7681 129.518 97.4996 129.906C97.2312 130.294 96.8716 130.599 96.4208 130.821C95.9734 131.043 95.448 131.154 94.8448 131.154ZM99.5716 131V123.364H101.058V131H99.5716ZM100.322 122.185C100.064 122.185 99.8417 122.099 99.6561 121.927C99.4738 121.751 99.3826 121.542 99.3826 121.3C99.3826 121.055 99.4738 120.846 99.6561 120.674C99.8417 120.498 100.064 120.411 100.322 120.411C100.581 120.411 100.801 120.498 100.983 120.674C101.169 120.846 101.262 121.055 101.262 121.3C101.262 121.542 101.169 121.751 100.983 121.927C100.801 122.099 100.581 122.185 100.322 122.185ZM104.544 126.466V131H103.058V123.364H104.485V124.607H104.579C104.755 124.202 105.03 123.877 105.404 123.632C105.782 123.387 106.258 123.264 106.831 123.264C107.352 123.264 107.807 123.374 108.199 123.592C108.59 123.808 108.893 124.129 109.108 124.557C109.324 124.984 109.431 125.513 109.431 126.143V131H107.945V126.322C107.945 125.768 107.801 125.336 107.512 125.024C107.224 124.709 106.828 124.552 106.324 124.552C105.98 124.552 105.673 124.626 105.404 124.776C105.139 124.925 104.929 125.143 104.773 125.432C104.621 125.717 104.544 126.062 104.544 126.466ZM114.627 134.023C114.02 134.023 113.498 133.943 113.061 133.784C112.627 133.625 112.272 133.415 111.997 133.153C111.722 132.891 111.516 132.604 111.38 132.293L112.658 131.766C112.748 131.911 112.867 132.066 113.016 132.228C113.168 132.394 113.374 132.535 113.632 132.651C113.894 132.767 114.231 132.825 114.642 132.825C115.205 132.825 115.671 132.687 116.039 132.412C116.407 132.14 116.591 131.706 116.591 131.109V129.608H116.496C116.407 129.77 116.277 129.951 116.108 130.15C115.943 130.349 115.714 130.521 115.422 130.667C115.131 130.813 114.751 130.886 114.284 130.886C113.681 130.886 113.137 130.745 112.653 130.463C112.172 130.178 111.791 129.759 111.51 129.205C111.231 128.648 111.092 127.964 111.092 127.152C111.092 126.34 111.23 125.644 111.505 125.064C111.783 124.484 112.164 124.04 112.648 123.732C113.132 123.42 113.681 123.264 114.294 123.264C114.768 123.264 115.15 123.344 115.442 123.503C115.734 123.659 115.961 123.841 116.123 124.05C116.289 124.259 116.417 124.442 116.506 124.602H116.615V123.364H118.072V131.169C118.072 131.825 117.92 132.364 117.615 132.785C117.31 133.206 116.897 133.517 116.377 133.719C115.86 133.922 115.276 134.023 114.627 134.023ZM114.612 129.653C115.039 129.653 115.401 129.553 115.696 129.354C115.994 129.152 116.219 128.864 116.372 128.489C116.528 128.112 116.605 127.659 116.605 127.132C116.605 126.618 116.529 126.166 116.377 125.775C116.224 125.384 116.001 125.079 115.706 124.86C115.411 124.638 115.046 124.527 114.612 124.527C114.164 124.527 113.792 124.643 113.493 124.875C113.195 125.104 112.97 125.415 112.817 125.81C112.668 126.204 112.593 126.645 112.593 127.132C112.593 127.633 112.67 128.072 112.822 128.45C112.975 128.827 113.2 129.122 113.498 129.335C113.8 129.547 114.171 129.653 114.612 129.653ZM123.771 133.864V123.364H125.222V124.602H125.347C125.433 124.442 125.557 124.259 125.72 124.05C125.882 123.841 126.107 123.659 126.396 123.503C126.684 123.344 127.065 123.264 127.539 123.264C128.156 123.264 128.706 123.42 129.19 123.732C129.674 124.043 130.053 124.492 130.328 125.079C130.607 125.665 130.746 126.371 130.746 127.197C130.746 128.022 130.608 128.73 130.333 129.32C130.058 129.906 129.68 130.359 129.2 130.677C128.719 130.992 128.171 131.149 127.554 131.149C127.09 131.149 126.711 131.071 126.416 130.915C126.124 130.76 125.895 130.577 125.73 130.369C125.564 130.16 125.436 129.974 125.347 129.812H125.257V133.864H123.771ZM125.227 127.182C125.227 127.719 125.305 128.189 125.461 128.594C125.617 128.998 125.842 129.315 126.137 129.543C126.432 129.769 126.794 129.881 127.221 129.881C127.665 129.881 128.036 129.764 128.335 129.528C128.633 129.29 128.858 128.967 129.011 128.559C129.167 128.151 129.244 127.692 129.244 127.182C129.244 126.678 129.168 126.226 129.016 125.825C128.867 125.424 128.641 125.107 128.34 124.875C128.041 124.643 127.669 124.527 127.221 124.527C126.79 124.527 126.426 124.638 126.127 124.86C125.832 125.082 125.609 125.392 125.456 125.79C125.304 126.187 125.227 126.652 125.227 127.182ZM133.898 120.818V131H132.411V120.818H133.898ZM138.12 131.169C137.636 131.169 137.199 131.08 136.808 130.901C136.416 130.718 136.107 130.455 135.878 130.11C135.652 129.765 135.54 129.343 135.54 128.842C135.54 128.411 135.623 128.057 135.788 127.778C135.954 127.5 136.178 127.28 136.46 127.117C136.741 126.955 137.056 126.832 137.404 126.749C137.752 126.666 138.107 126.603 138.468 126.56C138.925 126.507 139.297 126.464 139.582 126.431C139.867 126.395 140.074 126.337 140.203 126.257C140.332 126.178 140.397 126.048 140.397 125.869V125.835C140.397 125.4 140.274 125.064 140.029 124.825C139.787 124.587 139.426 124.467 138.945 124.467C138.445 124.467 138.05 124.578 137.762 124.8C137.477 125.019 137.28 125.263 137.17 125.531L135.773 125.213C135.939 124.749 136.181 124.375 136.499 124.089C136.821 123.801 137.19 123.592 137.608 123.463C138.026 123.33 138.465 123.264 138.925 123.264C139.23 123.264 139.554 123.301 139.895 123.374C140.24 123.443 140.561 123.572 140.859 123.761C141.161 123.95 141.408 124.22 141.6 124.572C141.792 124.92 141.888 125.372 141.888 125.929V131H140.437V129.956H140.377C140.281 130.148 140.137 130.337 139.945 130.523C139.752 130.708 139.505 130.862 139.204 130.985C138.902 131.108 138.541 131.169 138.12 131.169ZM138.443 129.976C138.854 129.976 139.205 129.895 139.497 129.732C139.792 129.57 140.016 129.358 140.168 129.096C140.324 128.831 140.402 128.547 140.402 128.246V127.261C140.349 127.314 140.246 127.364 140.094 127.411C139.945 127.454 139.774 127.492 139.582 127.525C139.389 127.555 139.202 127.583 139.02 127.609C138.838 127.633 138.685 127.652 138.562 127.669C138.274 127.705 138.011 127.767 137.772 127.853C137.537 127.939 137.348 128.063 137.205 128.226C137.066 128.385 136.996 128.597 136.996 128.862C136.996 129.23 137.132 129.509 137.404 129.697C137.676 129.883 138.022 129.976 138.443 129.976ZM145.355 126.466V131H143.868V123.364H145.295V124.607H145.39C145.565 124.202 145.84 123.877 146.215 123.632C146.593 123.387 147.068 123.264 147.642 123.264C148.162 123.264 148.618 123.374 149.009 123.592C149.4 123.808 149.703 124.129 149.919 124.557C150.134 124.984 150.242 125.513 150.242 126.143V131H148.756V126.322C148.756 125.768 148.611 125.336 148.323 125.024C148.035 124.709 147.639 124.552 147.135 124.552C146.79 124.552 146.483 124.626 146.215 124.776C145.95 124.925 145.739 125.143 145.584 125.432C145.431 125.717 145.355 126.062 145.355 126.466ZM157.958 125.228L156.611 125.467C156.554 125.294 156.465 125.13 156.342 124.974C156.223 124.819 156.06 124.691 155.855 124.592C155.649 124.492 155.393 124.442 155.084 124.442C154.663 124.442 154.312 124.537 154.03 124.726C153.749 124.911 153.608 125.152 153.608 125.447C153.608 125.702 153.702 125.907 153.891 126.063C154.08 126.219 154.385 126.347 154.806 126.446L156.019 126.724C156.722 126.887 157.245 127.137 157.59 127.475C157.935 127.813 158.107 128.252 158.107 128.793C158.107 129.25 157.974 129.658 157.709 130.016C157.448 130.37 157.081 130.649 156.611 130.851C156.143 131.053 155.601 131.154 154.985 131.154C154.13 131.154 153.432 130.972 152.892 130.607C152.352 130.239 152.02 129.717 151.898 129.041L153.334 128.822C153.424 129.197 153.608 129.48 153.886 129.673C154.165 129.862 154.528 129.956 154.975 129.956C155.462 129.956 155.852 129.855 156.143 129.653C156.435 129.447 156.581 129.197 156.581 128.902C156.581 128.663 156.491 128.463 156.312 128.3C156.137 128.138 155.867 128.015 155.502 127.933L154.209 127.649C153.497 127.487 152.97 127.228 152.628 126.874C152.29 126.519 152.121 126.07 152.121 125.526C152.121 125.076 152.247 124.681 152.499 124.343C152.751 124.005 153.099 123.741 153.543 123.553C153.987 123.36 154.496 123.264 155.069 123.264C155.895 123.264 156.544 123.443 157.018 123.801C157.492 124.156 157.805 124.631 157.958 125.228Z" fill="#161A26"/>
<path d="M49.233 163V152.818H52.6733C53.4688 152.818 54.1217 152.954 54.6321 153.226C55.1425 153.494 55.5204 153.864 55.7656 154.335C56.0109 154.805 56.1335 155.34 56.1335 155.94C56.1335 156.54 56.0109 157.072 55.7656 157.536C55.5204 158 55.1442 158.365 54.6371 158.63C54.13 158.892 53.482 159.023 52.6932 159.023H49.9091V157.909H52.6534C53.197 157.909 53.6345 157.83 53.9659 157.67C54.3007 157.511 54.5426 157.286 54.6918 156.994C54.8442 156.699 54.9205 156.348 54.9205 155.94C54.9205 155.533 54.8442 155.176 54.6918 154.871C54.5393 154.567 54.2957 154.331 53.9609 154.165C53.6262 153.996 53.1837 153.912 52.6335 153.912H50.4659V163H49.233ZM54.0256 158.426L56.5312 163H55.0994L52.6335 158.426H54.0256ZM61.1486 163.159C60.4128 163.159 59.7781 162.997 59.2445 162.672C58.7142 162.344 58.3049 161.886 58.0165 161.3C57.7315 160.71 57.589 160.024 57.589 159.241C57.589 158.459 57.7315 157.77 58.0165 157.173C58.3049 156.573 58.7059 156.106 59.2196 155.771C59.7367 155.433 60.3399 155.264 61.0293 155.264C61.427 155.264 61.8198 155.33 62.2076 155.463C62.5953 155.596 62.9483 155.811 63.2665 156.109C63.5847 156.404 63.8382 156.795 64.0272 157.283C64.2161 157.77 64.3105 158.37 64.3105 159.082V159.58H58.4242V158.565H63.1174C63.1174 158.134 63.0312 157.75 62.8588 157.412C62.6898 157.074 62.4479 156.807 62.133 156.612C61.8214 156.416 61.4535 156.318 61.0293 156.318C60.562 156.318 60.1576 156.434 59.8162 156.666C59.4782 156.895 59.218 157.193 59.0357 157.561C58.8534 157.929 58.7623 158.323 58.7623 158.744V159.42C58.7623 159.997 58.8617 160.486 59.0605 160.887C59.2627 161.285 59.5428 161.588 59.9007 161.797C60.2587 162.002 60.6747 162.105 61.1486 162.105C61.4569 162.105 61.7353 162.062 61.9838 161.976C62.2357 161.886 62.4528 161.754 62.6351 161.578C62.8174 161.399 62.9583 161.177 63.0577 160.912L64.1912 161.23C64.0719 161.615 63.8714 161.953 63.5897 162.244C63.3079 162.533 62.9599 162.758 62.5456 162.92C62.1313 163.08 61.6657 163.159 61.1486 163.159ZM66.0953 165.864V155.364H67.2289V156.577H67.3681C67.4542 156.444 67.5736 156.275 67.726 156.07C67.8818 155.861 68.1039 155.675 68.3922 155.513C68.6839 155.347 69.0783 155.264 69.5755 155.264C70.2185 155.264 70.7852 155.425 71.2757 155.746C71.7663 156.068 72.1491 156.524 72.4242 157.114C72.6993 157.704 72.8368 158.4 72.8368 159.202C72.8368 160.01 72.6993 160.711 72.4242 161.305C72.1491 161.895 71.7679 162.352 71.2807 162.677C70.7935 162.998 70.2317 163.159 69.5953 163.159C69.1048 163.159 68.7121 163.078 68.4171 162.915C68.1221 162.75 67.8951 162.562 67.736 162.354C67.5769 162.142 67.4542 161.966 67.3681 161.827H67.2686V165.864H66.0953ZM67.2488 159.182C67.2488 159.759 67.3333 160.267 67.5023 160.708C67.6713 161.146 67.9183 161.489 68.2431 161.737C68.5679 161.982 68.9656 162.105 69.4363 162.105C69.9268 162.105 70.3361 161.976 70.6642 161.717C70.9957 161.455 71.2443 161.104 71.41 160.663C71.579 160.219 71.6635 159.725 71.6635 159.182C71.6635 158.645 71.5807 158.161 71.415 157.73C71.2525 157.296 71.0056 156.953 70.6742 156.701C70.3461 156.446 69.9334 156.318 69.4363 156.318C68.959 156.318 68.5579 156.439 68.2331 156.681C67.9083 156.92 67.6631 157.254 67.4973 157.685C67.3316 158.113 67.2488 158.612 67.2488 159.182ZM75.7999 152.818V163H74.6266V152.818H75.7999ZM78.7045 165.864C78.5057 165.864 78.3284 165.847 78.1726 165.814C78.0168 165.784 77.9091 165.754 77.8494 165.724L78.1477 164.69C78.4328 164.763 78.6847 164.79 78.9034 164.77C79.1222 164.75 79.3161 164.652 79.4851 164.477C79.6574 164.304 79.8149 164.024 79.9574 163.636L80.1761 163.04L77.3523 155.364H78.625L80.733 161.449H80.8125L82.9205 155.364H84.1932L80.9517 164.114C80.8059 164.508 80.6252 164.835 80.4098 165.093C80.1944 165.355 79.9441 165.549 79.6591 165.675C79.3774 165.801 79.0592 165.864 78.7045 165.864ZM93.0004 155.364V156.358H89.043V155.364H93.0004ZM90.1964 153.534H91.3697V160.812C91.3697 161.144 91.4177 161.393 91.5138 161.558C91.6133 161.721 91.7392 161.83 91.8917 161.886C92.0475 161.939 92.2115 161.966 92.3839 161.966C92.5131 161.966 92.6192 161.959 92.7021 161.946C92.7849 161.929 92.8512 161.916 92.9009 161.906L93.1396 162.96C93.06 162.99 92.949 163.02 92.8065 163.05C92.6639 163.083 92.4833 163.099 92.2646 163.099C91.9331 163.099 91.6083 163.028 91.2901 162.886C90.9753 162.743 90.7134 162.526 90.5046 162.234C90.2991 161.943 90.1964 161.575 90.1964 161.131V153.534ZM97.7855 163.159C97.0961 163.159 96.4912 162.995 95.9709 162.667C95.4538 162.339 95.0495 161.88 94.7578 161.29C94.4695 160.7 94.3253 160.01 94.3253 159.222C94.3253 158.426 94.4695 157.732 94.7578 157.138C95.0495 156.545 95.4538 156.085 95.9709 155.756C96.4912 155.428 97.0961 155.264 97.7855 155.264C98.4749 155.264 99.0781 155.428 99.5952 155.756C100.116 156.085 100.52 156.545 100.808 157.138C101.1 157.732 101.246 158.426 101.246 159.222C101.246 160.01 101.1 160.7 100.808 161.29C100.52 161.88 100.116 162.339 99.5952 162.667C99.0781 162.995 98.4749 163.159 97.7855 163.159ZM97.7855 162.105C98.3092 162.105 98.7401 161.971 99.0781 161.702C99.4162 161.434 99.6664 161.081 99.8288 160.643C99.9912 160.206 100.072 159.732 100.072 159.222C100.072 158.711 99.9912 158.236 99.8288 157.795C99.6664 157.354 99.4162 156.998 99.0781 156.726C98.7401 156.454 98.3092 156.318 97.7855 156.318C97.2618 156.318 96.831 156.454 96.4929 156.726C96.1548 156.998 95.9046 157.354 95.7422 157.795C95.5798 158.236 95.4986 158.711 95.4986 159.222C95.4986 159.732 95.5798 160.206 95.7422 160.643C95.9046 161.081 96.1548 161.434 96.4929 161.702C96.831 161.971 97.2618 162.105 97.7855 162.105ZM107.551 163H106.258L109.997 152.818H111.27L115.008 163H113.716L110.673 154.429H110.594L107.551 163ZM108.028 159.023H113.238V160.116H108.028V159.023ZM117.608 158.406V163H116.435V155.364H117.569V156.557H117.668C117.847 156.169 118.119 155.857 118.483 155.622C118.848 155.384 119.319 155.264 119.895 155.264C120.412 155.264 120.865 155.37 121.253 155.582C121.64 155.791 121.942 156.109 122.157 156.537C122.373 156.961 122.481 157.498 122.481 158.148V163H121.307V158.227C121.307 157.627 121.152 157.16 120.84 156.825C120.528 156.487 120.101 156.318 119.557 156.318C119.183 156.318 118.848 156.399 118.553 156.562C118.261 156.724 118.031 156.961 117.862 157.273C117.693 157.584 117.608 157.962 117.608 158.406ZM125.798 158.406V163H124.625V155.364H125.758V156.557H125.858C126.037 156.169 126.308 155.857 126.673 155.622C127.038 155.384 127.508 155.264 128.085 155.264C128.602 155.264 129.054 155.37 129.442 155.582C129.83 155.791 130.132 156.109 130.347 156.537C130.562 156.961 130.67 157.498 130.67 158.148V163H129.497V158.227C129.497 157.627 129.341 157.16 129.029 156.825C128.718 156.487 128.29 156.318 127.747 156.318C127.372 156.318 127.038 156.399 126.743 156.562C126.451 156.724 126.221 156.961 126.051 157.273C125.882 157.584 125.798 157.962 125.798 158.406ZM132.814 163V155.364H133.987V163H132.814ZM133.411 154.091C133.182 154.091 132.985 154.013 132.819 153.857C132.657 153.701 132.575 153.514 132.575 153.295C132.575 153.077 132.657 152.889 132.819 152.734C132.985 152.578 133.182 152.5 133.411 152.5C133.639 152.5 133.835 152.578 133.997 152.734C134.163 152.889 134.246 153.077 134.246 153.295C134.246 153.514 134.163 153.701 133.997 153.857C133.835 154.013 133.639 154.091 133.411 154.091ZM139.338 163.159C138.602 163.159 137.968 162.997 137.434 162.672C136.904 162.344 136.494 161.886 136.206 161.3C135.921 160.71 135.778 160.024 135.778 159.241C135.778 158.459 135.921 157.77 136.206 157.173C136.494 156.573 136.895 156.106 137.409 155.771C137.926 155.433 138.529 155.264 139.219 155.264C139.616 155.264 140.009 155.33 140.397 155.463C140.785 155.596 141.138 155.811 141.456 156.109C141.774 156.404 142.028 156.795 142.217 157.283C142.406 157.77 142.5 158.37 142.5 159.082V159.58H136.614V158.565H141.307C141.307 158.134 141.221 157.75 141.048 157.412C140.879 157.074 140.637 156.807 140.322 156.612C140.011 156.416 139.643 156.318 139.219 156.318C138.751 156.318 138.347 156.434 138.006 156.666C137.668 156.895 137.407 157.193 137.225 157.561C137.043 157.929 136.952 158.323 136.952 158.744V159.42C136.952 159.997 137.051 160.486 137.25 160.887C137.452 161.285 137.732 161.588 138.09 161.797C138.448 162.002 138.864 162.105 139.338 162.105C139.646 162.105 139.925 162.062 140.173 161.976C140.425 161.886 140.642 161.754 140.825 161.578C141.007 161.399 141.148 161.177 141.247 160.912L142.381 161.23C142.261 161.615 142.061 161.953 141.779 162.244C141.497 162.533 141.149 162.758 140.735 162.92C140.321 163.08 139.855 163.159 139.338 163.159ZM146.035 161.608L145.955 162.145C145.899 162.523 145.813 162.927 145.697 163.358C145.584 163.789 145.466 164.195 145.344 164.576C145.221 164.957 145.12 165.26 145.04 165.486H144.146C144.189 165.274 144.245 164.994 144.315 164.646C144.384 164.298 144.454 163.908 144.523 163.477C144.596 163.05 144.656 162.612 144.702 162.165L144.762 161.608H146.035Z" fill="#B9BCCD"/>
<rect x="155.09" y="150" width="16" height="16" rx="3" fill="white"/>
<path d="M162.469 162.39V154.269H164.779V155.158H163.581V161.505H164.779V162.39H162.469Z" fill="#B9BCCD"/>
<rect x="155.59" y="150.5" width="15" height="15" rx="2.5" stroke="#DFE1E9"/>
<path d="M179.564 155.364V156.358H175.448V155.364H179.564ZM176.681 163V154.31C176.681 153.872 176.784 153.508 176.989 153.216C177.195 152.924 177.461 152.705 177.79 152.56C178.118 152.414 178.464 152.341 178.829 152.341C179.117 152.341 179.352 152.364 179.535 152.411C179.717 152.457 179.853 152.5 179.942 152.54L179.604 153.554C179.545 153.534 179.462 153.509 179.356 153.479C179.253 153.45 179.117 153.435 178.948 153.435C178.56 153.435 178.28 153.532 178.108 153.728C177.939 153.924 177.854 154.21 177.854 154.588V163H176.681ZM183.997 163.159C183.307 163.159 182.702 162.995 182.182 162.667C181.665 162.339 181.261 161.88 180.969 161.29C180.681 160.7 180.536 160.01 180.536 159.222C180.536 158.426 180.681 157.732 180.969 157.138C181.261 156.545 181.665 156.085 182.182 155.756C182.702 155.428 183.307 155.264 183.997 155.264C184.686 155.264 185.289 155.428 185.806 155.756C186.327 156.085 186.731 156.545 187.019 157.138C187.311 157.732 187.457 158.426 187.457 159.222C187.457 160.01 187.311 160.7 187.019 161.29C186.731 161.88 186.327 162.339 185.806 162.667C185.289 162.995 184.686 163.159 183.997 163.159ZM183.997 162.105C184.52 162.105 184.951 161.971 185.289 161.702C185.627 161.434 185.878 161.081 186.04 160.643C186.202 160.206 186.284 159.732 186.284 159.222C186.284 158.711 186.202 158.236 186.04 157.795C185.878 157.354 185.627 156.998 185.289 156.726C184.951 156.454 184.52 156.318 183.997 156.318C183.473 156.318 183.042 156.454 182.704 156.726C182.366 156.998 182.116 157.354 181.953 157.795C181.791 158.236 181.71 158.711 181.71 159.222C181.71 159.732 181.791 160.206 181.953 160.643C182.116 161.081 182.366 161.434 182.704 161.702C183.042 161.971 183.473 162.105 183.997 162.105ZM189.248 163V155.364H190.381V156.517H190.461C190.6 156.139 190.852 155.833 191.217 155.597C191.581 155.362 191.992 155.244 192.45 155.244C192.536 155.244 192.643 155.246 192.773 155.249C192.902 155.253 193 155.258 193.066 155.264V156.457C193.026 156.447 192.935 156.433 192.793 156.413C192.653 156.389 192.506 156.378 192.35 156.378C191.979 156.378 191.647 156.456 191.356 156.612C191.067 156.764 190.839 156.976 190.67 157.248C190.504 157.516 190.421 157.823 190.421 158.168V163H189.248ZM203.803 157.074L202.749 157.372C202.683 157.196 202.585 157.026 202.456 156.86C202.33 156.691 202.158 156.552 201.939 156.442C201.72 156.333 201.44 156.278 201.099 156.278C200.632 156.278 200.242 156.386 199.931 156.602C199.622 156.814 199.468 157.084 199.468 157.412C199.468 157.704 199.574 157.934 199.786 158.103C199.998 158.272 200.33 158.413 200.781 158.526L201.914 158.804C202.597 158.97 203.106 159.223 203.44 159.565C203.775 159.903 203.943 160.339 203.943 160.872C203.943 161.31 203.817 161.701 203.565 162.045C203.316 162.39 202.968 162.662 202.521 162.861C202.073 163.06 201.553 163.159 200.96 163.159C200.181 163.159 199.536 162.99 199.026 162.652C198.515 162.314 198.192 161.82 198.056 161.17L199.17 160.892C199.276 161.303 199.476 161.611 199.771 161.817C200.07 162.022 200.459 162.125 200.94 162.125C201.487 162.125 201.921 162.009 202.242 161.777C202.567 161.542 202.73 161.26 202.73 160.932C202.73 160.667 202.637 160.445 202.451 160.266C202.266 160.083 201.981 159.947 201.596 159.858L200.323 159.56C199.624 159.394 199.11 159.137 198.782 158.789C198.457 158.438 198.295 157.999 198.295 157.472C198.295 157.041 198.416 156.66 198.658 156.328C198.903 155.997 199.236 155.737 199.657 155.548C200.081 155.359 200.562 155.264 201.099 155.264C201.855 155.264 202.448 155.43 202.879 155.761C203.313 156.093 203.621 156.53 203.803 157.074ZM206.882 158.406V163H205.709V155.364H206.842V156.557H206.942C207.121 156.169 207.392 155.857 207.757 155.622C208.122 155.384 208.592 155.264 209.169 155.264C209.686 155.264 210.138 155.37 210.526 155.582C210.914 155.791 211.216 156.109 211.431 156.537C211.647 156.961 211.754 157.498 211.754 158.148V163H210.581V158.227C210.581 157.627 210.425 157.16 210.114 156.825C209.802 156.487 209.375 156.318 208.831 156.318C208.456 156.318 208.122 156.399 207.827 156.562C207.535 156.724 207.305 156.961 207.136 157.273C206.967 157.584 206.882 157.962 206.882 158.406ZM213.898 163V155.364H215.072V163H213.898ZM214.495 154.091C214.266 154.091 214.069 154.013 213.903 153.857C213.741 153.701 213.66 153.514 213.66 153.295C213.66 153.077 213.741 152.889 213.903 152.734C214.069 152.578 214.266 152.5 214.495 152.5C214.724 152.5 214.919 152.578 215.081 152.734C215.247 152.889 215.33 153.077 215.33 153.295C215.33 153.514 215.247 153.701 215.081 153.857C214.919 154.013 214.724 154.091 214.495 154.091ZM217.221 165.864V155.364H218.354V156.577H218.493C218.579 156.444 218.699 156.275 218.851 156.07C219.007 155.861 219.229 155.675 219.517 155.513C219.809 155.347 220.203 155.264 220.701 155.264C221.344 155.264 221.91 155.425 222.401 155.746C222.891 156.068 223.274 156.524 223.549 157.114C223.824 157.704 223.962 158.4 223.962 159.202C223.962 160.01 223.824 160.711 223.549 161.305C223.274 161.895 222.893 162.352 222.406 162.677C221.919 162.998 221.357 163.159 220.721 163.159C220.23 163.159 219.837 163.078 219.542 162.915C219.247 162.75 219.02 162.562 218.861 162.354C218.702 162.142 218.579 161.966 218.493 161.827H218.394V165.864H217.221ZM218.374 159.182C218.374 159.759 218.458 160.267 218.627 160.708C218.796 161.146 219.043 161.489 219.368 161.737C219.693 161.982 220.091 162.105 220.561 162.105C221.052 162.105 221.461 161.976 221.789 161.717C222.121 161.455 222.369 161.104 222.535 160.663C222.704 160.219 222.789 159.725 222.789 159.182C222.789 158.645 222.706 158.161 222.54 157.73C222.378 157.296 222.131 156.953 221.799 156.701C221.471 156.446 221.059 156.318 220.561 156.318C220.084 156.318 219.683 156.439 219.358 156.681C219.033 156.92 218.788 157.254 218.622 157.685C218.457 158.113 218.374 158.612 218.374 159.182ZM225.752 165.864V155.364H226.885V156.577H227.024C227.111 156.444 227.23 156.275 227.382 156.07C227.538 155.861 227.76 155.675 228.049 155.513C228.34 155.347 228.735 155.264 229.232 155.264C229.875 155.264 230.442 155.425 230.932 155.746C231.423 156.068 231.805 156.524 232.081 157.114C232.356 157.704 232.493 158.4 232.493 159.202C232.493 160.01 232.356 160.711 232.081 161.305C231.805 161.895 231.424 162.352 230.937 162.677C230.45 162.998 229.888 163.159 229.252 163.159C228.761 163.159 228.368 163.078 228.073 162.915C227.779 162.75 227.551 162.562 227.392 162.354C227.233 162.142 227.111 161.966 227.024 161.827H226.925V165.864H225.752ZM226.905 159.182C226.905 159.759 226.99 160.267 227.159 160.708C227.328 161.146 227.575 161.489 227.899 161.737C228.224 161.982 228.622 162.105 229.093 162.105C229.583 162.105 229.993 161.976 230.321 161.717C230.652 161.455 230.901 161.104 231.066 160.663C231.235 160.219 231.32 159.725 231.32 159.182C231.32 158.645 231.237 158.161 231.071 157.73C230.909 157.296 230.662 156.953 230.331 156.701C230.002 156.446 229.59 156.318 229.093 156.318C228.615 156.318 228.214 156.439 227.89 156.681C227.565 156.92 227.319 157.254 227.154 157.685C226.988 158.113 226.905 158.612 226.905 159.182ZM237.485 163.159C236.749 163.159 236.114 162.997 235.581 162.672C235.05 162.344 234.641 161.886 234.353 161.3C234.068 160.71 233.925 160.024 233.925 159.241C233.925 158.459 234.068 157.77 234.353 157.173C234.641 156.573 235.042 156.106 235.556 155.771C236.073 155.433 236.676 155.264 237.365 155.264C237.763 155.264 238.156 155.33 238.544 155.463C238.931 155.596 239.284 155.811 239.603 156.109C239.921 156.404 240.174 156.795 240.363 157.283C240.552 157.77 240.647 158.37 240.647 159.082V159.58H234.76V158.565H239.453C239.453 158.134 239.367 157.75 239.195 157.412C239.026 157.074 238.784 156.807 238.469 156.612C238.158 156.416 237.79 156.318 237.365 156.318C236.898 156.318 236.494 156.434 236.152 156.666C235.814 156.895 235.554 157.193 235.372 157.561C235.189 157.929 235.098 158.323 235.098 158.744V159.42C235.098 159.997 235.198 160.486 235.397 160.887C235.599 161.285 235.879 161.588 236.237 161.797C236.595 162.002 237.011 162.105 237.485 162.105C237.793 162.105 238.071 162.062 238.32 161.976C238.572 161.886 238.789 161.754 238.971 161.578C239.154 161.399 239.294 161.177 239.394 160.912L240.527 161.23C240.408 161.615 240.207 161.953 239.926 162.244C239.644 162.533 239.296 162.758 238.882 162.92C238.467 163.08 238.002 163.159 237.485 163.159ZM245.752 155.364V156.358H241.795V155.364H245.752ZM242.948 153.534H244.122V160.812C244.122 161.144 244.17 161.393 244.266 161.558C244.365 161.721 244.491 161.83 244.644 161.886C244.8 161.939 244.964 161.966 245.136 161.966C245.265 161.966 245.371 161.959 245.454 161.946C245.537 161.929 245.603 161.916 245.653 161.906L245.892 162.96C245.812 162.99 245.701 163.02 245.559 163.05C245.416 163.083 245.235 163.099 245.017 163.099C244.685 163.099 244.36 163.028 244.042 162.886C243.727 162.743 243.466 162.526 243.257 162.234C243.051 161.943 242.948 161.575 242.948 161.131V153.534ZM252.79 157.074L251.736 157.372C251.669 157.196 251.572 157.026 251.442 156.86C251.316 156.691 251.144 156.552 250.925 156.442C250.707 156.333 250.427 156.278 250.085 156.278C249.618 156.278 249.228 156.386 248.917 156.602C248.609 156.814 248.455 157.084 248.455 157.412C248.455 157.704 248.561 157.934 248.773 158.103C248.985 158.272 249.316 158.413 249.767 158.526L250.901 158.804C251.583 158.97 252.092 159.223 252.427 159.565C252.762 159.903 252.929 160.339 252.929 160.872C252.929 161.31 252.803 161.701 252.551 162.045C252.303 162.39 251.955 162.662 251.507 162.861C251.06 163.06 250.539 163.159 249.946 163.159C249.167 163.159 248.522 162.99 248.012 162.652C247.502 162.314 247.178 161.82 247.043 161.17L248.156 160.892C248.262 161.303 248.463 161.611 248.758 161.817C249.056 162.022 249.446 162.125 249.926 162.125C250.473 162.125 250.907 162.009 251.229 161.777C251.553 161.542 251.716 161.26 251.716 160.932C251.716 160.667 251.623 160.445 251.437 160.266C251.252 160.083 250.967 159.947 250.582 159.858L249.31 159.56C248.61 159.394 248.097 159.137 247.768 158.789C247.444 158.438 247.281 157.999 247.281 157.472C247.281 157.041 247.402 156.66 247.644 156.328C247.889 155.997 248.223 155.737 248.643 155.548C249.068 155.359 249.548 155.264 250.085 155.264C250.841 155.264 251.434 155.43 251.865 155.761C252.299 156.093 252.607 156.53 252.79 157.074Z" fill="#B9BCCD"/>
<g clip-path="url(#clip3_58_1505)">
<g clip-path="url(#clip4_58_1505)">
<path d="M52.75 234.75C52.5375 234.75 52.3594 234.678 52.2156 234.534C52.0719 234.391 52 234.213 52 234C52 233.787 52.0719 233.609 52.2156 233.466C52.3594 233.322 52.5375 233.25 52.75 233.25H57.7L61.45 229.5H60.25C60.0375 229.5 59.8594 229.428 59.7156 229.284C59.5719 229.141 59.5 228.962 59.5 228.75C59.5 228.538 59.5719 228.359 59.7156 228.216C59.8594 228.072 60.0375 228 60.25 228H63.25C63.4625 228 63.6406 228.072 63.7844 228.216C63.9281 228.359 64 228.538 64 228.75V231.75C64 231.963 63.9281 232.141 63.7844 232.284C63.6406 232.428 63.4625 232.5 63.25 232.5C63.0375 232.5 62.8594 232.428 62.7156 232.284C62.5719 232.141 62.5 231.963 62.5 231.75V230.55L58.7312 234.319C58.5938 234.456 58.4344 234.562 58.2531 234.637C58.0719 234.712 57.8812 234.75 57.6813 234.75H52.75ZM60.25 240C60.0375 240 59.8594 239.928 59.7156 239.784C59.5719 239.641 59.5 239.462 59.5 239.25C59.5 239.038 59.5719 238.859 59.7156 238.716C59.8594 238.572 60.0375 238.5 60.25 238.5H61.45L59.5938 236.663C59.4437 236.513 59.3688 236.334 59.3688 236.128C59.3688 235.922 59.4437 235.744 59.5938 235.594C59.7438 235.444 59.925 235.369 60.1375 235.369C60.35 235.369 60.5312 235.444 60.6812 235.594L62.5 237.45V236.25C62.5 236.038 62.5719 235.859 62.7156 235.716C62.8594 235.572 63.0375 235.5 63.25 235.5C63.4625 235.5 63.6406 235.572 63.7844 235.716C63.9281 235.859 64 236.038 64 236.25V239.25C64 239.462 63.9281 239.641 63.7844 239.784C63.6406 239.928 63.4625 240 63.25 240H60.25Z" fill="#888EA5"/>
</g>
</g>
<g clip-path="url(#clip5_58_1505)">
<g clip-path="url(#clip6_58_1505)">
<path d="M80.25 230C80.25 229.801 80.329 229.61 80.4697 229.47C80.6103 229.329 80.8011 229.25 81 229.25H87.5C87.6989 229.25 87.8897 229.329 88.0303 229.47C88.171 229.61 88.25 229.801 88.25 230C88.25 230.199 88.171 230.39 88.0303 230.53C87.8897 230.671 87.6989 230.75 87.5 230.75H81C80.8011 230.75 80.6103 230.671 80.4697 230.53C80.329 230.39 80.25 230.199 80.25 230ZM89.75 230C89.75 229.801 89.829 229.61 89.9697 229.47C90.1103 229.329 90.3011 229.25 90.5 229.25H93C93.1989 229.25 93.3897 229.329 93.5303 229.47C93.671 229.61 93.75 229.801 93.75 230C93.75 230.199 93.671 230.39 93.5303 230.53C93.3897 230.671 93.1989 230.75 93 230.75H90.5C90.3011 230.75 90.1103 230.671 89.9697 230.53C89.829 230.39 89.75 230.199 89.75 230ZM80.25 234C80.25 233.801 80.329 233.61 80.4697 233.47C80.6103 233.329 80.8011 233.25 81 233.25H83.5C83.6989 233.25 83.8897 233.329 84.0303 233.47C84.171 233.61 84.25 233.801 84.25 234C84.25 234.199 84.171 234.39 84.0303 234.53C83.8897 234.671 83.6989 234.75 83.5 234.75H81C80.8011 234.75 80.6103 234.671 80.4697 234.53C80.329 234.39 80.25 234.199 80.25 234ZM85.75 234C85.75 233.801 85.829 233.61 85.9697 233.47C86.1103 233.329 86.3011 233.25 86.5 233.25H93C93.1989 233.25 93.3897 233.329 93.5303 233.47C93.671 233.61 93.75 233.801 93.75 234C93.75 234.199 93.671 234.39 93.5303 234.53C93.3897 234.671 93.1989 234.75 93 234.75H86.5C86.3011 234.75 86.1103 234.671 85.9697 234.53C85.829 234.39 85.75 234.199 85.75 234ZM80.25 238C80.25 237.801 80.329 237.61 80.4697 237.47C80.6103 237.329 80.8011 237.25 81 237.25H87.5C87.6989 237.25 87.8897 237.329 88.0303 237.47C88.171 237.61 88.25 237.801 88.25 238C88.25 238.199 88.171 238.39 88.0303 238.53C87.8897 238.671 87.6989 238.75 87.5 238.75H81C80.8011 238.75 80.6103 238.671 80.4697 238.53C80.329 238.39 80.25 238.199 80.25 238ZM89.75 238C89.75 237.801 89.829 237.61 89.9697 237.47C90.1103 237.329 90.3011 237.25 90.5 237.25H93C93.1989 237.25 93.3897 237.329 93.5303 237.47C93.671 237.61 93.75 237.801 93.75 238C93.75 238.199 93.671 238.39 93.5303 238.53C93.3897 238.671 93.1989 238.75 93 238.75H90.5C90.3011 238.75 90.1103 238.671 89.9697 238.53C89.829 238.39 89.75 238.199 89.75 238Z" fill="#888EA5"/>
</g>
</g>
<g clip-path="url(#clip7_58_1505)">
<g clip-path="url(#clip8_58_1505)">
<path d="M118.375 241.031C117.225 241.031 116.25 240.656 115.45 239.906C114.65 239.156 114.25 238.242 114.25 237.164V229.781C114.25 229.008 114.544 228.346 115.131 227.795C115.719 227.244 116.425 226.969 117.25 226.969C118.075 226.969 118.781 227.244 119.369 227.795C119.956 228.346 120.25 229.008 120.25 229.781V236.461C120.25 236.953 120.069 237.369 119.706 237.709C119.344 238.049 118.9 238.219 118.375 238.219C117.85 238.219 117.406 238.049 117.044 237.709C116.681 237.369 116.5 236.953 116.5 236.461V230.309C116.5 230.156 116.553 230.03 116.659 229.931C116.766 229.831 116.9 229.781 117.062 229.781C117.225 229.781 117.359 229.831 117.466 229.931C117.572 230.03 117.625 230.156 117.625 230.309V236.461C117.625 236.66 117.697 236.827 117.841 236.962C117.984 237.097 118.162 237.164 118.375 237.164C118.588 237.164 118.766 237.097 118.909 236.962C119.053 236.827 119.125 236.66 119.125 236.461V229.781C119.125 229.289 118.944 228.873 118.581 228.533C118.219 228.193 117.775 228.023 117.25 228.023C116.725 228.023 116.281 228.193 115.919 228.533C115.556 228.873 115.375 229.289 115.375 229.781V237.164C115.375 237.938 115.669 238.6 116.256 239.15C116.844 239.701 117.55 239.977 118.375 239.977C119.2 239.977 119.906 239.701 120.494 239.15C121.081 238.6 121.375 237.938 121.375 237.164V230.309C121.375 230.156 121.428 230.03 121.534 229.931C121.641 229.831 121.775 229.781 121.938 229.781C122.1 229.781 122.234 229.831 122.341 229.931C122.447 230.03 122.5 230.156 122.5 230.309V237.164C122.5 238.242 122.1 239.156 121.3 239.906C120.5 240.656 119.525 241.031 118.375 241.031Z" fill="#888EA5"/>
</g>
</g>
<g filter="url(#filter1_diii_58_1505)">
<rect x="439.77" y="218" width="120.23" height="32" rx="6" fill="#252A3B"/>
<path d="M453.489 231.565C453.443 231.162 453.256 230.849 452.926 230.628C452.597 230.403 452.182 230.291 451.682 230.291C451.324 230.291 451.014 230.348 450.753 230.462C450.492 230.572 450.288 230.726 450.144 230.922C450.002 231.115 449.931 231.335 449.931 231.582C449.931 231.79 449.979 231.969 450.075 232.119C450.175 232.27 450.304 232.396 450.463 232.499C450.625 232.598 450.798 232.682 450.983 232.75C451.168 232.815 451.345 232.869 451.516 232.912L452.368 233.134C452.646 233.202 452.932 233.294 453.225 233.411C453.517 233.527 453.788 233.68 454.038 233.871C454.288 234.061 454.49 234.297 454.644 234.578C454.8 234.859 454.878 235.196 454.878 235.588C454.878 236.082 454.75 236.521 454.494 236.905C454.242 237.288 453.874 237.591 453.391 237.812C452.911 238.034 452.33 238.145 451.648 238.145C450.994 238.145 450.429 238.041 449.952 237.834C449.475 237.626 449.101 237.332 448.831 236.952C448.561 236.568 448.412 236.114 448.384 235.588H449.705C449.73 235.903 449.832 236.166 450.011 236.376C450.193 236.584 450.425 236.739 450.706 236.841C450.99 236.94 451.301 236.99 451.639 236.99C452.011 236.99 452.342 236.932 452.632 236.815C452.925 236.696 453.155 236.531 453.323 236.321C453.49 236.108 453.574 235.859 453.574 235.575C453.574 235.317 453.5 235.105 453.352 234.94C453.207 234.776 453.01 234.639 452.76 234.531C452.513 234.423 452.233 234.328 451.921 234.246L450.889 233.964C450.19 233.774 449.636 233.494 449.227 233.125C448.821 232.756 448.618 232.267 448.618 231.659C448.618 231.156 448.754 230.717 449.027 230.342C449.3 229.967 449.669 229.676 450.135 229.469C450.601 229.259 451.127 229.153 451.712 229.153C452.303 229.153 452.824 229.257 453.276 229.464C453.73 229.672 454.088 229.957 454.35 230.321C454.611 230.682 454.747 231.097 454.759 231.565H453.489ZM459.17 238.132C458.525 238.132 457.97 237.994 457.504 237.719C457.041 237.44 456.683 237.05 456.43 236.547C456.18 236.041 456.055 235.449 456.055 234.77C456.055 234.099 456.18 233.509 456.43 232.997C456.683 232.486 457.035 232.087 457.487 231.8C457.942 231.513 458.473 231.369 459.081 231.369C459.45 231.369 459.808 231.43 460.155 231.553C460.501 231.675 460.812 231.866 461.088 232.128C461.363 232.389 461.581 232.729 461.74 233.146C461.899 233.561 461.978 234.065 461.978 234.659V235.111H456.775V234.156H460.73C460.73 233.821 460.662 233.524 460.525 233.266C460.389 233.004 460.197 232.798 459.95 232.648C459.706 232.497 459.419 232.422 459.089 232.422C458.731 232.422 458.419 232.51 458.152 232.686C457.888 232.859 457.683 233.087 457.538 233.368C457.396 233.646 457.325 233.949 457.325 234.276V235.021C457.325 235.459 457.402 235.831 457.555 236.138C457.711 236.445 457.929 236.679 458.207 236.841C458.486 237 458.811 237.08 459.183 237.08C459.424 237.08 459.645 237.045 459.843 236.977C460.042 236.906 460.214 236.801 460.359 236.662C460.504 236.523 460.615 236.351 460.692 236.146L461.897 236.364C461.801 236.719 461.628 237.03 461.378 237.297C461.13 237.561 460.819 237.767 460.444 237.915C460.072 238.06 459.647 238.132 459.17 238.132ZM464.666 234.114V238H463.392V231.455H464.615V232.52H464.696C464.847 232.173 465.082 231.895 465.404 231.685C465.727 231.474 466.135 231.369 466.627 231.369C467.073 231.369 467.463 231.463 467.798 231.651C468.134 231.835 468.394 232.111 468.578 232.477C468.763 232.844 468.855 233.297 468.855 233.837V238H467.581V233.99C467.581 233.516 467.457 233.145 467.21 232.878C466.963 232.608 466.624 232.473 466.192 232.473C465.896 232.473 465.634 232.537 465.404 232.665C465.176 232.793 464.996 232.98 464.862 233.227C464.732 233.472 464.666 233.767 464.666 234.114ZM473.014 238.128C472.486 238.128 472.014 237.993 471.6 237.723C471.188 237.45 470.864 237.062 470.628 236.56C470.395 236.054 470.279 235.447 470.279 234.74C470.279 234.033 470.396 233.428 470.632 232.925C470.871 232.422 471.198 232.037 471.612 231.77C472.027 231.503 472.497 231.369 473.023 231.369C473.429 231.369 473.756 231.438 474.003 231.574C474.253 231.707 474.446 231.864 474.582 232.043C474.722 232.222 474.83 232.379 474.906 232.516H474.983V229.273H476.257V238H475.013V236.982H474.906C474.83 237.121 474.719 237.28 474.574 237.459C474.432 237.638 474.236 237.794 473.986 237.928C473.736 238.061 473.412 238.128 473.014 238.128ZM473.296 237.041C473.662 237.041 473.972 236.945 474.225 236.751C474.48 236.555 474.673 236.284 474.804 235.938C474.938 235.591 475.004 235.187 475.004 234.727C475.004 234.273 474.939 233.875 474.808 233.534C474.678 233.193 474.486 232.928 474.233 232.737C473.98 232.547 473.668 232.452 473.296 232.452C472.912 232.452 472.592 232.551 472.337 232.75C472.081 232.949 471.888 233.22 471.757 233.564C471.629 233.908 471.565 234.295 471.565 234.727C471.565 235.165 471.631 235.558 471.761 235.908C471.892 236.257 472.085 236.534 472.341 236.739C472.6 236.94 472.918 237.041 473.296 237.041ZM481.252 238V231.455H482.483V232.494H482.551C482.671 232.142 482.881 231.865 483.182 231.663C483.486 231.459 483.83 231.357 484.213 231.357C484.293 231.357 484.386 231.359 484.494 231.365C484.605 231.371 484.692 231.378 484.754 231.386V232.605C484.703 232.591 484.612 232.575 484.482 232.558C484.351 232.538 484.22 232.528 484.09 232.528C483.788 232.528 483.52 232.592 483.284 232.72C483.051 232.845 482.867 233.02 482.73 233.244C482.594 233.466 482.526 233.719 482.526 234.003V238H481.252ZM488.444 238.132C487.799 238.132 487.243 237.994 486.777 237.719C486.314 237.44 485.956 237.05 485.704 236.547C485.454 236.041 485.329 235.449 485.329 234.77C485.329 234.099 485.454 233.509 485.704 232.997C485.956 232.486 486.309 232.087 486.76 231.8C487.215 231.513 487.746 231.369 488.354 231.369C488.723 231.369 489.081 231.43 489.428 231.553C489.775 231.675 490.086 231.866 490.361 232.128C490.637 232.389 490.854 232.729 491.013 233.146C491.172 233.561 491.252 234.065 491.252 234.659V235.111H486.049V234.156H490.003C490.003 233.821 489.935 233.524 489.799 233.266C489.662 233.004 489.471 232.798 489.223 232.648C488.979 232.497 488.692 232.422 488.363 232.422C488.005 232.422 487.692 232.51 487.425 232.686C487.161 232.859 486.956 233.087 486.812 233.368C486.669 233.646 486.598 233.949 486.598 234.276V235.021C486.598 235.459 486.675 235.831 486.829 236.138C486.985 236.445 487.202 236.679 487.481 236.841C487.759 237 488.084 237.08 488.456 237.08C488.698 237.08 488.918 237.045 489.117 236.977C489.316 236.906 489.488 236.801 489.633 236.662C489.777 236.523 489.888 236.351 489.965 236.146L491.171 236.364C491.074 236.719 490.901 237.03 490.651 237.297C490.404 237.561 490.093 237.767 489.718 237.915C489.346 238.06 488.921 238.132 488.444 238.132ZM492.666 240.455V231.455H493.91V232.516H494.016C494.09 232.379 494.197 232.222 494.336 232.043C494.475 231.864 494.668 231.707 494.916 231.574C495.163 231.438 495.489 231.369 495.896 231.369C496.424 231.369 496.896 231.503 497.31 231.77C497.725 232.037 498.051 232.422 498.286 232.925C498.525 233.428 498.644 234.033 498.644 234.74C498.644 235.447 498.526 236.054 498.291 236.56C498.055 237.062 497.731 237.45 497.319 237.723C496.907 237.993 496.437 238.128 495.908 238.128C495.511 238.128 495.185 238.061 494.933 237.928C494.683 237.794 494.487 237.638 494.345 237.459C494.203 237.28 494.093 237.121 494.016 236.982H493.94V240.455H492.666ZM493.914 234.727C493.914 235.187 493.981 235.591 494.114 235.938C494.248 236.284 494.441 236.555 494.694 236.751C494.947 236.945 495.256 237.041 495.623 237.041C496.004 237.041 496.322 236.94 496.578 236.739C496.833 236.534 497.026 236.257 497.157 235.908C497.291 235.558 497.357 235.165 497.357 234.727C497.357 234.295 497.292 233.908 497.161 233.564C497.033 233.22 496.84 232.949 496.582 232.75C496.326 232.551 496.006 232.452 495.623 232.452C495.254 232.452 494.941 232.547 494.685 232.737C494.433 232.928 494.241 233.193 494.11 233.534C493.98 233.875 493.914 234.273 493.914 234.727ZM501.346 229.273V238H500.072V229.273H501.346ZM503.866 240.455C503.675 240.455 503.502 240.439 503.346 240.408C503.189 240.379 503.073 240.348 502.996 240.314L503.303 239.27C503.536 239.332 503.743 239.359 503.925 239.351C504.107 239.342 504.268 239.274 504.407 239.146C504.549 239.018 504.674 238.81 504.782 238.52L504.939 238.085L502.544 231.455H503.908L505.566 236.534H505.634L507.292 231.455H508.66L505.962 238.874C505.837 239.214 505.678 239.503 505.485 239.739C505.292 239.977 505.062 240.156 504.794 240.276C504.527 240.395 504.218 240.455 503.866 240.455Z" fill="white"/>
<rect x="517" y="226" width="16" height="16" rx="3" fill="#252A3B"/>
<path d="M522.784 238.176C522.456 238.176 522.156 238.096 521.886 237.937C521.615 237.776 521.399 237.56 521.237 237.289C521.076 237.016 520.995 236.716 520.995 236.391C520.995 236.06 521.076 235.759 521.237 235.488C521.399 235.217 521.615 235.001 521.886 234.84C522.156 234.678 522.456 234.598 522.784 234.598H523.597V233.395H522.784C522.456 233.395 522.156 233.315 521.886 233.156C521.615 232.995 521.399 232.78 521.237 232.512C521.076 232.241 520.995 231.94 520.995 231.609C520.995 231.281 521.076 230.982 521.237 230.711C521.399 230.44 521.615 230.225 521.886 230.066C522.156 229.905 522.456 229.824 522.784 229.824C523.112 229.824 523.412 229.905 523.682 230.066C523.953 230.225 524.169 230.44 524.331 230.711C524.495 230.982 524.577 231.281 524.577 231.609V232.418H525.776V231.609C525.776 231.281 525.856 230.982 526.014 230.711C526.176 230.44 526.392 230.225 526.663 230.066C526.934 229.905 527.235 229.824 527.565 229.824C527.893 229.824 528.193 229.905 528.464 230.066C528.735 230.225 528.949 230.44 529.108 230.711C529.27 230.982 529.35 231.281 529.35 231.609C529.35 231.94 529.27 232.241 529.108 232.512C528.947 232.78 528.731 232.995 528.46 233.156C528.192 233.315 527.893 233.395 527.565 233.395H526.757V234.598H527.565C527.893 234.598 528.192 234.678 528.46 234.84C528.731 235.001 528.947 235.217 529.108 235.488C529.27 235.759 529.35 236.06 529.35 236.391C529.35 236.716 529.27 237.016 529.108 237.289C528.947 237.56 528.731 237.776 528.46 237.937C528.192 238.096 527.893 238.176 527.565 238.176C527.235 238.176 526.934 238.096 526.663 237.937C526.392 237.776 526.176 237.56 526.014 237.289C525.856 237.016 525.776 236.716 525.776 236.391V235.574H524.577V236.391C524.577 236.716 524.495 237.016 524.331 237.289C524.169 237.56 523.953 237.776 523.682 237.937C523.412 238.096 523.112 238.176 522.784 238.176ZM522.784 237.199C522.932 237.199 523.068 237.163 523.19 237.09C523.315 237.017 523.414 236.919 523.487 236.797C523.56 236.674 523.597 236.539 523.597 236.391V235.574H522.784C522.636 235.574 522.5 235.612 522.378 235.687C522.255 235.76 522.158 235.858 522.085 235.98C522.012 236.103 521.975 236.24 521.975 236.391C521.975 236.539 522.011 236.674 522.081 236.797C522.154 236.919 522.251 237.017 522.374 237.09C522.499 237.163 522.636 237.199 522.784 237.199ZM522.784 232.418H523.597V231.609C523.597 231.458 523.56 231.323 523.487 231.203C523.414 231.081 523.315 230.983 523.19 230.91C523.068 230.837 522.932 230.801 522.784 230.801C522.636 230.801 522.5 230.837 522.378 230.91C522.255 230.983 522.158 231.081 522.085 231.203C522.012 231.323 521.975 231.458 521.975 231.609C521.975 231.758 522.011 231.895 522.081 232.02C522.154 232.142 522.251 232.24 522.374 232.312C522.499 232.383 522.636 232.418 522.784 232.418ZM526.757 232.418H527.565C527.714 232.418 527.849 232.383 527.972 232.312C528.094 232.24 528.19 232.142 528.261 232.02C528.334 231.897 528.37 231.76 528.37 231.609C528.37 231.458 528.334 231.323 528.261 231.203C528.19 231.081 528.094 230.983 527.972 230.91C527.849 230.837 527.714 230.801 527.565 230.801C527.414 230.801 527.278 230.837 527.155 230.91C527.033 230.983 526.935 231.081 526.862 231.203C526.792 231.323 526.757 231.458 526.757 231.609V232.418ZM527.565 237.199C527.714 237.199 527.849 237.163 527.972 237.09C528.094 237.017 528.19 236.919 528.261 236.797C528.334 236.674 528.37 236.539 528.37 236.391C528.37 236.24 528.334 236.103 528.261 235.98C528.19 235.858 528.094 235.76 527.972 235.687C527.849 235.612 527.714 235.574 527.565 235.574H526.757V236.391C526.757 236.539 526.792 236.674 526.862 236.797C526.935 236.919 527.033 237.017 527.155 237.09C527.278 237.163 527.414 237.199 527.565 237.199ZM524.577 234.598H525.776V233.395H524.577V234.598Z" fill="#888EA5"/>
<rect x="517.5" y="226.5" width="15" height="15" rx="2.5" stroke="#5B617A"/>
<rect x="536" y="226" width="16" height="16" rx="3" fill="#252A3B"/>
<path d="M542.306 237.039L539.735 234.5L542.306 231.961V237.039ZM541.493 235.078V233.922H548.579V235.078H541.493ZM547.458 235.078V230H548.602V235.078H547.458ZM545.274 231.156V230H548.579V231.156H545.274Z" fill="#888EA5"/>
<rect x="536.5" y="226.5" width="15" height="15" rx="2.5" stroke="#5B617A"/>
</g>
</g>
<defs>
<filter id="filter0_dd_58_1505" x="-4" y="0" width="612" height="310" filterUnits="userSpaceOnUse" color-interpolation-filters="sRGB">
<feFlood flood-opacity="0" result="BackgroundImageFix"/>
<feColorMatrix in="SourceAlpha" type="matrix" values="0 0 0 0 0 0 0 0 0 0 0 0 0 0 0 0 0 0 127 0" result="hardAlpha"/>
<feOffset dy="12"/>
<feGaussianBlur stdDeviation="18"/>
<feComposite in2="hardAlpha" operator="out"/>
<feColorMatrix type="matrix" values="0 0 0 0 0.12549 0 0 0 0 0.152941 0 0 0 0 0.172549 0 0 0 0.18 0"/>
<feBlend mode="normal" in2="BackgroundImageFix" result="effect1_dropShadow_58_1505"/>
<feColorMatrix in="SourceAlpha" type="matrix" values="0 0 0 0 0 0 0 0 0 0 0 0 0 0 0 0 0 0 127 0" result="hardAlpha"/>
<feOffset dy="1"/>
<feGaussianBlur stdDeviation="2"/>
<feComposite in2="hardAlpha" operator="out"/>
<feColorMatrix type="matrix" values="0 0 0 0 0.12549 0 0 0 0 0.152941 0 0 0 0 0.172549 0 0 0 0.16 0"/>
<feBlend mode="normal" in2="effect1_dropShadow_58_1505" result="effect2_dropShadow_58_1505"/>
<feBlend mode="normal" in="SourceGraphic" in2="effect2_dropShadow_58_1505" result="shape"/>
</filter>
<filter id="filter1_diii_58_1505" x="438.77" y="217" width="122.23" height="35" filterUnits="userSpaceOnUse" color-interpolation-filters="sRGB">
<feFlood flood-opacity="0" result="BackgroundImageFix"/>
<feColorMatrix in="SourceAlpha" type="matrix" values="0 0 0 0 0 0 0 0 0 0 0 0 0 0 0 0 0 0 127 0" result="hardAlpha"/>
<feOffset dy="1"/>
<feGaussianBlur stdDeviation="0.5"/>
<feComposite in2="hardAlpha" operator="out"/>
<feColorMatrix type="matrix" values="0 0 0 0 0.12549 0 0 0 0 0.152941 0 0 0 0 0.172549 0 0 0 0.04 0"/>
<feBlend mode="normal" in2="BackgroundImageFix" result="effect1_dropShadow_58_1505"/>
<feBlend mode="normal" in="SourceGraphic" in2="effect1_dropShadow_58_1505" result="shape"/>
<feColorMatrix in="SourceAlpha" type="matrix" values="0 0 0 0 0 0 0 0 0 0 0 0 0 0 0 0 0 0 127 0" result="hardAlpha"/>
<feMorphology radius="1" operator="erode" in="SourceAlpha" result="effect2_innerShadow_58_1505"/>
<feOffset/>
<feComposite in2="hardAlpha" operator="arithmetic" k2="-1" k3="1"/>
<feColorMatrix type="matrix" values="0 0 0 0 0.0862745 0 0 0 0 0.101961 0 0 0 0 0.14902 0 0 0 0.698 0"/>
<feBlend mode="normal" in2="shape" result="effect2_innerShadow_58_1505"/>
<feColorMatrix in="SourceAlpha" type="matrix" values="0 0 0 0 0 0 0 0 0 0 0 0 0 0 0 0 0 0 127 0" result="hardAlpha"/>
<feOffset dy="1"/>
<feGaussianBlur stdDeviation="1"/>
<feComposite in2="hardAlpha" operator="arithmetic" k2="-1" k3="1"/>
<feColorMatrix type="matrix" values="0 0 0 0 1 0 0 0 0 1 0 0 0 0 1 0 0 0 0.12 0"/>
<feBlend mode="normal" in2="effect2_innerShadow_58_1505" result="effect3_innerShadow_58_1505"/>
<feColorMatrix in="SourceAlpha" type="matrix" values="0 0 0 0 0 0 0 0 0 0 0 0 0 0 0 0 0 0 127 0" result="hardAlpha"/>
<feMorphology radius="1" operator="erode" in="SourceAlpha" result="effect4_innerShadow_58_1505"/>
<feOffset dy="-1"/>
<feGaussianBlur stdDeviation="0.5"/>
<feComposite in2="hardAlpha" operator="arithmetic" k2="-1" k3="1"/>
<feColorMatrix type="matrix" values="0 0 0 0 0 0 0 0 0 0 0 0 0 0 0 0 0 0 0.12 0"/>
<feBlend mode="normal" in2="effect3_innerShadow_58_1505" result="effect4_innerShadow_58_1505"/>
</filter>
<clipPath id="clip0_58_1505">
<rect width="6" height="18" fill="white" transform="translate(226.11 39)"/>
</clipPath>
<clipPath id="clip1_58_1505">
<rect width="6" height="4" fill="white" transform="translate(226.11 46)"/>
</clipPath>
<clipPath id="clip2_58_1505">
<rect width="6" height="4" fill="white" transform="translate(226.11 46)"/>
</clipPath>
<clipPath id="clip3_58_1505">
<rect width="12" height="12" fill="white" transform="translate(52 228)"/>
</clipPath>
<clipPath id="clip4_58_1505">
<rect width="12" height="12" fill="white" transform="translate(52 228)"/>
</clipPath>
<clipPath id="clip5_58_1505">
<rect width="14" height="10" fill="white" transform="translate(80 229)"/>
</clipPath>
<clipPath id="clip6_58_1505">
<rect width="14" height="10" fill="white" transform="translate(80 229)"/>
</clipPath>
<clipPath id="clip7_58_1505">
<rect width="9" height="15" fill="white" transform="translate(113.75 226.5)"/>
</clipPath>
<clipPath id="clip8_58_1505">
<rect width="9" height="15" fill="white" transform="translate(113.75 226.5)"/>
</clipPath>
</defs>
</svg>
