<svg width="540" height="238" viewBox="0 0 540 238" fill="none" xmlns="http://www.w3.org/2000/svg">
<rect width="540" height="238" rx="8" fill="white"/>
<path d="M17.0568 28V19.2727H22.2898V20.2102H18.1136V23.1591H21.8977V24.0966H18.1136V28H17.0568ZM23.8931 28V21.4545H24.8647V22.4432H24.9329C25.0522 22.1193 25.2681 21.8565 25.5806 21.6548C25.8931 21.4531 26.2454 21.3523 26.6374 21.3523C26.7113 21.3523 26.8036 21.3537 26.9144 21.3565C27.0252 21.3594 27.109 21.3636 27.1658 21.3693V22.392C27.1317 22.3835 27.0536 22.3707 26.9315 22.3537C26.8121 22.3338 26.6857 22.3239 26.5522 22.3239C26.234 22.3239 25.9499 22.3906 25.6999 22.5241C25.4528 22.6548 25.2567 22.8366 25.1119 23.0696C24.9698 23.2997 24.8988 23.5625 24.8988 23.858V28H23.8931ZM30.8178 28.1364C30.2269 28.1364 29.7085 27.9957 29.2624 27.7145C28.8192 27.4332 28.4727 27.0398 28.2227 26.5341C27.9755 26.0284 27.8519 25.4375 27.8519 24.7614C27.8519 24.0795 27.9755 23.4844 28.2227 22.9759C28.4727 22.4673 28.8192 22.0724 29.2624 21.7912C29.7085 21.5099 30.2269 21.3693 30.8178 21.3693C31.4087 21.3693 31.9258 21.5099 32.369 21.7912C32.815 22.0724 33.1616 22.4673 33.4087 22.9759C33.6587 23.4844 33.7837 24.0795 33.7837 24.7614C33.7837 25.4375 33.6587 26.0284 33.4087 26.5341C33.1616 27.0398 32.815 27.4332 32.369 27.7145C31.9258 27.9957 31.4087 28.1364 30.8178 28.1364ZM30.8178 27.233C31.2667 27.233 31.636 27.1179 31.9258 26.8878C32.2156 26.6577 32.43 26.3551 32.5692 25.9801C32.7085 25.6051 32.7781 25.1989 32.7781 24.7614C32.7781 24.3239 32.7085 23.9162 32.5692 23.5384C32.43 23.1605 32.2156 22.8551 31.9258 22.6222C31.636 22.3892 31.2667 22.2727 30.8178 22.2727C30.369 22.2727 29.9996 22.3892 29.7099 22.6222C29.4201 22.8551 29.2056 23.1605 29.0664 23.5384C28.9272 23.9162 28.8576 24.3239 28.8576 24.7614C28.8576 25.1989 28.9272 25.6051 29.0664 25.9801C29.2056 26.3551 29.4201 26.6577 29.7099 26.8878C29.9996 27.1179 30.369 27.233 30.8178 27.233ZM35.3189 28V21.4545H36.2905V22.4773H36.3757C36.5121 22.1278 36.7322 21.8565 37.0362 21.6634C37.3402 21.4673 37.7053 21.3693 38.1314 21.3693C38.5632 21.3693 38.9226 21.4673 39.2095 21.6634C39.4993 21.8565 39.7251 22.1278 39.8871 22.4773H39.9553C40.1229 22.1392 40.3743 21.8707 40.7095 21.6719C41.0447 21.4702 41.4467 21.3693 41.9155 21.3693C42.5007 21.3693 42.9794 21.5526 43.3516 21.919C43.7237 22.2827 43.9098 22.8494 43.9098 23.6193V28H42.9041V23.6193C42.9041 23.1364 42.772 22.7912 42.5078 22.5838C42.2436 22.3764 41.9325 22.2727 41.5746 22.2727C41.1143 22.2727 40.7578 22.4119 40.505 22.6903C40.2521 22.9659 40.1257 23.3153 40.1257 23.7386V28H39.103V23.517C39.103 23.1449 38.9822 22.8452 38.7408 22.6179C38.4993 22.3878 38.1882 22.2727 37.8075 22.2727C37.5462 22.2727 37.3018 22.3423 37.0746 22.4815C36.8501 22.6207 36.6683 22.8139 36.5291 23.0611C36.3928 23.3054 36.3246 23.5881 36.3246 23.9091V28H35.3189Z" fill="#888EA5"/>
<rect x="52" y="10" width="156.11" height="28" rx="4" fill="#B9BCCD" fill-opacity="0.16"/>
<path d="M66.483 23.0739L65.429 23.3722C65.3627 23.1965 65.2649 23.0258 65.1357 22.8601C65.0097 22.6911 64.8374 22.5518 64.6186 22.4425C64.3999 22.3331 64.1198 22.2784 63.7784 22.2784C63.3111 22.2784 62.9216 22.3861 62.6101 22.6016C62.3018 22.8137 62.1477 23.0838 62.1477 23.4119C62.1477 23.7036 62.2538 23.9339 62.4659 24.103C62.678 24.272 63.0095 24.4129 63.4602 24.5256L64.5938 24.804C65.2765 24.9697 65.7853 25.2232 66.12 25.5646C66.4548 25.9027 66.6222 26.3385 66.6222 26.8722C66.6222 27.3097 66.4962 27.7008 66.2443 28.0455C65.9957 28.3902 65.6477 28.6619 65.2003 28.8608C64.7528 29.0597 64.2325 29.1591 63.6392 29.1591C62.8603 29.1591 62.2157 28.9901 61.7053 28.652C61.1948 28.3139 60.8717 27.8201 60.7358 27.1705L61.8494 26.892C61.9555 27.303 62.156 27.6113 62.451 27.8168C62.7493 28.0223 63.1387 28.125 63.6193 28.125C64.1662 28.125 64.6004 28.009 64.9219 27.777C65.2467 27.5417 65.4091 27.2599 65.4091 26.9318C65.4091 26.6667 65.3163 26.4446 65.1307 26.2656C64.9451 26.0833 64.66 25.9474 64.2756 25.858L63.0028 25.5597C62.3035 25.3939 61.7898 25.1371 61.4616 24.7891C61.1368 24.4377 60.9744 23.9986 60.9744 23.4716C60.9744 23.0407 61.0954 22.6596 61.3374 22.3281C61.5826 21.9967 61.9157 21.7365 62.3366 21.5476C62.7609 21.3587 63.2415 21.2642 63.7784 21.2642C64.5341 21.2642 65.1274 21.4299 65.5582 21.7614C65.9924 22.0928 66.3007 22.5303 66.483 23.0739ZM73.2008 25.8778V21.3636H74.3741V29H73.2008V27.7074H73.1213C72.9423 28.0952 72.6639 28.425 72.286 28.6967C71.9082 28.9652 71.4309 29.0994 70.8542 29.0994C70.377 29.0994 69.9527 28.995 69.5815 28.7862C69.2103 28.5741 68.9186 28.2559 68.7065 27.8317C68.4944 27.4041 68.3883 26.8655 68.3883 26.2159V21.3636H69.5616V26.1364C69.5616 26.6932 69.7174 27.1373 70.0289 27.4688C70.3438 27.8002 70.7449 27.9659 71.2321 27.9659C71.5237 27.9659 71.8204 27.8913 72.122 27.7422C72.4269 27.593 72.6821 27.3643 72.8876 27.0561C73.0964 26.7479 73.2008 26.3551 73.2008 25.8778ZM76.5231 31.8636V21.3636H77.6566V22.5767H77.7958C77.882 22.4441 78.0013 22.2751 78.1538 22.0696C78.3095 21.8608 78.5316 21.6752 78.82 21.5128C79.1116 21.3471 79.506 21.2642 80.0032 21.2642C80.6462 21.2642 81.213 21.425 81.7035 21.7464C82.194 22.0679 82.5768 22.5237 82.8519 23.1136C83.127 23.7036 83.2646 24.3996 83.2646 25.2017C83.2646 26.0104 83.127 26.7114 82.8519 27.3047C82.5768 27.8946 82.1957 28.352 81.7085 28.6768C81.2212 28.9983 80.6594 29.1591 80.0231 29.1591C79.5326 29.1591 79.1398 29.0779 78.8448 28.9155C78.5498 28.7498 78.3228 28.5625 78.1637 28.3537C78.0046 28.1416 77.882 27.9659 77.7958 27.8267H77.6964V31.8636H76.5231ZM77.6765 25.1818C77.6765 25.7585 77.761 26.2673 77.93 26.7081C78.0991 27.1456 78.346 27.4886 78.6708 27.7372C78.9956 27.9825 79.3933 28.1051 79.864 28.1051C80.3545 28.1051 80.7638 27.9759 81.092 27.7173C81.4234 27.4555 81.672 27.1042 81.8377 26.6634C82.0067 26.2192 82.0913 25.7254 82.0913 25.1818C82.0913 24.6449 82.0084 24.161 81.8427 23.7301C81.6803 23.2959 81.4334 22.9529 81.1019 22.701C80.7738 22.4458 80.3612 22.3182 79.864 22.3182C79.3867 22.3182 78.9857 22.4392 78.6609 22.6811C78.3361 22.9197 78.0908 23.2545 77.9251 23.6854C77.7594 24.1129 77.6765 24.6117 77.6765 25.1818ZM85.0543 31.8636V21.3636H86.1879V22.5767H86.3271C86.4132 22.4441 86.5326 22.2751 86.685 22.0696C86.8408 21.8608 87.0629 21.6752 87.3512 21.5128C87.6429 21.3471 88.0373 21.2642 88.5344 21.2642C89.1774 21.2642 89.7442 21.425 90.2347 21.7464C90.7253 22.0679 91.1081 22.5237 91.3832 23.1136C91.6583 23.7036 91.7958 24.3996 91.7958 25.2017C91.7958 26.0104 91.6583 26.7114 91.3832 27.3047C91.1081 27.8946 90.7269 28.352 90.2397 28.6768C89.7525 28.9983 89.1907 29.1591 88.5543 29.1591C88.0638 29.1591 87.671 29.0779 87.3761 28.9155C87.0811 28.7498 86.854 28.5625 86.695 28.3537C86.5359 28.1416 86.4132 27.9659 86.3271 27.8267H86.2276V31.8636H85.0543ZM86.2077 25.1818C86.2077 25.7585 86.2923 26.2673 86.4613 26.7081C86.6303 27.1456 86.8772 27.4886 87.2021 27.7372C87.5269 27.9825 87.9246 28.1051 88.3952 28.1051C88.8858 28.1051 89.2951 27.9759 89.6232 27.7173C89.9547 27.4555 90.2032 27.1042 90.369 26.6634C90.538 26.2192 90.6225 25.7254 90.6225 25.1818C90.6225 24.6449 90.5397 24.161 90.3739 23.7301C90.2115 23.2959 89.9646 22.9529 89.6332 22.701C89.305 22.4458 88.8924 22.3182 88.3952 22.3182C87.918 22.3182 87.5169 22.4392 87.1921 22.6811C86.8673 22.9197 86.622 23.2545 86.4563 23.6854C86.2906 24.1129 86.2077 24.6117 86.2077 25.1818ZM96.6879 29.1591C95.9985 29.1591 95.3936 28.995 94.8732 28.6669C94.3562 28.3388 93.9518 27.8797 93.6602 27.2898C93.3718 26.6998 93.2276 26.0104 93.2276 25.2216C93.2276 24.4261 93.3718 23.7318 93.6602 23.1385C93.9518 22.5452 94.3562 22.0845 94.8732 21.7564C95.3936 21.4283 95.9985 21.2642 96.6879 21.2642C97.3772 21.2642 97.9805 21.4283 98.4975 21.7564C99.0179 22.0845 99.4222 22.5452 99.7106 23.1385C100.002 23.7318 100.148 24.4261 100.148 25.2216C100.148 26.0104 100.002 26.6998 99.7106 27.2898C99.4222 27.8797 99.0179 28.3388 98.4975 28.6669C97.9805 28.995 97.3772 29.1591 96.6879 29.1591ZM96.6879 28.1051C97.2115 28.1051 97.6424 27.9709 97.9805 27.7024C98.3185 27.4339 98.5688 27.081 98.7312 26.6435C98.8936 26.206 98.9748 25.732 98.9748 25.2216C98.9748 24.7112 98.8936 24.2356 98.7312 23.7947C98.5688 23.3539 98.3185 22.9976 97.9805 22.7259C97.6424 22.4541 97.2115 22.3182 96.6879 22.3182C96.1642 22.3182 95.7333 22.4541 95.3952 22.7259C95.0572 22.9976 94.8069 23.3539 94.6445 23.7947C94.4821 24.2356 94.4009 24.7112 94.4009 25.2216C94.4009 25.732 94.4821 26.206 94.6445 26.6435C94.8069 27.081 95.0572 27.4339 95.3952 27.7024C95.7333 27.9709 96.1642 28.1051 96.6879 28.1051ZM101.939 29V21.3636H103.073V22.517H103.152C103.291 22.1392 103.543 21.8326 103.908 21.5973C104.272 21.362 104.683 21.2443 105.141 21.2443C105.227 21.2443 105.335 21.246 105.464 21.2493C105.593 21.2526 105.691 21.2576 105.757 21.2642V22.4574C105.718 22.4474 105.626 22.4325 105.484 22.4126C105.345 22.3894 105.197 22.3778 105.041 22.3778C104.67 22.3778 104.339 22.4557 104.047 22.6115C103.759 22.764 103.53 22.9761 103.361 23.2479C103.195 23.5163 103.112 23.8229 103.112 24.1676V29H101.939ZM110.948 21.3636V22.358H106.99V21.3636H110.948ZM108.144 19.5341H109.317V26.8125C109.317 27.1439 109.365 27.3925 109.461 27.5582C109.561 27.7206 109.686 27.83 109.839 27.8864C109.995 27.9394 110.159 27.9659 110.331 27.9659C110.46 27.9659 110.566 27.9593 110.649 27.946C110.732 27.9295 110.798 27.9162 110.848 27.9062L111.087 28.9602C111.007 28.9901 110.896 29.0199 110.754 29.0497C110.611 29.0829 110.431 29.0994 110.212 29.0994C109.88 29.0994 109.556 29.0282 109.237 28.8857C108.923 28.7431 108.661 28.526 108.452 28.2344C108.246 27.9427 108.144 27.5748 108.144 27.1307V19.5341ZM118.579 31.6847C117.565 31.6847 116.668 31.5455 115.889 31.267C115.11 30.992 114.456 30.5859 113.926 30.049C113.395 29.5121 112.994 28.8542 112.722 28.0753C112.451 27.2964 112.315 26.4048 112.315 25.4006C112.315 24.4295 112.452 23.5611 112.727 22.7955C113.006 22.0298 113.409 21.3802 113.936 20.8466C114.466 20.3097 115.109 19.9003 115.865 19.6186C116.624 19.3369 117.482 19.196 118.44 19.196C119.371 19.196 120.186 19.3485 120.886 19.6534C121.588 19.955 122.175 20.3643 122.646 20.8814C123.12 21.3951 123.474 21.9735 123.71 22.6165C123.948 23.2595 124.068 23.9223 124.068 24.6051C124.068 25.0857 124.044 25.5729 123.998 26.0668C123.952 26.5606 123.854 27.0147 123.705 27.429C123.556 27.84 123.325 28.1714 123.014 28.4233C122.705 28.6752 122.288 28.8011 121.761 28.8011C121.529 28.8011 121.274 28.7647 120.995 28.6918C120.717 28.6188 120.47 28.4979 120.254 28.3288C120.039 28.1598 119.911 27.9328 119.872 27.6477H119.812C119.732 27.84 119.61 28.0223 119.444 28.1946C119.282 28.367 119.068 28.5045 118.803 28.6072C118.541 28.71 118.221 28.7547 117.843 28.7415C117.412 28.7249 117.033 28.6288 116.705 28.4531C116.377 28.2741 116.102 28.0322 115.879 27.7273C115.661 27.419 115.495 27.0627 115.382 26.6584C115.273 26.2507 115.218 25.8116 115.218 25.3409C115.218 24.8935 115.285 24.4841 115.417 24.1129C115.55 23.7417 115.734 23.4169 115.969 23.1385C116.208 22.8601 116.486 22.638 116.804 22.4723C117.126 22.3033 117.472 22.1989 117.843 22.1591C118.175 22.1259 118.476 22.1409 118.748 22.2038C119.02 22.2635 119.244 22.3546 119.419 22.4773C119.595 22.5966 119.706 22.7292 119.752 22.875H119.812V22.3182H120.866V26.8125C120.866 27.0909 120.944 27.3362 121.1 27.5483C121.255 27.7604 121.482 27.8665 121.781 27.8665C122.119 27.8665 122.377 27.7505 122.556 27.5185C122.739 27.2865 122.863 26.9285 122.929 26.4446C122.999 25.9607 123.034 25.3409 123.034 24.5852C123.034 24.1411 122.972 23.7036 122.85 23.2727C122.73 22.8385 122.548 22.4325 122.303 22.0547C122.061 21.6768 121.754 21.3437 121.383 21.0554C121.012 20.767 120.576 20.5417 120.075 20.3793C119.578 20.2135 119.013 20.1307 118.38 20.1307C117.601 20.1307 116.904 20.2517 116.287 20.4936C115.674 20.7322 115.152 21.0819 114.721 21.5426C114.294 22 113.967 22.5568 113.742 23.2131C113.52 23.866 113.409 24.6084 113.409 25.4403C113.409 26.2855 113.52 27.0362 113.742 27.6925C113.967 28.3487 114.298 28.9022 114.736 29.353C115.177 29.8037 115.722 30.1451 116.372 30.3771C117.021 30.6125 117.77 30.7301 118.619 30.7301C118.983 30.7301 119.343 30.6953 119.698 30.6257C120.052 30.5561 120.365 30.4799 120.637 30.397C120.909 30.3142 121.105 30.2528 121.224 30.2131L121.502 31.1278C121.297 31.214 121.028 31.3002 120.697 31.3864C120.369 31.4725 120.017 31.5438 119.643 31.6001C119.272 31.6565 118.917 31.6847 118.579 31.6847ZM118.002 27.7273C118.446 27.7273 118.806 27.6378 119.081 27.4588C119.356 27.2798 119.557 27.0097 119.683 26.6484C119.809 26.2872 119.872 25.8314 119.872 25.2812C119.872 24.7244 119.802 24.2902 119.663 23.9787C119.524 23.6671 119.318 23.4484 119.046 23.3224C118.775 23.1965 118.44 23.1335 118.042 23.1335C117.664 23.1335 117.341 23.233 117.073 23.4318C116.807 23.6274 116.604 23.8892 116.461 24.2173C116.322 24.5421 116.252 24.8968 116.252 25.2812C116.252 25.7055 116.309 26.1049 116.421 26.4794C116.534 26.8506 116.718 27.1522 116.973 27.3842C117.228 27.6129 117.571 27.7273 118.002 27.7273ZM128.071 29.179C127.587 29.179 127.148 29.0878 126.754 28.9055C126.359 28.7199 126.046 28.4531 125.814 28.1051C125.582 27.7538 125.466 27.3295 125.466 26.8324C125.466 26.3949 125.552 26.0402 125.724 25.7685C125.897 25.4934 126.127 25.2779 126.415 25.1222C126.704 24.9664 127.022 24.8504 127.37 24.7741C127.721 24.6946 128.074 24.6316 128.429 24.5852C128.893 24.5256 129.269 24.4808 129.558 24.451C129.849 24.4179 130.061 24.3632 130.194 24.2869C130.33 24.2107 130.398 24.0781 130.398 23.8892V23.8494C130.398 23.3589 130.263 22.9777 129.995 22.706C129.73 22.4342 129.327 22.2983 128.787 22.2983C128.227 22.2983 127.788 22.4209 127.469 22.6662C127.151 22.9115 126.928 23.1733 126.798 23.4517L125.685 23.054C125.884 22.59 126.149 22.2287 126.48 21.9702C126.815 21.7083 127.179 21.526 127.574 21.4233C127.972 21.3172 128.363 21.2642 128.747 21.2642C128.992 21.2642 129.274 21.294 129.592 21.3537C129.914 21.41 130.224 21.5277 130.522 21.7067C130.824 21.8857 131.074 22.1558 131.273 22.517C131.472 22.8783 131.571 23.3622 131.571 23.9688V29H130.398V27.9659H130.338C130.259 28.1316 130.126 28.3089 129.94 28.4979C129.755 28.6868 129.508 28.8475 129.2 28.9801C128.891 29.1127 128.515 29.179 128.071 29.179ZM128.25 28.125C128.714 28.125 129.105 28.0339 129.423 27.8516C129.745 27.6693 129.987 27.4339 130.149 27.1456C130.315 26.8572 130.398 26.554 130.398 26.2358V25.1619C130.348 25.2216 130.239 25.2763 130.07 25.326C129.904 25.3724 129.712 25.4138 129.493 25.4503C129.277 25.4834 129.067 25.5133 128.862 25.5398C128.659 25.563 128.495 25.5829 128.369 25.5994C128.064 25.6392 127.779 25.7038 127.514 25.7933C127.252 25.8795 127.04 26.0104 126.878 26.1861C126.719 26.3584 126.639 26.5937 126.639 26.892C126.639 27.2997 126.79 27.608 127.092 27.8168C127.397 28.0223 127.783 28.125 128.25 28.125ZM137.034 21.3636V22.358H133.076V21.3636H137.034ZM134.23 19.5341H135.403V26.8125C135.403 27.1439 135.451 27.3925 135.547 27.5582C135.646 27.7206 135.772 27.83 135.925 27.8864C136.081 27.9394 136.245 27.9659 136.417 27.9659C136.546 27.9659 136.652 27.9593 136.735 27.946C136.818 27.9295 136.884 27.9162 136.934 27.9062L137.173 28.9602C137.093 28.9901 136.982 29.0199 136.84 29.0497C136.697 29.0829 136.517 29.0994 136.298 29.0994C135.966 29.0994 135.642 29.0282 135.323 28.8857C135.008 28.7431 134.747 28.526 134.538 28.2344C134.332 27.9427 134.23 27.5748 134.23 27.1307V19.5341ZM138.798 29V21.3636H139.932V22.517H140.012C140.151 22.1392 140.403 21.8326 140.767 21.5973C141.132 21.362 141.543 21.2443 142 21.2443C142.086 21.2443 142.194 21.246 142.323 21.2493C142.453 21.2526 142.55 21.2576 142.617 21.2642V22.4574C142.577 22.4474 142.486 22.4325 142.343 22.4126C142.204 22.3894 142.057 22.3778 141.901 22.3778C141.53 22.3778 141.198 22.4557 140.906 22.6115C140.618 22.764 140.389 22.9761 140.22 23.2479C140.055 23.5163 139.972 23.8229 139.972 24.1676V29H138.798ZM144.007 29V21.3636H145.181V29H144.007ZM144.604 20.0909C144.375 20.0909 144.178 20.013 144.012 19.8572C143.85 19.7015 143.769 19.5142 143.769 19.2955C143.769 19.0767 143.85 18.8894 144.012 18.7337C144.178 18.5779 144.375 18.5 144.604 18.5C144.833 18.5 145.028 18.5779 145.191 18.7337C145.356 18.8894 145.439 19.0767 145.439 19.2955C145.439 19.5142 145.356 19.7015 145.191 19.8572C145.028 20.013 144.833 20.0909 144.604 20.0909ZM152.142 25.8778V21.3636H153.316V29H152.142V27.7074H152.063C151.884 28.0952 151.605 28.425 151.227 28.6967C150.85 28.9652 150.372 29.0994 149.796 29.0994C149.318 29.0994 148.894 28.995 148.523 28.7862C148.152 28.5741 147.86 28.2559 147.648 27.8317C147.436 27.4041 147.33 26.8655 147.33 26.2159V21.3636H148.503V26.1364C148.503 26.6932 148.659 27.1373 148.97 27.4688C149.285 27.8002 149.686 27.9659 150.173 27.9659C150.465 27.9659 150.762 27.8913 151.063 27.7422C151.368 27.593 151.624 27.3643 151.829 27.0561C152.038 26.7479 152.142 26.3551 152.142 25.8778ZM155.464 29V21.3636H156.598V22.5568H156.697C156.857 22.1491 157.113 21.8326 157.468 21.6072C157.823 21.3786 158.249 21.2642 158.746 21.2642C159.25 21.2642 159.669 21.3786 160.004 21.6072C160.342 21.8326 160.605 22.1491 160.794 22.5568H160.874C161.069 22.1624 161.362 21.8492 161.754 21.6172C162.145 21.3819 162.614 21.2642 163.161 21.2642C163.843 21.2642 164.402 21.478 164.836 21.9055C165.27 22.3298 165.487 22.991 165.487 23.8892V29H164.314V23.8892C164.314 23.3258 164.16 22.9231 163.852 22.6811C163.543 22.4392 163.18 22.3182 162.763 22.3182C162.226 22.3182 161.81 22.4806 161.515 22.8054C161.22 23.1269 161.072 23.5346 161.072 24.0284V29H159.879V23.7699C159.879 23.3357 159.738 22.986 159.457 22.7209C159.175 22.4524 158.812 22.3182 158.368 22.3182C158.063 22.3182 157.778 22.3994 157.513 22.5618C157.251 22.7242 157.039 22.9496 156.876 23.2379C156.717 23.523 156.638 23.8527 156.638 24.2273V29H155.464ZM168.488 29.0795C168.242 29.0795 168.032 28.9917 167.856 28.8161C167.681 28.6404 167.593 28.4299 167.593 28.1847C167.593 27.9394 167.681 27.7289 167.856 27.5533C168.032 27.3776 168.242 27.2898 168.488 27.2898C168.733 27.2898 168.943 27.3776 169.119 27.5533C169.295 27.7289 169.382 27.9394 169.382 28.1847C169.382 28.3471 169.341 28.4962 169.258 28.6321C169.179 28.768 169.071 28.8774 168.935 28.9602C168.802 29.0398 168.653 29.0795 168.488 29.0795ZM176.897 23.0739L175.843 23.3722C175.777 23.1965 175.679 23.0258 175.55 22.8601C175.424 22.6911 175.251 22.5518 175.033 22.4425C174.814 22.3331 174.534 22.2784 174.192 22.2784C173.725 22.2784 173.336 22.3861 173.024 22.6016C172.716 22.8137 172.562 23.0838 172.562 23.4119C172.562 23.7036 172.668 23.9339 172.88 24.103C173.092 24.272 173.424 24.4129 173.874 24.5256L175.008 24.804C175.691 24.9697 176.199 25.2232 176.534 25.5646C176.869 25.9027 177.036 26.3385 177.036 26.8722C177.036 27.3097 176.91 27.7008 176.658 28.0455C176.41 28.3902 176.062 28.6619 175.614 28.8608C175.167 29.0597 174.647 29.1591 174.053 29.1591C173.274 29.1591 172.63 28.9901 172.119 28.652C171.609 28.3139 171.286 27.8201 171.15 27.1705L172.263 26.892C172.37 27.303 172.57 27.6113 172.865 27.8168C173.163 28.0223 173.553 28.125 174.033 28.125C174.58 28.125 175.014 28.009 175.336 27.777C175.661 27.5417 175.823 27.2599 175.823 26.9318C175.823 26.6667 175.73 26.4446 175.545 26.2656C175.359 26.0833 175.074 25.9474 174.69 25.858L173.417 25.5597C172.718 25.3939 172.204 25.1371 171.876 24.7891C171.551 24.4377 171.388 23.9986 171.388 23.4716C171.388 23.0407 171.509 22.6596 171.751 22.3281C171.997 21.9967 172.33 21.7365 172.751 21.5476C173.175 21.3587 173.656 21.2642 174.192 21.2642C174.948 21.2642 175.541 21.4299 175.972 21.7614C176.406 22.0928 176.715 22.5303 176.897 23.0739ZM181.905 29.1591C181.215 29.1591 180.61 28.995 180.09 28.6669C179.573 28.3388 179.169 27.8797 178.877 27.2898C178.589 26.6998 178.444 26.0104 178.444 25.2216C178.444 24.4261 178.589 23.7318 178.877 23.1385C179.169 22.5452 179.573 22.0845 180.09 21.7564C180.61 21.4283 181.215 21.2642 181.905 21.2642C182.594 21.2642 183.197 21.4283 183.714 21.7564C184.235 22.0845 184.639 22.5452 184.927 23.1385C185.219 23.7318 185.365 24.4261 185.365 25.2216C185.365 26.0104 185.219 26.6998 184.927 27.2898C184.639 27.8797 184.235 28.3388 183.714 28.6669C183.197 28.995 182.594 29.1591 181.905 29.1591ZM181.905 28.1051C182.428 28.1051 182.859 27.9709 183.197 27.7024C183.535 27.4339 183.786 27.081 183.948 26.6435C184.11 26.206 184.192 25.732 184.192 25.2216C184.192 24.7112 184.11 24.2356 183.948 23.7947C183.786 23.3539 183.535 22.9976 183.197 22.7259C182.859 22.4541 182.428 22.3182 181.905 22.3182C181.381 22.3182 180.95 22.4541 180.612 22.7259C180.274 22.9976 180.024 23.3539 179.861 23.7947C179.699 24.2356 179.618 24.7112 179.618 25.2216C179.618 25.732 179.699 26.206 179.861 26.6435C180.024 27.081 180.274 27.4339 180.612 27.7024C180.95 27.9709 181.381 28.1051 181.905 28.1051Z" fill="#161A26"/>
<g clip-path="url(#clip0_445_1597)">
<g clip-path="url(#clip1_445_1597)">
<g clip-path="url(#clip2_445_1597)">
<path d="M196.585 25.725L194.635 23.775C194.397 23.5375 194.344 23.2656 194.476 22.9594C194.607 22.6531 194.841 22.5 195.179 22.5H199.041C199.379 22.5 199.613 22.6531 199.744 22.9594C199.876 23.2656 199.822 23.5375 199.585 23.775L197.635 25.725C197.56 25.8 197.479 25.8562 197.391 25.8937C197.304 25.9312 197.21 25.95 197.11 25.95C197.01 25.95 196.916 25.9312 196.829 25.8937C196.741 25.8562 196.66 25.8 196.585 25.725Z" fill="#888EA5"/>
</g>
</g>
</g>
<path d="M16.5795 52.2102V51.2727H23.125V52.2102H20.3807V60H19.3239V52.2102H16.5795ZM26.3295 60.1364C25.7386 60.1364 25.2202 59.9957 24.7741 59.7145C24.331 59.4332 23.9844 59.0398 23.7344 58.5341C23.4872 58.0284 23.3636 57.4375 23.3636 56.7614C23.3636 56.0795 23.4872 55.4844 23.7344 54.9759C23.9844 54.4673 24.331 54.0724 24.7741 53.7912C25.2202 53.5099 25.7386 53.3693 26.3295 53.3693C26.9205 53.3693 27.4375 53.5099 27.8807 53.7912C28.3267 54.0724 28.6733 54.4673 28.9205 54.9759C29.1705 55.4844 29.2955 56.0795 29.2955 56.7614C29.2955 57.4375 29.1705 58.0284 28.9205 58.5341C28.6733 59.0398 28.3267 59.4332 27.8807 59.7145C27.4375 59.9957 26.9205 60.1364 26.3295 60.1364ZM26.3295 59.233C26.7784 59.233 27.1477 59.1179 27.4375 58.8878C27.7273 58.6577 27.9418 58.3551 28.081 57.9801C28.2202 57.6051 28.2898 57.1989 28.2898 56.7614C28.2898 56.3239 28.2202 55.9162 28.081 55.5384C27.9418 55.1605 27.7273 54.8551 27.4375 54.6222C27.1477 54.3892 26.7784 54.2727 26.3295 54.2727C25.8807 54.2727 25.5114 54.3892 25.2216 54.6222C24.9318 54.8551 24.7173 55.1605 24.5781 55.5384C24.4389 55.9162 24.3693 56.3239 24.3693 56.7614C24.3693 57.1989 24.4389 57.6051 24.5781 57.9801C24.7173 58.3551 24.9318 58.6577 25.2216 58.8878C25.5114 59.1179 25.8807 59.233 26.3295 59.233Z" fill="#888EA5"/>
<path d="M63.321 61.179C62.8371 61.179 62.398 61.0878 62.0036 60.9055C61.6091 60.7199 61.2959 60.4531 61.0639 60.1051C60.8319 59.7538 60.7159 59.3295 60.7159 58.8324C60.7159 58.3949 60.8021 58.0402 60.9744 57.7685C61.1468 57.4934 61.3771 57.2779 61.6655 57.1222C61.9538 56.9664 62.272 56.8504 62.62 56.7741C62.9714 56.6946 63.3243 56.6316 63.679 56.5852C64.143 56.5256 64.5192 56.4808 64.8075 56.451C65.0992 56.4179 65.3113 56.3632 65.4439 56.2869C65.5798 56.2107 65.6477 56.0781 65.6477 55.8892V55.8494C65.6477 55.3589 65.5135 54.9777 65.245 54.706C64.9799 54.4342 64.5772 54.2983 64.0369 54.2983C63.4768 54.2983 63.0376 54.4209 62.7195 54.6662C62.4013 54.9115 62.1776 55.1733 62.0483 55.4517L60.9347 55.054C61.1335 54.59 61.3987 54.2287 61.7301 53.9702C62.0649 53.7083 62.4295 53.526 62.8239 53.4233C63.2216 53.3172 63.6127 53.2642 63.9972 53.2642C64.2424 53.2642 64.5241 53.294 64.8423 53.3537C65.1638 53.41 65.4737 53.5277 65.772 53.7067C66.0736 53.8857 66.3239 54.1558 66.5227 54.517C66.7216 54.8783 66.821 55.3622 66.821 55.9688V61H65.6477V59.9659H65.5881C65.5085 60.1316 65.3759 60.3089 65.1903 60.4979C65.0047 60.6868 64.7578 60.8475 64.4496 60.9801C64.1413 61.1127 63.7652 61.179 63.321 61.179ZM63.5 60.125C63.964 60.125 64.3551 60.0339 64.6733 59.8516C64.9948 59.6693 65.2367 59.4339 65.3991 59.1456C65.5649 58.8572 65.6477 58.554 65.6477 58.2358V57.1619C65.598 57.2216 65.4886 57.2763 65.3196 57.326C65.1539 57.3724 64.9616 57.4138 64.7429 57.4503C64.5275 57.4834 64.317 57.5133 64.1115 57.5398C63.9093 57.563 63.7453 57.5829 63.6193 57.5994C63.3144 57.6392 63.0294 57.7038 62.7642 57.7933C62.5024 57.8795 62.2902 58.0104 62.1278 58.1861C61.9688 58.3584 61.8892 58.5937 61.8892 58.892C61.8892 59.2997 62.04 59.608 62.3416 59.8168C62.6465 60.0223 63.0327 60.125 63.5 60.125ZM70.1358 56.4062V61H68.9625V53.3636H70.0961V54.5568H70.1955C70.3745 54.169 70.6462 53.8575 71.0108 53.6222C71.3754 53.3835 71.8461 53.2642 72.4228 53.2642C72.9398 53.2642 73.3922 53.3703 73.78 53.5824C74.1678 53.7912 74.4694 54.1094 74.6848 54.5369C74.9003 54.9612 75.008 55.4981 75.008 56.1477V61H73.8347V56.2273C73.8347 55.6274 73.6789 55.16 73.3674 54.8253C73.0558 54.4872 72.6283 54.3182 72.0847 54.3182C71.7102 54.3182 71.3754 54.3994 71.0804 54.5618C70.7888 54.7242 70.5584 54.9612 70.3894 55.2727C70.2203 55.5843 70.1358 55.9621 70.1358 56.4062ZM78.3253 56.4062V61H77.152V53.3636H78.2855V54.5568H78.3849C78.5639 54.169 78.8357 53.8575 79.2003 53.6222C79.5649 53.3835 80.0355 53.2642 80.6122 53.2642C81.1293 53.2642 81.5817 53.3703 81.9695 53.5824C82.3572 53.7912 82.6589 54.1094 82.8743 54.5369C83.0897 54.9612 83.1974 55.4981 83.1974 56.1477V61H82.0241V56.2273C82.0241 55.6274 81.8684 55.16 81.5568 54.8253C81.2453 54.4872 80.8177 54.3182 80.2741 54.3182C79.8996 54.3182 79.5649 54.3994 79.2699 54.5618C78.9782 54.7242 78.7479 54.9612 78.5788 55.2727C78.4098 55.5843 78.3253 55.9621 78.3253 56.4062ZM85.3414 61V53.3636H86.5147V61H85.3414ZM85.938 52.0909C85.7093 52.0909 85.5121 52.013 85.3464 51.8572C85.184 51.7015 85.1028 51.5142 85.1028 51.2955C85.1028 51.0767 85.184 50.8894 85.3464 50.7337C85.5121 50.5779 85.7093 50.5 85.938 50.5C86.1667 50.5 86.3623 50.5779 86.5247 50.7337C86.6904 50.8894 86.7733 51.0767 86.7733 51.2955C86.7733 51.5142 86.6904 51.7015 86.5247 51.8572C86.3623 52.013 86.1667 52.0909 85.938 52.0909ZM91.8654 61.1591C91.1296 61.1591 90.4949 60.9967 89.9613 60.6719C89.431 60.3438 89.0217 59.8864 88.7333 59.2997C88.4483 58.7098 88.3058 58.0237 88.3058 57.2415C88.3058 56.4593 88.4483 55.7699 88.7333 55.1733C89.0217 54.5734 89.4227 54.1061 89.9364 53.7713C90.4535 53.4332 91.0567 53.2642 91.7461 53.2642C92.1438 53.2642 92.5366 53.3305 92.9244 53.4631C93.3121 53.5956 93.6651 53.8111 93.9833 54.1094C94.3015 54.4044 94.555 54.7955 94.744 55.2827C94.9329 55.7699 95.0273 56.3698 95.0273 57.0824V57.5795H89.141V56.5653H93.8342C93.8342 56.1345 93.748 55.75 93.5756 55.4119C93.4066 55.0739 93.1647 54.8071 92.8498 54.6115C92.5382 54.416 92.1703 54.3182 91.7461 54.3182C91.2788 54.3182 90.8744 54.4342 90.533 54.6662C90.195 54.8949 89.9348 55.1932 89.7525 55.5611C89.5702 55.929 89.479 56.3234 89.479 56.7443V57.4205C89.479 57.9972 89.5785 58.486 89.7773 58.8871C89.9795 59.2848 90.2596 59.5881 90.6175 59.7969C90.9755 60.0024 91.3915 60.1051 91.8654 60.1051C92.1737 60.1051 92.4521 60.062 92.7006 59.9759C92.9525 59.8864 93.1696 59.7538 93.3519 59.5781C93.5342 59.3991 93.6751 59.1771 93.7745 58.9119L94.908 59.2301C94.7887 59.6146 94.5882 59.9527 94.3065 60.2443C94.0247 60.5327 93.6767 60.758 93.2624 60.9205C92.8481 61.0795 92.3825 61.1591 91.8654 61.1591ZM102.679 63.6847C101.664 63.6847 100.768 63.5455 99.989 63.267C99.2101 62.992 98.5555 62.5859 98.0252 62.049C97.4949 61.5121 97.0939 60.8542 96.8221 60.0753C96.5503 59.2964 96.4144 58.4048 96.4144 57.4006C96.4144 56.4295 96.552 55.5611 96.8271 54.7955C97.1055 54.0298 97.5082 53.3802 98.0352 52.8466C98.5655 52.3097 99.2085 51.9003 99.9641 51.6186C100.723 51.3369 101.582 51.196 102.539 51.196C103.471 51.196 104.286 51.3485 104.985 51.6534C105.688 51.955 106.275 52.3643 106.745 52.8814C107.219 53.3951 107.574 53.9735 107.809 54.6165C108.048 55.2595 108.167 55.9223 108.167 56.6051C108.167 57.0857 108.144 57.5729 108.098 58.0668C108.051 58.5606 107.953 59.0147 107.804 59.429C107.655 59.84 107.425 60.1714 107.113 60.4233C106.805 60.6752 106.387 60.8011 105.86 60.8011C105.628 60.8011 105.373 60.7647 105.095 60.6918C104.816 60.6188 104.569 60.4979 104.354 60.3288C104.139 60.1598 104.011 59.9328 103.971 59.6477H103.912C103.832 59.84 103.709 60.0223 103.544 60.1946C103.381 60.367 103.167 60.5045 102.902 60.6072C102.641 60.71 102.321 60.7547 101.943 60.7415C101.512 60.7249 101.132 60.6288 100.804 60.4531C100.476 60.2741 100.201 60.0322 99.979 59.7273C99.7603 59.419 99.5946 59.0627 99.4819 58.6584C99.3725 58.2507 99.3178 57.8116 99.3178 57.3409C99.3178 56.8935 99.3841 56.4841 99.5167 56.1129C99.6493 55.7417 99.8332 55.4169 100.069 55.1385C100.307 54.8601 100.586 54.638 100.904 54.4723C101.225 54.3033 101.572 54.1989 101.943 54.1591C102.274 54.1259 102.576 54.1409 102.848 54.2038C103.119 54.2635 103.343 54.3546 103.519 54.4773C103.694 54.5966 103.806 54.7292 103.852 54.875H103.912V54.3182H104.966V58.8125C104.966 59.0909 105.043 59.3362 105.199 59.5483C105.355 59.7604 105.582 59.8665 105.88 59.8665C106.218 59.8665 106.477 59.7505 106.656 59.5185C106.838 59.2865 106.962 58.9285 107.029 58.4446C107.098 57.9607 107.133 57.3409 107.133 56.5852C107.133 56.1411 107.072 55.7036 106.949 55.2727C106.83 54.8385 106.648 54.4325 106.402 54.0547C106.16 53.6768 105.854 53.3437 105.483 53.0554C105.111 52.767 104.676 52.5417 104.175 52.3793C103.678 52.2135 103.113 52.1307 102.48 52.1307C101.701 52.1307 101.003 52.2517 100.387 52.4936C99.7736 52.7322 99.2515 53.0819 98.8207 53.5426C98.3931 54 98.0666 54.5568 97.8413 55.2131C97.6192 55.866 97.5082 56.6084 97.5082 57.4403C97.5082 58.2855 97.6192 59.0362 97.8413 59.6925C98.0666 60.3487 98.3981 60.9022 98.8356 61.353C99.2764 61.8037 99.8216 62.1451 100.471 62.3771C101.121 62.6125 101.87 62.7301 102.718 62.7301C103.083 62.7301 103.443 62.6953 103.797 62.6257C104.152 62.5561 104.465 62.4799 104.737 62.397C105.009 62.3142 105.204 62.2528 105.324 62.2131L105.602 63.1278C105.396 63.214 105.128 63.3002 104.797 63.3864C104.468 63.4725 104.117 63.5438 103.743 63.6001C103.371 63.6565 103.017 63.6847 102.679 63.6847ZM102.102 59.7273C102.546 59.7273 102.906 59.6378 103.181 59.4588C103.456 59.2798 103.656 59.0097 103.782 58.6484C103.908 58.2872 103.971 57.8314 103.971 57.2812C103.971 56.7244 103.902 56.2902 103.762 55.9787C103.623 55.6671 103.418 55.4484 103.146 55.3224C102.874 55.1965 102.539 55.1335 102.142 55.1335C101.764 55.1335 101.441 55.233 101.172 55.4318C100.907 55.6274 100.703 55.8892 100.561 56.2173C100.422 56.5421 100.352 56.8968 100.352 57.2812C100.352 57.7055 100.408 58.1049 100.521 58.4794C100.634 58.8506 100.818 59.1522 101.073 59.3842C101.328 59.6129 101.671 59.7273 102.102 59.7273ZM113.006 64.0227C112.439 64.0227 111.952 63.9498 111.544 63.804C111.137 63.6615 110.797 63.4725 110.525 63.2372C110.257 63.0052 110.043 62.7566 109.884 62.4915L110.818 61.8352C110.924 61.9744 111.059 62.1335 111.221 62.3125C111.383 62.4948 111.606 62.6522 111.887 62.7848C112.172 62.9207 112.545 62.9886 113.006 62.9886C113.622 62.9886 114.131 62.8395 114.532 62.5412C114.933 62.2429 115.134 61.7756 115.134 61.1392V59.5881H115.034C114.948 59.7273 114.825 59.8996 114.666 60.1051C114.511 60.3073 114.285 60.4879 113.99 60.647C113.699 60.8028 113.304 60.8807 112.807 60.8807C112.191 60.8807 111.637 60.7348 111.146 60.4432C110.659 60.1515 110.273 59.7273 109.988 59.1705C109.706 58.6136 109.566 57.9375 109.566 57.142C109.566 56.3598 109.703 55.6787 109.978 55.0987C110.253 54.5154 110.636 54.0646 111.127 53.7464C111.617 53.425 112.184 53.2642 112.827 53.2642C113.324 53.2642 113.718 53.3471 114.01 53.5128C114.305 53.6752 114.53 53.8608 114.686 54.0696C114.845 54.2751 114.968 54.4441 115.054 54.5767H115.173V53.3636H116.307V61.2188C116.307 61.875 116.158 62.4086 115.86 62.8196C115.565 63.2339 115.167 63.5372 114.666 63.7294C114.169 63.925 113.616 64.0227 113.006 64.0227ZM112.966 59.8267C113.437 59.8267 113.834 59.719 114.159 59.5036C114.484 59.2881 114.731 58.9782 114.9 58.5739C115.069 58.1695 115.154 57.6856 115.154 57.1222C115.154 56.572 115.071 56.0864 114.905 55.6655C114.739 55.2446 114.494 54.9148 114.169 54.6761C113.844 54.4375 113.443 54.3182 112.966 54.3182C112.469 54.3182 112.055 54.4441 111.723 54.696C111.395 54.9479 111.148 55.286 110.982 55.7102C110.82 56.1345 110.739 56.6051 110.739 57.1222C110.739 57.6525 110.822 58.1214 110.987 58.5291C111.156 58.9335 111.405 59.2517 111.733 59.4837C112.065 59.7124 112.476 59.8267 112.966 59.8267ZM121.656 61.1591C120.921 61.1591 120.286 60.9967 119.752 60.6719C119.222 60.3438 118.813 59.8864 118.524 59.2997C118.239 58.7098 118.097 58.0237 118.097 57.2415C118.097 56.4593 118.239 55.7699 118.524 55.1733C118.813 54.5734 119.214 54.1061 119.727 53.7713C120.244 53.4332 120.848 53.2642 121.537 53.2642C121.935 53.2642 122.328 53.3305 122.715 53.4631C123.103 53.5956 123.456 53.8111 123.774 54.1094C124.093 54.4044 124.346 54.7955 124.535 55.2827C124.724 55.7699 124.818 56.3698 124.818 57.0824V57.5795H118.932V56.5653H123.625C123.625 56.1345 123.539 55.75 123.367 55.4119C123.198 55.0739 122.956 54.8071 122.641 54.6115C122.329 54.416 121.961 54.3182 121.537 54.3182C121.07 54.3182 120.665 54.4342 120.324 54.6662C119.986 54.8949 119.726 55.1932 119.544 55.5611C119.361 55.929 119.27 56.3234 119.27 56.7443V57.4205C119.27 57.9972 119.369 58.486 119.568 58.8871C119.771 59.2848 120.051 59.5881 120.409 59.7969C120.767 60.0024 121.182 60.1051 121.656 60.1051C121.965 60.1051 122.243 60.062 122.492 59.9759C122.744 59.8864 122.961 59.7538 123.143 59.5781C123.325 59.3991 123.466 59.1771 123.566 58.9119L124.699 59.2301C124.58 59.6146 124.379 59.9527 124.097 60.2443C123.816 60.5327 123.468 60.758 123.053 60.9205C122.639 61.0795 122.173 61.1591 121.656 61.1591ZM129.924 53.3636V54.358H125.967V53.3636H129.924ZM127.12 51.5341H128.294V58.8125C128.294 59.1439 128.342 59.3925 128.438 59.5582C128.537 59.7206 128.663 59.83 128.816 59.8864C128.971 59.9394 129.135 59.9659 129.308 59.9659C129.437 59.9659 129.543 59.9593 129.626 59.946C129.709 59.9295 129.775 59.9162 129.825 59.9062L130.063 60.9602C129.984 60.9901 129.873 61.0199 129.73 61.0497C129.588 61.0829 129.407 61.0994 129.188 61.0994C128.857 61.0994 128.532 61.0282 128.214 60.8857C127.899 60.7431 127.637 60.526 127.428 60.2344C127.223 59.9427 127.12 59.5748 127.12 59.1307V51.5341ZM131.689 61V53.3636H132.823V54.517H132.902C133.041 54.1392 133.293 53.8326 133.658 53.5973C134.022 53.362 134.433 53.2443 134.891 53.2443C134.977 53.2443 135.085 53.246 135.214 53.2493C135.343 53.2526 135.441 53.2576 135.507 53.2642V54.4574C135.468 54.4474 135.376 54.4325 135.234 54.4126C135.095 54.3894 134.947 54.3778 134.791 54.3778C134.42 54.3778 134.089 54.4557 133.797 54.6115C133.509 54.764 133.28 54.9761 133.111 55.2479C132.945 55.5163 132.862 55.8229 132.862 56.1676V61H131.689ZM139.867 61.1591C139.132 61.1591 138.497 60.9967 137.963 60.6719C137.433 60.3438 137.024 59.8864 136.735 59.2997C136.45 58.7098 136.308 58.0237 136.308 57.2415C136.308 56.4593 136.45 55.7699 136.735 55.1733C137.024 54.5734 137.425 54.1061 137.938 53.7713C138.455 53.4332 139.059 53.2642 139.748 53.2642C140.146 53.2642 140.539 53.3305 140.926 53.4631C141.314 53.5956 141.667 53.8111 141.985 54.1094C142.303 54.4044 142.557 54.7955 142.746 55.2827C142.935 55.7699 143.029 56.3698 143.029 57.0824V57.5795H137.143V56.5653H141.836C141.836 56.1345 141.75 55.75 141.578 55.4119C141.409 55.0739 141.167 54.8071 140.852 54.6115C140.54 54.416 140.172 54.3182 139.748 54.3182C139.281 54.3182 138.876 54.4342 138.535 54.6662C138.197 54.8949 137.937 55.1932 137.754 55.5611C137.572 55.929 137.481 56.3234 137.481 56.7443V57.4205C137.481 57.9972 137.58 58.486 137.779 58.8871C137.981 59.2848 138.262 59.5881 138.619 59.7969C138.977 60.0024 139.393 60.1051 139.867 60.1051C140.176 60.1051 140.454 60.062 140.703 59.9759C140.954 59.8864 141.172 59.7538 141.354 59.5781C141.536 59.3991 141.677 59.1771 141.776 58.9119L142.91 59.2301C142.791 59.6146 142.59 59.9527 142.308 60.2443C142.027 60.5327 141.679 60.758 141.264 60.9205C140.85 61.0795 140.384 61.1591 139.867 61.1591ZM150.223 55.0739L149.169 55.3722C149.103 55.1965 149.005 55.0258 148.876 54.8601C148.75 54.6911 148.578 54.5518 148.359 54.4425C148.14 54.3331 147.86 54.2784 147.519 54.2784C147.051 54.2784 146.662 54.3861 146.35 54.6016C146.042 54.8137 145.888 55.0838 145.888 55.4119C145.888 55.7036 145.994 55.9339 146.206 56.103C146.418 56.272 146.75 56.4129 147.2 56.5256L148.334 56.804C149.017 56.9697 149.526 57.2232 149.86 57.5646C150.195 57.9027 150.362 58.3385 150.362 58.8722C150.362 59.3097 150.236 59.7008 149.985 60.0455C149.736 60.3902 149.388 60.6619 148.941 60.8608C148.493 61.0597 147.973 61.1591 147.379 61.1591C146.601 61.1591 145.956 60.9901 145.445 60.652C144.935 60.3139 144.612 59.8201 144.476 59.1705L145.59 58.892C145.696 59.303 145.896 59.6113 146.191 59.8168C146.49 60.0223 146.879 60.125 147.36 60.125C147.906 60.125 148.341 60.009 148.662 59.777C148.987 59.5417 149.149 59.2599 149.149 58.9318C149.149 58.6667 149.057 58.4446 148.871 58.2656C148.685 58.0833 148.4 57.9474 148.016 57.858L146.743 57.5597C146.044 57.3939 145.53 57.1371 145.202 56.7891C144.877 56.4377 144.715 55.9986 144.715 55.4716C144.715 55.0407 144.836 54.6596 145.078 54.3281C145.323 53.9967 145.656 53.7365 146.077 53.5476C146.501 53.3587 146.982 53.2642 147.519 53.2642C148.274 53.2642 148.868 53.4299 149.298 53.7614C149.733 54.0928 150.041 54.5303 150.223 55.0739ZM155.231 61.1591C154.541 61.1591 153.937 60.995 153.416 60.6669C152.899 60.3388 152.495 59.8797 152.203 59.2898C151.915 58.6998 151.771 58.0104 151.771 57.2216C151.771 56.4261 151.915 55.7318 152.203 55.1385C152.495 54.5452 152.899 54.0845 153.416 53.7564C153.937 53.4283 154.541 53.2642 155.231 53.2642C155.92 53.2642 156.523 53.4283 157.04 53.7564C157.561 54.0845 157.965 54.5452 158.254 55.1385C158.545 55.7318 158.691 56.4261 158.691 57.2216C158.691 58.0104 158.545 58.6998 158.254 59.2898C157.965 59.8797 157.561 60.3388 157.04 60.6669C156.523 60.995 155.92 61.1591 155.231 61.1591ZM155.231 60.1051C155.754 60.1051 156.185 59.9709 156.523 59.7024C156.862 59.4339 157.112 59.081 157.274 58.6435C157.437 58.206 157.518 57.732 157.518 57.2216C157.518 56.7112 157.437 56.2356 157.274 55.7947C157.112 55.3539 156.862 54.9976 156.523 54.7259C156.185 54.4541 155.754 54.3182 155.231 54.3182C154.707 54.3182 154.276 54.4541 153.938 54.7259C153.6 54.9976 153.35 55.3539 153.188 55.7947C153.025 56.2356 152.944 56.7112 152.944 57.2216C152.944 57.732 153.025 58.206 153.188 58.6435C153.35 59.081 153.6 59.4339 153.938 59.7024C154.276 59.9709 154.707 60.1051 155.231 60.1051ZM161.655 50.8182V61H160.482V50.8182H161.655ZM170.049 53.3636L167.225 61H166.032L163.208 53.3636H164.48L166.588 59.4489H166.668L168.776 53.3636H170.049ZM174.526 61.1591C173.79 61.1591 173.155 60.9967 172.621 60.6719C172.091 60.3438 171.682 59.8864 171.393 59.2997C171.108 58.7098 170.966 58.0237 170.966 57.2415C170.966 56.4593 171.108 55.7699 171.393 55.1733C171.682 54.5734 172.083 54.1061 172.597 53.7713C173.114 53.4332 173.717 53.2642 174.406 53.2642C174.804 53.2642 175.197 53.3305 175.585 53.4631C175.972 53.5956 176.325 53.8111 176.643 54.1094C176.962 54.4044 177.215 54.7955 177.404 55.2827C177.593 55.7699 177.688 56.3698 177.688 57.0824V57.5795H171.801V56.5653H176.494C176.494 56.1345 176.408 55.75 176.236 55.4119C176.067 55.0739 175.825 54.8071 175.51 54.6115C175.198 54.416 174.83 54.3182 174.406 54.3182C173.939 54.3182 173.535 54.4342 173.193 54.6662C172.855 54.8949 172.595 55.1932 172.413 55.5611C172.23 55.929 172.139 56.3234 172.139 56.7443V57.4205C172.139 57.9972 172.239 58.486 172.438 58.8871C172.64 59.2848 172.92 59.5881 173.278 59.7969C173.636 60.0024 174.052 60.1051 174.526 60.1051C174.834 60.1051 175.112 60.062 175.361 59.9759C175.613 59.8864 175.83 59.7538 176.012 59.5781C176.194 59.3991 176.335 59.1771 176.435 58.9119L177.568 59.2301C177.449 59.6146 177.248 59.9527 176.967 60.2443C176.685 60.5327 176.337 60.758 175.923 60.9205C175.508 61.0795 175.043 61.1591 174.526 61.1591ZM180.327 61.0795C180.082 61.0795 179.872 60.9917 179.696 60.8161C179.52 60.6404 179.433 60.4299 179.433 60.1847C179.433 59.9394 179.52 59.7289 179.696 59.5533C179.872 59.3776 180.082 59.2898 180.327 59.2898C180.573 59.2898 180.783 59.3776 180.959 59.5533C181.134 59.7289 181.222 59.9394 181.222 60.1847C181.222 60.3471 181.181 60.4962 181.098 60.6321C181.018 60.768 180.911 60.8774 180.775 60.9602C180.642 61.0398 180.493 61.0795 180.327 61.0795ZM186.43 61.1591C185.714 61.1591 185.098 60.9901 184.581 60.652C184.064 60.3139 183.666 59.8482 183.387 59.255C183.109 58.6617 182.97 57.9839 182.97 57.2216C182.97 56.446 183.112 55.7616 183.397 55.1683C183.686 54.5717 184.087 54.1061 184.6 53.7713C185.118 53.4332 185.721 53.2642 186.41 53.2642C186.947 53.2642 187.431 53.3636 187.862 53.5625C188.293 53.7614 188.646 54.0398 188.921 54.3977C189.196 54.7557 189.367 55.1733 189.433 55.6506H188.26C188.17 55.3026 187.971 54.9943 187.663 54.7259C187.358 54.4541 186.947 54.3182 186.43 54.3182C185.973 54.3182 185.572 54.4375 185.227 54.6761C184.886 54.9115 184.619 55.2446 184.426 55.6754C184.238 56.103 184.143 56.6051 184.143 57.1818C184.143 57.7718 184.236 58.2855 184.422 58.723C184.61 59.1605 184.876 59.5002 185.217 59.7422C185.562 59.9841 185.966 60.1051 186.43 60.1051C186.735 60.1051 187.012 60.0521 187.26 59.946C187.509 59.84 187.719 59.6875 187.892 59.4886C188.064 59.2898 188.187 59.0511 188.26 58.7727H189.433C189.367 59.2235 189.203 59.6295 188.941 59.9908C188.682 60.3487 188.339 60.6338 187.912 60.8459C187.487 61.0547 186.993 61.1591 186.43 61.1591ZM194.25 61.1591C193.561 61.1591 192.956 60.995 192.436 60.6669C191.919 60.3388 191.514 59.8797 191.223 59.2898C190.934 58.6998 190.79 58.0104 190.79 57.2216C190.79 56.4261 190.934 55.7318 191.223 55.1385C191.514 54.5452 191.919 54.0845 192.436 53.7564C192.956 53.4283 193.561 53.2642 194.25 53.2642C194.94 53.2642 195.543 53.4283 196.06 53.7564C196.58 54.0845 196.985 54.5452 197.273 55.1385C197.565 55.7318 197.711 56.4261 197.711 57.2216C197.711 58.0104 197.565 58.6998 197.273 59.2898C196.985 59.8797 196.58 60.3388 196.06 60.6669C195.543 60.995 194.94 61.1591 194.25 61.1591ZM194.25 60.1051C194.774 60.1051 195.205 59.9709 195.543 59.7024C195.881 59.4339 196.131 59.081 196.294 58.6435C196.456 58.206 196.537 57.732 196.537 57.2216C196.537 56.7112 196.456 56.2356 196.294 55.7947C196.131 55.3539 195.881 54.9976 195.543 54.7259C195.205 54.4541 194.774 54.3182 194.25 54.3182C193.727 54.3182 193.296 54.4541 192.958 54.7259C192.62 54.9976 192.369 55.3539 192.207 55.7947C192.045 56.2356 191.963 56.7112 191.963 57.2216C191.963 57.732 192.045 58.206 192.207 58.6435C192.369 59.081 192.62 59.4339 192.958 59.7024C193.296 59.9709 193.727 60.1051 194.25 60.1051ZM199.502 61V53.3636H200.635V54.5568H200.735C200.894 54.1491 201.151 53.8326 201.505 53.6072C201.86 53.3786 202.286 53.2642 202.783 53.2642C203.287 53.2642 203.706 53.3786 204.041 53.6072C204.379 53.8326 204.642 54.1491 204.831 54.5568H204.911C205.106 54.1624 205.4 53.8492 205.791 53.6172C206.182 53.3819 206.651 53.2642 207.198 53.2642C207.88 53.2642 208.439 53.478 208.873 53.9055C209.307 54.3298 209.524 54.991 209.524 55.8892V61H208.351V55.8892C208.351 55.3258 208.197 54.9231 207.889 54.6811C207.58 54.4392 207.218 54.3182 206.8 54.3182C206.263 54.3182 205.847 54.4806 205.552 54.8054C205.257 55.1269 205.11 55.5346 205.11 56.0284V61H203.916V55.7699C203.916 55.3357 203.776 54.986 203.494 54.7209C203.212 54.4524 202.849 54.3182 202.405 54.3182C202.1 54.3182 201.815 54.3994 201.55 54.5618C201.288 54.7242 201.076 54.9496 200.914 55.2379C200.754 55.523 200.675 55.8527 200.675 56.2273V61H199.502Z" fill="#161A26"/>
<mask id="path-9-inside-1_445_1597" fill="white">
<path d="M0 0H540V80H0V0Z"/>
</mask>
<path d="M540 79H0V81H540V79Z" fill="#B9BCCD" fill-opacity="0.24" mask="url(#path-9-inside-1_445_1597)"/>
<path d="M17.1186 107V96.8182H20.7479C21.5367 96.8182 22.1913 96.9541 22.7116 97.2259C23.2353 97.4976 23.6264 97.8738 23.8849 98.3544C24.1435 98.8317 24.2727 99.3835 24.2727 100.01C24.2727 100.633 24.1418 101.182 23.88 101.656C23.6214 102.126 23.2304 102.492 22.7067 102.754C22.1863 103.016 21.5317 103.147 20.7429 103.147H17.9936V101.825H20.6037C21.1009 101.825 21.5052 101.753 21.8168 101.611C22.1316 101.468 22.362 101.261 22.5078 100.989C22.6536 100.718 22.7266 100.391 22.7266 100.01C22.7266 99.6255 22.652 99.2924 22.5028 99.0107C22.357 98.7289 22.1267 98.5135 21.8118 98.3643C21.5002 98.2119 21.0909 98.1357 20.5838 98.1357H18.6548V107H17.1186ZM22.1449 102.406L24.6605 107H22.9105L20.4446 102.406H22.1449ZM29.2182 107.154C28.4658 107.154 27.8179 106.993 27.2743 106.672C26.7341 106.347 26.3165 105.891 26.0215 105.305C25.7298 104.715 25.584 104.024 25.584 103.232C25.584 102.449 25.7298 101.76 26.0215 101.163C26.3165 100.567 26.7275 100.101 27.2544 99.7663C27.7847 99.4316 28.4045 99.2642 29.1138 99.2642C29.5447 99.2642 29.9623 99.3355 30.3667 99.478C30.771 99.6205 31.1339 99.8442 31.4554 100.149C31.7769 100.454 32.0305 100.85 32.2161 101.337C32.4017 101.821 32.4945 102.41 32.4945 103.102V103.629H26.4242V102.516H31.0378C31.0378 102.125 30.9583 101.778 30.7992 101.477C30.6401 101.172 30.4164 100.931 30.128 100.756C29.843 100.58 29.5082 100.492 29.1238 100.492C28.7061 100.492 28.3416 100.595 28.03 100.8C27.7218 101.003 27.4831 101.268 27.3141 101.596C27.1484 101.921 27.0655 102.274 27.0655 102.655V103.525C27.0655 104.035 27.155 104.469 27.334 104.827C27.5163 105.185 27.7698 105.459 28.0946 105.648C28.4194 105.833 28.7989 105.926 29.2331 105.926C29.5149 105.926 29.7717 105.886 30.0037 105.807C30.2357 105.724 30.4363 105.601 30.6053 105.439C30.7743 105.277 30.9036 105.076 30.9931 104.837L32.4 105.091C32.2873 105.505 32.0852 105.868 31.7935 106.18C31.5051 106.488 31.1422 106.728 30.7047 106.901C30.2705 107.07 29.775 107.154 29.2182 107.154ZM35.1232 107.094C34.8514 107.094 34.6178 106.998 34.4222 106.806C34.2267 106.611 34.1289 106.375 34.1289 106.1C34.1289 105.828 34.2267 105.596 34.4222 105.404C34.6178 105.209 34.8514 105.111 35.1232 105.111C35.395 105.111 35.6287 105.209 35.8242 105.404C36.0198 105.596 36.1175 105.828 36.1175 106.1C36.1175 106.282 36.0711 106.45 35.9783 106.602C35.8888 106.751 35.7695 106.871 35.6204 106.96C35.4712 107.05 35.3055 107.094 35.1232 107.094ZM35.1232 101.536C34.8514 101.536 34.6178 101.438 34.4222 101.243C34.2267 101.047 34.1289 100.814 34.1289 100.542C34.1289 100.27 34.2267 100.038 34.4222 99.8459C34.6178 99.6503 34.8514 99.5526 35.1232 99.5526C35.395 99.5526 35.6287 99.6503 35.8242 99.8459C36.0198 100.038 36.1175 100.27 36.1175 100.542C36.1175 100.724 36.0711 100.892 35.9783 101.044C35.8888 101.193 35.7695 101.312 35.6204 101.402C35.4712 101.491 35.3055 101.536 35.1232 101.536ZM41.9331 107V96.8182H45.5623C46.3545 96.8182 47.0107 96.9624 47.5311 97.2507C48.0514 97.5391 48.4409 97.9335 48.6994 98.4339C48.9579 98.9311 49.0872 99.4912 49.0872 100.114C49.0872 100.741 48.9563 101.304 48.6944 101.805C48.4359 102.302 48.0448 102.696 47.5211 102.988C47.0008 103.276 46.3462 103.42 45.5574 103.42H43.0616V102.118H45.4181C45.9186 102.118 46.3246 102.032 46.6362 101.859C46.9477 101.684 47.1764 101.445 47.3223 101.143C47.4681 100.842 47.541 100.499 47.541 100.114C47.541 99.7299 47.4681 99.3885 47.3223 99.0902C47.1764 98.7919 46.9461 98.5582 46.6312 98.3892C46.3197 98.2202 45.9087 98.1357 45.3983 98.1357H43.4693V107H41.9331ZM50.7688 107V99.3636H52.2056V100.577H52.2852C52.4244 100.166 52.6696 99.8426 53.021 99.6072C53.3756 99.3686 53.7766 99.2493 54.2241 99.2493C54.3169 99.2493 54.4263 99.2526 54.5522 99.2592C54.6815 99.2659 54.7826 99.2741 54.8555 99.2841V100.706C54.7958 100.689 54.6897 100.671 54.5373 100.651C54.3848 100.628 54.2324 100.616 54.0799 100.616C53.7286 100.616 53.4154 100.691 53.1403 100.84C52.8685 100.986 52.6531 101.19 52.494 101.452C52.3349 101.71 52.2553 102.005 52.2553 102.337V107H50.7688ZM56.1419 107V99.3636H57.6284V107H56.1419ZM56.8926 98.1854C56.6341 98.1854 56.412 98.0992 56.2264 97.9268C56.0441 97.7512 55.9529 97.5424 55.9529 97.3004C55.9529 97.0552 56.0441 96.8464 56.2264 96.674C56.412 96.4983 56.6341 96.4105 56.8926 96.4105C57.1511 96.4105 57.3715 96.4983 57.5538 96.674C57.7394 96.8464 57.8322 97.0552 57.8322 97.3004C57.8322 97.5424 57.7394 97.7512 57.5538 97.9268C57.3715 98.0992 57.1511 98.1854 56.8926 98.1854ZM62.8448 107.154C62.1057 107.154 61.4693 106.987 60.9357 106.652C60.4054 106.314 59.9978 105.848 59.7127 105.255C59.4277 104.662 59.2852 103.982 59.2852 103.217C59.2852 102.441 59.431 101.757 59.7227 101.163C60.0143 100.567 60.4253 100.101 60.9556 99.7663C61.4859 99.4316 62.1107 99.2642 62.8299 99.2642C63.4099 99.2642 63.927 99.3719 64.381 99.5874C64.8351 99.7995 65.2013 100.098 65.4798 100.482C65.7615 100.867 65.9289 101.316 65.9819 101.83H64.5352C64.4556 101.472 64.2733 101.163 63.9883 100.905C63.7066 100.646 63.3287 100.517 62.8548 100.517C62.4405 100.517 62.0775 100.626 61.766 100.845C61.4577 101.061 61.2174 101.369 61.0451 101.77C60.8728 102.168 60.7866 102.638 60.7866 103.182C60.7866 103.739 60.8711 104.219 61.0401 104.624C61.2092 105.028 61.4478 105.341 61.756 105.563C62.0676 105.785 62.4338 105.896 62.8548 105.896C63.1365 105.896 63.3917 105.845 63.6204 105.742C63.8524 105.636 64.0463 105.485 64.2021 105.29C64.3612 105.094 64.4722 104.859 64.5352 104.584H65.9819C65.9289 105.078 65.7681 105.518 65.4996 105.906C65.2312 106.294 64.8716 106.599 64.4208 106.821C63.9734 107.043 63.448 107.154 62.8448 107.154ZM67.5716 107V99.3636H69.0581V107H67.5716ZM68.3223 98.1854C68.0637 98.1854 67.8417 98.0992 67.6561 97.9268C67.4738 97.7512 67.3826 97.5424 67.3826 97.3004C67.3826 97.0552 67.4738 96.8464 67.6561 96.674C67.8417 96.4983 68.0637 96.4105 68.3223 96.4105C68.5808 96.4105 68.8012 96.4983 68.9835 96.674C69.1691 96.8464 69.2619 97.0552 69.2619 97.3004C69.2619 97.5424 69.1691 97.7512 68.9835 97.9268C68.8012 98.0992 68.5808 98.1854 68.3223 98.1854ZM72.5444 102.466V107H71.0579V99.3636H72.4847V100.607H72.5792C72.7549 100.202 73.0299 99.8774 73.4045 99.6321C73.7823 99.3868 74.2579 99.2642 74.8313 99.2642C75.3517 99.2642 75.8074 99.3736 76.1985 99.5923C76.5896 99.8078 76.8929 100.129 77.1083 100.557C77.3237 100.984 77.4315 101.513 77.4315 102.143V107H75.945V102.322C75.945 101.768 75.8008 101.336 75.5124 101.024C75.2241 100.709 74.828 100.552 74.3242 100.552C73.9795 100.552 73.6729 100.626 73.4045 100.776C73.1393 100.925 72.9289 101.143 72.7731 101.432C72.6206 101.717 72.5444 102.062 72.5444 102.466ZM82.6268 110.023C82.0202 110.023 81.4982 109.943 81.0607 109.784C80.6265 109.625 80.2719 109.415 79.9968 109.153C79.7217 108.891 79.5162 108.604 79.3803 108.293L80.658 107.766C80.7475 107.911 80.8668 108.066 81.016 108.228C81.1684 108.394 81.3739 108.535 81.6325 108.651C81.8943 108.767 82.2307 108.825 82.6417 108.825C83.2051 108.825 83.6708 108.687 84.0387 108.412C84.4066 108.14 84.5906 107.706 84.5906 107.109V105.608H84.4961C84.4066 105.77 84.2773 105.951 84.1083 106.15C83.9426 106.349 83.7139 106.521 83.4222 106.667C83.1306 106.813 82.7511 106.886 82.2837 106.886C81.6805 106.886 81.137 106.745 80.6531 106.463C80.1725 106.178 79.7913 105.759 79.5096 105.205C79.2312 104.648 79.092 103.964 79.092 103.152C79.092 102.34 79.2295 101.644 79.5046 101.064C79.783 100.484 80.1642 100.04 80.6481 99.7315C81.132 99.42 81.6805 99.2642 82.2937 99.2642C82.7676 99.2642 83.1504 99.3438 83.4421 99.5028C83.7338 99.6586 83.9608 99.8409 84.1232 100.05C84.2889 100.259 84.4165 100.442 84.506 100.602H84.6154V99.3636H86.0721V107.169C86.0721 107.825 85.9196 108.364 85.6147 108.785C85.3098 109.206 84.8971 109.517 84.3768 109.719C83.8597 109.922 83.2764 110.023 82.6268 110.023ZM82.6119 105.653C83.0394 105.653 83.4007 105.553 83.6957 105.354C83.994 105.152 84.2193 104.864 84.3718 104.489C84.5276 104.112 84.6055 103.659 84.6055 103.132C84.6055 102.618 84.5292 102.166 84.3768 101.775C84.2243 101.384 84.0006 101.079 83.7056 100.86C83.4106 100.638 83.046 100.527 82.6119 100.527C82.1644 100.527 81.7915 100.643 81.4933 100.875C81.195 101.104 80.9696 101.415 80.8171 101.81C80.668 102.204 80.5934 102.645 80.5934 103.132C80.5934 103.633 80.6696 104.072 80.8221 104.45C80.9746 104.827 81.1999 105.122 81.4982 105.335C81.7998 105.547 82.171 105.653 82.6119 105.653ZM91.7708 109.864V99.3636H93.2225V100.602H93.3468C93.4329 100.442 93.5572 100.259 93.7196 100.05C93.882 99.8409 94.1074 99.6586 94.3958 99.5028C94.6841 99.3438 95.0653 99.2642 95.5392 99.2642C96.1557 99.2642 96.7059 99.42 97.1898 99.7315C97.6737 100.043 98.0532 100.492 98.3283 101.079C98.6067 101.665 98.7459 102.371 98.7459 103.197C98.7459 104.022 98.6084 104.73 98.3333 105.32C98.0582 105.906 97.6803 106.359 97.1998 106.677C96.7192 106.992 96.1706 107.149 95.5542 107.149C95.0901 107.149 94.7106 107.071 94.4157 106.915C94.124 106.76 93.8953 106.577 93.7296 106.369C93.5639 106.16 93.4363 105.974 93.3468 105.812H93.2573V109.864H91.7708ZM93.2275 103.182C93.2275 103.719 93.3053 104.189 93.4611 104.594C93.6169 104.998 93.8423 105.315 94.1373 105.543C94.4322 105.769 94.7935 105.881 95.2211 105.881C95.6652 105.881 96.0364 105.764 96.3347 105.528C96.633 105.29 96.8584 104.967 97.0108 104.559C97.1666 104.151 97.2445 103.692 97.2445 103.182C97.2445 102.678 97.1683 102.226 97.0158 101.825C96.8667 101.424 96.6413 101.107 96.3397 100.875C96.0414 100.643 95.6685 100.527 95.2211 100.527C94.7902 100.527 94.4256 100.638 94.1273 100.86C93.8323 101.082 93.6086 101.392 93.4561 101.79C93.3037 102.187 93.2275 102.652 93.2275 103.182ZM101.898 96.8182V107H100.411V96.8182H101.898ZM106.12 107.169C105.636 107.169 105.199 107.08 104.808 106.901C104.416 106.718 104.107 106.455 103.878 106.11C103.652 105.765 103.54 105.343 103.54 104.842C103.54 104.411 103.623 104.057 103.788 103.778C103.954 103.5 104.178 103.28 104.46 103.117C104.741 102.955 105.056 102.832 105.404 102.749C105.752 102.666 106.107 102.603 106.468 102.56C106.925 102.507 107.297 102.464 107.582 102.431C107.867 102.395 108.074 102.337 108.203 102.257C108.332 102.178 108.397 102.048 108.397 101.869V101.835C108.397 101.4 108.274 101.064 108.029 100.825C107.787 100.587 107.426 100.467 106.945 100.467C106.445 100.467 106.05 100.578 105.762 100.8C105.477 101.019 105.28 101.263 105.17 101.531L103.773 101.213C103.939 100.749 104.181 100.375 104.499 100.089C104.821 99.8011 105.19 99.5923 105.608 99.4631C106.026 99.3305 106.465 99.2642 106.925 99.2642C107.23 99.2642 107.554 99.3007 107.895 99.3736C108.24 99.4432 108.561 99.5724 108.859 99.7614C109.161 99.9503 109.408 100.22 109.6 100.572C109.792 100.92 109.888 101.372 109.888 101.929V107H108.437V105.956H108.377C108.281 106.148 108.137 106.337 107.945 106.523C107.752 106.708 107.505 106.862 107.204 106.985C106.902 107.108 106.541 107.169 106.12 107.169ZM106.443 105.976C106.854 105.976 107.205 105.895 107.497 105.732C107.792 105.57 108.016 105.358 108.168 105.096C108.324 104.831 108.402 104.547 108.402 104.246V103.261C108.349 103.314 108.246 103.364 108.094 103.411C107.945 103.454 107.774 103.492 107.582 103.525C107.389 103.555 107.202 103.583 107.02 103.609C106.838 103.633 106.685 103.652 106.562 103.669C106.274 103.705 106.011 103.767 105.772 103.853C105.537 103.939 105.348 104.063 105.205 104.226C105.066 104.385 104.996 104.597 104.996 104.862C104.996 105.23 105.132 105.509 105.404 105.697C105.676 105.883 106.022 105.976 106.443 105.976ZM113.355 102.466V107H111.868V99.3636H113.295V100.607H113.39C113.565 100.202 113.84 99.8774 114.215 99.6321C114.593 99.3868 115.068 99.2642 115.642 99.2642C116.162 99.2642 116.618 99.3736 117.009 99.5923C117.4 99.8078 117.703 100.129 117.919 100.557C118.134 100.984 118.242 101.513 118.242 102.143V107H116.756V102.322C116.756 101.768 116.611 101.336 116.323 101.024C116.035 100.709 115.639 100.552 115.135 100.552C114.79 100.552 114.483 100.626 114.215 100.776C113.95 100.925 113.739 101.143 113.584 101.432C113.431 101.717 113.355 102.062 113.355 102.466ZM125.958 101.228L124.611 101.467C124.554 101.294 124.465 101.13 124.342 100.974C124.223 100.819 124.06 100.691 123.855 100.592C123.649 100.492 123.393 100.442 123.084 100.442C122.663 100.442 122.312 100.537 122.03 100.726C121.749 100.911 121.608 101.152 121.608 101.447C121.608 101.702 121.702 101.907 121.891 102.063C122.08 102.219 122.385 102.347 122.806 102.446L124.019 102.724C124.722 102.887 125.245 103.137 125.59 103.475C125.935 103.813 126.107 104.252 126.107 104.793C126.107 105.25 125.974 105.658 125.709 106.016C125.448 106.37 125.081 106.649 124.611 106.851C124.143 107.053 123.601 107.154 122.985 107.154C122.13 107.154 121.432 106.972 120.892 106.607C120.352 106.239 120.02 105.717 119.898 105.041L121.334 104.822C121.424 105.197 121.608 105.48 121.886 105.673C122.165 105.862 122.528 105.956 122.975 105.956C123.462 105.956 123.852 105.855 124.143 105.653C124.435 105.447 124.581 105.197 124.581 104.902C124.581 104.663 124.491 104.463 124.312 104.3C124.137 104.138 123.867 104.015 123.502 103.933L122.209 103.649C121.497 103.487 120.97 103.228 120.628 102.874C120.29 102.519 120.121 102.07 120.121 101.526C120.121 101.076 120.247 100.681 120.499 100.343C120.751 100.005 121.099 99.7415 121.543 99.5526C121.987 99.3603 122.496 99.2642 123.069 99.2642C123.895 99.2642 124.544 99.4432 125.018 99.8011C125.492 100.156 125.805 100.631 125.958 101.228Z" fill="#161A26"/>
<path d="M17.233 139V128.818H20.6733C21.4688 128.818 22.1217 128.954 22.6321 129.226C23.1425 129.494 23.5204 129.864 23.7656 130.335C24.0109 130.805 24.1335 131.34 24.1335 131.94C24.1335 132.54 24.0109 133.072 23.7656 133.536C23.5204 134 23.1442 134.365 22.6371 134.63C22.13 134.892 21.482 135.023 20.6932 135.023H17.9091V133.909H20.6534C21.197 133.909 21.6345 133.83 21.9659 133.67C22.3007 133.511 22.5426 133.286 22.6918 132.994C22.8442 132.699 22.9205 132.348 22.9205 131.94C22.9205 131.533 22.8442 131.176 22.6918 130.871C22.5393 130.567 22.2957 130.331 21.9609 130.165C21.6262 129.996 21.1837 129.912 20.6335 129.912H18.4659V139H17.233ZM22.0256 134.426L24.5312 139H23.0994L20.6335 134.426H22.0256ZM29.1486 139.159C28.4128 139.159 27.7781 138.997 27.2445 138.672C26.7142 138.344 26.3049 137.886 26.0165 137.3C25.7315 136.71 25.589 136.024 25.589 135.241C25.589 134.459 25.7315 133.77 26.0165 133.173C26.3049 132.573 26.7059 132.106 27.2196 131.771C27.7367 131.433 28.3399 131.264 29.0293 131.264C29.427 131.264 29.8198 131.33 30.2076 131.463C30.5953 131.596 30.9483 131.811 31.2665 132.109C31.5847 132.404 31.8382 132.795 32.0272 133.283C32.2161 133.77 32.3105 134.37 32.3105 135.082V135.58H26.4242V134.565H31.1174C31.1174 134.134 31.0312 133.75 30.8588 133.412C30.6898 133.074 30.4479 132.807 30.133 132.612C29.8214 132.416 29.4535 132.318 29.0293 132.318C28.562 132.318 28.1576 132.434 27.8162 132.666C27.4782 132.895 27.218 133.193 27.0357 133.561C26.8534 133.929 26.7623 134.323 26.7623 134.744V135.42C26.7623 135.997 26.8617 136.486 27.0605 136.887C27.2627 137.285 27.5428 137.588 27.9007 137.797C28.2587 138.002 28.6747 138.105 29.1486 138.105C29.4569 138.105 29.7353 138.062 29.9838 137.976C30.2357 137.886 30.4528 137.754 30.6351 137.578C30.8174 137.399 30.9583 137.177 31.0577 136.912L32.1912 137.23C32.0719 137.615 31.8714 137.953 31.5897 138.244C31.3079 138.533 30.9599 138.758 30.5456 138.92C30.1313 139.08 29.6657 139.159 29.1486 139.159ZM34.0953 141.864V131.364H35.2289V132.577H35.3681C35.4542 132.444 35.5736 132.275 35.726 132.07C35.8818 131.861 36.1039 131.675 36.3922 131.513C36.6839 131.347 37.0783 131.264 37.5755 131.264C38.2185 131.264 38.7852 131.425 39.2757 131.746C39.7663 132.068 40.1491 132.524 40.4242 133.114C40.6993 133.704 40.8368 134.4 40.8368 135.202C40.8368 136.01 40.6993 136.711 40.4242 137.305C40.1491 137.895 39.7679 138.352 39.2807 138.677C38.7935 138.998 38.2317 139.159 37.5953 139.159C37.1048 139.159 36.7121 139.078 36.4171 138.915C36.1221 138.75 35.8951 138.562 35.736 138.354C35.5769 138.142 35.4542 137.966 35.3681 137.827H35.2686V141.864H34.0953ZM35.2488 135.182C35.2488 135.759 35.3333 136.267 35.5023 136.708C35.6713 137.146 35.9183 137.489 36.2431 137.737C36.5679 137.982 36.9656 138.105 37.4363 138.105C37.9268 138.105 38.3361 137.976 38.6642 137.717C38.9957 137.455 39.2443 137.104 39.41 136.663C39.579 136.219 39.6635 135.725 39.6635 135.182C39.6635 134.645 39.5807 134.161 39.415 133.73C39.2525 133.296 39.0056 132.953 38.6742 132.701C38.3461 132.446 37.9334 132.318 37.4363 132.318C36.959 132.318 36.5579 132.439 36.2331 132.681C35.9083 132.92 35.6631 133.254 35.4973 133.685C35.3316 134.113 35.2488 134.612 35.2488 135.182ZM43.7999 128.818V139H42.6266V128.818H43.7999ZM46.7045 141.864C46.5057 141.864 46.3284 141.847 46.1726 141.814C46.0168 141.784 45.9091 141.754 45.8494 141.724L46.1477 140.69C46.4328 140.763 46.6847 140.79 46.9034 140.77C47.1222 140.75 47.3161 140.652 47.4851 140.477C47.6574 140.304 47.8149 140.024 47.9574 139.636L48.1761 139.04L45.3523 131.364H46.625L48.733 137.449H48.8125L50.9205 131.364H52.1932L48.9517 140.114C48.8059 140.508 48.6252 140.835 48.4098 141.093C48.1944 141.355 47.9441 141.549 47.6591 141.675C47.3774 141.801 47.0592 141.864 46.7045 141.864ZM61.0004 131.364V132.358H57.043V131.364H61.0004ZM58.1964 129.534H59.3697V136.812C59.3697 137.144 59.4177 137.393 59.5138 137.558C59.6133 137.721 59.7392 137.83 59.8917 137.886C60.0475 137.939 60.2115 137.966 60.3839 137.966C60.5131 137.966 60.6192 137.959 60.7021 137.946C60.7849 137.929 60.8512 137.916 60.9009 137.906L61.1396 138.96C61.06 138.99 60.949 139.02 60.8065 139.05C60.6639 139.083 60.4833 139.099 60.2646 139.099C59.9331 139.099 59.6083 139.028 59.2901 138.886C58.9753 138.743 58.7134 138.526 58.5046 138.234C58.2991 137.943 58.1964 137.575 58.1964 137.131V129.534ZM65.7855 139.159C65.0961 139.159 64.4912 138.995 63.9709 138.667C63.4538 138.339 63.0495 137.88 62.7578 137.29C62.4695 136.7 62.3253 136.01 62.3253 135.222C62.3253 134.426 62.4695 133.732 62.7578 133.138C63.0495 132.545 63.4538 132.085 63.9709 131.756C64.4912 131.428 65.0961 131.264 65.7855 131.264C66.4749 131.264 67.0781 131.428 67.5952 131.756C68.1155 132.085 68.5199 132.545 68.8082 133.138C69.0999 133.732 69.2457 134.426 69.2457 135.222C69.2457 136.01 69.0999 136.7 68.8082 137.29C68.5199 137.88 68.1155 138.339 67.5952 138.667C67.0781 138.995 66.4749 139.159 65.7855 139.159ZM65.7855 138.105C66.3092 138.105 66.7401 137.971 67.0781 137.702C67.4162 137.434 67.6664 137.081 67.8288 136.643C67.9912 136.206 68.0724 135.732 68.0724 135.222C68.0724 134.711 67.9912 134.236 67.8288 133.795C67.6664 133.354 67.4162 132.998 67.0781 132.726C66.7401 132.454 66.3092 132.318 65.7855 132.318C65.2618 132.318 64.831 132.454 64.4929 132.726C64.1548 132.998 63.9046 133.354 63.7422 133.795C63.5798 134.236 63.4986 134.711 63.4986 135.222C63.4986 135.732 63.5798 136.206 63.7422 136.643C63.9046 137.081 64.1548 137.434 64.4929 137.702C64.831 137.971 65.2618 138.105 65.7855 138.105ZM75.551 139H74.2583L77.997 128.818H79.2697L83.0083 139H81.7157L78.6731 130.429H78.5936L75.551 139ZM76.0282 135.023H81.2385V136.116H76.0282V135.023ZM85.6085 134.406V139H84.4352V131.364H85.5687V132.557H85.6681C85.8471 132.169 86.1189 131.857 86.4835 131.622C86.8481 131.384 87.3187 131.264 87.8954 131.264C88.4125 131.264 88.8649 131.37 89.2527 131.582C89.6404 131.791 89.9421 132.109 90.1575 132.537C90.3729 132.961 90.4806 133.498 90.4806 134.148V139H89.3074V134.227C89.3074 133.627 89.1516 133.16 88.84 132.825C88.5285 132.487 88.1009 132.318 87.5574 132.318C87.1828 132.318 86.8481 132.399 86.5531 132.562C86.2614 132.724 86.0311 132.961 85.862 133.273C85.693 133.584 85.6085 133.962 85.6085 134.406ZM93.7979 134.406V139H92.6246V131.364H93.7582V132.557H93.8576C94.0366 132.169 94.3084 131.857 94.6729 131.622C95.0375 131.384 95.5082 131.264 96.0849 131.264C96.6019 131.264 97.0543 131.37 97.4421 131.582C97.8299 131.791 98.1315 132.109 98.3469 132.537C98.5624 132.961 98.6701 133.498 98.6701 134.148V139H97.4968V134.227C97.4968 133.627 97.341 133.16 97.0295 132.825C96.7179 132.487 96.2904 132.318 95.7468 132.318C95.3723 132.318 95.0375 132.399 94.7425 132.562C94.4509 132.724 94.2205 132.961 94.0515 133.273C93.8825 133.584 93.7979 133.962 93.7979 134.406ZM100.814 139V131.364H101.987V139H100.814ZM101.411 130.091C101.182 130.091 100.985 130.013 100.819 129.857C100.657 129.701 100.575 129.514 100.575 129.295C100.575 129.077 100.657 128.889 100.819 128.734C100.985 128.578 101.182 128.5 101.411 128.5C101.639 128.5 101.835 128.578 101.997 128.734C102.163 128.889 102.246 129.077 102.246 129.295C102.246 129.514 102.163 129.701 101.997 129.857C101.835 130.013 101.639 130.091 101.411 130.091ZM107.338 139.159C106.602 139.159 105.968 138.997 105.434 138.672C104.904 138.344 104.494 137.886 104.206 137.3C103.921 136.71 103.778 136.024 103.778 135.241C103.778 134.459 103.921 133.77 104.206 133.173C104.494 132.573 104.895 132.106 105.409 131.771C105.926 131.433 106.529 131.264 107.219 131.264C107.616 131.264 108.009 131.33 108.397 131.463C108.785 131.596 109.138 131.811 109.456 132.109C109.774 132.404 110.028 132.795 110.217 133.283C110.406 133.77 110.5 134.37 110.5 135.082V135.58H104.614V134.565H109.307C109.307 134.134 109.221 133.75 109.048 133.412C108.879 133.074 108.637 132.807 108.322 132.612C108.011 132.416 107.643 132.318 107.219 132.318C106.751 132.318 106.347 132.434 106.006 132.666C105.668 132.895 105.407 133.193 105.225 133.561C105.043 133.929 104.952 134.323 104.952 134.744V135.42C104.952 135.997 105.051 136.486 105.25 136.887C105.452 137.285 105.732 137.588 106.09 137.797C106.448 138.002 106.864 138.105 107.338 138.105C107.646 138.105 107.925 138.062 108.173 137.976C108.425 137.886 108.642 137.754 108.825 137.578C109.007 137.399 109.148 137.177 109.247 136.912L110.381 137.23C110.261 137.615 110.061 137.953 109.779 138.244C109.497 138.533 109.149 138.758 108.735 138.92C108.321 139.08 107.855 139.159 107.338 139.159ZM114.035 137.608L113.955 138.145C113.899 138.523 113.813 138.927 113.697 139.358C113.584 139.789 113.466 140.195 113.344 140.576C113.221 140.957 113.12 141.26 113.04 141.486H112.146C112.189 141.274 112.245 140.994 112.315 140.646C112.384 140.298 112.454 139.908 112.523 139.477C112.596 139.05 112.656 138.612 112.702 138.165L112.762 137.608H114.035Z" fill="#B9BCCD"/>
<rect x="123.09" y="126" width="16" height="16" rx="3" fill="white"/>
<path d="M130.468 138.39V130.269H132.779V131.158H131.581V137.505H132.779V138.39H130.468Z" fill="#B9BCCD"/>
<rect x="123.59" y="126.5" width="15" height="15" rx="2.5" stroke="#DFE1E9"/>
<path d="M147.564 131.364V132.358H143.448V131.364H147.564ZM144.681 139V130.31C144.681 129.872 144.784 129.508 144.989 129.216C145.195 128.924 145.461 128.705 145.79 128.56C146.118 128.414 146.464 128.341 146.829 128.341C147.117 128.341 147.352 128.364 147.535 128.411C147.717 128.457 147.853 128.5 147.942 128.54L147.604 129.554C147.545 129.534 147.462 129.509 147.356 129.479C147.253 129.45 147.117 129.435 146.948 129.435C146.56 129.435 146.28 129.532 146.108 129.728C145.939 129.924 145.854 130.21 145.854 130.588V139H144.681ZM151.997 139.159C151.307 139.159 150.702 138.995 150.182 138.667C149.665 138.339 149.261 137.88 148.969 137.29C148.681 136.7 148.536 136.01 148.536 135.222C148.536 134.426 148.681 133.732 148.969 133.138C149.261 132.545 149.665 132.085 150.182 131.756C150.702 131.428 151.307 131.264 151.997 131.264C152.686 131.264 153.289 131.428 153.806 131.756C154.327 132.085 154.731 132.545 155.019 133.138C155.311 133.732 155.457 134.426 155.457 135.222C155.457 136.01 155.311 136.7 155.019 137.29C154.731 137.88 154.327 138.339 153.806 138.667C153.289 138.995 152.686 139.159 151.997 139.159ZM151.997 138.105C152.52 138.105 152.951 137.971 153.289 137.702C153.627 137.434 153.877 137.081 154.04 136.643C154.202 136.206 154.284 135.732 154.284 135.222C154.284 134.711 154.202 134.236 154.04 133.795C153.877 133.354 153.627 132.998 153.289 132.726C152.951 132.454 152.52 132.318 151.997 132.318C151.473 132.318 151.042 132.454 150.704 132.726C150.366 132.998 150.116 133.354 149.953 133.795C149.791 134.236 149.71 134.711 149.71 135.222C149.71 135.732 149.791 136.206 149.953 136.643C150.116 137.081 150.366 137.434 150.704 137.702C151.042 137.971 151.473 138.105 151.997 138.105ZM157.248 139V131.364H158.381V132.517H158.461C158.6 132.139 158.852 131.833 159.217 131.597C159.581 131.362 159.992 131.244 160.45 131.244C160.536 131.244 160.643 131.246 160.773 131.249C160.902 131.253 161 131.258 161.066 131.264V132.457C161.026 132.447 160.935 132.433 160.793 132.413C160.653 132.389 160.506 132.378 160.35 132.378C159.979 132.378 159.647 132.456 159.356 132.612C159.067 132.764 158.839 132.976 158.67 133.248C158.504 133.516 158.421 133.823 158.421 134.168V139H157.248ZM171.803 133.074L170.749 133.372C170.683 133.196 170.585 133.026 170.456 132.86C170.33 132.691 170.158 132.552 169.939 132.442C169.72 132.333 169.44 132.278 169.099 132.278C168.632 132.278 168.242 132.386 167.931 132.602C167.622 132.814 167.468 133.084 167.468 133.412C167.468 133.704 167.574 133.934 167.786 134.103C167.998 134.272 168.33 134.413 168.781 134.526L169.914 134.804C170.597 134.97 171.106 135.223 171.44 135.565C171.775 135.903 171.943 136.339 171.943 136.872C171.943 137.31 171.817 137.701 171.565 138.045C171.316 138.39 170.968 138.662 170.521 138.861C170.073 139.06 169.553 139.159 168.96 139.159C168.181 139.159 167.536 138.99 167.026 138.652C166.515 138.314 166.192 137.82 166.056 137.17L167.17 136.892C167.276 137.303 167.476 137.611 167.771 137.817C168.07 138.022 168.459 138.125 168.94 138.125C169.487 138.125 169.921 138.009 170.242 137.777C170.567 137.542 170.73 137.26 170.73 136.932C170.73 136.667 170.637 136.445 170.451 136.266C170.266 136.083 169.98 135.947 169.596 135.858L168.323 135.56C167.624 135.394 167.11 135.137 166.782 134.789C166.457 134.438 166.295 133.999 166.295 133.472C166.295 133.041 166.416 132.66 166.658 132.328C166.903 131.997 167.236 131.737 167.657 131.548C168.081 131.359 168.562 131.264 169.099 131.264C169.855 131.264 170.448 131.43 170.879 131.761C171.313 132.093 171.621 132.53 171.803 133.074ZM174.882 134.406V139H173.709V131.364H174.842V132.557H174.942C175.121 132.169 175.392 131.857 175.757 131.622C176.122 131.384 176.592 131.264 177.169 131.264C177.686 131.264 178.138 131.37 178.526 131.582C178.914 131.791 179.216 132.109 179.431 132.537C179.646 132.961 179.754 133.498 179.754 134.148V139H178.581V134.227C178.581 133.627 178.425 133.16 178.114 132.825C177.802 132.487 177.374 132.318 176.831 132.318C176.456 132.318 176.122 132.399 175.827 132.562C175.535 132.724 175.305 132.961 175.136 133.273C174.967 133.584 174.882 133.962 174.882 134.406ZM181.898 139V131.364H183.072V139H181.898ZM182.495 130.091C182.266 130.091 182.069 130.013 181.903 129.857C181.741 129.701 181.66 129.514 181.66 129.295C181.66 129.077 181.741 128.889 181.903 128.734C182.069 128.578 182.266 128.5 182.495 128.5C182.723 128.5 182.919 128.578 183.081 128.734C183.247 128.889 183.33 129.077 183.33 129.295C183.33 129.514 183.247 129.701 183.081 129.857C182.919 130.013 182.723 130.091 182.495 130.091ZM185.22 141.864V131.364H186.354V132.577H186.493C186.579 132.444 186.699 132.275 186.851 132.07C187.007 131.861 187.229 131.675 187.517 131.513C187.809 131.347 188.203 131.264 188.701 131.264C189.344 131.264 189.91 131.425 190.401 131.746C190.891 132.068 191.274 132.524 191.549 133.114C191.824 133.704 191.962 134.4 191.962 135.202C191.962 136.01 191.824 136.711 191.549 137.305C191.274 137.895 190.893 138.352 190.406 138.677C189.919 138.998 189.357 139.159 188.72 139.159C188.23 139.159 187.837 139.078 187.542 138.915C187.247 138.75 187.02 138.562 186.861 138.354C186.702 138.142 186.579 137.966 186.493 137.827H186.394V141.864H185.22ZM186.374 135.182C186.374 135.759 186.458 136.267 186.627 136.708C186.796 137.146 187.043 137.489 187.368 137.737C187.693 137.982 188.091 138.105 188.561 138.105C189.052 138.105 189.461 137.976 189.789 137.717C190.121 137.455 190.369 137.104 190.535 136.663C190.704 136.219 190.789 135.725 190.789 135.182C190.789 134.645 190.706 134.161 190.54 133.73C190.378 133.296 190.131 132.953 189.799 132.701C189.471 132.446 189.059 132.318 188.561 132.318C188.084 132.318 187.683 132.439 187.358 132.681C187.033 132.92 186.788 133.254 186.622 133.685C186.457 134.113 186.374 134.612 186.374 135.182ZM193.752 141.864V131.364H194.885V132.577H195.024C195.111 132.444 195.23 132.275 195.382 132.07C195.538 131.861 195.76 131.675 196.049 131.513C196.34 131.347 196.735 131.264 197.232 131.264C197.875 131.264 198.442 131.425 198.932 131.746C199.423 132.068 199.805 132.524 200.081 133.114C200.356 133.704 200.493 134.4 200.493 135.202C200.493 136.01 200.356 136.711 200.081 137.305C199.805 137.895 199.424 138.352 198.937 138.677C198.45 138.998 197.888 139.159 197.252 139.159C196.761 139.159 196.368 139.078 196.073 138.915C195.778 138.75 195.551 138.562 195.392 138.354C195.233 138.142 195.111 137.966 195.024 137.827H194.925V141.864H193.752ZM194.905 135.182C194.905 135.759 194.99 136.267 195.159 136.708C195.328 137.146 195.575 137.489 195.899 137.737C196.224 137.982 196.622 138.105 197.093 138.105C197.583 138.105 197.992 137.976 198.321 137.717C198.652 137.455 198.901 137.104 199.066 136.663C199.235 136.219 199.32 135.725 199.32 135.182C199.32 134.645 199.237 134.161 199.071 133.73C198.909 133.296 198.662 132.953 198.331 132.701C198.002 132.446 197.59 132.318 197.093 132.318C196.615 132.318 196.214 132.439 195.89 132.681C195.565 132.92 195.319 133.254 195.154 133.685C194.988 134.113 194.905 134.612 194.905 135.182ZM205.485 139.159C204.749 139.159 204.114 138.997 203.581 138.672C203.05 138.344 202.641 137.886 202.353 137.3C202.068 136.71 201.925 136.024 201.925 135.241C201.925 134.459 202.068 133.77 202.353 133.173C202.641 132.573 203.042 132.106 203.556 131.771C204.073 131.433 204.676 131.264 205.365 131.264C205.763 131.264 206.156 131.33 206.544 131.463C206.931 131.596 207.284 131.811 207.603 132.109C207.921 132.404 208.174 132.795 208.363 133.283C208.552 133.77 208.647 134.37 208.647 135.082V135.58H202.76V134.565H207.453C207.453 134.134 207.367 133.75 207.195 133.412C207.026 133.074 206.784 132.807 206.469 132.612C206.157 132.416 205.79 132.318 205.365 132.318C204.898 132.318 204.494 132.434 204.152 132.666C203.814 132.895 203.554 133.193 203.372 133.561C203.189 133.929 203.098 134.323 203.098 134.744V135.42C203.098 135.997 203.198 136.486 203.397 136.887C203.599 137.285 203.879 137.588 204.237 137.797C204.595 138.002 205.011 138.105 205.485 138.105C205.793 138.105 206.071 138.062 206.32 137.976C206.572 137.886 206.789 137.754 206.971 137.578C207.153 137.399 207.294 137.177 207.394 136.912L208.527 137.23C208.408 137.615 208.207 137.953 207.926 138.244C207.644 138.533 207.296 138.758 206.882 138.92C206.467 139.08 206.002 139.159 205.485 139.159ZM213.752 131.364V132.358H209.795V131.364H213.752ZM210.948 129.534H212.122V136.812C212.122 137.144 212.17 137.393 212.266 137.558C212.365 137.721 212.491 137.83 212.644 137.886C212.8 137.939 212.964 137.966 213.136 137.966C213.265 137.966 213.371 137.959 213.454 137.946C213.537 137.929 213.603 137.916 213.653 137.906L213.892 138.96C213.812 138.99 213.701 139.02 213.559 139.05C213.416 139.083 213.235 139.099 213.017 139.099C212.685 139.099 212.36 139.028 212.042 138.886C211.727 138.743 211.465 138.526 211.257 138.234C211.051 137.943 210.948 137.575 210.948 137.131V129.534ZM220.79 133.074L219.736 133.372C219.669 133.196 219.572 133.026 219.442 132.86C219.316 132.691 219.144 132.552 218.925 132.442C218.707 132.333 218.427 132.278 218.085 132.278C217.618 132.278 217.228 132.386 216.917 132.602C216.609 132.814 216.454 133.084 216.454 133.412C216.454 133.704 216.561 133.934 216.773 134.103C216.985 134.272 217.316 134.413 217.767 134.526L218.901 134.804C219.583 134.97 220.092 135.223 220.427 135.565C220.762 135.903 220.929 136.339 220.929 136.872C220.929 137.31 220.803 137.701 220.551 138.045C220.303 138.39 219.954 138.662 219.507 138.861C219.06 139.06 218.539 139.159 217.946 139.159C217.167 139.159 216.522 138.99 216.012 138.652C215.502 138.314 215.178 137.82 215.043 137.17L216.156 136.892C216.262 137.303 216.463 137.611 216.758 137.817C217.056 138.022 217.445 138.125 217.926 138.125C218.473 138.125 218.907 138.009 219.229 137.777C219.553 137.542 219.716 137.26 219.716 136.932C219.716 136.667 219.623 136.445 219.437 136.266C219.252 136.083 218.967 135.947 218.582 135.858L217.31 135.56C216.61 135.394 216.097 135.137 215.768 134.789C215.444 134.438 215.281 133.999 215.281 133.472C215.281 133.041 215.402 132.66 215.644 132.328C215.889 131.997 216.222 131.737 216.643 131.548C217.068 131.359 217.548 131.264 218.085 131.264C218.841 131.264 219.434 131.43 219.865 131.761C220.299 132.093 220.607 132.53 220.79 133.074Z" fill="#B9BCCD"/>
<g clip-path="url(#clip3_445_1597)">
<g clip-path="url(#clip4_445_1597)">
<path d="M20.75 210.75C20.5375 210.75 20.3594 210.678 20.2156 210.534C20.0719 210.391 20 210.213 20 210C20 209.787 20.0719 209.609 20.2156 209.466C20.3594 209.322 20.5375 209.25 20.75 209.25H25.7L29.45 205.5H28.25C28.0375 205.5 27.8594 205.428 27.7156 205.284C27.5719 205.141 27.5 204.963 27.5 204.75C27.5 204.537 27.5719 204.359 27.7156 204.216C27.8594 204.072 28.0375 204 28.25 204H31.25C31.4625 204 31.6406 204.072 31.7844 204.216C31.9281 204.359 32 204.537 32 204.75V207.75C32 207.963 31.9281 208.141 31.7844 208.284C31.6406 208.428 31.4625 208.5 31.25 208.5C31.0375 208.5 30.8594 208.428 30.7156 208.284C30.5719 208.141 30.5 207.963 30.5 207.75V206.55L26.7312 210.319C26.5937 210.456 26.4344 210.562 26.2531 210.637C26.0719 210.712 25.8813 210.75 25.6813 210.75H20.75ZM28.25 216C28.0375 216 27.8594 215.928 27.7156 215.784C27.5719 215.641 27.5 215.463 27.5 215.25C27.5 215.037 27.5719 214.859 27.7156 214.716C27.8594 214.572 28.0375 214.5 28.25 214.5H29.45L27.5938 212.663C27.4437 212.513 27.3688 212.334 27.3688 212.128C27.3688 211.922 27.4437 211.744 27.5938 211.594C27.7438 211.444 27.925 211.369 28.1375 211.369C28.35 211.369 28.5312 211.444 28.6812 211.594L30.5 213.45V212.25C30.5 212.037 30.5719 211.859 30.7156 211.716C30.8594 211.572 31.0375 211.5 31.25 211.5C31.4625 211.5 31.6406 211.572 31.7844 211.716C31.9281 211.859 32 212.037 32 212.25V215.25C32 215.463 31.9281 215.641 31.7844 215.784C31.6406 215.928 31.4625 216 31.25 216H28.25Z" fill="#888EA5"/>
</g>
</g>
<g clip-path="url(#clip5_445_1597)">
<g clip-path="url(#clip6_445_1597)">
<path d="M48.25 206C48.25 205.801 48.329 205.61 48.4697 205.47C48.6103 205.329 48.8011 205.25 49 205.25H55.5C55.6989 205.25 55.8897 205.329 56.0303 205.47C56.171 205.61 56.25 205.801 56.25 206C56.25 206.199 56.171 206.39 56.0303 206.53C55.8897 206.671 55.6989 206.75 55.5 206.75H49C48.8011 206.75 48.6103 206.671 48.4697 206.53C48.329 206.39 48.25 206.199 48.25 206ZM57.75 206C57.75 205.801 57.829 205.61 57.9697 205.47C58.1103 205.329 58.3011 205.25 58.5 205.25H61C61.1989 205.25 61.3897 205.329 61.5303 205.47C61.671 205.61 61.75 205.801 61.75 206C61.75 206.199 61.671 206.39 61.5303 206.53C61.3897 206.671 61.1989 206.75 61 206.75H58.5C58.3011 206.75 58.1103 206.671 57.9697 206.53C57.829 206.39 57.75 206.199 57.75 206ZM48.25 210C48.25 209.801 48.329 209.61 48.4697 209.47C48.6103 209.329 48.8011 209.25 49 209.25H51.5C51.6989 209.25 51.8897 209.329 52.0303 209.47C52.171 209.61 52.25 209.801 52.25 210C52.25 210.199 52.171 210.39 52.0303 210.53C51.8897 210.671 51.6989 210.75 51.5 210.75H49C48.8011 210.75 48.6103 210.671 48.4697 210.53C48.329 210.39 48.25 210.199 48.25 210ZM53.75 210C53.75 209.801 53.829 209.61 53.9697 209.47C54.1103 209.329 54.3011 209.25 54.5 209.25H61C61.1989 209.25 61.3897 209.329 61.5303 209.47C61.671 209.61 61.75 209.801 61.75 210C61.75 210.199 61.671 210.39 61.5303 210.53C61.3897 210.671 61.1989 210.75 61 210.75H54.5C54.3011 210.75 54.1103 210.671 53.9697 210.53C53.829 210.39 53.75 210.199 53.75 210ZM48.25 214C48.25 213.801 48.329 213.61 48.4697 213.47C48.6103 213.329 48.8011 213.25 49 213.25H55.5C55.6989 213.25 55.8897 213.329 56.0303 213.47C56.171 213.61 56.25 213.801 56.25 214C56.25 214.199 56.171 214.39 56.0303 214.53C55.8897 214.671 55.6989 214.75 55.5 214.75H49C48.8011 214.75 48.6103 214.671 48.4697 214.53C48.329 214.39 48.25 214.199 48.25 214ZM57.75 214C57.75 213.801 57.829 213.61 57.9697 213.47C58.1103 213.329 58.3011 213.25 58.5 213.25H61C61.1989 213.25 61.3897 213.329 61.5303 213.47C61.671 213.61 61.75 213.801 61.75 214C61.75 214.199 61.671 214.39 61.5303 214.53C61.3897 214.671 61.1989 214.75 61 214.75H58.5C58.3011 214.75 58.1103 214.671 57.9697 214.53C57.829 214.39 57.75 214.199 57.75 214Z" fill="#888EA5"/>
</g>
</g>
<g clip-path="url(#clip7_445_1597)">
<g clip-path="url(#clip8_445_1597)">
<path d="M86.375 217.031C85.225 217.031 84.25 216.656 83.45 215.906C82.65 215.156 82.25 214.242 82.25 213.164V205.781C82.25 205.008 82.5438 204.346 83.1313 203.795C83.7188 203.244 84.425 202.969 85.25 202.969C86.075 202.969 86.7813 203.244 87.3688 203.795C87.9563 204.346 88.25 205.008 88.25 205.781V212.461C88.25 212.953 88.0688 213.369 87.7063 213.709C87.3438 214.049 86.9 214.219 86.375 214.219C85.85 214.219 85.4063 214.049 85.0438 213.709C84.6813 213.369 84.5 212.953 84.5 212.461V206.309C84.5 206.156 84.5531 206.03 84.6594 205.931C84.7656 205.831 84.9 205.781 85.0625 205.781C85.225 205.781 85.3594 205.831 85.4656 205.931C85.5719 206.03 85.625 206.156 85.625 206.309V212.461C85.625 212.66 85.6969 212.827 85.8406 212.962C85.9844 213.097 86.1625 213.164 86.375 213.164C86.5875 213.164 86.7656 213.097 86.9094 212.962C87.0531 212.827 87.125 212.66 87.125 212.461V205.781C87.125 205.289 86.9438 204.873 86.5813 204.533C86.2188 204.193 85.775 204.023 85.25 204.023C84.725 204.023 84.2813 204.193 83.9188 204.533C83.5563 204.873 83.375 205.289 83.375 205.781V213.164C83.375 213.937 83.6687 214.6 84.2562 215.15C84.8437 215.701 85.55 215.977 86.375 215.977C87.2 215.977 87.9063 215.701 88.4938 215.15C89.0813 214.6 89.375 213.937 89.375 213.164V206.309C89.375 206.156 89.4281 206.03 89.5344 205.931C89.6406 205.831 89.775 205.781 89.9375 205.781C90.1 205.781 90.2344 205.831 90.3406 205.931C90.4469 206.03 90.5 206.156 90.5 206.309V213.164C90.5 214.242 90.1 215.156 89.3 215.906C88.5 216.656 87.525 217.031 86.375 217.031Z" fill="#888EA5"/>
</g>
</g>
<g filter="url(#filter0_diii_445_1597)">
<rect x="407.77" y="194" width="120.23" height="32" rx="6" fill="#252A3B"/>
<path d="M421.489 207.565C421.443 207.162 421.256 206.849 420.926 206.628C420.597 206.403 420.182 206.291 419.682 206.291C419.324 206.291 419.014 206.348 418.753 206.462C418.492 206.572 418.288 206.726 418.144 206.922C418.002 207.115 417.931 207.335 417.931 207.582C417.931 207.79 417.979 207.969 418.075 208.119C418.175 208.27 418.304 208.396 418.463 208.499C418.625 208.598 418.798 208.682 418.983 208.75C419.168 208.815 419.345 208.869 419.516 208.912L420.368 209.134C420.646 209.202 420.932 209.294 421.225 209.411C421.517 209.527 421.788 209.68 422.038 209.871C422.288 210.061 422.49 210.297 422.644 210.578C422.8 210.859 422.878 211.196 422.878 211.588C422.878 212.082 422.75 212.521 422.494 212.905C422.242 213.288 421.874 213.591 421.391 213.812C420.911 214.034 420.33 214.145 419.648 214.145C418.994 214.145 418.429 214.041 417.952 213.834C417.475 213.626 417.101 213.332 416.831 212.952C416.561 212.568 416.412 212.114 416.384 211.588H417.705C417.73 211.903 417.833 212.166 418.011 212.376C418.193 212.584 418.425 212.739 418.706 212.841C418.99 212.94 419.301 212.99 419.639 212.99C420.011 212.99 420.342 212.932 420.632 212.815C420.925 212.696 421.155 212.531 421.323 212.321C421.49 212.108 421.574 211.859 421.574 211.575C421.574 211.317 421.5 211.105 421.352 210.94C421.208 210.776 421.01 210.639 420.76 210.531C420.513 210.423 420.233 210.328 419.921 210.246L418.889 209.964C418.19 209.774 417.636 209.494 417.227 209.125C416.821 208.756 416.618 208.267 416.618 207.659C416.618 207.156 416.754 206.717 417.027 206.342C417.3 205.967 417.669 205.676 418.135 205.469C418.601 205.259 419.127 205.153 419.712 205.153C420.303 205.153 420.824 205.257 421.276 205.464C421.73 205.672 422.088 205.957 422.35 206.321C422.611 206.682 422.747 207.097 422.759 207.565H421.489ZM427.17 214.132C426.525 214.132 425.97 213.994 425.504 213.719C425.041 213.44 424.683 213.05 424.43 212.547C424.18 212.041 424.055 211.449 424.055 210.77C424.055 210.099 424.18 209.509 424.43 208.997C424.683 208.486 425.035 208.087 425.487 207.8C425.942 207.513 426.473 207.369 427.081 207.369C427.45 207.369 427.808 207.43 428.155 207.553C428.501 207.675 428.812 207.866 429.088 208.128C429.363 208.389 429.581 208.729 429.74 209.146C429.899 209.561 429.978 210.065 429.978 210.659V211.111H424.775V210.156H428.73C428.73 209.821 428.662 209.524 428.525 209.266C428.389 209.004 428.197 208.798 427.95 208.648C427.706 208.497 427.419 208.422 427.089 208.422C426.731 208.422 426.419 208.51 426.152 208.686C425.888 208.859 425.683 209.087 425.538 209.368C425.396 209.646 425.325 209.949 425.325 210.276V211.021C425.325 211.459 425.402 211.831 425.555 212.138C425.711 212.445 425.929 212.679 426.207 212.841C426.486 213 426.811 213.08 427.183 213.08C427.424 213.08 427.645 213.045 427.844 212.977C428.042 212.906 428.214 212.801 428.359 212.662C428.504 212.523 428.615 212.351 428.692 212.146L429.898 212.364C429.801 212.719 429.628 213.03 429.378 213.297C429.13 213.561 428.819 213.767 428.444 213.915C428.072 214.06 427.648 214.132 427.17 214.132ZM432.666 210.114V214H431.392V207.455H432.615V208.52H432.696C432.847 208.173 433.083 207.895 433.404 207.685C433.727 207.474 434.135 207.369 434.627 207.369C435.073 207.369 435.463 207.463 435.798 207.651C436.134 207.835 436.394 208.111 436.578 208.477C436.763 208.844 436.855 209.297 436.855 209.837V214H435.581V209.99C435.581 209.516 435.458 209.145 435.21 208.878C434.963 208.608 434.624 208.473 434.192 208.473C433.896 208.473 433.634 208.537 433.404 208.665C433.176 208.793 432.996 208.98 432.862 209.227C432.732 209.472 432.666 209.767 432.666 210.114ZM441.014 214.128C440.486 214.128 440.014 213.993 439.6 213.723C439.188 213.45 438.864 213.062 438.628 212.56C438.395 212.054 438.279 211.447 438.279 210.74C438.279 210.033 438.396 209.428 438.632 208.925C438.871 208.422 439.198 208.037 439.612 207.77C440.027 207.503 440.497 207.369 441.023 207.369C441.429 207.369 441.756 207.438 442.003 207.574C442.253 207.707 442.446 207.864 442.583 208.043C442.722 208.222 442.83 208.379 442.906 208.516H442.983V205.273H444.257V214H443.013V212.982H442.906C442.83 213.121 442.719 213.28 442.574 213.459C442.432 213.638 442.236 213.794 441.986 213.928C441.736 214.061 441.412 214.128 441.014 214.128ZM441.296 213.041C441.662 213.041 441.972 212.945 442.225 212.751C442.48 212.555 442.673 212.284 442.804 211.938C442.938 211.591 443.004 211.187 443.004 210.727C443.004 210.273 442.939 209.875 442.808 209.534C442.678 209.193 442.486 208.928 442.233 208.737C441.98 208.547 441.668 208.452 441.296 208.452C440.912 208.452 440.592 208.551 440.337 208.75C440.081 208.949 439.888 209.22 439.757 209.564C439.629 209.908 439.565 210.295 439.565 210.727C439.565 211.165 439.631 211.558 439.761 211.908C439.892 212.257 440.085 212.534 440.341 212.739C440.6 212.94 440.918 213.041 441.296 213.041ZM449.252 214V207.455H450.483V208.494H450.551C450.671 208.142 450.881 207.865 451.182 207.663C451.486 207.459 451.83 207.357 452.213 207.357C452.293 207.357 452.386 207.359 452.494 207.365C452.605 207.371 452.692 207.378 452.754 207.386V208.605C452.703 208.591 452.612 208.575 452.482 208.558C452.351 208.538 452.22 208.528 452.09 208.528C451.788 208.528 451.52 208.592 451.284 208.72C451.051 208.845 450.867 209.02 450.73 209.244C450.594 209.466 450.526 209.719 450.526 210.003V214H449.252ZM456.444 214.132C455.799 214.132 455.243 213.994 454.777 213.719C454.314 213.44 453.956 213.05 453.704 212.547C453.454 212.041 453.329 211.449 453.329 210.77C453.329 210.099 453.454 209.509 453.704 208.997C453.956 208.486 454.309 208.087 454.76 207.8C455.215 207.513 455.746 207.369 456.354 207.369C456.723 207.369 457.081 207.43 457.428 207.553C457.775 207.675 458.086 207.866 458.361 208.128C458.637 208.389 458.854 208.729 459.013 209.146C459.172 209.561 459.252 210.065 459.252 210.659V211.111H454.049V210.156H458.003C458.003 209.821 457.935 209.524 457.799 209.266C457.662 209.004 457.471 208.798 457.223 208.648C456.979 208.497 456.692 208.422 456.363 208.422C456.005 208.422 455.692 208.51 455.425 208.686C455.161 208.859 454.956 209.087 454.812 209.368C454.67 209.646 454.598 209.949 454.598 210.276V211.021C454.598 211.459 454.675 211.831 454.829 212.138C454.985 212.445 455.202 212.679 455.481 212.841C455.759 213 456.084 213.08 456.456 213.08C456.698 213.08 456.918 213.045 457.117 212.977C457.316 212.906 457.488 212.801 457.633 212.662C457.777 212.523 457.888 212.351 457.965 212.146L459.171 212.364C459.074 212.719 458.901 213.03 458.651 213.297C458.404 213.561 458.093 213.767 457.718 213.915C457.346 214.06 456.921 214.132 456.444 214.132ZM460.666 216.455V207.455H461.91V208.516H462.016C462.09 208.379 462.197 208.222 462.336 208.043C462.475 207.864 462.668 207.707 462.916 207.574C463.163 207.438 463.489 207.369 463.896 207.369C464.424 207.369 464.896 207.503 465.311 207.77C465.725 208.037 466.051 208.422 466.286 208.925C466.525 209.428 466.644 210.033 466.644 210.74C466.644 211.447 466.526 212.054 466.291 212.56C466.055 213.062 465.731 213.45 465.319 213.723C464.907 213.993 464.437 214.128 463.909 214.128C463.511 214.128 463.186 214.061 462.933 213.928C462.683 213.794 462.487 213.638 462.345 213.459C462.203 213.28 462.093 213.121 462.016 212.982H461.94V216.455H460.666ZM461.914 210.727C461.914 211.187 461.981 211.591 462.114 211.938C462.248 212.284 462.441 212.555 462.694 212.751C462.947 212.945 463.257 213.041 463.623 213.041C464.004 213.041 464.322 212.94 464.578 212.739C464.833 212.534 465.026 212.257 465.157 211.908C465.291 211.558 465.357 211.165 465.357 210.727C465.357 210.295 465.292 209.908 465.161 209.564C465.034 209.22 464.84 208.949 464.582 208.75C464.326 208.551 464.007 208.452 463.623 208.452C463.254 208.452 462.941 208.547 462.686 208.737C462.433 208.928 462.241 209.193 462.11 209.534C461.98 209.875 461.914 210.273 461.914 210.727ZM469.346 205.273V214H468.072V205.273H469.346ZM471.866 216.455C471.675 216.455 471.502 216.439 471.346 216.408C471.189 216.379 471.073 216.348 470.996 216.314L471.303 215.27C471.536 215.332 471.743 215.359 471.925 215.351C472.107 215.342 472.268 215.274 472.407 215.146C472.549 215.018 472.674 214.81 472.782 214.52L472.939 214.085L470.545 207.455H471.908L473.566 212.534H473.634L475.292 207.455H476.66L473.962 214.874C473.837 215.214 473.678 215.503 473.485 215.739C473.292 215.977 473.062 216.156 472.795 216.276C472.527 216.395 472.218 216.455 471.866 216.455Z" fill="white"/>
<rect x="485" y="202" width="16" height="16" rx="3" fill="#252A3B"/>
<path d="M490.784 214.176C490.456 214.176 490.156 214.096 489.886 213.937C489.615 213.776 489.399 213.56 489.237 213.289C489.076 213.016 488.995 212.716 488.995 212.391C488.995 212.06 489.076 211.759 489.237 211.488C489.399 211.217 489.615 211.001 489.886 210.84C490.156 210.678 490.456 210.598 490.784 210.598H491.597V209.395H490.784C490.456 209.395 490.156 209.315 489.886 209.156C489.615 208.995 489.399 208.78 489.237 208.512C489.076 208.241 488.995 207.94 488.995 207.609C488.995 207.281 489.076 206.982 489.237 206.711C489.399 206.44 489.615 206.225 489.886 206.066C490.156 205.905 490.456 205.824 490.784 205.824C491.112 205.824 491.412 205.905 491.682 206.066C491.953 206.225 492.169 206.44 492.331 206.711C492.495 206.982 492.577 207.281 492.577 207.609V208.418H493.776V207.609C493.776 207.281 493.856 206.982 494.014 206.711C494.176 206.44 494.392 206.225 494.663 206.066C494.934 205.905 495.235 205.824 495.565 205.824C495.893 205.824 496.193 205.905 496.464 206.066C496.735 206.225 496.949 206.44 497.108 206.711C497.27 206.982 497.35 207.281 497.35 207.609C497.35 207.94 497.27 208.241 497.108 208.512C496.947 208.78 496.731 208.995 496.46 209.156C496.192 209.315 495.893 209.395 495.565 209.395H494.757V210.598H495.565C495.893 210.598 496.192 210.678 496.46 210.84C496.731 211.001 496.947 211.217 497.108 211.488C497.27 211.759 497.35 212.06 497.35 212.391C497.35 212.716 497.27 213.016 497.108 213.289C496.947 213.56 496.731 213.776 496.46 213.937C496.192 214.096 495.893 214.176 495.565 214.176C495.235 214.176 494.934 214.096 494.663 213.937C494.392 213.776 494.176 213.56 494.014 213.289C493.856 213.016 493.776 212.716 493.776 212.391V211.574H492.577V212.391C492.577 212.716 492.495 213.016 492.331 213.289C492.169 213.56 491.953 213.776 491.682 213.937C491.412 214.096 491.112 214.176 490.784 214.176ZM490.784 213.199C490.932 213.199 491.068 213.163 491.19 213.09C491.315 213.017 491.414 212.919 491.487 212.797C491.56 212.674 491.597 212.539 491.597 212.391V211.574H490.784C490.636 211.574 490.5 211.612 490.378 211.687C490.255 211.76 490.158 211.858 490.085 211.98C490.012 212.103 489.975 212.24 489.975 212.391C489.975 212.539 490.011 212.674 490.081 212.797C490.154 212.919 490.251 213.017 490.374 213.09C490.499 213.163 490.636 213.199 490.784 213.199ZM490.784 208.418H491.597V207.609C491.597 207.458 491.56 207.323 491.487 207.203C491.414 207.081 491.315 206.983 491.19 206.91C491.068 206.837 490.932 206.801 490.784 206.801C490.636 206.801 490.5 206.837 490.378 206.91C490.255 206.983 490.158 207.081 490.085 207.203C490.012 207.323 489.975 207.458 489.975 207.609C489.975 207.758 490.011 207.895 490.081 208.02C490.154 208.142 490.251 208.24 490.374 208.312C490.499 208.383 490.636 208.418 490.784 208.418ZM494.757 208.418H495.565C495.714 208.418 495.849 208.383 495.972 208.312C496.094 208.24 496.19 208.142 496.261 208.02C496.333 207.897 496.37 207.76 496.37 207.609C496.37 207.458 496.333 207.323 496.261 207.203C496.19 207.081 496.094 206.983 495.972 206.91C495.849 206.837 495.714 206.801 495.565 206.801C495.414 206.801 495.278 206.837 495.155 206.91C495.033 206.983 494.935 207.081 494.862 207.203C494.792 207.323 494.757 207.458 494.757 207.609V208.418ZM495.565 213.199C495.714 213.199 495.849 213.163 495.972 213.09C496.094 213.017 496.19 212.919 496.261 212.797C496.333 212.674 496.37 212.539 496.37 212.391C496.37 212.24 496.333 212.103 496.261 211.98C496.19 211.858 496.094 211.76 495.972 211.687C495.849 211.612 495.714 211.574 495.565 211.574H494.757V212.391C494.757 212.539 494.792 212.674 494.862 212.797C494.935 212.919 495.033 213.017 495.155 213.09C495.278 213.163 495.414 213.199 495.565 213.199ZM492.577 210.598H493.776V209.395H492.577V210.598Z" fill="#888EA5"/>
<rect x="485.5" y="202.5" width="15" height="15" rx="2.5" stroke="#5B617A"/>
<rect x="504" y="202" width="16" height="16" rx="3" fill="#252A3B"/>
<path d="M510.305 213.039L507.735 210.5L510.305 207.961V213.039ZM509.493 211.078V209.922H516.579V211.078H509.493ZM515.458 211.078V206H516.602V211.078H515.458ZM513.274 207.156V206H516.579V207.156H513.274Z" fill="#888EA5"/>
<rect x="504.5" y="202.5" width="15" height="15" rx="2.5" stroke="#5B617A"/>
</g>
<defs>
<filter id="filter0_diii_445_1597" x="406.77" y="193" width="122.23" height="35" filterUnits="userSpaceOnUse" color-interpolation-filters="sRGB">
<feFlood flood-opacity="0" result="BackgroundImageFix"/>
<feColorMatrix in="SourceAlpha" type="matrix" values="0 0 0 0 0 0 0 0 0 0 0 0 0 0 0 0 0 0 127 0" result="hardAlpha"/>
<feOffset dy="1"/>
<feGaussianBlur stdDeviation="0.5"/>
<feComposite in2="hardAlpha" operator="out"/>
<feColorMatrix type="matrix" values="0 0 0 0 0.12549 0 0 0 0 0.152941 0 0 0 0 0.172549 0 0 0 0.04 0"/>
<feBlend mode="normal" in2="BackgroundImageFix" result="effect1_dropShadow_445_1597"/>
<feBlend mode="normal" in="SourceGraphic" in2="effect1_dropShadow_445_1597" result="shape"/>
<feColorMatrix in="SourceAlpha" type="matrix" values="0 0 0 0 0 0 0 0 0 0 0 0 0 0 0 0 0 0 127 0" result="hardAlpha"/>
<feMorphology radius="1" operator="erode" in="SourceAlpha" result="effect2_innerShadow_445_1597"/>
<feOffset/>
<feComposite in2="hardAlpha" operator="arithmetic" k2="-1" k3="1"/>
<feColorMatrix type="matrix" values="0 0 0 0 0.0862745 0 0 0 0 0.101961 0 0 0 0 0.14902 0 0 0 0.698 0"/>
<feBlend mode="normal" in2="shape" result="effect2_innerShadow_445_1597"/>
<feColorMatrix in="SourceAlpha" type="matrix" values="0 0 0 0 0 0 0 0 0 0 0 0 0 0 0 0 0 0 127 0" result="hardAlpha"/>
<feOffset dy="1"/>
<feGaussianBlur stdDeviation="1"/>
<feComposite in2="hardAlpha" operator="arithmetic" k2="-1" k3="1"/>
<feColorMatrix type="matrix" values="0 0 0 0 1 0 0 0 0 1 0 0 0 0 1 0 0 0 0.12 0"/>
<feBlend mode="normal" in2="effect2_innerShadow_445_1597" result="effect3_innerShadow_445_1597"/>
<feColorMatrix in="SourceAlpha" type="matrix" values="0 0 0 0 0 0 0 0 0 0 0 0 0 0 0 0 0 0 127 0" result="hardAlpha"/>
<feMorphology radius="1" operator="erode" in="SourceAlpha" result="effect4_innerShadow_445_1597"/>
<feOffset dy="-1"/>
<feGaussianBlur stdDeviation="0.5"/>
<feComposite in2="hardAlpha" operator="arithmetic" k2="-1" k3="1"/>
<feColorMatrix type="matrix" values="0 0 0 0 0 0 0 0 0 0 0 0 0 0 0 0 0 0 0.12 0"/>
<feBlend mode="normal" in2="effect3_innerShadow_445_1597" result="effect4_innerShadow_445_1597"/>
</filter>
<clipPath id="clip0_445_1597">
<rect width="6" height="18" fill="white" transform="translate(194.11 15)"/>
</clipPath>
<clipPath id="clip1_445_1597">
<rect width="6" height="4" fill="white" transform="translate(194.11 22)"/>
</clipPath>
<clipPath id="clip2_445_1597">
<rect width="6" height="4" fill="white" transform="translate(194.11 22)"/>
</clipPath>
<clipPath id="clip3_445_1597">
<rect width="12" height="12" fill="white" transform="translate(20 204)"/>
</clipPath>
<clipPath id="clip4_445_1597">
<rect width="12" height="12" fill="white" transform="translate(20 204)"/>
</clipPath>
<clipPath id="clip5_445_1597">
<rect width="14" height="10" fill="white" transform="translate(48 205)"/>
</clipPath>
<clipPath id="clip6_445_1597">
<rect width="14" height="10" fill="white" transform="translate(48 205)"/>
</clipPath>
<clipPath id="clip7_445_1597">
<rect width="9" height="15" fill="white" transform="translate(81.75 202.5)"/>
</clipPath>
<clipPath id="clip8_445_1597">
<rect width="9" height="15" fill="white" transform="translate(81.75 202.5)"/>
</clipPath>
</defs>
</svg>
