<svg width="360" height="282" viewBox="0 0 360 282" fill="none" xmlns="http://www.w3.org/2000/svg">
<g clip-path="url(#clip0_445_1645)">
<rect width="360" height="282" rx="8" fill="white"/>
<g clip-path="url(#clip1_445_1645)">
<rect width="360" height="64" fill="white"/>
<path d="M31.8253 30.0696C31.7424 29.8011 31.6281 29.5608 31.4822 29.3487C31.3397 29.1333 31.1674 28.9493 30.9652 28.7969C30.7663 28.6444 30.5376 28.5301 30.2791 28.4538C30.0206 28.3743 29.7389 28.3345 29.4339 28.3345C28.8871 28.3345 28.3999 28.4721 27.9723 28.7472C27.5447 29.0223 27.2083 29.4266 26.9631 29.9602C26.7211 30.4905 26.6001 31.1368 26.6001 31.8991C26.6001 32.6681 26.7211 33.3194 26.9631 33.853C27.205 34.3866 27.5414 34.7926 27.9723 35.071C28.4032 35.3461 28.9036 35.4837 29.4737 35.4837C29.9908 35.4837 30.4382 35.3842 30.8161 35.1854C31.1972 34.9865 31.4905 34.7048 31.696 34.3402C31.9015 33.9723 32.0043 33.5414 32.0043 33.0476L32.4219 33.1122H29.6577V31.6705H33.7891V32.8935C33.7891 33.7652 33.6035 34.5192 33.2322 35.1555C32.861 35.7919 32.3506 36.2824 31.701 36.6271C31.0514 36.9685 30.3056 37.1392 29.4638 37.1392C28.5258 37.1392 27.7022 36.9287 26.9929 36.5078C26.2869 36.0836 25.7351 35.482 25.3374 34.7031C24.9429 33.9209 24.7457 32.9929 24.7457 31.919C24.7457 31.0971 24.8617 30.3629 25.0938 29.7166C25.3291 29.0703 25.6572 28.5218 26.0781 28.071C26.4991 27.617 26.9929 27.2723 27.5597 27.0369C28.1264 26.7983 28.7429 26.679 29.4091 26.679C29.9725 26.679 30.4979 26.7618 30.9851 26.9276C31.4723 27.09 31.9048 27.322 32.2827 27.6236C32.6638 27.9252 32.977 28.2831 33.2223 28.6974C33.4676 29.1117 33.6283 29.5691 33.7045 30.0696H31.8253ZM38.8738 37.1491C38.1081 37.1491 37.4469 36.9901 36.8901 36.6719C36.3366 36.3504 35.9107 35.8963 35.6124 35.3097C35.3141 34.7197 35.165 34.0253 35.165 33.2266C35.165 32.4411 35.3141 31.7517 35.6124 31.1584C35.914 30.5618 36.3349 30.0978 36.8752 29.7663C37.4154 29.4316 38.0501 29.2642 38.7793 29.2642C39.2499 29.2642 39.6941 29.3404 40.1117 29.4929C40.5326 29.642 40.9038 29.8741 41.2253 30.1889C41.5501 30.5038 41.8053 30.9048 41.9909 31.392C42.1766 31.8759 42.2694 32.4527 42.2694 33.1222V33.674H36.0101V32.4609H40.5442C40.5409 32.1162 40.4663 31.8097 40.3205 31.5412C40.1747 31.2694 39.9708 31.0556 39.709 30.8999C39.4505 30.7441 39.1489 30.6662 38.8042 30.6662C38.4363 30.6662 38.1131 30.7557 37.8347 30.9347C37.5563 31.1103 37.3392 31.3423 37.1834 31.6307C37.031 31.9157 36.9531 32.2289 36.9498 32.5703V33.6293C36.9498 34.0734 37.031 34.4545 37.1934 34.7727C37.3558 35.0876 37.5828 35.3295 37.8745 35.4986C38.1661 35.6643 38.5075 35.7472 38.8986 35.7472C39.1605 35.7472 39.3974 35.7107 39.6096 35.6378C39.8217 35.5616 40.0056 35.4505 40.1614 35.3047C40.3172 35.1589 40.4348 34.9782 40.5144 34.7628L42.1948 34.9517C42.0887 35.3958 41.8865 35.7836 41.5882 36.1151C41.2933 36.4432 40.9154 36.6984 40.4547 36.8807C39.994 37.0597 39.467 37.1491 38.8738 37.1491ZM47.6051 29.3636V30.7557H43.2152V29.3636H47.6051ZM44.299 27.5341H46.0987V34.7031C46.0987 34.9451 46.1352 35.1307 46.2081 35.2599C46.2843 35.3859 46.3838 35.4721 46.5064 35.5185C46.629 35.5649 46.7649 35.5881 46.9141 35.5881C47.0268 35.5881 47.1295 35.5798 47.2223 35.5632C47.3184 35.5466 47.3913 35.5317 47.4411 35.5185L47.7443 36.9254C47.6482 36.9586 47.5107 36.995 47.3317 37.0348C47.156 37.0746 46.9406 37.0978 46.6854 37.1044C46.2346 37.1177 45.8286 37.0497 45.4673 36.9006C45.1061 36.7481 44.8194 36.5128 44.6072 36.1946C44.3984 35.8764 44.2957 35.4787 44.299 35.0014V27.5341ZM52.5829 37V29.3636H54.3826V37H52.5829ZM53.4877 28.2798C53.2027 28.2798 52.9574 28.1854 52.752 27.9964C52.5465 27.8042 52.4437 27.5739 52.4437 27.3054C52.4437 27.0336 52.5465 26.8033 52.752 26.6143C52.9574 26.4221 53.2027 26.326 53.4877 26.326C53.7761 26.326 54.0214 26.4221 54.2235 26.6143C54.429 26.8033 54.5318 27.0336 54.5318 27.3054C54.5318 27.5739 54.429 27.8042 54.2235 27.9964C54.0214 28.1854 53.7761 28.2798 53.4877 28.2798ZM58.033 32.5256V37H56.2333V29.3636H57.9535V30.6612H58.043C58.2186 30.2337 58.4987 29.8939 58.8832 29.642C59.271 29.3902 59.7499 29.2642 60.32 29.2642C60.8469 29.2642 61.306 29.3769 61.6971 29.6023C62.0915 29.8277 62.3964 30.1541 62.6119 30.5817C62.8306 31.0092 62.9383 31.5279 62.935 32.1378V37H61.1353V32.4162C61.1353 31.9058 61.0027 31.5064 60.7376 31.218C60.4757 30.9297 60.1128 30.7855 59.6488 30.7855C59.3339 30.7855 59.0539 30.8551 58.8086 30.9943C58.5666 31.1302 58.3761 31.3274 58.2369 31.5859C58.101 31.8445 58.033 32.1577 58.033 32.5256ZM72.0504 29.3636V30.7557H67.6605V29.3636H72.0504ZM68.7443 27.5341H70.544V34.7031C70.544 34.9451 70.5805 35.1307 70.6534 35.2599C70.7296 35.3859 70.8291 35.4721 70.9517 35.5185C71.0743 35.5649 71.2102 35.5881 71.3594 35.5881C71.4721 35.5881 71.5748 35.5798 71.6676 35.5632C71.7637 35.5466 71.8366 35.5317 71.8864 35.5185L72.1896 36.9254C72.0935 36.9586 71.956 36.995 71.777 37.0348C71.6013 37.0746 71.3859 37.0978 71.1307 37.1044C70.6799 37.1177 70.2739 37.0497 69.9126 36.9006C69.5514 36.7481 69.2647 36.5128 69.0526 36.1946C68.8438 35.8764 68.741 35.4787 68.7443 35.0014V27.5341ZM76.8045 37.1491C76.0588 37.1491 75.4125 36.9851 74.8656 36.657C74.3187 36.3288 73.8945 35.8698 73.5929 35.2798C73.2946 34.6899 73.1454 34.0005 73.1454 33.2116C73.1454 32.4228 73.2946 31.7318 73.5929 31.1385C73.8945 30.5452 74.3187 30.0845 74.8656 29.7564C75.4125 29.4283 76.0588 29.2642 76.8045 29.2642C77.5502 29.2642 78.1966 29.4283 78.7434 29.7564C79.2903 30.0845 79.7129 30.5452 80.0112 31.1385C80.3128 31.7318 80.4636 32.4228 80.4636 33.2116C80.4636 34.0005 80.3128 34.6899 80.0112 35.2798C79.7129 35.8698 79.2903 36.3288 78.7434 36.657C78.1966 36.9851 77.5502 37.1491 76.8045 37.1491ZM76.8145 35.7074C77.2188 35.7074 77.5569 35.5964 77.8287 35.3743C78.1004 35.1489 78.3026 34.8473 78.4352 34.4695C78.5711 34.0916 78.639 33.6707 78.639 33.2067C78.639 32.7393 78.5711 32.3168 78.4352 31.9389C78.3026 31.5578 78.1004 31.2545 77.8287 31.0291C77.5569 30.8037 77.2188 30.6911 76.8145 30.6911C76.4002 30.6911 76.0555 30.8037 75.7804 31.0291C75.5086 31.2545 75.3047 31.5578 75.1689 31.9389C75.0363 32.3168 74.97 32.7393 74.97 33.2067C74.97 33.6707 75.0363 34.0916 75.1689 34.4695C75.3047 34.8473 75.5086 35.1489 75.7804 35.3743C76.0555 35.5964 76.4002 35.7074 76.8145 35.7074ZM86.8583 33.7884V29.3636H88.658V37H86.913V35.6428H86.8335C86.6611 36.0703 86.3777 36.42 85.9833 36.6918C85.5922 36.9635 85.11 37.0994 84.5366 37.0994C84.0361 37.0994 83.5936 36.9884 83.2092 36.7663C82.828 36.541 82.5297 36.2145 82.3143 35.7869C82.0988 35.3561 81.9911 34.8357 81.9911 34.2259V29.3636H83.7908V33.9474C83.7908 34.4313 83.9234 34.8158 84.1886 35.1009C84.4537 35.3859 84.8017 35.5284 85.2326 35.5284C85.4978 35.5284 85.7546 35.4638 86.0032 35.3345C86.2518 35.2053 86.4556 35.013 86.6147 34.7578C86.7771 34.4993 86.8583 34.1761 86.8583 33.7884ZM93.8397 37.1491C93.0774 37.1491 92.4228 36.9818 91.8759 36.647C91.3323 36.3123 90.9131 35.8499 90.6181 35.2599C90.3264 34.6667 90.1806 33.9839 90.1806 33.2116C90.1806 32.4361 90.3297 31.7517 90.628 31.1584C90.9263 30.5618 91.3472 30.0978 91.8908 29.7663C92.4377 29.4316 93.084 29.2642 93.8297 29.2642C94.4495 29.2642 94.998 29.3786 95.4753 29.6072C95.9559 29.8326 96.3387 30.1525 96.6238 30.5668C96.9088 30.9777 97.0712 31.4583 97.111 32.0085H95.3908C95.3212 31.6406 95.1555 31.334 94.8936 31.0888C94.6351 30.8402 94.2888 30.7159 93.8546 30.7159C93.4867 30.7159 93.1635 30.8153 92.8851 31.0142C92.6067 31.2098 92.3896 31.4915 92.2338 31.8594C92.0814 32.2273 92.0051 32.6681 92.0051 33.1818C92.0051 33.7022 92.0814 34.1496 92.2338 34.5241C92.3863 34.8954 92.6001 35.1821 92.8752 35.3842C93.1536 35.5831 93.4801 35.6825 93.8546 35.6825C94.1197 35.6825 94.3567 35.6328 94.5655 35.5334C94.7776 35.4306 94.955 35.2831 95.0975 35.0909C95.24 34.8987 95.3378 34.665 95.3908 34.3899H97.111C97.0679 34.9302 96.9088 35.4091 96.6337 35.8267C96.3586 36.241 95.9841 36.5658 95.5101 36.8011C95.0362 37.0331 94.4793 37.1491 93.8397 37.1491ZM100.388 32.5256V37H98.5888V26.8182H100.349V30.6612H100.438C100.617 30.2304 100.894 29.8906 101.268 29.642C101.646 29.3902 102.127 29.2642 102.71 29.2642C103.241 29.2642 103.703 29.3752 104.097 29.5973C104.492 29.8194 104.797 30.1442 105.012 30.5717C105.231 30.9993 105.34 31.5213 105.34 32.1378V37H103.54V32.4162C103.54 31.9025 103.408 31.5031 103.143 31.218C102.881 30.9297 102.513 30.7855 102.039 30.7855C101.721 30.7855 101.436 30.8551 101.184 30.9943C100.935 31.1302 100.74 31.3274 100.597 31.5859C100.458 31.8445 100.388 32.1577 100.388 32.5256Z" fill="#262E35"/>
<rect x="281.08" y="21.5" width="26.92" height="21" rx="3" fill="#FCFCFC"/>
<path d="M288.626 35.6172C288.024 35.6172 287.505 35.4922 287.067 35.2422C286.632 34.9896 286.298 34.6328 286.063 34.1719C285.829 33.7083 285.712 33.1628 285.712 32.5352C285.712 31.918 285.829 31.3763 286.063 30.9102C286.3 30.4414 286.631 30.0768 287.055 29.8164C287.48 29.5534 287.979 29.4219 288.551 29.4219C288.921 29.4219 289.27 29.4818 289.598 29.6016C289.929 29.7187 290.221 29.901 290.473 30.1484C290.729 30.3958 290.929 30.7109 291.075 31.0937C291.221 31.474 291.294 31.9271 291.294 32.4531V32.8867H286.376V31.9336H289.938C289.936 31.6628 289.877 31.4219 289.762 31.2109C289.648 30.9974 289.488 30.8294 289.282 30.707C289.079 30.5846 288.842 30.5234 288.571 30.5234C288.282 30.5234 288.028 30.5937 287.809 30.7344C287.59 30.8724 287.42 31.0547 287.298 31.2812C287.178 31.5052 287.117 31.7513 287.114 32.0195V32.8516C287.114 33.2005 287.178 33.5 287.305 33.75C287.433 33.9974 287.611 34.1875 287.84 34.3203C288.07 34.4505 288.338 34.5156 288.645 34.5156C288.851 34.5156 289.037 34.487 289.204 34.4297C289.37 34.3698 289.515 34.2826 289.637 34.168C289.76 34.0534 289.852 33.9115 289.915 33.7422L291.235 33.8906C291.152 34.2396 290.993 34.5443 290.758 34.8047C290.527 35.0625 290.23 35.263 289.868 35.4062C289.506 35.5469 289.092 35.6172 288.626 35.6172ZM297.232 31.0859L295.943 31.2266C295.907 31.0964 295.843 30.974 295.752 30.8594C295.663 30.7448 295.543 30.6523 295.392 30.582C295.241 30.5117 295.056 30.4766 294.838 30.4766C294.543 30.4766 294.296 30.5404 294.095 30.668C293.897 30.7956 293.8 30.9609 293.802 31.1641C293.8 31.3385 293.864 31.4805 293.994 31.5898C294.127 31.6992 294.345 31.7891 294.65 31.8594L295.673 32.0781C296.241 32.2005 296.663 32.3945 296.939 32.6602C297.218 32.9258 297.358 33.2734 297.361 33.7031C297.358 34.0807 297.248 34.4141 297.029 34.7031C296.813 34.9896 296.512 35.2135 296.127 35.375C295.741 35.5365 295.298 35.6172 294.798 35.6172C294.064 35.6172 293.473 35.4635 293.025 35.1562C292.577 34.8464 292.31 34.4154 292.224 33.8633L293.603 33.7305C293.666 34.0013 293.798 34.2057 294.002 34.3437C294.205 34.4818 294.469 34.5508 294.795 34.5508C295.131 34.5508 295.4 34.4818 295.603 34.3437C295.809 34.2057 295.912 34.0352 295.912 33.832C295.912 33.6602 295.845 33.5182 295.713 33.4062C295.582 33.2943 295.379 33.2083 295.103 33.1484L294.08 32.9336C293.504 32.8138 293.078 32.612 292.802 32.3281C292.526 32.0417 292.39 31.6797 292.392 31.2422C292.39 30.8724 292.49 30.5521 292.693 30.2812C292.899 30.0078 293.184 29.7969 293.548 29.6484C293.916 29.4974 294.339 29.4219 294.818 29.4219C295.521 29.4219 296.075 29.5716 296.478 29.8711C296.884 30.1706 297.136 30.5755 297.232 31.0859ZM301.144 35.6172C300.545 35.6172 300.031 35.4857 299.601 35.2227C299.174 34.9596 298.845 34.5964 298.613 34.1328C298.384 33.6667 298.269 33.1302 298.269 32.5234C298.269 31.9141 298.386 31.3763 298.621 30.9102C298.855 30.4414 299.186 30.0768 299.613 29.8164C300.043 29.5534 300.55 29.4219 301.136 29.4219C301.623 29.4219 302.054 29.5117 302.429 29.6914C302.807 29.8685 303.108 30.1198 303.332 30.4453C303.556 30.7682 303.683 31.1458 303.715 31.5781H302.363C302.308 31.2891 302.178 31.0482 301.972 30.8555C301.769 30.6602 301.497 30.5625 301.156 30.5625C300.867 30.5625 300.613 30.6406 300.394 30.7969C300.175 30.9505 300.005 31.1719 299.882 31.4609C299.763 31.75 299.703 32.0964 299.703 32.5C299.703 32.9089 299.763 33.2604 299.882 33.5547C300.002 33.8464 300.17 34.0716 300.386 34.2305C300.605 34.3867 300.862 34.4648 301.156 34.4648C301.364 34.4648 301.55 34.4258 301.715 34.3477C301.881 34.2669 302.021 34.151 302.132 34C302.244 33.849 302.321 33.6654 302.363 33.4492H303.715C303.681 33.8737 303.556 34.25 303.34 34.5781C303.123 34.9036 302.829 35.1589 302.457 35.3437C302.084 35.526 301.647 35.6172 301.144 35.6172Z" fill="#5E7182"/>
<rect x="281.58" y="22" width="25.92" height="20" rx="2.5" stroke="#EDEFF2"/>
<g clip-path="url(#clip2_445_1645)">
<path d="M328 33.229L323.979 37.25C323.812 37.4167 323.611 37.4967 323.375 37.49C323.139 37.4827 322.938 37.3957 322.771 37.229C322.604 37.0623 322.521 36.8577 322.521 36.615C322.521 36.3717 322.604 36.1667 322.771 36L326.771 32L322.75 27.979C322.583 27.8123 322.503 27.6077 322.51 27.365C322.517 27.1217 322.604 26.9167 322.771 26.75C322.938 26.5833 323.142 26.5 323.385 26.5C323.628 26.5 323.833 26.5833 324 26.75L328 30.771L332.021 26.75C332.188 26.5833 332.392 26.5 332.635 26.5C332.878 26.5 333.083 26.5833 333.25 26.75C333.417 26.9167 333.5 27.1217 333.5 27.365C333.5 27.6077 333.417 27.8123 333.25 27.979L329.229 32L333.25 36.021C333.417 36.1877 333.5 36.389 333.5 36.625C333.5 36.861 333.417 37.0623 333.25 37.229C333.083 37.3957 332.878 37.479 332.635 37.479C332.392 37.479 332.188 37.3957 332.021 37.229L328 33.229Z" fill="#A0AEBA"/>
</g>
<mask id="path-7-inside-1_445_1645" fill="white">
<path d="M0 0H360V64H0V0Z"/>
</mask>
<path d="M360 63H0V65H360V63Z" fill="#EDEFF2" mask="url(#path-7-inside-1_445_1645)"/>
</g>
<g clip-path="url(#clip3_445_1645)">
<rect x="24" y="80" width="312" height="36" rx="8" fill="#F8F8FA"/>
<rect x="24.5" y="80.5" width="311" height="35" rx="7.5" stroke="#B9BCCD" stroke-opacity="0.24"/>
<g filter="url(#filter0_dd_445_1645)">
<rect x="26" y="82" width="101" height="32" rx="6" fill="white"/>
</g>
<g clip-path="url(#clip4_445_1645)">
<g clip-path="url(#clip5_445_1645)">
<path d="M44.78 103.767C44.03 103.767 43.3349 103.582 42.6945 103.21C42.0541 102.839 41.5493 102.328 41.18 101.678H39.9166C39.7204 101.678 39.5589 101.612 39.432 101.478C39.305 101.345 39.2416 101.179 39.2416 100.982C39.2416 100.784 39.3079 100.619 39.4406 100.486C39.5733 100.352 39.7377 100.285 39.9339 100.285H40.6954C40.6608 100.053 40.6406 99.8211 40.6349 99.5889C40.6291 99.3568 40.6262 99.1246 40.6262 98.8925H39.9166C39.7204 98.8925 39.5589 98.8258 39.432 98.6923C39.305 98.5588 39.2416 98.3934 39.2416 98.1961C39.2416 97.9987 39.3079 97.8333 39.4406 97.6999C39.5733 97.5664 39.7377 97.4996 39.9339 97.4996H40.6262C40.6262 97.2675 40.6291 97.0354 40.6349 96.8032C40.6406 96.5711 40.6608 96.3389 40.6954 96.1068H39.9166C39.7204 96.1068 39.5589 96.04 39.432 95.9066C39.305 95.7731 39.2416 95.6077 39.2416 95.4104C39.2416 95.213 39.3079 95.0476 39.4406 94.9141C39.5733 94.7807 39.7377 94.7139 39.9339 94.7139H41.18C41.3416 94.447 41.5233 94.1974 41.7252 93.9653C41.9272 93.7331 42.1608 93.53 42.4262 93.3559L41.7858 92.6943C41.6589 92.555 41.5983 92.3896 41.6041 92.1981C41.6099 92.0066 41.6762 91.847 41.8031 91.7193C41.93 91.5916 42.0916 91.5278 42.2877 91.5278C42.4839 91.5278 42.6454 91.5916 42.7723 91.7193L43.7762 92.7291C44.0993 92.6246 44.4281 92.5724 44.7627 92.5724C45.0973 92.5724 45.4262 92.6246 45.7493 92.7291L46.7877 91.7019C46.9262 91.5742 47.0906 91.5133 47.281 91.5191C47.4714 91.5249 47.63 91.5916 47.757 91.7193C47.8839 91.847 47.9473 92.0095 47.9473 92.2068C47.9473 92.4041 47.8839 92.5666 47.757 92.6943L47.0993 93.3559C47.3647 93.53 47.6041 93.7302 47.8175 93.9566C48.031 94.1829 48.2185 94.4354 48.38 94.7139H49.6435C49.8397 94.7139 50.0012 94.7807 50.1282 94.9141C50.2551 95.0476 50.3185 95.213 50.3185 95.4104C50.3185 95.6077 50.2521 95.7731 50.1195 95.9066C49.9867 96.04 49.8223 96.1068 49.6262 96.1068H48.8647C48.8993 96.3389 48.9195 96.5711 48.9252 96.8032C48.931 97.0354 48.9339 97.2675 48.9339 97.4996H49.6435C49.8397 97.4996 50.0012 97.5664 50.1282 97.6999C50.2551 97.8333 50.3185 97.9987 50.3185 98.1961C50.3185 98.3934 50.2521 98.5588 50.1195 98.6923C49.9867 98.8258 49.8223 98.8925 49.6262 98.8925H48.9339C48.9339 99.1246 48.931 99.3568 48.9252 99.5889C48.9195 99.8211 48.8993 100.053 48.8647 100.285H49.6435C49.8397 100.285 50.0012 100.352 50.1282 100.486C50.2551 100.619 50.3185 100.784 50.3185 100.982C50.3185 101.179 50.2521 101.345 50.1195 101.478C49.9867 101.612 49.8223 101.678 49.6262 101.678H48.38C48.0108 102.328 47.506 102.839 46.8656 103.21C46.2252 103.582 45.53 103.767 44.78 103.767ZM44.78 102.375C45.5416 102.375 46.1935 102.102 46.7358 101.556C47.2781 101.011 47.5493 100.355 47.5493 99.5889V96.8032C47.5493 96.0371 47.2781 95.3813 46.7358 94.8358C46.1935 94.2903 45.5416 94.0175 44.78 94.0175C44.0185 94.0175 43.3666 94.2903 42.8243 94.8358C42.282 95.3813 42.0108 96.0371 42.0108 96.8032V99.5889C42.0108 100.355 42.282 101.011 42.8243 101.556C43.3666 102.102 44.0185 102.375 44.78 102.375ZM44.0877 100.285H45.4897C45.6858 100.285 45.8473 100.219 45.9743 100.085C46.1012 99.9516 46.1647 99.7862 46.1647 99.5889C46.1647 99.3916 46.0983 99.2262 45.9656 99.0927C45.8329 98.9592 45.6685 98.8925 45.4723 98.8925H44.0704C43.8743 98.8925 43.7127 98.9592 43.5858 99.0927C43.4589 99.2262 43.3954 99.3916 43.3954 99.5889C43.3954 99.7862 43.4618 99.9516 43.5945 100.085C43.7272 100.219 43.8916 100.285 44.0877 100.285ZM44.0877 97.4996H45.4897C45.6858 97.4996 45.8473 97.4329 45.9743 97.2994C46.1012 97.1659 46.1647 97.0005 46.1647 96.8032C46.1647 96.6059 46.0983 96.4405 45.9656 96.307C45.8329 96.1735 45.6685 96.1068 45.4723 96.1068H44.0704C43.8743 96.1068 43.7127 96.1735 43.5858 96.307C43.4589 96.4405 43.3954 96.6059 43.3954 96.8032C43.3954 97.0005 43.4618 97.1659 43.5945 97.2994C43.7272 97.4329 43.8916 97.4996 44.0877 97.4996Z" fill="#888EA5"/>
</g>
</g>
<path d="M58.8368 102V93.2727H61.888C62.4959 93.2727 62.9974 93.3778 63.3922 93.5881C63.7871 93.7955 64.0812 94.0753 64.2743 94.4276C64.4675 94.777 64.5641 95.1648 64.5641 95.5909C64.5641 95.9659 64.4974 96.2756 64.3638 96.5199C64.2332 96.7642 64.0599 96.9574 63.844 97.0994C63.6309 97.2415 63.3993 97.3466 63.1493 97.4148V97.5C63.4164 97.517 63.6849 97.6108 63.9547 97.7812C64.2246 97.9517 64.4505 98.196 64.6323 98.5142C64.8141 98.8324 64.905 99.2216 64.905 99.6818C64.905 100.119 64.8056 100.513 64.6067 100.862C64.4079 101.212 64.094 101.489 63.665 101.693C63.236 101.898 62.6778 102 61.9903 102H58.8368ZM59.8937 101.062H61.9903C62.6806 101.062 63.1707 100.929 63.4604 100.662C63.753 100.392 63.8993 100.065 63.8993 99.6818C63.8993 99.3864 63.8241 99.1136 63.6735 98.8636C63.5229 98.6108 63.3084 98.4091 63.03 98.2585C62.7516 98.1051 62.4221 98.0284 62.0414 98.0284H59.8937V101.062ZM59.8937 97.108H61.8539C62.1721 97.108 62.459 97.0455 62.7147 96.9205C62.9732 96.7955 63.1778 96.6193 63.3283 96.392C63.4817 96.1648 63.5584 95.8977 63.5584 95.5909C63.5584 95.2074 63.4249 94.8821 63.1579 94.6151C62.8908 94.3452 62.4675 94.2102 61.888 94.2102H59.8937V97.108ZM70.6302 99.3239V95.4545H71.6359V102H70.6302V100.892H70.562C70.4086 101.224 70.1699 101.507 69.8461 101.74C69.5222 101.97 69.1131 102.085 68.6188 102.085C68.2097 102.085 67.8461 101.996 67.5279 101.817C67.2097 101.635 66.9597 101.362 66.7779 100.999C66.5961 100.632 66.5052 100.17 66.5052 99.6136V95.4545H67.5109V99.5455C67.5109 100.023 67.6444 100.403 67.9114 100.688C68.1813 100.972 68.5251 101.114 68.9427 101.114C69.1927 101.114 69.4469 101.05 69.7055 100.922C69.9668 100.794 70.1856 100.598 70.3617 100.334C70.5407 100.07 70.6302 99.733 70.6302 99.3239ZM76.1199 104.591C75.6341 104.591 75.2165 104.528 74.867 104.403C74.5176 104.281 74.2264 104.119 73.9935 103.918C73.7633 103.719 73.5801 103.506 73.4437 103.278L74.2449 102.716C74.3358 102.835 74.4508 102.972 74.59 103.125C74.7292 103.281 74.9196 103.416 75.1611 103.53C75.4054 103.646 75.725 103.705 76.1199 103.705C76.6483 103.705 77.0844 103.577 77.4281 103.321C77.7719 103.065 77.9437 102.665 77.9437 102.119V100.79H77.8585C77.7846 100.909 77.6795 101.057 77.5432 101.233C77.4096 101.406 77.2165 101.561 76.9636 101.697C76.7136 101.831 76.3756 101.898 75.9494 101.898C75.421 101.898 74.9466 101.773 74.5261 101.523C74.1085 101.273 73.7775 100.909 73.5332 100.432C73.2917 99.9545 73.171 99.375 73.171 98.6932C73.171 98.0227 73.2889 97.4389 73.5247 96.9418C73.7605 96.4418 74.0886 96.0554 74.5091 95.7827C74.9295 95.5071 75.4153 95.3693 75.9665 95.3693C76.3926 95.3693 76.7307 95.4403 76.9807 95.5824C77.2335 95.7216 77.4267 95.8807 77.5602 96.0597C77.6966 96.2358 77.8017 96.3807 77.8756 96.4943H77.9778V95.4545H78.9494V102.188C78.9494 102.75 78.8216 103.207 78.5659 103.56C78.3131 103.915 77.9721 104.175 77.5432 104.339C77.117 104.507 76.6426 104.591 76.1199 104.591ZM76.0858 100.994C76.4892 100.994 76.8301 100.902 77.1085 100.717C77.3869 100.533 77.5986 100.267 77.7435 99.9205C77.8883 99.5739 77.9608 99.1591 77.9608 98.6761C77.9608 98.2045 77.8898 97.7884 77.7477 97.4276C77.6057 97.0668 77.3954 96.7841 77.117 96.5795C76.8386 96.375 76.4949 96.2727 76.0858 96.2727C75.6596 96.2727 75.3045 96.3807 75.0204 96.5966C74.7392 96.8125 74.5275 97.1023 74.3855 97.4659C74.2463 97.8295 74.1767 98.233 74.1767 98.6761C74.1767 99.1307 74.2477 99.5327 74.3898 99.8821C74.5346 100.229 74.7477 100.501 75.029 100.7C75.3131 100.896 75.6653 100.994 76.0858 100.994ZM84.1653 102V95.4545H85.1369V96.4432H85.2051C85.3244 96.1193 85.5403 95.8565 85.8528 95.6548C86.1653 95.4531 86.5176 95.3523 86.9096 95.3523C86.9835 95.3523 87.0758 95.3537 87.1866 95.3565C87.2974 95.3594 87.3812 95.3636 87.4381 95.3693V96.392C87.404 96.3835 87.3258 96.3707 87.2037 96.3537C87.0844 96.3338 86.9579 96.3239 86.8244 96.3239C86.5062 96.3239 86.2221 96.3906 85.9721 96.5241C85.725 96.6548 85.529 96.8366 85.3841 97.0696C85.242 97.2997 85.171 97.5625 85.171 97.858V102H84.1653ZM91.1753 102.136C90.5446 102.136 90.0006 101.997 89.5432 101.719C89.0886 101.438 88.7378 101.045 88.4906 100.543C88.2463 100.037 88.1241 99.4489 88.1241 98.7784C88.1241 98.108 88.2463 97.517 88.4906 97.0057C88.7378 96.4915 89.0815 96.0909 89.5219 95.804C89.965 95.5142 90.4821 95.3693 91.073 95.3693C91.4139 95.3693 91.7506 95.4261 92.0829 95.5398C92.4153 95.6534 92.7179 95.8381 92.9906 96.0938C93.2633 96.3466 93.4807 96.6818 93.6426 97.0994C93.8045 97.517 93.8855 98.0312 93.8855 98.642V99.0682H88.84V98.1989H92.8628C92.8628 97.8295 92.7889 97.5 92.6412 97.2102C92.4963 96.9205 92.2889 96.6918 92.019 96.5241C91.752 96.3565 91.4366 96.2727 91.073 96.2727C90.6724 96.2727 90.3258 96.3722 90.0332 96.571C89.7435 96.767 89.5204 97.0227 89.3642 97.3381C89.2079 97.6534 89.1298 97.9915 89.1298 98.3523V98.9318C89.1298 99.4261 89.215 99.8452 89.3855 100.189C89.5588 100.53 89.7989 100.79 90.1057 100.969C90.4125 101.145 90.769 101.233 91.1753 101.233C91.4395 101.233 91.6781 101.196 91.8912 101.122C92.1071 101.045 92.2932 100.932 92.4494 100.781C92.6057 100.628 92.7264 100.437 92.8116 100.21L93.7832 100.483C93.681 100.812 93.5091 101.102 93.2676 101.352C93.0261 101.599 92.7278 101.793 92.3727 101.932C92.0176 102.068 91.6185 102.136 91.1753 102.136ZM95.4153 104.455V95.4545H96.3869V96.4943H96.5062C96.5801 96.3807 96.6824 96.2358 96.8131 96.0597C96.9466 95.8807 97.1369 95.7216 97.3841 95.5824C97.6341 95.4403 97.9721 95.3693 98.3983 95.3693C98.9494 95.3693 99.4352 95.5071 99.8557 95.7827C100.276 96.0582 100.604 96.4489 100.84 96.9545C101.076 97.4602 101.194 98.0568 101.194 98.7443C101.194 99.4375 101.076 100.038 100.84 100.547C100.604 101.053 100.278 101.445 99.8599 101.723C99.4423 101.999 98.9608 102.136 98.4153 102.136C97.9949 102.136 97.6582 102.067 97.4054 101.928C97.1525 101.786 96.9579 101.625 96.8216 101.446C96.6852 101.264 96.5801 101.114 96.5062 100.994H96.421V104.455H95.4153ZM96.404 98.7273C96.404 99.2216 96.4764 99.6577 96.6213 100.036C96.7662 100.411 96.9778 100.705 97.2562 100.918C97.5346 101.128 97.8756 101.233 98.279 101.233C98.6994 101.233 99.0503 101.122 99.3315 100.901C99.6156 100.676 99.8287 100.375 99.9707 99.9972C100.116 99.6165 100.188 99.1932 100.188 98.7273C100.188 98.267 100.117 97.8523 99.975 97.483C99.8358 97.1108 99.6241 96.8168 99.34 96.6009C99.0588 96.3821 98.7051 96.2727 98.279 96.2727C97.8699 96.2727 97.5261 96.3764 97.2477 96.5838C96.9693 96.7884 96.7591 97.0753 96.617 97.4446C96.475 97.8111 96.404 98.2386 96.404 98.7273ZM105.387 102.136C104.796 102.136 104.278 101.996 103.832 101.714C103.388 101.433 103.042 101.04 102.792 100.534C102.545 100.028 102.421 99.4375 102.421 98.7614C102.421 98.0795 102.545 97.4844 102.792 96.9759C103.042 96.4673 103.388 96.0724 103.832 95.7912C104.278 95.5099 104.796 95.3693 105.387 95.3693C105.978 95.3693 106.495 95.5099 106.938 95.7912C107.384 96.0724 107.731 96.4673 107.978 96.9759C108.228 97.4844 108.353 98.0795 108.353 98.7614C108.353 99.4375 108.228 100.028 107.978 100.534C107.731 101.04 107.384 101.433 106.938 101.714C106.495 101.996 105.978 102.136 105.387 102.136ZM105.387 101.233C105.836 101.233 106.205 101.118 106.495 100.888C106.785 100.658 106.999 100.355 107.138 99.9801C107.278 99.6051 107.347 99.1989 107.347 98.7614C107.347 98.3239 107.278 97.9162 107.138 97.5384C106.999 97.1605 106.785 96.8551 106.495 96.6222C106.205 96.3892 105.836 96.2727 105.387 96.2727C104.938 96.2727 104.569 96.3892 104.279 96.6222C103.989 96.8551 103.775 97.1605 103.635 97.5384C103.496 97.9162 103.427 98.3239 103.427 98.7614C103.427 99.1989 103.496 99.6051 103.635 99.9801C103.775 100.355 103.989 100.658 104.279 100.888C104.569 101.118 104.938 101.233 105.387 101.233ZM109.888 102V95.4545H110.86V96.4432H110.928C111.047 96.1193 111.263 95.8565 111.575 95.6548C111.888 95.4531 112.24 95.3523 112.632 95.3523C112.706 95.3523 112.798 95.3537 112.909 95.3565C113.02 95.3594 113.104 95.3636 113.161 95.3693V96.392C113.127 96.3835 113.048 96.3707 112.926 96.3537C112.807 96.3338 112.681 96.3239 112.547 96.3239C112.229 96.3239 111.945 96.3906 111.695 96.5241C111.448 96.6548 111.252 96.8366 111.107 97.0696C110.965 97.2997 110.894 97.5625 110.894 97.858V102H109.888ZM117.61 95.4545V96.3068H114.218V95.4545H117.61ZM115.206 93.8864H116.212V100.125C116.212 100.409 116.253 100.622 116.335 100.764C116.421 100.903 116.529 100.997 116.659 101.045C116.793 101.091 116.933 101.114 117.081 101.114C117.192 101.114 117.283 101.108 117.354 101.097C117.425 101.082 117.482 101.071 117.524 101.062L117.729 101.966C117.661 101.991 117.566 102.017 117.443 102.043C117.321 102.071 117.166 102.085 116.979 102.085C116.695 102.085 116.416 102.024 116.144 101.902C115.874 101.78 115.649 101.594 115.47 101.344C115.294 101.094 115.206 100.778 115.206 100.398V93.8864Z" fill="#161A26"/>
<g clip-path="url(#clip6_445_1645)">
<g clip-path="url(#clip7_445_1645)">
<path fill-rule="evenodd" clip-rule="evenodd" d="M144.422 101.27L144.136 102.99L146.606 102.372L146.919 102.426C147.198 102.475 147.485 102.5 147.78 102.5H150.78C153.541 102.5 155.78 100.261 155.78 97.5C155.78 94.7386 153.541 92.5 150.78 92.5H147.78C145.019 92.5 142.78 94.7386 142.78 97.5C142.78 98.7368 143.227 99.8654 143.97 100.739L144.422 101.27ZM142.28 105L142.828 101.711C141.863 100.577 141.28 99.1063 141.28 97.5C141.28 93.9102 144.19 91 147.78 91H150.78C154.37 91 157.28 93.9102 157.28 97.5C157.28 101.09 154.37 104 150.78 104H147.78C147.399 104 147.026 103.967 146.663 103.904L142.28 105Z" fill="#888EA5"/>
</g>
</g>
<path d="M163.337 102V93.2727H168.57V94.2102H164.394V97.1591H168.178V98.0966H164.394V102H163.337ZM172.507 102.136C171.877 102.136 171.333 101.997 170.875 101.719C170.421 101.438 170.07 101.045 169.823 100.543C169.578 100.037 169.456 99.4489 169.456 98.7784C169.456 98.108 169.578 97.517 169.823 97.0057C170.07 96.4915 170.414 96.0909 170.854 95.804C171.297 95.5142 171.814 95.3693 172.405 95.3693C172.746 95.3693 173.083 95.4261 173.415 95.5398C173.747 95.6534 174.05 95.8381 174.323 96.0938C174.595 96.3466 174.813 96.6818 174.975 97.0994C175.137 97.517 175.218 98.0312 175.218 98.642V99.0682H170.172V98.1989H174.195C174.195 97.8295 174.121 97.5 173.973 97.2102C173.828 96.9205 173.621 96.6918 173.351 96.5241C173.084 96.3565 172.769 96.2727 172.405 96.2727C172.004 96.2727 171.658 96.3722 171.365 96.571C171.075 96.767 170.852 97.0227 170.696 97.3381C170.54 97.6534 170.462 97.9915 170.462 98.3523V98.9318C170.462 99.4261 170.547 99.8452 170.718 100.189C170.891 100.53 171.131 100.79 171.438 100.969C171.745 101.145 172.101 101.233 172.507 101.233C172.772 101.233 173.01 101.196 173.223 101.122C173.439 101.045 173.625 100.932 173.781 100.781C173.938 100.628 174.058 100.437 174.144 100.21L175.115 100.483C175.013 100.812 174.841 101.102 174.6 101.352C174.358 101.599 174.06 101.793 173.705 101.932C173.35 102.068 172.95 102.136 172.507 102.136ZM179.492 102.136C178.861 102.136 178.317 101.997 177.86 101.719C177.405 101.438 177.054 101.045 176.807 100.543C176.563 100.037 176.441 99.4489 176.441 98.7784C176.441 98.108 176.563 97.517 176.807 97.0057C177.054 96.4915 177.398 96.0909 177.838 95.804C178.281 95.5142 178.798 95.3693 179.389 95.3693C179.73 95.3693 180.067 95.4261 180.399 95.5398C180.732 95.6534 181.034 95.8381 181.307 96.0938C181.58 96.3466 181.797 96.6818 181.959 97.0994C182.121 97.517 182.202 98.0312 182.202 98.642V99.0682H177.156V98.1989H181.179C181.179 97.8295 181.105 97.5 180.958 97.2102C180.813 96.9205 180.605 96.6918 180.335 96.5241C180.068 96.3565 179.753 96.2727 179.389 96.2727C178.989 96.2727 178.642 96.3722 178.35 96.571C178.06 96.767 177.837 97.0227 177.681 97.3381C177.524 97.6534 177.446 97.9915 177.446 98.3523V98.9318C177.446 99.4261 177.531 99.8452 177.702 100.189C177.875 100.53 178.115 100.79 178.422 100.969C178.729 101.145 179.085 101.233 179.492 101.233C179.756 101.233 179.995 101.196 180.208 101.122C180.423 101.045 180.61 100.932 180.766 100.781C180.922 100.628 181.043 100.437 181.128 100.21L182.1 100.483C181.997 100.812 181.825 101.102 181.584 101.352C181.343 101.599 181.044 101.793 180.689 101.932C180.334 102.068 179.935 102.136 179.492 102.136ZM186.203 102.136C185.658 102.136 185.176 101.999 184.759 101.723C184.341 101.445 184.014 101.053 183.779 100.547C183.543 100.038 183.425 99.4375 183.425 98.7443C183.425 98.0568 183.543 97.4602 183.779 96.9545C184.014 96.4489 184.343 96.0582 184.763 95.7827C185.183 95.5071 185.669 95.3693 186.22 95.3693C186.647 95.3693 186.983 95.4403 187.23 95.5824C187.48 95.7216 187.671 95.8807 187.801 96.0597C187.935 96.2358 188.039 96.3807 188.112 96.4943H188.198V93.2727H189.203V102H188.232V100.994H188.112C188.039 101.114 187.933 101.264 187.797 101.446C187.661 101.625 187.466 101.786 187.213 101.928C186.96 102.067 186.624 102.136 186.203 102.136ZM186.34 101.233C186.743 101.233 187.084 101.128 187.362 100.918C187.641 100.705 187.852 100.411 187.997 100.036C188.142 99.6577 188.215 99.2216 188.215 98.7273C188.215 98.2386 188.144 97.8111 188.002 97.4446C187.86 97.0753 187.649 96.7884 187.371 96.5838C187.093 96.3764 186.749 96.2727 186.34 96.2727C185.914 96.2727 185.558 96.3821 185.274 96.6009C184.993 96.8168 184.781 97.1108 184.639 97.483C184.5 97.8523 184.431 98.267 184.431 98.7273C184.431 99.1932 184.502 99.6165 184.644 99.9972C184.789 100.375 185.002 100.676 185.283 100.901C185.567 101.122 185.919 101.233 186.34 101.233ZM191.321 102V93.2727H192.327V96.4943H192.412C192.486 96.3807 192.588 96.2358 192.719 96.0597C192.852 95.8807 193.043 95.7216 193.29 95.5824C193.54 95.4403 193.878 95.3693 194.304 95.3693C194.855 95.3693 195.341 95.5071 195.762 95.7827C196.182 96.0582 196.51 96.4489 196.746 96.9545C196.982 97.4602 197.1 98.0568 197.1 98.7443C197.1 99.4375 196.982 100.038 196.746 100.547C196.51 101.053 196.183 101.445 195.766 101.723C195.348 101.999 194.867 102.136 194.321 102.136C193.901 102.136 193.564 102.067 193.311 101.928C193.058 101.786 192.864 101.625 192.727 101.446C192.591 101.264 192.486 101.114 192.412 100.994H192.293V102H191.321ZM192.31 98.7273C192.31 99.2216 192.382 99.6577 192.527 100.036C192.672 100.411 192.884 100.705 193.162 100.918C193.441 101.128 193.781 101.233 194.185 101.233C194.605 101.233 194.956 101.122 195.237 100.901C195.522 100.676 195.735 100.375 195.877 99.9972C196.022 99.6165 196.094 99.1932 196.094 98.7273C196.094 98.267 196.023 97.8523 195.881 97.483C195.742 97.1108 195.53 96.8168 195.246 96.6009C194.965 96.3821 194.611 96.2727 194.185 96.2727C193.776 96.2727 193.432 96.3764 193.154 96.5838C192.875 96.7884 192.665 97.0753 192.523 97.4446C192.381 97.8111 192.31 98.2386 192.31 98.7273ZM200.564 102.153C200.149 102.153 199.773 102.075 199.435 101.919C199.097 101.76 198.828 101.531 198.629 101.233C198.431 100.932 198.331 100.568 198.331 100.142C198.331 99.767 198.405 99.4631 198.553 99.2301C198.7 98.9943 198.898 98.8097 199.145 98.6761C199.392 98.5426 199.665 98.4432 199.963 98.3778C200.264 98.3097 200.567 98.2557 200.871 98.2159C201.269 98.1648 201.591 98.1264 201.838 98.1009C202.088 98.0724 202.27 98.0256 202.384 97.9602C202.5 97.8949 202.558 97.7812 202.558 97.6193V97.5852C202.558 97.1648 202.443 96.8381 202.213 96.6051C201.986 96.3722 201.641 96.2557 201.178 96.2557C200.698 96.2557 200.321 96.3608 200.048 96.571C199.776 96.7812 199.584 97.0057 199.473 97.2443L198.519 96.9034C198.689 96.5057 198.916 96.196 199.2 95.9744C199.487 95.75 199.8 95.5937 200.138 95.5057C200.479 95.4148 200.814 95.3693 201.144 95.3693C201.354 95.3693 201.595 95.3949 201.868 95.446C202.144 95.4943 202.409 95.5952 202.665 95.7486C202.923 95.902 203.138 96.1335 203.308 96.4432C203.479 96.7528 203.564 97.1676 203.564 97.6875V102H202.558V101.114H202.507C202.439 101.256 202.325 101.408 202.166 101.57C202.007 101.732 201.796 101.869 201.531 101.983C201.267 102.097 200.945 102.153 200.564 102.153ZM200.718 101.25C201.115 101.25 201.45 101.172 201.723 101.016C201.999 100.859 202.206 100.658 202.345 100.411C202.487 100.163 202.558 99.9034 202.558 99.6307V98.7102C202.516 98.7614 202.422 98.8082 202.277 98.8509C202.135 98.8906 201.97 98.9261 201.783 98.9574C201.598 98.9858 201.418 99.0114 201.242 99.0341C201.068 99.054 200.928 99.071 200.82 99.0852C200.558 99.1193 200.314 99.1747 200.087 99.2514C199.862 99.3253 199.681 99.4375 199.541 99.5881C199.405 99.7358 199.337 99.9375 199.337 100.193C199.337 100.543 199.466 100.807 199.725 100.986C199.986 101.162 200.317 101.25 200.718 101.25ZM208.059 102.136C207.445 102.136 206.917 101.991 206.474 101.702C206.03 101.412 205.689 101.013 205.451 100.504C205.212 99.9957 205.093 99.4148 205.093 98.7614C205.093 98.0966 205.215 97.5099 205.459 97.0014C205.707 96.4901 206.05 96.0909 206.491 95.804C206.934 95.5142 207.451 95.3693 208.042 95.3693C208.502 95.3693 208.917 95.4545 209.286 95.625C209.655 95.7955 209.958 96.0341 210.194 96.3409C210.43 96.6477 210.576 97.0057 210.633 97.4148H209.627C209.55 97.1165 209.38 96.8523 209.116 96.6222C208.854 96.3892 208.502 96.2727 208.059 96.2727C207.667 96.2727 207.323 96.375 207.028 96.5795C206.735 96.7812 206.506 97.0668 206.341 97.4361C206.18 97.8026 206.099 98.233 206.099 98.7273C206.099 99.233 206.178 99.6733 206.337 100.048C206.499 100.423 206.726 100.714 207.019 100.922C207.314 101.129 207.661 101.233 208.059 101.233C208.32 101.233 208.557 101.188 208.77 101.097C208.984 101.006 209.164 100.875 209.312 100.705C209.459 100.534 209.564 100.33 209.627 100.091H210.633C210.576 100.477 210.435 100.825 210.211 101.135C209.989 101.442 209.695 101.686 209.329 101.868C208.965 102.047 208.542 102.136 208.059 102.136ZM213.04 99.6136L213.023 98.3693H213.228L216.091 95.4545H217.336L214.285 98.5398H214.199L213.04 99.6136ZM212.103 102V93.2727H213.109V102H212.103ZM216.262 102L213.705 98.7614L214.421 98.0625L217.54 102H216.262Z" fill="#888EA5"/>
<g clip-path="url(#clip8_445_1645)">
<g clip-path="url(#clip9_445_1645)">
<path d="M256.343 94.7858C256.343 94.2842 256.185 93.8817 255.868 93.5783C255.552 93.275 255.132 93.1233 254.61 93.1233C254.288 93.1233 253.996 93.1963 253.735 93.3421C253.474 93.4879 253.249 93.7008 253.06 93.9808C252.882 94.2492 252.641 94.4038 252.335 94.4446C252.029 94.4854 251.766 94.4008 251.543 94.1908C251.388 94.0392 251.302 93.8525 251.285 93.6308C251.268 93.4092 251.321 93.1992 251.443 93.0008C251.799 92.4408 252.252 92.0063 252.802 91.6971C253.352 91.3879 253.954 91.2333 254.61 91.2333C255.688 91.2333 256.563 91.5542 257.235 92.1958C257.907 92.8375 258.243 93.6775 258.243 94.7158C258.243 95.2408 258.138 95.7133 257.927 96.1333C257.716 96.5533 257.327 97.0492 256.76 97.6208C256.349 98.0292 256.071 98.3471 255.927 98.5746C255.782 98.8021 255.688 99.0617 255.643 99.3533C255.599 99.6333 255.485 99.8667 255.302 100.053C255.118 100.24 254.899 100.333 254.643 100.333C254.388 100.333 254.168 100.243 253.985 100.062C253.802 99.8813 253.71 99.6567 253.71 99.3883C253.71 98.9333 253.804 98.5163 253.993 98.1371C254.182 97.7579 254.499 97.3583 254.943 96.9383C255.51 96.4133 255.885 96.0079 256.068 95.7221C256.252 95.4363 256.343 95.1242 256.343 94.7858ZM254.61 104.533C254.243 104.533 253.929 104.396 253.668 104.122C253.407 103.848 253.277 103.518 253.277 103.133C253.277 102.748 253.407 102.419 253.668 102.145C253.929 101.87 254.243 101.733 254.61 101.733C254.977 101.733 255.291 101.87 255.552 102.145C255.813 102.419 255.943 102.748 255.943 103.133C255.943 103.518 255.813 103.848 255.552 104.122C255.291 104.396 254.977 104.533 254.61 104.533Z" fill="#888EA5"/>
</g>
</g>
<path d="M271.837 99.2727H272.996L273.968 100.551L274.224 100.892L275.672 102.818H274.513L273.559 101.54L273.32 101.216L271.837 99.2727ZM276.03 97.6364C276.03 98.5568 275.864 99.3523 275.532 100.023C275.199 100.693 274.744 101.21 274.164 101.574C273.584 101.938 272.922 102.119 272.178 102.119C271.434 102.119 270.772 101.938 270.192 101.574C269.613 101.21 269.157 100.693 268.824 100.023C268.492 99.3523 268.326 98.5568 268.326 97.6364C268.326 96.7159 268.492 95.9205 268.824 95.25C269.157 94.5795 269.613 94.0625 270.192 93.6989C270.772 93.3352 271.434 93.1534 272.178 93.1534C272.922 93.1534 273.584 93.3352 274.164 93.6989C274.744 94.0625 275.199 94.5795 275.532 95.25C275.864 95.9205 276.03 96.7159 276.03 97.6364ZM275.008 97.6364C275.008 96.8807 274.881 96.2429 274.628 95.723C274.378 95.2031 274.039 94.8097 273.61 94.5426C273.184 94.2756 272.707 94.142 272.178 94.142C271.65 94.142 271.171 94.2756 270.742 94.5426C270.316 94.8097 269.976 95.2031 269.724 95.723C269.474 96.2429 269.349 96.8807 269.349 97.6364C269.349 98.392 269.474 99.0298 269.724 99.5497C269.976 100.07 270.316 100.463 270.742 100.73C271.171 100.997 271.65 101.131 272.178 101.131C272.707 101.131 273.184 100.997 273.61 100.73C274.039 100.463 274.378 100.07 274.628 99.5497C274.881 99.0298 275.008 98.392 275.008 97.6364ZM281.796 99.3239V95.4545H282.802V102H281.796V100.892H281.728C281.574 101.224 281.336 101.507 281.012 101.74C280.688 101.97 280.279 102.085 279.785 102.085C279.376 102.085 279.012 101.996 278.694 101.817C278.376 101.635 278.126 101.362 277.944 100.999C277.762 100.632 277.671 100.17 277.671 99.6136V95.4545H278.677V99.5455C278.677 100.023 278.81 100.403 279.077 100.688C279.347 100.972 279.691 101.114 280.109 101.114C280.359 101.114 280.613 101.05 280.871 100.922C281.133 100.794 281.351 100.598 281.528 100.334C281.707 100.07 281.796 99.733 281.796 99.3239ZM287.388 102.136C286.757 102.136 286.213 101.997 285.756 101.719C285.301 101.438 284.951 101.045 284.703 100.543C284.459 100.037 284.337 99.4489 284.337 98.7784C284.337 98.108 284.459 97.517 284.703 97.0057C284.951 96.4915 285.294 96.0909 285.735 95.804C286.178 95.5142 286.695 95.3693 287.286 95.3693C287.627 95.3693 287.963 95.4261 288.296 95.5398C288.628 95.6534 288.931 95.8381 289.203 96.0938C289.476 96.3466 289.693 96.6818 289.855 97.0994C290.017 97.517 290.098 98.0312 290.098 98.642V99.0682H285.053V98.1989H289.076C289.076 97.8295 289.002 97.5 288.854 97.2102C288.709 96.9205 288.502 96.6918 288.232 96.5241C287.965 96.3565 287.649 96.2727 287.286 96.2727C286.885 96.2727 286.539 96.3722 286.246 96.571C285.956 96.767 285.733 97.0227 285.577 97.3381C285.421 97.6534 285.343 97.9915 285.343 98.3523V98.9318C285.343 99.4261 285.428 99.8452 285.598 100.189C285.772 100.53 286.012 100.79 286.318 100.969C286.625 101.145 286.982 101.233 287.388 101.233C287.652 101.233 287.891 101.196 288.104 101.122C288.32 101.045 288.506 100.932 288.662 100.781C288.818 100.628 288.939 100.437 289.024 100.21L289.996 100.483C289.894 100.812 289.722 101.102 289.48 101.352C289.239 101.599 288.941 101.793 288.585 101.932C288.23 102.068 287.831 102.136 287.388 102.136ZM296.264 96.9205L295.361 97.1761C295.304 97.0256 295.22 96.8793 295.11 96.7372C295.002 96.5923 294.854 96.473 294.666 96.3793C294.479 96.2855 294.239 96.2386 293.946 96.2386C293.546 96.2386 293.212 96.331 292.945 96.5156C292.681 96.6974 292.549 96.929 292.549 97.2102C292.549 97.4602 292.639 97.6577 292.821 97.8026C293.003 97.9474 293.287 98.0682 293.674 98.1648L294.645 98.4034C295.23 98.5455 295.666 98.7628 295.953 99.0554C296.24 99.3452 296.384 99.7187 296.384 100.176C296.384 100.551 296.276 100.886 296.06 101.182C295.847 101.477 295.549 101.71 295.165 101.881C294.782 102.051 294.335 102.136 293.827 102.136C293.159 102.136 292.607 101.991 292.169 101.702C291.732 101.412 291.455 100.989 291.338 100.432L292.293 100.193C292.384 100.545 292.556 100.81 292.808 100.986C293.064 101.162 293.398 101.25 293.81 101.25C294.279 101.25 294.651 101.151 294.926 100.952C295.205 100.75 295.344 100.509 295.344 100.227C295.344 100 295.264 99.8097 295.105 99.6562C294.946 99.5 294.702 99.3835 294.372 99.3068L293.282 99.0511C292.682 98.9091 292.242 98.6889 291.96 98.3906C291.682 98.0895 291.543 97.7131 291.543 97.2614C291.543 96.892 291.647 96.5653 291.854 96.2812C292.064 95.9972 292.35 95.7741 292.71 95.6122C293.074 95.4503 293.486 95.3693 293.946 95.3693C294.594 95.3693 295.103 95.5114 295.472 95.7955C295.844 96.0795 296.108 96.4545 296.264 96.9205ZM300.744 95.4545V96.3068H297.352V95.4545H300.744ZM298.341 93.8864H299.346V100.125C299.346 100.409 299.388 100.622 299.47 100.764C299.555 100.903 299.663 100.997 299.794 101.045C299.927 101.091 300.068 101.114 300.216 101.114C300.327 101.114 300.418 101.108 300.489 101.097C300.56 101.082 300.616 101.071 300.659 101.062L300.864 101.966C300.795 101.991 300.7 102.017 300.578 102.043C300.456 102.071 300.301 102.085 300.114 102.085C299.829 102.085 299.551 102.024 299.278 101.902C299.008 101.78 298.784 101.594 298.605 101.344C298.429 101.094 298.341 100.778 298.341 100.398V93.8864ZM302.257 102V95.4545H303.263V102H302.257ZM302.768 94.3636C302.572 94.3636 302.403 94.2969 302.261 94.1634C302.122 94.0298 302.052 93.8693 302.052 93.6818C302.052 93.4943 302.122 93.3338 302.261 93.2003C302.403 93.0668 302.572 93 302.768 93C302.964 93 303.132 93.0668 303.271 93.2003C303.413 93.3338 303.484 93.4943 303.484 93.6818C303.484 93.8693 303.413 94.0298 303.271 94.1634C303.132 94.2969 302.964 94.3636 302.768 94.3636ZM307.764 102.136C307.173 102.136 306.654 101.996 306.208 101.714C305.765 101.433 305.419 101.04 305.169 100.534C304.921 100.028 304.798 99.4375 304.798 98.7614C304.798 98.0795 304.921 97.4844 305.169 96.9759C305.419 96.4673 305.765 96.0724 306.208 95.7912C306.654 95.5099 307.173 95.3693 307.764 95.3693C308.355 95.3693 308.872 95.5099 309.315 95.7912C309.761 96.0724 310.107 96.4673 310.355 96.9759C310.605 97.4844 310.73 98.0795 310.73 98.7614C310.73 99.4375 310.605 100.028 310.355 100.534C310.107 101.04 309.761 101.433 309.315 101.714C308.872 101.996 308.355 102.136 307.764 102.136ZM307.764 101.233C308.213 101.233 308.582 101.118 308.872 100.888C309.161 100.658 309.376 100.355 309.515 99.9801C309.654 99.6051 309.724 99.1989 309.724 98.7614C309.724 98.3239 309.654 97.9162 309.515 97.5384C309.376 97.1605 309.161 96.8551 308.872 96.6222C308.582 96.3892 308.213 96.2727 307.764 96.2727C307.315 96.2727 306.946 96.3892 306.656 96.6222C306.366 96.8551 306.152 97.1605 306.012 97.5384C305.873 97.9162 305.804 98.3239 305.804 98.7614C305.804 99.1989 305.873 99.6051 306.012 99.9801C306.152 100.355 306.366 100.658 306.656 100.888C306.946 101.118 307.315 101.233 307.764 101.233ZM313.27 98.0625V102H312.265V95.4545H313.236V96.4773H313.322C313.475 96.1449 313.708 95.8778 314.02 95.6761C314.333 95.4716 314.736 95.3693 315.231 95.3693C315.674 95.3693 316.062 95.4602 316.394 95.642C316.726 95.821 316.985 96.0938 317.17 96.4602C317.354 96.8239 317.447 97.2841 317.447 97.8409V102H316.441V97.9091C316.441 97.3949 316.307 96.9943 316.04 96.7074C315.773 96.4176 315.407 96.2727 314.941 96.2727C314.62 96.2727 314.333 96.3423 314.08 96.4815C313.83 96.6207 313.633 96.8239 313.488 97.0909C313.343 97.358 313.27 97.6818 313.27 98.0625Z" fill="#888EA5"/>
</g>
<path d="M27.1122 155L24.2884 144.818H25.9041L27.8878 152.703H27.9822L30.0455 144.818H31.6463L33.7095 152.708H33.804L35.7827 144.818H37.4034L34.5746 155H33.0284L30.8857 147.374H30.8061L28.6634 155H27.1122ZM40.1713 150.466V155H38.6848V144.818H40.1515V148.607H40.2459C40.4249 148.196 40.6983 147.869 41.0662 147.627C41.4341 147.385 41.9147 147.264 42.508 147.264C43.0317 147.264 43.4891 147.372 43.8801 147.587C44.2746 147.803 44.5795 148.124 44.7949 148.552C45.0137 148.976 45.123 149.506 45.123 150.143V155H43.6365V150.322C43.6365 149.762 43.4924 149.327 43.204 149.019C42.9157 148.708 42.5146 148.552 42.0009 148.552C41.6496 148.552 41.3347 148.626 41.0563 148.776C40.7812 148.925 40.5641 149.143 40.405 149.432C40.2492 149.717 40.1713 150.062 40.1713 150.466ZM49.329 155.169C48.8451 155.169 48.4076 155.08 48.0165 154.901C47.6254 154.718 47.3155 154.455 47.0868 154.11C46.8614 153.765 46.7488 153.343 46.7488 152.842C46.7488 152.411 46.8316 152.057 46.9973 151.778C47.1631 151.5 47.3868 151.28 47.6685 151.117C47.9502 150.955 48.2651 150.832 48.6131 150.749C48.9611 150.666 49.3158 150.603 49.677 150.56C50.1344 150.507 50.5056 150.464 50.7907 150.431C51.0757 150.395 51.2828 150.337 51.4121 150.257C51.5414 150.178 51.606 150.048 51.606 149.869V149.835C51.606 149.4 51.4834 149.064 51.2381 148.825C50.9962 148.587 50.6349 148.467 50.1543 148.467C49.6538 148.467 49.2594 148.578 48.9711 148.8C48.686 149.019 48.4888 149.263 48.3794 149.531L46.9824 149.213C47.1481 148.749 47.3901 148.375 47.7083 148.089C48.0298 147.801 48.3993 147.592 48.8169 147.463C49.2346 147.33 49.6737 147.264 50.1344 147.264C50.4393 147.264 50.7625 147.301 51.1039 147.374C51.4486 147.443 51.7701 147.572 52.0684 147.761C52.37 147.95 52.6169 148.22 52.8091 148.572C53.0014 148.92 53.0975 149.372 53.0975 149.929V155H51.6458V153.956H51.5861C51.49 154.148 51.3458 154.337 51.1536 154.523C50.9614 154.708 50.7144 154.862 50.4128 154.985C50.1112 155.108 49.7499 155.169 49.329 155.169ZM49.6522 153.976C50.0632 153.976 50.4145 153.895 50.7061 153.732C51.0011 153.57 51.2248 153.358 51.3773 153.096C51.5331 152.831 51.611 152.547 51.611 152.246V151.261C51.5579 151.314 51.4552 151.364 51.3027 151.411C51.1536 151.454 50.9829 151.492 50.7907 151.525C50.5984 151.555 50.4112 151.583 50.2289 151.609C50.0466 151.633 49.8941 151.652 49.7715 151.669C49.4831 151.705 49.2196 151.767 48.981 151.853C48.7457 151.939 48.5568 152.063 48.4142 152.226C48.275 152.385 48.2054 152.597 48.2054 152.862C48.2054 153.23 48.3413 153.509 48.6131 153.697C48.8849 153.883 49.2312 153.976 49.6522 153.976ZM58.642 147.364V148.557H54.4709V147.364H58.642ZM55.5895 145.534H57.076V152.758C57.076 153.046 57.1191 153.263 57.2053 153.409C57.2914 153.552 57.4025 153.649 57.5384 153.702C57.6776 153.752 57.8284 153.777 57.9908 153.777C58.1101 153.777 58.2145 153.769 58.304 153.752C58.3935 153.736 58.4631 153.722 58.5128 153.712L58.7812 154.94C58.6951 154.973 58.5724 155.007 58.4134 155.04C58.2543 155.076 58.0554 155.096 57.8168 155.099C57.4257 155.106 57.0611 155.036 56.723 154.891C56.3849 154.745 56.1115 154.519 55.9027 154.214C55.6939 153.91 55.5895 153.527 55.5895 153.066V145.534ZM66.8501 155.149C66.2337 155.149 65.6835 154.992 65.1996 154.677C64.719 154.359 64.3411 153.906 64.0661 153.32C63.7943 152.73 63.6584 152.022 63.6584 151.197C63.6584 150.371 63.7959 149.665 64.071 149.079C64.3494 148.492 64.7306 148.043 65.2145 147.732C65.6984 147.42 66.2469 147.264 66.8601 147.264C67.334 147.264 67.7152 147.344 68.0036 147.503C68.2952 147.659 68.5206 147.841 68.6797 148.05C68.8421 148.259 68.968 148.442 69.0575 148.602H69.147V144.818H70.6335V155H69.1818V153.812H69.0575C68.968 153.974 68.8388 154.16 68.6697 154.369C68.504 154.577 68.2753 154.76 67.9837 154.915C67.692 155.071 67.3142 155.149 66.8501 155.149ZM67.1783 153.881C67.6058 153.881 67.9671 153.769 68.2621 153.543C68.5604 153.315 68.7857 152.998 68.9382 152.594C69.094 152.189 69.1719 151.719 69.1719 151.182C69.1719 150.652 69.0956 150.187 68.9432 149.79C68.7907 149.392 68.567 149.082 68.272 148.86C67.977 148.638 67.6125 148.527 67.1783 148.527C66.7308 148.527 66.358 148.643 66.0597 148.875C65.7614 149.107 65.536 149.424 65.3835 149.825C65.2344 150.226 65.1598 150.678 65.1598 151.182C65.1598 151.692 65.236 152.151 65.3885 152.559C65.541 152.967 65.7663 153.29 66.0646 153.528C66.3662 153.764 66.7375 153.881 67.1783 153.881ZM72.7551 155V147.364H74.2417V155H72.7551ZM73.5059 146.185C73.2473 146.185 73.0253 146.099 72.8397 145.927C72.6574 145.751 72.5662 145.542 72.5662 145.3C72.5662 145.055 72.6574 144.846 72.8397 144.674C73.0253 144.498 73.2473 144.411 73.5059 144.411C73.7644 144.411 73.9848 144.498 74.1671 144.674C74.3527 144.846 74.4455 145.055 74.4455 145.3C74.4455 145.542 74.3527 145.751 74.1671 145.927C73.9848 146.099 73.7644 146.185 73.5059 146.185ZM79.1001 155.149C78.4837 155.149 77.9335 154.992 77.4496 154.677C76.969 154.359 76.5911 153.906 76.3161 153.32C76.0443 152.73 75.9084 152.022 75.9084 151.197C75.9084 150.371 76.0459 149.665 76.321 149.079C76.5994 148.492 76.9806 148.043 77.4645 147.732C77.9484 147.42 78.4969 147.264 79.1101 147.264C79.584 147.264 79.9652 147.344 80.2536 147.503C80.5452 147.659 80.7706 147.841 80.9297 148.05C81.0921 148.259 81.218 148.442 81.3075 148.602H81.397V144.818H82.8835V155H81.4318V153.812H81.3075C81.218 153.974 81.0888 154.16 80.9197 154.369C80.754 154.577 80.5253 154.76 80.2337 154.915C79.942 155.071 79.5642 155.149 79.1001 155.149ZM79.4283 153.881C79.8558 153.881 80.2171 153.769 80.5121 153.543C80.8104 153.315 81.0357 152.998 81.1882 152.594C81.344 152.189 81.4219 151.719 81.4219 151.182C81.4219 150.652 81.3456 150.187 81.1932 149.79C81.0407 149.392 80.817 149.082 80.522 148.86C80.227 148.638 79.8625 148.527 79.4283 148.527C78.9808 148.527 78.608 148.643 78.3097 148.875C78.0114 149.107 77.786 149.424 77.6335 149.825C77.4844 150.226 77.4098 150.678 77.4098 151.182C77.4098 151.692 77.486 152.151 77.6385 152.559C77.791 152.967 78.0163 153.29 78.3146 153.528C78.6162 153.764 78.9875 153.881 79.4283 153.881ZM89.6499 157.864C89.4278 157.864 89.2256 157.845 89.0433 157.809C88.861 157.776 88.7251 157.739 88.6357 157.7L88.9936 156.482C89.2654 156.554 89.5073 156.586 89.7195 156.576C89.9316 156.566 90.1188 156.487 90.2812 156.337C90.447 156.188 90.5928 155.945 90.7188 155.607L90.9027 155.099L88.1087 147.364H89.6996L91.6335 153.29H91.7131L93.647 147.364H95.2429L92.0959 156.019C91.95 156.417 91.7644 156.753 91.5391 157.028C91.3137 157.307 91.0452 157.516 90.7337 157.655C90.4221 157.794 90.0608 157.864 89.6499 157.864ZM99.5968 155.154C98.8809 155.154 98.2561 154.99 97.7225 154.662C97.1889 154.334 96.7746 153.875 96.4796 153.285C96.1846 152.695 96.0371 152.005 96.0371 151.217C96.0371 150.424 96.1846 149.732 96.4796 149.138C96.7746 148.545 97.1889 148.085 97.7225 147.756C98.2561 147.428 98.8809 147.264 99.5968 147.264C100.313 147.264 100.937 147.428 101.471 147.756C102.005 148.085 102.419 148.545 102.714 149.138C103.009 149.732 103.156 150.424 103.156 151.217C103.156 152.005 103.009 152.695 102.714 153.285C102.419 153.875 102.005 154.334 101.471 154.662C100.937 154.99 100.313 155.154 99.5968 155.154ZM99.6017 153.906C100.066 153.906 100.45 153.784 100.755 153.538C101.06 153.293 101.285 152.967 101.431 152.559C101.58 152.151 101.655 151.702 101.655 151.212C101.655 150.724 101.58 150.277 101.431 149.869C101.285 149.458 101.06 149.129 100.755 148.88C100.45 148.631 100.066 148.507 99.6017 148.507C99.1344 148.507 98.7466 148.631 98.4384 148.88C98.1335 149.129 97.9064 149.458 97.7573 149.869C97.6114 150.277 97.5385 150.724 97.5385 151.212C97.5385 151.702 97.6114 152.151 97.7573 152.559C97.9064 152.967 98.1335 153.293 98.4384 153.538C98.7466 153.784 99.1344 153.906 99.6017 153.906ZM109.653 151.833V147.364H111.145V155H109.683V153.678H109.603C109.428 154.085 109.146 154.425 108.758 154.697C108.374 154.965 107.895 155.099 107.321 155.099C106.831 155.099 106.397 154.992 106.019 154.776C105.644 154.558 105.349 154.234 105.134 153.807C104.922 153.379 104.816 152.851 104.816 152.221V147.364H106.302V152.042C106.302 152.562 106.446 152.977 106.735 153.285C107.023 153.593 107.398 153.747 107.858 153.747C108.137 153.747 108.413 153.678 108.689 153.538C108.967 153.399 109.197 153.189 109.38 152.907C109.565 152.625 109.656 152.267 109.653 151.833ZM120.481 147.364V148.557H116.166V147.364H120.481ZM117.349 155V146.479C117.349 146.001 117.453 145.605 117.662 145.29C117.871 144.972 118.148 144.735 118.493 144.58C118.837 144.42 119.212 144.341 119.616 144.341C119.914 144.341 120.17 144.366 120.382 144.415C120.594 144.462 120.751 144.505 120.854 144.545L120.506 145.748C120.436 145.728 120.347 145.705 120.238 145.678C120.128 145.648 119.996 145.634 119.84 145.634C119.479 145.634 119.22 145.723 119.064 145.902C118.912 146.081 118.836 146.339 118.836 146.678V155H117.349ZM122.015 155V147.364H123.501V155H122.015ZM122.766 146.185C122.507 146.185 122.285 146.099 122.099 145.927C121.917 145.751 121.826 145.542 121.826 145.3C121.826 145.055 121.917 144.846 122.099 144.674C122.285 144.498 122.507 144.411 122.766 144.411C123.024 144.411 123.245 144.498 123.427 144.674C123.612 144.846 123.705 145.055 123.705 145.3C123.705 145.542 123.612 145.751 123.427 145.927C123.245 146.099 123.024 146.185 122.766 146.185ZM126.988 150.466V155H125.501V147.364H126.928V148.607H127.023C127.198 148.202 127.473 147.877 127.848 147.632C128.226 147.387 128.701 147.264 129.275 147.264C129.795 147.264 130.251 147.374 130.642 147.592C131.033 147.808 131.336 148.129 131.552 148.557C131.767 148.984 131.875 149.513 131.875 150.143V155H130.388V150.322C130.388 149.768 130.244 149.336 129.956 149.024C129.667 148.709 129.271 148.552 128.768 148.552C128.423 148.552 128.116 148.626 127.848 148.776C127.583 148.925 127.372 149.143 127.216 149.432C127.064 149.717 126.988 150.062 126.988 150.466ZM136.727 155.149C136.111 155.149 135.56 154.992 135.077 154.677C134.596 154.359 134.218 153.906 133.943 153.32C133.671 152.73 133.535 152.022 133.535 151.197C133.535 150.371 133.673 149.665 133.948 149.079C134.226 148.492 134.608 148.043 135.091 147.732C135.575 147.42 136.124 147.264 136.737 147.264C137.211 147.264 137.592 147.344 137.881 147.503C138.172 147.659 138.398 147.841 138.557 148.05C138.719 148.259 138.845 148.442 138.934 148.602H139.024V144.818H140.51V155H139.059V153.812H138.934C138.845 153.974 138.716 154.16 138.547 154.369C138.381 154.577 138.152 154.76 137.861 154.915C137.569 155.071 137.191 155.149 136.727 155.149ZM137.055 153.881C137.483 153.881 137.844 153.769 138.139 153.543C138.437 153.315 138.663 152.998 138.815 152.594C138.971 152.189 139.049 151.719 139.049 151.182C139.049 150.652 138.973 150.187 138.82 149.79C138.668 149.392 138.444 149.082 138.149 148.86C137.854 148.638 137.489 148.527 137.055 148.527C136.608 148.527 136.235 148.643 135.937 148.875C135.638 149.107 135.413 149.424 135.26 149.825C135.111 150.226 135.037 150.678 135.037 151.182C135.037 151.692 135.113 152.151 135.265 152.559C135.418 152.967 135.643 153.29 135.942 153.528C136.243 153.764 136.614 153.881 137.055 153.881ZM144.258 152.072V151.977C144.264 151.361 144.326 150.87 144.442 150.506C144.561 150.141 144.73 149.846 144.949 149.621C145.168 149.395 145.431 149.19 145.739 149.004C145.938 148.878 146.117 148.737 146.276 148.582C146.435 148.426 146.561 148.247 146.654 148.045C146.747 147.843 146.793 147.619 146.793 147.374C146.793 147.079 146.724 146.823 146.585 146.608C146.445 146.393 146.26 146.227 146.028 146.111C145.799 145.991 145.544 145.932 145.262 145.932C145.007 145.932 144.763 145.985 144.531 146.091C144.299 146.197 144.107 146.363 143.955 146.588C143.802 146.81 143.714 147.097 143.691 147.448H142.18C142.203 146.852 142.354 146.348 142.632 145.937C142.911 145.522 143.278 145.209 143.736 144.997C144.196 144.785 144.705 144.679 145.262 144.679C145.872 144.679 146.406 144.793 146.863 145.022C147.32 145.247 147.675 145.564 147.927 145.972C148.182 146.376 148.31 146.848 148.31 147.388C148.31 147.76 148.252 148.094 148.136 148.393C148.02 148.688 147.854 148.951 147.638 149.183C147.426 149.415 147.171 149.621 146.873 149.8C146.591 149.975 146.362 150.158 146.187 150.347C146.014 150.536 145.888 150.759 145.809 151.018C145.729 151.276 145.686 151.596 145.68 151.977V152.072H144.258ZM145.009 155.094C144.737 155.094 144.503 154.998 144.308 154.806C144.112 154.611 144.014 154.375 144.014 154.1C144.014 153.828 144.112 153.596 144.308 153.404C144.503 153.209 144.737 153.111 145.009 153.111C145.277 153.111 145.509 153.209 145.705 153.404C145.903 153.596 146.003 153.828 146.003 154.1C146.003 154.282 145.956 154.45 145.864 154.602C145.774 154.751 145.655 154.871 145.506 154.96C145.357 155.05 145.191 155.094 145.009 155.094Z" fill="#161A26"/>
<g clip-path="url(#clip10_445_1645)">
<path d="M43.0824 199L40.2983 188.818H41.5511L43.679 197.111H43.7784L45.946 188.818H47.3381L49.5057 197.111H49.6051L51.733 188.818H52.9858L50.2017 199H48.929L46.6818 190.886H46.6023L44.3551 199H43.0824ZM55.5362 194.406V199H54.3629V188.818H55.5362V192.557H55.6357C55.8146 192.162 56.0831 191.849 56.4411 191.617C56.8023 191.382 57.2829 191.264 57.8828 191.264C58.4032 191.264 58.8589 191.369 59.25 191.577C59.6411 191.783 59.9444 192.099 60.1598 192.527C60.3786 192.951 60.4879 193.491 60.4879 194.148V199H59.3146V194.227C59.3146 193.621 59.1572 193.152 58.8423 192.82C58.5308 192.486 58.0982 192.318 57.5447 192.318C57.1603 192.318 56.8156 192.399 56.5107 192.562C56.209 192.724 55.9704 192.961 55.7947 193.273C55.6224 193.584 55.5362 193.962 55.5362 194.406ZM65.8361 199.159C65.1003 199.159 64.4656 198.997 63.932 198.672C63.4017 198.344 62.9924 197.886 62.704 197.3C62.419 196.71 62.2765 196.024 62.2765 195.241C62.2765 194.459 62.419 193.77 62.704 193.173C62.9924 192.573 63.3934 192.106 63.9071 191.771C64.4242 191.433 65.0274 191.264 65.7168 191.264C66.1145 191.264 66.5073 191.33 66.8951 191.463C67.2828 191.596 67.6358 191.811 67.954 192.109C68.2722 192.404 68.5257 192.795 68.7147 193.283C68.9036 193.77 68.998 194.37 68.998 195.082V195.58H63.1117V194.565H67.8049C67.8049 194.134 67.7187 193.75 67.5463 193.412C67.3773 193.074 67.1354 192.807 66.8205 192.612C66.5089 192.416 66.141 192.318 65.7168 192.318C65.2495 192.318 64.8451 192.434 64.5037 192.666C64.1657 192.895 63.9055 193.193 63.7232 193.561C63.5409 193.929 63.4498 194.323 63.4498 194.744V195.42C63.4498 195.997 63.5492 196.486 63.748 196.887C63.9502 197.285 64.2303 197.588 64.5882 197.797C64.9462 198.002 65.3622 198.105 65.8361 198.105C66.1444 198.105 66.4228 198.062 66.6713 197.976C66.9232 197.886 67.1403 197.754 67.3226 197.578C67.5049 197.399 67.6458 197.177 67.7452 196.912L68.8787 197.23C68.7594 197.615 68.5589 197.953 68.2772 198.244C67.9954 198.533 67.6474 198.758 67.2331 198.92C66.8188 199.08 66.3532 199.159 65.8361 199.159ZM71.9561 194.406V199H70.7828V191.364H71.9164V192.557H72.0158C72.1948 192.169 72.4666 191.857 72.8311 191.622C73.1957 191.384 73.6664 191.264 74.2431 191.264C74.7601 191.264 75.2125 191.37 75.6003 191.582C75.9881 191.791 76.2897 192.109 76.5051 192.537C76.7206 192.961 76.8283 193.498 76.8283 194.148V199H75.655V194.227C75.655 193.627 75.4992 193.16 75.1877 192.825C74.8761 192.487 74.4486 192.318 73.905 192.318C73.5305 192.318 73.1957 192.399 72.9007 192.562C72.6091 192.724 72.3787 192.961 72.2097 193.273C72.0407 193.584 71.9561 193.962 71.9561 194.406ZM84.3018 188.818V199H83.0689V188.818H84.3018ZM87.47 199.08C87.2247 199.08 87.0143 198.992 86.8386 198.816C86.6629 198.64 86.5751 198.43 86.5751 198.185C86.5751 197.939 86.6629 197.729 86.8386 197.553C87.0143 197.378 87.2247 197.29 87.47 197.29C87.7153 197.29 87.9257 197.378 88.1014 197.553C88.277 197.729 88.3649 197.939 88.3649 198.185C88.3649 198.347 88.3234 198.496 88.2406 198.632C88.161 198.768 88.0533 198.877 87.9174 198.96C87.7849 199.04 87.6357 199.08 87.47 199.08ZM91.3255 199.08C91.0802 199.08 90.8697 198.992 90.6941 198.816C90.5184 198.64 90.4306 198.43 90.4306 198.185C90.4306 197.939 90.5184 197.729 90.6941 197.553C90.8697 197.378 91.0802 197.29 91.3255 197.29C91.5707 197.29 91.7812 197.378 91.9569 197.553C92.1325 197.729 92.2203 197.939 92.2203 198.185C92.2203 198.347 92.1789 198.496 92.0961 198.632C92.0165 198.768 91.9088 198.877 91.7729 198.96C91.6403 199.04 91.4912 199.08 91.3255 199.08ZM95.1809 199.08C94.9357 199.08 94.7252 198.992 94.5495 198.816C94.3739 198.64 94.286 198.43 94.286 198.185C94.286 197.939 94.3739 197.729 94.5495 197.553C94.7252 197.378 94.9357 197.29 95.1809 197.29C95.4262 197.29 95.6367 197.378 95.8123 197.553C95.988 197.729 96.0758 197.939 96.0758 198.185C96.0758 198.347 96.0344 198.496 95.9515 198.632C95.872 198.768 95.7643 198.877 95.6284 198.96C95.4958 199.04 95.3467 199.08 95.1809 199.08Z" fill="#B9BCCD"/>
<rect x="24.5" y="172.5" width="311" height="259" rx="5.5" stroke="#B9BCCD" stroke-opacity="0.24"/>
</g>
</g>
<defs>
<filter id="filter0_dd_445_1645" x="18" y="76" width="117" height="48" filterUnits="userSpaceOnUse" color-interpolation-filters="sRGB">
<feFlood flood-opacity="0" result="BackgroundImageFix"/>
<feColorMatrix in="SourceAlpha" type="matrix" values="0 0 0 0 0 0 0 0 0 0 0 0 0 0 0 0 0 0 127 0" result="hardAlpha"/>
<feOffset dy="2"/>
<feGaussianBlur stdDeviation="4"/>
<feComposite in2="hardAlpha" operator="out"/>
<feColorMatrix type="matrix" values="0 0 0 0 0.12549 0 0 0 0 0.152941 0 0 0 0 0.172549 0 0 0 0.08 0"/>
<feBlend mode="normal" in2="BackgroundImageFix" result="effect1_dropShadow_445_1645"/>
<feColorMatrix in="SourceAlpha" type="matrix" values="0 0 0 0 0 0 0 0 0 0 0 0 0 0 0 0 0 0 127 0" result="hardAlpha"/>
<feOffset/>
<feGaussianBlur stdDeviation="0.5"/>
<feComposite in2="hardAlpha" operator="out"/>
<feColorMatrix type="matrix" values="0 0 0 0 0.12549 0 0 0 0 0.152941 0 0 0 0 0.172549 0 0 0 0.08 0"/>
<feBlend mode="normal" in2="effect1_dropShadow_445_1645" result="effect2_dropShadow_445_1645"/>
<feBlend mode="normal" in="SourceGraphic" in2="effect2_dropShadow_445_1645" result="shape"/>
</filter>
<clipPath id="clip0_445_1645">
<rect width="360" height="282" rx="8" fill="white"/>
</clipPath>
<clipPath id="clip1_445_1645">
<rect width="360" height="64" fill="white"/>
</clipPath>
<clipPath id="clip2_445_1645">
<rect width="32" height="32" fill="white" transform="translate(312 16)"/>
</clipPath>
<clipPath id="clip3_445_1645">
<rect x="24" y="80" width="312" height="36" rx="8" fill="white"/>
</clipPath>
<clipPath id="clip4_445_1645">
<rect width="12" height="13" fill="white" transform="translate(38.78 91)"/>
</clipPath>
<clipPath id="clip5_445_1645">
<rect width="12" height="13" fill="white" transform="translate(38.78 91)"/>
</clipPath>
<clipPath id="clip6_445_1645">
<rect width="16" height="14" fill="white" transform="translate(141.28 91)"/>
</clipPath>
<clipPath id="clip7_445_1645">
<rect width="16" height="14" fill="white" transform="translate(141.28 91)"/>
</clipPath>
<clipPath id="clip8_445_1645">
<rect width="8" height="14" fill="white" transform="translate(250.61 91)"/>
</clipPath>
<clipPath id="clip9_445_1645">
<rect width="8" height="14" fill="white" transform="translate(250.61 91)"/>
</clipPath>
<clipPath id="clip10_445_1645">
<rect x="24" y="172" width="312" height="260" rx="6" fill="white"/>
</clipPath>
</defs>
</svg>
