<svg width="308" height="302" viewBox="0 0 308 302" fill="none" xmlns="http://www.w3.org/2000/svg">
<g clip-path="url(#clip0_445_1683)">
<rect x="40" width="228" height="244" rx="8" fill="white"/>
<path d="M73.3366 24.8182V35H71.9247L66.7493 27.5327H66.6548V35H65.1186V24.8182H66.5405L71.7209 32.2955H71.8153V24.8182H73.3366ZM78.7495 35.1541C77.9971 35.1541 77.3491 34.9934 76.8056 34.6719C76.2653 34.3471 75.8477 33.8913 75.5527 33.3047C75.2611 32.7147 75.1152 32.0237 75.1152 31.2315C75.1152 30.4493 75.2611 29.7599 75.5527 29.1634C75.8477 28.5668 76.2587 28.1011 76.7857 27.7663C77.316 27.4316 77.9358 27.2642 78.6451 27.2642C79.0759 27.2642 79.4935 27.3355 79.8979 27.478C80.3023 27.6205 80.6652 27.8442 80.9867 28.1491C81.3082 28.4541 81.5617 28.8501 81.7473 29.3374C81.9329 29.8213 82.0257 30.4096 82.0257 31.1023V31.6293H75.9554V30.5156H80.5691C80.5691 30.1245 80.4895 29.7782 80.3304 29.4766C80.1713 29.1716 79.9476 28.9313 79.6593 28.7557C79.3742 28.58 79.0395 28.4922 78.655 28.4922C78.2374 28.4922 77.8728 28.5949 77.5613 28.8004C77.253 29.0026 77.0144 29.2678 76.8453 29.5959C76.6796 29.9207 76.5968 30.2737 76.5968 30.6548V31.5249C76.5968 32.0353 76.6863 32.4695 76.8652 32.8274C77.0475 33.1854 77.3011 33.4588 77.6259 33.6477C77.9507 33.8333 78.3302 33.9261 78.7644 33.9261C79.0461 33.9261 79.303 33.8864 79.535 33.8068C79.767 33.724 79.9675 33.6013 80.1365 33.4389C80.3056 33.2765 80.4348 33.076 80.5243 32.8374L81.9313 33.0909C81.8186 33.5052 81.6164 33.8681 81.3248 34.1797C81.0364 34.4879 80.6735 34.7282 80.236 34.9006C79.8018 35.0696 79.3063 35.1541 78.7495 35.1541ZM86.9663 35.1541C86.2139 35.1541 85.5659 34.9934 85.0224 34.6719C84.4821 34.3471 84.0645 33.8913 83.7695 33.3047C83.4779 32.7147 83.332 32.0237 83.332 31.2315C83.332 30.4493 83.4779 29.7599 83.7695 29.1634C84.0645 28.5668 84.4755 28.1011 85.0025 27.7663C85.5328 27.4316 86.1526 27.2642 86.8619 27.2642C87.2927 27.2642 87.7103 27.3355 88.1147 27.478C88.5191 27.6205 88.882 27.8442 89.2035 28.1491C89.525 28.4541 89.7785 28.8501 89.9641 29.3374C90.1497 29.8213 90.2425 30.4096 90.2425 31.1023V31.6293H84.1722V30.5156H88.7859C88.7859 30.1245 88.7063 29.7782 88.5472 29.4766C88.3881 29.1716 88.1644 28.9313 87.8761 28.7557C87.591 28.58 87.2563 28.4922 86.8718 28.4922C86.4542 28.4922 86.0896 28.5949 85.7781 28.8004C85.4698 29.0026 85.2312 29.2678 85.0621 29.5959C84.8964 29.9207 84.8136 30.2737 84.8136 30.6548V31.5249C84.8136 32.0353 84.9031 32.4695 85.082 32.8274C85.2643 33.1854 85.5179 33.4588 85.8427 33.6477C86.1675 33.8333 86.547 33.9261 86.9812 33.9261C87.2629 33.9261 87.5198 33.8864 87.7518 33.8068C87.9838 33.724 88.1843 33.6013 88.3533 33.4389C88.5224 33.2765 88.6516 33.076 88.7411 32.8374L90.1481 33.0909C90.0354 33.5052 89.8332 33.8681 89.5415 34.1797C89.2532 34.4879 88.8903 34.7282 88.4528 34.9006C88.0186 35.0696 87.5231 35.1541 86.9663 35.1541ZM94.7505 35.1491C94.1341 35.1491 93.5839 34.9917 93.1 34.6768C92.6194 34.3587 92.2415 33.9062 91.9664 33.3196C91.6947 32.7296 91.5588 32.022 91.5588 31.1967C91.5588 30.3714 91.6963 29.6655 91.9714 29.0788C92.2498 28.4922 92.631 28.0431 93.1149 27.7315C93.5988 27.42 94.1473 27.2642 94.7605 27.2642C95.2344 27.2642 95.6156 27.3438 95.9039 27.5028C96.1956 27.6586 96.421 27.8409 96.5801 28.0497C96.7425 28.2585 96.8684 28.4425 96.9579 28.6016H97.0474V24.8182H98.5339V35H97.0822V33.8118H96.9579C96.8684 33.9742 96.7392 34.1598 96.5701 34.3686C96.4044 34.5774 96.1757 34.7597 95.8841 34.9155C95.5924 35.0713 95.2145 35.1491 94.7505 35.1491ZM95.0787 33.8814C95.5062 33.8814 95.8675 33.7687 96.1625 33.5433C96.4608 33.3146 96.6861 32.9981 96.8386 32.5938C96.9944 32.1894 97.0723 31.7187 97.0723 31.1818C97.0723 30.6515 96.996 30.1875 96.8436 29.7898C96.6911 29.392 96.4674 29.0821 96.1724 28.8601C95.8774 28.638 95.5128 28.527 95.0787 28.527C94.6312 28.527 94.2583 28.643 93.96 28.875C93.6618 29.107 93.4364 29.4235 93.2839 29.8246C93.1348 30.2256 93.0602 30.678 93.0602 31.1818C93.0602 31.6922 93.1364 32.1513 93.2889 32.5589C93.4413 32.9666 93.6667 33.2898 93.965 33.5284C94.2666 33.7637 94.6378 33.8814 95.0787 33.8814ZM105.847 30.4659V35H104.361V24.8182H105.827V28.6065H105.922C106.101 28.1955 106.374 27.8691 106.742 27.6271C107.11 27.3852 107.59 27.2642 108.184 27.2642C108.707 27.2642 109.165 27.3719 109.556 27.5874C109.95 27.8028 110.255 28.1243 110.471 28.5518C110.689 28.9761 110.799 29.5064 110.799 30.1428V35H109.312V30.3217C109.312 29.7616 109.168 29.3274 108.88 29.0192C108.591 28.7076 108.19 28.5518 107.677 28.5518C107.325 28.5518 107.01 28.6264 106.732 28.7756C106.457 28.9247 106.24 29.1435 106.081 29.4318C105.925 29.7169 105.847 30.0616 105.847 30.4659ZM116.074 35.1541C115.321 35.1541 114.673 34.9934 114.13 34.6719C113.59 34.3471 113.172 33.8913 112.877 33.3047C112.585 32.7147 112.439 32.0237 112.439 31.2315C112.439 30.4493 112.585 29.7599 112.877 29.1634C113.172 28.5668 113.583 28.1011 114.11 27.7663C114.64 27.4316 115.26 27.2642 115.969 27.2642C116.4 27.2642 116.818 27.3355 117.222 27.478C117.626 27.6205 117.989 27.8442 118.311 28.1491C118.632 28.4541 118.886 28.8501 119.072 29.3374C119.257 29.8213 119.35 30.4096 119.35 31.1023V31.6293H113.28V30.5156H117.893C117.893 30.1245 117.814 29.7782 117.655 29.4766C117.496 29.1716 117.272 28.9313 116.983 28.7557C116.698 28.58 116.364 28.4922 115.979 28.4922C115.562 28.4922 115.197 28.5949 114.885 28.8004C114.577 29.0026 114.339 29.2678 114.17 29.5959C114.004 29.9207 113.921 30.2737 113.921 30.6548V31.5249C113.921 32.0353 114.01 32.4695 114.189 32.8274C114.372 33.1854 114.625 33.4588 114.95 33.6477C115.275 33.8333 115.654 33.9261 116.089 33.9261C116.37 33.9261 116.627 33.8864 116.859 33.8068C117.091 33.724 117.292 33.6013 117.461 33.4389C117.63 33.2765 117.759 33.076 117.849 32.8374L119.256 33.0909C119.143 33.5052 118.941 33.8681 118.649 34.1797C118.361 34.4879 117.998 34.7282 117.56 34.9006C117.126 35.0696 116.631 35.1541 116.074 35.1541ZM122.486 24.8182V35H120.999V24.8182H122.486ZM124.486 37.8636V27.3636H125.937V28.6016H126.062C126.148 28.4425 126.272 28.2585 126.434 28.0497C126.597 27.8409 126.822 27.6586 127.111 27.5028C127.399 27.3438 127.78 27.2642 128.254 27.2642C128.871 27.2642 129.421 27.42 129.905 27.7315C130.389 28.0431 130.768 28.4922 131.043 29.0788C131.322 29.6655 131.461 30.3714 131.461 31.1967C131.461 32.022 131.323 32.7296 131.048 33.3196C130.773 33.9062 130.395 34.3587 129.915 34.6768C129.434 34.9917 128.885 35.1491 128.269 35.1491C127.805 35.1491 127.425 35.0713 127.131 34.9155C126.839 34.7597 126.61 34.5774 126.444 34.3686C126.279 34.1598 126.151 33.9742 126.062 33.8118H125.972V37.8636H124.486ZM125.942 31.1818C125.942 31.7187 126.02 32.1894 126.176 32.5938C126.332 32.9981 126.557 33.3146 126.852 33.5433C127.147 33.7687 127.508 33.8814 127.936 33.8814C128.38 33.8814 128.751 33.7637 129.05 33.5284C129.348 33.2898 129.573 32.9666 129.726 32.5589C129.881 32.1513 129.959 31.6922 129.959 31.1818C129.959 30.678 129.883 30.2256 129.731 29.8246C129.581 29.4235 129.356 29.107 129.055 28.875C128.756 28.643 128.383 28.527 127.936 28.527C127.505 28.527 127.14 28.638 126.842 28.8601C126.547 29.0821 126.323 29.392 126.171 29.7898C126.019 30.1875 125.942 30.6515 125.942 31.1818ZM134.752 32.0717V31.9773C134.759 31.3608 134.82 30.8703 134.936 30.5057C135.055 30.1411 135.224 29.8461 135.443 29.6207C135.662 29.3954 135.925 29.1899 136.233 29.0043C136.432 28.8783 136.611 28.7375 136.77 28.5817C136.93 28.4259 137.055 28.2469 137.148 28.0447C137.241 27.8426 137.287 27.6188 137.287 27.3736C137.287 27.0786 137.218 26.8234 137.079 26.608C136.939 26.3925 136.754 26.2268 136.522 26.1108C136.293 25.9915 136.038 25.9318 135.756 25.9318C135.501 25.9318 135.257 25.9848 135.025 26.0909C134.793 26.197 134.601 26.3627 134.449 26.5881C134.296 26.8101 134.208 27.0968 134.185 27.4482H132.674C132.697 26.8516 132.848 26.3478 133.126 25.9368C133.405 25.5225 133.773 25.2093 134.23 24.9972C134.691 24.785 135.199 24.679 135.756 24.679C136.366 24.679 136.9 24.7933 137.357 25.022C137.814 25.2474 138.169 25.5639 138.421 25.9716C138.676 26.3759 138.804 26.8482 138.804 27.3885C138.804 27.7597 138.746 28.0945 138.63 28.3928C138.514 28.6877 138.348 28.9512 138.133 29.1832C137.921 29.4152 137.665 29.6207 137.367 29.7997C137.085 29.9754 136.857 30.1577 136.681 30.3466C136.509 30.5355 136.383 30.7592 136.303 31.0178C136.224 31.2763 136.18 31.5961 136.174 31.9773V32.0717H134.752ZM135.503 35.0945C135.231 35.0945 134.997 34.9983 134.802 34.8061C134.606 34.6106 134.508 34.3752 134.508 34.1001C134.508 33.8284 134.606 33.5964 134.802 33.4041C134.997 33.2086 135.231 33.1108 135.503 33.1108C135.771 33.1108 136.003 33.2086 136.199 33.4041C136.398 33.5964 136.497 33.8284 136.497 34.1001C136.497 34.2824 136.451 34.4498 136.358 34.6023C136.268 34.7514 136.149 34.8707 136 34.9602C135.851 35.0497 135.685 35.0945 135.503 35.0945Z" fill="#161A26"/>
<path d="M65.0568 60V51.2727H68.0057C68.6903 51.2727 69.25 51.3963 69.6847 51.6435C70.1222 51.8878 70.446 52.2188 70.6562 52.6364C70.8665 53.054 70.9716 53.5199 70.9716 54.0341C70.9716 54.5483 70.8665 55.0156 70.6562 55.4361C70.4489 55.8565 70.1278 56.1918 69.6932 56.4418C69.2585 56.6889 68.7017 56.8125 68.0227 56.8125H65.9091V55.875H67.9886C68.4574 55.875 68.8338 55.794 69.1179 55.6321C69.402 55.4702 69.608 55.2514 69.7358 54.9759C69.8665 54.6974 69.9318 54.3835 69.9318 54.0341C69.9318 53.6847 69.8665 53.3722 69.7358 53.0966C69.608 52.821 69.4006 52.6051 69.1136 52.4489C68.8267 52.2898 68.446 52.2102 67.9716 52.2102H66.1136V60H65.0568ZM77.174 54.9205L76.2706 55.1761C76.2138 55.0256 76.13 54.8793 76.0192 54.7372C75.9112 54.5923 75.7635 54.473 75.576 54.3793C75.3885 54.2855 75.1484 54.2386 74.8558 54.2386C74.4553 54.2386 74.1214 54.331 73.8544 54.5156C73.5902 54.6974 73.4581 54.929 73.4581 55.2102C73.4581 55.4602 73.549 55.6577 73.7308 55.8026C73.9126 55.9474 74.1967 56.0682 74.5831 56.1648L75.5547 56.4034C76.1399 56.5455 76.576 56.7628 76.8629 57.0554C77.1499 57.3452 77.2933 57.7187 77.2933 58.1761C77.2933 58.5511 77.1854 58.8864 76.9695 59.1818C76.7564 59.4773 76.4581 59.7102 76.0746 59.8807C75.6911 60.0511 75.245 60.1364 74.7365 60.1364C74.0689 60.1364 73.5163 59.9915 73.0788 59.7017C72.6413 59.4119 72.3643 58.9886 72.2479 58.4318L73.2024 58.1932C73.2933 58.5455 73.4652 58.8097 73.718 58.9858C73.9737 59.1619 74.3075 59.25 74.7195 59.25C75.1882 59.25 75.5604 59.1506 75.8359 58.9517C76.1143 58.75 76.2536 58.5085 76.2536 58.2273C76.2536 58 76.174 57.8097 76.0149 57.6562C75.8558 57.5 75.6115 57.3835 75.282 57.3068L74.1911 57.0511C73.5916 56.9091 73.1513 56.6889 72.87 56.3906C72.5916 56.0895 72.4524 55.7131 72.4524 55.2614C72.4524 54.892 72.5561 54.5653 72.7635 54.2812C72.9737 53.9972 73.2592 53.7741 73.62 53.6122C73.9837 53.4503 74.3956 53.3693 74.8558 53.3693C75.5036 53.3693 76.0121 53.5114 76.3814 53.7955C76.7536 54.0795 77.0178 54.4545 77.174 54.9205ZM83.4435 54.9205L82.5401 55.1761C82.4833 55.0256 82.3995 54.8793 82.2887 54.7372C82.1808 54.5923 82.033 54.473 81.8455 54.3793C81.658 54.2855 81.418 54.2386 81.1254 54.2386C80.7248 54.2386 80.391 54.331 80.1239 54.5156C79.8597 54.6974 79.7276 54.929 79.7276 55.2102C79.7276 55.4602 79.8185 55.6577 80.0004 55.8026C80.1822 55.9474 80.4663 56.0682 80.8526 56.1648L81.8242 56.4034C82.4094 56.5455 82.8455 56.7628 83.1325 57.0554C83.4194 57.3452 83.5629 57.7187 83.5629 58.1761C83.5629 58.5511 83.4549 58.8864 83.239 59.1818C83.0259 59.4773 82.7276 59.7102 82.3441 59.8807C81.9606 60.0511 81.5146 60.1364 81.006 60.1364C80.3384 60.1364 79.7859 59.9915 79.3484 59.7017C78.9109 59.4119 78.6339 58.9886 78.5174 58.4318L79.4719 58.1932C79.5629 58.5455 79.7347 58.8097 79.9876 58.9858C80.2433 59.1619 80.5771 59.25 80.989 59.25C81.4577 59.25 81.8299 59.1506 82.1055 58.9517C82.3839 58.75 82.5231 58.5085 82.5231 58.2273C82.5231 58 82.4435 57.8097 82.2844 57.6562C82.1254 57.5 81.881 57.3835 81.5515 57.3068L80.4606 57.0511C79.8612 56.9091 79.4208 56.6889 79.1396 56.3906C78.8612 56.0895 78.7219 55.7131 78.7219 55.2614C78.7219 54.892 78.8256 54.5653 79.033 54.2812C79.2433 53.9972 79.5288 53.7741 79.8896 53.6122C80.2532 53.4503 80.6651 53.3693 81.1254 53.3693C81.7731 53.3693 82.2816 53.5114 82.6509 53.7955C83.0231 54.0795 83.2873 54.4545 83.4435 54.9205ZM87.9233 53.4545V54.3068H84.5312V53.4545H87.9233ZM85.5199 51.8864H86.5256V58.125C86.5256 58.4091 86.5668 58.6222 86.6491 58.7642C86.7344 58.9034 86.8423 58.9972 86.973 59.0455C87.1065 59.0909 87.2472 59.1136 87.3949 59.1136C87.5057 59.1136 87.5966 59.108 87.6676 59.0966C87.7386 59.0824 87.7955 59.071 87.8381 59.0625L88.0426 59.9659C87.9744 59.9915 87.8793 60.017 87.7571 60.0426C87.6349 60.071 87.4801 60.0852 87.2926 60.0852C87.0085 60.0852 86.7301 60.0241 86.4574 59.902C86.1875 59.7798 85.9631 59.5938 85.7841 59.3438C85.608 59.0938 85.5199 58.7784 85.5199 58.3977V51.8864ZM90.169 60.0682C89.9588 60.0682 89.7784 59.9929 89.6278 59.8423C89.4773 59.6918 89.402 59.5114 89.402 59.3011C89.402 59.0909 89.4773 58.9105 89.6278 58.7599C89.7784 58.6094 89.9588 58.5341 90.169 58.5341C90.3793 58.5341 90.5597 58.6094 90.7102 58.7599C90.8608 58.9105 90.9361 59.0909 90.9361 59.3011C90.9361 59.4403 90.9006 59.5682 90.8295 59.6847C90.7614 59.8011 90.669 59.8949 90.5526 59.9659C90.4389 60.0341 90.3111 60.0682 90.169 60.0682ZM93.4737 60.0682C93.2635 60.0682 93.0831 59.9929 92.9325 59.8423C92.782 59.6918 92.7067 59.5114 92.7067 59.3011C92.7067 59.0909 92.782 58.9105 92.9325 58.7599C93.0831 58.6094 93.2635 58.5341 93.4737 58.5341C93.6839 58.5341 93.8643 58.6094 94.0149 58.7599C94.1655 58.9105 94.2408 59.0909 94.2408 59.3011C94.2408 59.4403 94.2053 59.5682 94.1342 59.6847C94.0661 59.8011 93.9737 59.8949 93.8572 59.9659C93.7436 60.0341 93.6158 60.0682 93.4737 60.0682ZM96.7784 60.0682C96.5682 60.0682 96.3878 59.9929 96.2372 59.8423C96.0866 59.6918 96.0114 59.5114 96.0114 59.3011C96.0114 59.0909 96.0866 58.9105 96.2372 58.7599C96.3878 58.6094 96.5682 58.5341 96.7784 58.5341C96.9886 58.5341 97.169 58.6094 97.3196 58.7599C97.4702 58.9105 97.5455 59.0909 97.5455 59.3011C97.5455 59.4403 97.5099 59.5682 97.4389 59.6847C97.3707 59.8011 97.2784 59.8949 97.1619 59.9659C97.0483 60.0341 96.9205 60.0682 96.7784 60.0682ZM105.555 60H102.862V51.2727H105.674C106.521 51.2727 107.245 51.4474 107.847 51.7969C108.45 52.1435 108.911 52.642 109.232 53.2926C109.553 53.9403 109.714 54.7159 109.714 55.6193C109.714 56.5284 109.552 57.3111 109.228 57.9673C108.904 58.6207 108.433 59.1236 107.813 59.4759C107.194 59.8253 106.441 60 105.555 60ZM103.918 59.0625H105.487C106.208 59.0625 106.806 58.9233 107.281 58.6449C107.755 58.3665 108.109 57.9702 108.342 57.456C108.575 56.9418 108.691 56.3295 108.691 55.6193C108.691 54.9148 108.576 54.3082 108.346 53.7997C108.116 53.2884 107.772 52.8963 107.315 52.6236C106.857 52.348 106.288 52.2102 105.606 52.2102H103.918V59.0625ZM111.35 60V53.4545H112.356V60H111.35ZM111.862 52.3636C111.665 52.3636 111.496 52.2969 111.354 52.1634C111.215 52.0298 111.146 51.8693 111.146 51.6818C111.146 51.4943 111.215 51.3338 111.354 51.2003C111.496 51.0668 111.665 51 111.862 51C112.058 51 112.225 51.0668 112.364 51.2003C112.506 51.3338 112.577 51.4943 112.577 51.6818C112.577 51.8693 112.506 52.0298 112.364 52.1634C112.225 52.2969 112.058 52.3636 111.862 52.3636ZM118.834 54.9205L117.931 55.1761C117.874 55.0256 117.79 54.8793 117.679 54.7372C117.571 54.5923 117.424 54.473 117.236 54.3793C117.049 54.2855 116.809 54.2386 116.516 54.2386C116.115 54.2386 115.782 54.331 115.515 54.5156C115.25 54.6974 115.118 54.929 115.118 55.2102C115.118 55.4602 115.209 55.6577 115.391 55.8026C115.573 55.9474 115.857 56.0682 116.243 56.1648L117.215 56.4034C117.8 56.5455 118.236 56.7628 118.523 57.0554C118.81 57.3452 118.953 57.7187 118.953 58.1761C118.953 58.5511 118.846 58.8864 118.63 59.1818C118.417 59.4773 118.118 59.7102 117.735 59.8807C117.351 60.0511 116.905 60.1364 116.397 60.1364C115.729 60.1364 115.176 59.9915 114.739 59.7017C114.301 59.4119 114.025 58.9886 113.908 58.4318L114.863 58.1932C114.953 58.5455 115.125 58.8097 115.378 58.9858C115.634 59.1619 115.968 59.25 116.38 59.25C116.848 59.25 117.221 59.1506 117.496 58.9517C117.775 58.75 117.914 58.5085 117.914 58.2273C117.914 58 117.834 57.8097 117.675 57.6562C117.516 57.5 117.272 57.3835 116.942 57.3068L115.851 57.0511C115.252 56.9091 114.811 56.6889 114.53 56.3906C114.252 56.0895 114.113 55.7131 114.113 55.2614C114.113 54.892 114.216 54.5653 114.424 54.2812C114.634 53.9972 114.919 53.7741 115.28 53.6122C115.644 53.4503 116.056 53.3693 116.516 53.3693C117.164 53.3693 117.672 53.5114 118.042 53.7955C118.414 54.0795 118.678 54.4545 118.834 54.9205ZM123.126 60.1364C122.513 60.1364 121.984 59.9915 121.541 59.7017C121.098 59.4119 120.757 59.0128 120.518 58.5043C120.28 57.9957 120.161 57.4148 120.161 56.7614C120.161 56.0966 120.283 55.5099 120.527 55.0014C120.774 54.4901 121.118 54.0909 121.558 53.804C122.001 53.5142 122.518 53.3693 123.109 53.3693C123.57 53.3693 123.984 53.4545 124.354 53.625C124.723 53.7955 125.026 54.0341 125.261 54.3409C125.497 54.6477 125.643 55.0057 125.7 55.4148H124.695C124.618 55.1165 124.447 54.8523 124.183 54.6222C123.922 54.3892 123.57 54.2727 123.126 54.2727C122.734 54.2727 122.391 54.375 122.095 54.5795C121.803 54.7812 121.574 55.0668 121.409 55.4361C121.247 55.8026 121.166 56.233 121.166 56.7273C121.166 57.233 121.246 57.6733 121.405 58.0483C121.567 58.4233 121.794 58.7145 122.087 58.9219C122.382 59.1293 122.729 59.233 123.126 59.233C123.388 59.233 123.625 59.1875 123.838 59.0966C124.051 59.0057 124.232 58.875 124.379 58.7045C124.527 58.5341 124.632 58.3295 124.695 58.0909H125.7C125.643 58.4773 125.503 58.8253 125.278 59.1349C125.057 59.4418 124.763 59.6861 124.396 59.8679C124.033 60.0469 123.609 60.1364 123.126 60.1364ZM129.83 60.1364C129.239 60.1364 128.72 59.9957 128.274 59.7145C127.831 59.4332 127.484 59.0398 127.234 58.5341C126.987 58.0284 126.864 57.4375 126.864 56.7614C126.864 56.0795 126.987 55.4844 127.234 54.9759C127.484 54.4673 127.831 54.0724 128.274 53.7912C128.72 53.5099 129.239 53.3693 129.83 53.3693C130.42 53.3693 130.938 53.5099 131.381 53.7912C131.827 54.0724 132.173 54.4673 132.42 54.9759C132.67 55.4844 132.795 56.0795 132.795 56.7614C132.795 57.4375 132.67 58.0284 132.42 58.5341C132.173 59.0398 131.827 59.4332 131.381 59.7145C130.938 59.9957 130.42 60.1364 129.83 60.1364ZM129.83 59.233C130.278 59.233 130.648 59.1179 130.938 58.8878C131.227 58.6577 131.442 58.3551 131.581 57.9801C131.72 57.6051 131.79 57.1989 131.79 56.7614C131.79 56.3239 131.72 55.9162 131.581 55.5384C131.442 55.1605 131.227 54.8551 130.938 54.6222C130.648 54.3892 130.278 54.2727 129.83 54.2727C129.381 54.2727 129.011 54.3892 128.722 54.6222C128.432 54.8551 128.217 55.1605 128.078 55.5384C127.939 55.9162 127.869 56.3239 127.869 56.7614C127.869 57.1989 127.939 57.6051 128.078 57.9801C128.217 58.3551 128.432 58.6577 128.722 58.8878C129.011 59.1179 129.381 59.233 129.83 59.233ZM134.331 60V53.4545H135.302V54.4432H135.37C135.49 54.1193 135.706 53.8565 136.018 53.6548C136.331 53.4531 136.683 53.3523 137.075 53.3523C137.149 53.3523 137.241 53.3537 137.352 53.3565C137.463 53.3594 137.547 53.3636 137.603 53.3693V54.392C137.569 54.3835 137.491 54.3707 137.369 54.3537C137.25 54.3338 137.123 54.3239 136.99 54.3239C136.672 54.3239 136.387 54.3906 136.137 54.5241C135.89 54.6548 135.694 54.8366 135.549 55.0696C135.407 55.2997 135.336 55.5625 135.336 55.858V60H134.331ZM141.068 60.1364C140.522 60.1364 140.041 59.9986 139.623 59.723C139.206 59.4446 138.879 59.0526 138.643 58.5469C138.407 58.0384 138.289 57.4375 138.289 56.7443C138.289 56.0568 138.407 55.4602 138.643 54.9545C138.879 54.4489 139.207 54.0582 139.627 53.7827C140.048 53.5071 140.534 53.3693 141.085 53.3693C141.511 53.3693 141.848 53.4403 142.095 53.5824C142.345 53.7216 142.535 53.8807 142.666 54.0597C142.799 54.2358 142.903 54.3807 142.977 54.4943H143.062V51.2727H144.068V60H143.096V58.9943H142.977C142.903 59.1136 142.798 59.2642 142.662 59.446C142.525 59.625 142.331 59.7855 142.078 59.9276C141.825 60.0668 141.488 60.1364 141.068 60.1364ZM141.204 59.233C141.608 59.233 141.949 59.1278 142.227 58.9176C142.505 58.7045 142.717 58.4105 142.862 58.0355C143.007 57.6577 143.079 57.2216 143.079 56.7273C143.079 56.2386 143.008 55.8111 142.866 55.4446C142.724 55.0753 142.514 54.7884 142.235 54.5838C141.957 54.3764 141.613 54.2727 141.204 54.2727C140.778 54.2727 140.423 54.3821 140.139 54.6009C139.858 54.8168 139.646 55.1108 139.504 55.483C139.365 55.8523 139.295 56.267 139.295 56.7273C139.295 57.1932 139.366 57.6165 139.508 57.9972C139.653 58.375 139.866 58.6761 140.147 58.9006C140.431 59.1222 140.784 59.233 141.204 59.233ZM149.424 60V53.4545H150.43V60H149.424ZM149.936 52.3636C149.74 52.3636 149.571 52.2969 149.429 52.1634C149.289 52.0298 149.22 51.8693 149.22 51.6818C149.22 51.4943 149.289 51.3338 149.429 51.2003C149.571 51.0668 149.74 51 149.936 51C150.132 51 150.299 51.0668 150.439 51.2003C150.581 51.3338 150.652 51.4943 150.652 51.6818C150.652 51.8693 150.581 52.0298 150.439 52.1634C150.299 52.2969 150.132 52.3636 149.936 52.3636ZM156.908 54.9205L156.005 55.1761C155.948 55.0256 155.864 54.8793 155.754 54.7372C155.646 54.5923 155.498 54.473 155.31 54.3793C155.123 54.2855 154.883 54.2386 154.59 54.2386C154.19 54.2386 153.856 54.331 153.589 54.5156C153.325 54.6974 153.192 54.929 153.192 55.2102C153.192 55.4602 153.283 55.6577 153.465 55.8026C153.647 55.9474 153.931 56.0682 154.317 56.1648L155.289 56.4034C155.874 56.5455 156.31 56.7628 156.597 57.0554C156.884 57.3452 157.028 57.7187 157.028 58.1761C157.028 58.5511 156.92 58.8864 156.704 59.1818C156.491 59.4773 156.192 59.7102 155.809 59.8807C155.425 60.0511 154.979 60.1364 154.471 60.1364C153.803 60.1364 153.251 59.9915 152.813 59.7017C152.376 59.4119 152.099 58.9886 151.982 58.4318L152.937 58.1932C153.028 58.5455 153.2 58.8097 153.452 58.9858C153.708 59.1619 154.042 59.25 154.454 59.25C154.923 59.25 155.295 59.1506 155.57 58.9517C155.849 58.75 155.988 58.5085 155.988 58.2273C155.988 58 155.908 57.8097 155.749 57.6562C155.59 57.5 155.346 57.3835 155.016 57.3068L153.925 57.0511C153.326 56.9091 152.886 56.6889 152.604 56.3906C152.326 56.0895 152.187 55.7131 152.187 55.2614C152.187 54.892 152.29 54.5653 152.498 54.2812C152.708 53.9972 152.994 53.7741 153.354 53.6122C153.718 53.4503 154.13 53.3693 154.59 53.3693C155.238 53.3693 155.746 53.5114 156.116 53.7955C156.488 54.0795 156.752 54.4545 156.908 54.9205ZM164.559 62.5909C164.073 62.5909 163.655 62.5284 163.306 62.4034C162.956 62.2812 162.665 62.1193 162.432 61.9176C162.202 61.7188 162.019 61.5057 161.882 61.2784L162.684 60.7159C162.775 60.8352 162.89 60.9716 163.029 61.125C163.168 61.2812 163.358 61.4162 163.6 61.5298C163.844 61.6463 164.164 61.7045 164.559 61.7045C165.087 61.7045 165.523 61.5767 165.867 61.321C166.211 61.0653 166.382 60.6648 166.382 60.1193V58.7898H166.297C166.223 58.9091 166.118 59.0568 165.982 59.233C165.848 59.4062 165.655 59.5611 165.402 59.6974C165.152 59.831 164.814 59.8977 164.388 59.8977C163.86 59.8977 163.385 59.7727 162.965 59.5227C162.547 59.2727 162.216 58.9091 161.972 58.4318C161.73 57.9545 161.61 57.375 161.61 56.6932C161.61 56.0227 161.728 55.4389 161.963 54.9418C162.199 54.4418 162.527 54.0554 162.948 53.7827C163.368 53.5071 163.854 53.3693 164.405 53.3693C164.831 53.3693 165.169 53.4403 165.419 53.5824C165.672 53.7216 165.865 53.8807 165.999 54.0597C166.135 54.2358 166.24 54.3807 166.314 54.4943H166.417V53.4545H167.388V60.1875C167.388 60.75 167.26 61.2074 167.005 61.5597C166.752 61.9148 166.411 62.1747 165.982 62.3395C165.556 62.5071 165.081 62.5909 164.559 62.5909ZM164.525 58.9943C164.928 58.9943 165.269 58.902 165.547 58.7173C165.826 58.5327 166.037 58.267 166.182 57.9205C166.327 57.5739 166.4 57.1591 166.4 56.6761C166.4 56.2045 166.328 55.7884 166.186 55.4276C166.044 55.0668 165.834 54.7841 165.556 54.5795C165.277 54.375 164.934 54.2727 164.525 54.2727C164.098 54.2727 163.743 54.3807 163.459 54.5966C163.178 54.8125 162.966 55.1023 162.824 55.4659C162.685 55.8295 162.615 56.233 162.615 56.6761C162.615 57.1307 162.686 57.5327 162.828 57.8821C162.973 58.2287 163.186 58.5014 163.468 58.7003C163.752 58.8963 164.104 58.9943 164.525 58.9943ZM169.229 60V53.4545H170.201V54.4432H170.269C170.388 54.1193 170.604 53.8565 170.917 53.6548C171.229 53.4531 171.581 53.3523 171.973 53.3523C172.047 53.3523 172.14 53.3537 172.25 53.3565C172.361 53.3594 172.445 53.3636 172.502 53.3693V54.392C172.468 54.3835 172.39 54.3707 172.267 54.3537C172.148 54.3338 172.022 54.3239 171.888 54.3239C171.57 54.3239 171.286 54.3906 171.036 54.5241C170.789 54.6548 170.593 54.8366 170.448 55.0696C170.306 55.2997 170.235 55.5625 170.235 55.858V60H169.229ZM176.239 60.1364C175.608 60.1364 175.064 59.9972 174.607 59.7188C174.152 59.4375 173.801 59.0455 173.554 58.5426C173.31 58.0369 173.188 57.4489 173.188 56.7784C173.188 56.108 173.31 55.517 173.554 55.0057C173.801 54.4915 174.145 54.0909 174.586 53.804C175.029 53.5142 175.546 53.3693 176.137 53.3693C176.478 53.3693 176.814 53.4261 177.147 53.5398C177.479 53.6534 177.782 53.8381 178.054 54.0938C178.327 54.3466 178.544 54.6818 178.706 55.0994C178.868 55.517 178.949 56.0312 178.949 56.642V57.0682H173.904V56.1989H177.926C177.926 55.8295 177.853 55.5 177.705 55.2102C177.56 54.9205 177.353 54.6918 177.083 54.5241C176.816 54.3565 176.5 54.2727 176.137 54.2727C175.736 54.2727 175.39 54.3722 175.097 54.571C174.807 54.767 174.584 55.0227 174.428 55.3381C174.272 55.6534 174.194 55.9915 174.194 56.3523V56.9318C174.194 57.4261 174.279 57.8452 174.449 58.1889C174.623 58.5298 174.863 58.7898 175.169 58.9688C175.476 59.1449 175.833 59.233 176.239 59.233C176.503 59.233 176.742 59.196 176.955 59.1222C177.171 59.0455 177.357 58.9318 177.513 58.7812C177.669 58.6278 177.79 58.4375 177.875 58.2102L178.847 58.483C178.745 58.8125 178.573 59.1023 178.331 59.3523C178.09 59.5994 177.792 59.7926 177.436 59.9318C177.081 60.0682 176.682 60.1364 176.239 60.1364ZM182.405 60.1534C181.99 60.1534 181.614 60.0753 181.276 59.919C180.938 59.7599 180.669 59.5312 180.471 59.233C180.272 58.9318 180.172 58.5682 180.172 58.142C180.172 57.767 180.246 57.4631 180.394 57.2301C180.542 56.9943 180.739 56.8097 180.986 56.6761C181.233 56.5426 181.506 56.4432 181.804 56.3778C182.105 56.3097 182.408 56.2557 182.712 56.2159C183.11 56.1648 183.432 56.1264 183.679 56.1009C183.929 56.0724 184.111 56.0256 184.225 55.9602C184.341 55.8949 184.4 55.7812 184.4 55.6193V55.5852C184.4 55.1648 184.284 54.8381 184.054 54.6051C183.827 54.3722 183.482 54.2557 183.019 54.2557C182.539 54.2557 182.162 54.3608 181.89 54.571C181.617 54.7812 181.425 55.0057 181.314 55.2443L180.36 54.9034C180.53 54.5057 180.757 54.196 181.042 53.9744C181.328 53.75 181.641 53.5937 181.979 53.5057C182.32 53.4148 182.655 53.3693 182.985 53.3693C183.195 53.3693 183.436 53.3949 183.709 53.446C183.985 53.4943 184.25 53.5952 184.506 53.7486C184.765 53.902 184.979 54.1335 185.15 54.4432C185.32 54.7528 185.405 55.1676 185.405 55.6875V60H184.4V59.1136H184.348C184.28 59.2557 184.167 59.4077 184.007 59.5696C183.848 59.7315 183.637 59.8693 183.373 59.983C183.108 60.0966 182.786 60.1534 182.405 60.1534ZM182.559 59.25C182.956 59.25 183.292 59.1719 183.564 59.0156C183.84 58.8594 184.047 58.6577 184.186 58.4105C184.328 58.1634 184.4 57.9034 184.4 57.6307V56.7102C184.357 56.7614 184.263 56.8082 184.118 56.8509C183.976 56.8906 183.811 56.9261 183.624 56.9574C183.439 56.9858 183.259 57.0114 183.083 57.0341C182.909 57.054 182.769 57.071 182.661 57.0852C182.4 57.1193 182.155 57.1747 181.928 57.2514C181.703 57.3253 181.522 57.4375 181.382 57.5881C181.246 57.7358 181.178 57.9375 181.178 58.1932C181.178 58.5426 181.307 58.8068 181.566 58.9858C181.827 59.1619 182.158 59.25 182.559 59.25ZM190.087 53.4545V54.3068H186.695V53.4545H190.087ZM187.684 51.8864H188.69V58.125C188.69 58.4091 188.731 58.6222 188.813 58.7642C188.898 58.9034 189.006 58.9972 189.137 59.0455C189.271 59.0909 189.411 59.1136 189.559 59.1136C189.67 59.1136 189.761 59.108 189.832 59.0966C189.903 59.0824 189.96 59.071 190.002 59.0625L190.207 59.9659C190.138 59.9915 190.043 60.017 189.921 60.0426C189.799 60.071 189.644 60.0852 189.457 60.0852C189.173 60.0852 188.894 60.0241 188.621 59.902C188.352 59.7798 188.127 59.5938 187.948 59.3438C187.772 59.0938 187.684 58.7784 187.684 58.3977V51.8864ZM194.975 60V53.4545H195.981V60H194.975ZM195.487 52.3636C195.29 52.3636 195.121 52.2969 194.979 52.1634C194.84 52.0298 194.771 51.8693 194.771 51.6818C194.771 51.4943 194.84 51.3338 194.979 51.2003C195.121 51.0668 195.29 51 195.487 51C195.683 51 195.85 51.0668 195.989 51.2003C196.131 51.3338 196.202 51.4943 196.202 51.6818C196.202 51.8693 196.131 52.0298 195.989 52.1634C195.85 52.2969 195.683 52.3636 195.487 52.3636ZM200.738 53.4545V54.3068H197.209V53.4545H200.738ZM198.266 60V52.5511C198.266 52.1761 198.354 51.8636 198.53 51.6136C198.706 51.3636 198.935 51.1761 199.216 51.0511C199.498 50.9261 199.794 50.8636 200.107 50.8636C200.354 50.8636 200.556 50.8835 200.712 50.9233C200.868 50.9631 200.985 51 201.061 51.0341L200.772 51.9034C200.721 51.8864 200.65 51.8651 200.559 51.8395C200.471 51.8139 200.354 51.8011 200.209 51.8011C199.877 51.8011 199.637 51.8849 199.489 52.0526C199.344 52.2202 199.272 52.4659 199.272 52.7898V60H198.266ZM206.17 62.4545C205.999 62.4545 205.847 62.4403 205.714 62.4119C205.58 62.3864 205.488 62.3608 205.437 62.3352L205.692 61.4489C205.937 61.5114 206.153 61.5341 206.34 61.517C206.528 61.5 206.694 61.4162 206.839 61.2656C206.987 61.1179 207.121 60.8778 207.244 60.5455L207.431 60.0341L205.011 53.4545H206.102L207.908 58.6705H207.977L209.783 53.4545H210.874L208.096 60.9545C207.971 61.2926 207.816 61.5724 207.631 61.794C207.447 62.0185 207.232 62.1847 206.988 62.2926C206.746 62.4006 206.474 62.4545 206.17 62.4545ZM214.626 60.1364C214.036 60.1364 213.517 59.9957 213.071 59.7145C212.628 59.4332 212.281 59.0398 212.031 58.5341C211.784 58.0284 211.661 57.4375 211.661 56.7614C211.661 56.0795 211.784 55.4844 212.031 54.9759C212.281 54.4673 212.628 54.0724 213.071 53.7912C213.517 53.5099 214.036 53.3693 214.626 53.3693C215.217 53.3693 215.734 53.5099 216.178 53.7912C216.624 54.0724 216.97 54.4673 217.217 54.9759C217.467 55.4844 217.592 56.0795 217.592 56.7614C217.592 57.4375 217.467 58.0284 217.217 58.5341C216.97 59.0398 216.624 59.4332 216.178 59.7145C215.734 59.9957 215.217 60.1364 214.626 60.1364ZM214.626 59.233C215.075 59.233 215.445 59.1179 215.734 58.8878C216.024 58.6577 216.239 58.3551 216.378 57.9801C216.517 57.6051 216.587 57.1989 216.587 56.7614C216.587 56.3239 216.517 55.9162 216.378 55.5384C216.239 55.1605 216.024 54.8551 215.734 54.6222C215.445 54.3892 215.075 54.2727 214.626 54.2727C214.178 54.2727 213.808 54.3892 213.518 54.6222C213.229 54.8551 213.014 55.1605 212.875 55.5384C212.736 55.9162 212.666 56.3239 212.666 56.7614C212.666 57.1989 212.736 57.6051 212.875 57.9801C213.014 58.3551 213.229 58.6577 213.518 58.8878C213.808 59.1179 214.178 59.233 214.626 59.233ZM223.252 57.3239V53.4545H224.258V60H223.252V58.892H223.184C223.031 59.2244 222.792 59.5071 222.468 59.7401C222.145 59.9702 221.735 60.0852 221.241 60.0852C220.832 60.0852 220.468 59.9957 220.15 59.8168C219.832 59.6349 219.582 59.3622 219.4 58.9986C219.218 58.6321 219.127 58.1705 219.127 57.6136V53.4545H220.133V57.5455C220.133 58.0227 220.267 58.4034 220.534 58.6875C220.804 58.9716 221.147 59.1136 221.565 59.1136C221.815 59.1136 222.069 59.0497 222.328 58.9219C222.589 58.794 222.808 58.598 222.984 58.3338C223.163 58.0696 223.252 57.733 223.252 57.3239ZM226.969 51.2727V54.2727H226.032V51.2727H226.969ZM231.232 60.1364C230.686 60.1364 230.205 59.9986 229.787 59.723C229.37 59.4446 229.043 59.0526 228.807 58.5469C228.571 58.0384 228.453 57.4375 228.453 56.7443C228.453 56.0568 228.571 55.4602 228.807 54.9545C229.043 54.4489 229.371 54.0582 229.792 53.7827C230.212 53.5071 230.698 53.3693 231.249 53.3693C231.675 53.3693 232.012 53.4403 232.259 53.5824C232.509 53.7216 232.699 53.8807 232.83 54.0597C232.963 54.2358 233.067 54.3807 233.141 54.4943H233.226V51.2727H234.232V60H233.26V58.9943H233.141C233.067 59.1136 232.962 59.2642 232.826 59.446C232.689 59.625 232.495 59.7855 232.242 59.9276C231.989 60.0668 231.652 60.1364 231.232 60.1364ZM231.368 59.233C231.772 59.233 232.113 59.1278 232.391 58.9176C232.669 58.7045 232.881 58.4105 233.026 58.0355C233.171 57.6577 233.243 57.2216 233.243 56.7273C233.243 56.2386 233.172 55.8111 233.03 55.4446C232.888 55.0753 232.678 54.7884 232.4 54.5838C232.121 54.3764 231.777 54.2727 231.368 54.2727C230.942 54.2727 230.587 54.3821 230.303 54.6009C230.022 54.8168 229.81 55.1108 229.668 55.483C229.529 55.8523 229.459 56.267 229.459 56.7273C229.459 57.1932 229.53 57.6165 229.672 57.9972C229.817 58.375 230.03 58.6761 230.311 58.9006C230.596 59.1222 230.948 59.233 231.368 59.233ZM65.9261 67.2727V76H64.9205V67.2727H65.9261ZM67.7681 76V69.4545H68.7738V76H67.7681ZM68.2795 68.3636C68.0835 68.3636 67.9144 68.2969 67.7724 68.1634C67.6332 68.0298 67.5636 67.8693 67.5636 67.6818C67.5636 67.4943 67.6332 67.3338 67.7724 67.2003C67.9144 67.0668 68.0835 67 68.2795 67C68.4755 67 68.6431 67.0668 68.7823 67.2003C68.9244 67.3338 68.9954 67.4943 68.9954 67.6818C68.9954 67.8693 68.9244 68.0298 68.7823 68.1634C68.6431 68.2969 68.4755 68.3636 68.2795 68.3636ZM71.5533 73.6136L71.5362 72.3693H71.7408L74.6044 69.4545H75.8487L72.7976 72.5398H72.7124L71.5533 73.6136ZM70.6158 76V67.2727H71.6214V76H70.6158ZM74.7749 76L72.218 72.7614L72.9339 72.0625L76.0533 76H74.7749ZM79.6179 76.1364C78.9872 76.1364 78.4432 75.9972 77.9858 75.7188C77.5312 75.4375 77.1804 75.0455 76.9332 74.5426C76.6889 74.0369 76.5668 73.4489 76.5668 72.7784C76.5668 72.108 76.6889 71.517 76.9332 71.0057C77.1804 70.4915 77.5241 70.0909 77.9645 69.804C78.4077 69.5142 78.9247 69.3693 79.5156 69.3693C79.8565 69.3693 80.1932 69.4261 80.5256 69.5398C80.858 69.6534 81.1605 69.8381 81.4332 70.0938C81.706 70.3466 81.9233 70.6818 82.0852 71.0994C82.2472 71.517 82.3281 72.0312 82.3281 72.642V73.0682H77.2827V72.1989H81.3054C81.3054 71.8295 81.2315 71.5 81.0838 71.2102C80.9389 70.9205 80.7315 70.6918 80.4616 70.5241C80.1946 70.3565 79.8793 70.2727 79.5156 70.2727C79.1151 70.2727 78.7685 70.3722 78.4759 70.571C78.1861 70.767 77.9631 71.0227 77.8068 71.3381C77.6506 71.6534 77.5724 71.9915 77.5724 72.3523V72.9318C77.5724 73.4261 77.6577 73.8452 77.8281 74.1889C78.0014 74.5298 78.2415 74.7898 78.5483 74.9688C78.8551 75.1449 79.2116 75.233 79.6179 75.233C79.8821 75.233 80.1207 75.196 80.3338 75.1222C80.5497 75.0455 80.7358 74.9318 80.892 74.7812C81.0483 74.6278 81.169 74.4375 81.2543 74.2102L82.2259 74.483C82.1236 74.8125 81.9517 75.1023 81.7102 75.3523C81.4688 75.5994 81.1705 75.7926 80.8153 75.9318C80.4602 76.0682 80.0611 76.1364 79.6179 76.1364ZM88.2386 72.0625V76H87.233V67.2727H88.2386V70.4773H88.3239C88.4773 70.1392 88.7074 69.8707 89.0142 69.6719C89.3239 69.4702 89.7358 69.3693 90.25 69.3693C90.696 69.3693 91.0866 69.4588 91.4219 69.6378C91.7571 69.8139 92.017 70.0852 92.2017 70.4517C92.3892 70.8153 92.483 71.2784 92.483 71.8409V76H91.4773V71.9091C91.4773 71.3892 91.3423 70.9872 91.0724 70.7031C90.8054 70.4162 90.4347 70.2727 89.9602 70.2727C89.6307 70.2727 89.3352 70.3423 89.0739 70.4815C88.8153 70.6207 88.6108 70.8239 88.4602 71.0909C88.3125 71.358 88.2386 71.6818 88.2386 72.0625ZM97.0671 76.1364C96.4364 76.1364 95.8924 75.9972 95.435 75.7188C94.9805 75.4375 94.6296 75.0455 94.3825 74.5426C94.1381 74.0369 94.016 73.4489 94.016 72.7784C94.016 72.108 94.1381 71.517 94.3825 71.0057C94.6296 70.4915 94.9734 70.0909 95.4137 69.804C95.8569 69.5142 96.3739 69.3693 96.9648 69.3693C97.3058 69.3693 97.6424 69.4261 97.9748 69.5398C98.3072 69.6534 98.6097 69.8381 98.8825 70.0938C99.1552 70.3466 99.3725 70.6818 99.5344 71.0994C99.6964 71.517 99.7773 72.0312 99.7773 72.642V73.0682H94.7319V72.1989H98.7546C98.7546 71.8295 98.6808 71.5 98.533 71.2102C98.3881 70.9205 98.1808 70.6918 97.9109 70.5241C97.6438 70.3565 97.3285 70.2727 96.9648 70.2727C96.5643 70.2727 96.2177 70.3722 95.9251 70.571C95.6353 70.767 95.4123 71.0227 95.256 71.3381C95.0998 71.6534 95.0217 71.9915 95.0217 72.3523V72.9318C95.0217 73.4261 95.1069 73.8452 95.2773 74.1889C95.4506 74.5298 95.6907 74.7898 95.9975 74.9688C96.3043 75.1449 96.6609 75.233 97.0671 75.233C97.3313 75.233 97.57 75.196 97.783 75.1222C97.9989 75.0455 98.185 74.9318 98.3413 74.7812C98.4975 74.6278 98.6183 74.4375 98.7035 74.2102L99.6751 74.483C99.5728 74.8125 99.4009 75.1023 99.1594 75.3523C98.918 75.5994 98.6197 75.7926 98.2646 75.9318C97.9094 76.0682 97.5103 76.1364 97.0671 76.1364ZM102.313 67.2727V76H101.307V67.2727H102.313ZM104.155 78.4545V69.4545H105.126V70.4943H105.246C105.32 70.3807 105.422 70.2358 105.553 70.0597C105.686 69.8807 105.876 69.7216 106.124 69.5824C106.374 69.4403 106.712 69.3693 107.138 69.3693C107.689 69.3693 108.175 69.5071 108.595 69.7827C109.016 70.0582 109.344 70.4489 109.58 70.9545C109.815 71.4602 109.933 72.0568 109.933 72.7443C109.933 73.4375 109.815 74.0384 109.58 74.5469C109.344 75.0526 109.017 75.4446 108.599 75.723C108.182 75.9986 107.7 76.1364 107.155 76.1364C106.734 76.1364 106.398 76.0668 106.145 75.9276C105.892 75.7855 105.697 75.625 105.561 75.446C105.425 75.2642 105.32 75.1136 105.246 74.9943H105.161V78.4545H104.155ZM105.143 72.7273C105.143 73.2216 105.216 73.6577 105.361 74.0355C105.506 74.4105 105.717 74.7045 105.996 74.9176C106.274 75.1278 106.615 75.233 107.018 75.233C107.439 75.233 107.79 75.1222 108.071 74.9006C108.355 74.6761 108.568 74.375 108.71 73.9972C108.855 73.6165 108.928 73.1932 108.928 72.7273C108.928 72.267 108.857 71.8523 108.714 71.483C108.575 71.1108 108.364 70.8168 108.08 70.6009C107.798 70.3821 107.445 70.2727 107.018 70.2727C106.609 70.2727 106.266 70.3764 105.987 70.5838C105.709 70.7884 105.499 71.0753 105.357 71.4446C105.214 71.8111 105.143 72.2386 105.143 72.7273ZM117.757 69.4545V70.3068H114.229V69.4545H117.757ZM115.286 76V68.5511C115.286 68.1761 115.374 67.8636 115.55 67.6136C115.726 67.3636 115.955 67.1761 116.236 67.0511C116.517 66.9261 116.814 66.8636 117.126 66.8636C117.374 66.8636 117.575 66.8835 117.732 66.9233C117.888 66.9631 118.004 67 118.081 67.0341L117.791 67.9034C117.74 67.8864 117.669 67.8651 117.578 67.8395C117.49 67.8139 117.374 67.8011 117.229 67.8011C116.896 67.8011 116.656 67.8849 116.509 68.0526C116.364 68.2202 116.291 68.4659 116.291 68.7898V76H115.286ZM119.167 76V69.4545H120.138V70.4432H120.206C120.326 70.1193 120.542 69.8565 120.854 69.6548C121.167 69.4531 121.519 69.3523 121.911 69.3523C121.985 69.3523 122.077 69.3537 122.188 69.3565C122.299 69.3594 122.382 69.3636 122.439 69.3693V70.392C122.405 70.3835 122.327 70.3707 122.205 70.3537C122.086 70.3338 121.959 70.3239 121.826 70.3239C121.507 70.3239 121.223 70.3906 120.973 70.5241C120.726 70.6548 120.53 70.8366 120.385 71.0696C120.243 71.2997 120.172 71.5625 120.172 71.858V76H119.167ZM126.091 76.1364C125.5 76.1364 124.982 75.9957 124.536 75.7145C124.093 75.4332 123.746 75.0398 123.496 74.5341C123.249 74.0284 123.125 73.4375 123.125 72.7614C123.125 72.0795 123.249 71.4844 123.496 70.9759C123.746 70.4673 124.093 70.0724 124.536 69.7912C124.982 69.5099 125.5 69.3693 126.091 69.3693C126.682 69.3693 127.199 69.5099 127.642 69.7912C128.088 70.0724 128.435 70.4673 128.682 70.9759C128.932 71.4844 129.057 72.0795 129.057 72.7614C129.057 73.4375 128.932 74.0284 128.682 74.5341C128.435 75.0398 128.088 75.4332 127.642 75.7145C127.199 75.9957 126.682 76.1364 126.091 76.1364ZM126.091 75.233C126.54 75.233 126.909 75.1179 127.199 74.8878C127.489 74.6577 127.703 74.3551 127.843 73.9801C127.982 73.6051 128.051 73.1989 128.051 72.7614C128.051 72.3239 127.982 71.9162 127.843 71.5384C127.703 71.1605 127.489 70.8551 127.199 70.6222C126.909 70.3892 126.54 70.2727 126.091 70.2727C125.642 70.2727 125.273 70.3892 124.983 70.6222C124.694 70.8551 124.479 71.1605 124.34 71.5384C124.201 71.9162 124.131 72.3239 124.131 72.7614C124.131 73.1989 124.201 73.6051 124.34 73.9801C124.479 74.3551 124.694 74.6577 124.983 74.8878C125.273 75.1179 125.642 75.233 126.091 75.233ZM130.592 76V69.4545H131.564V70.4773H131.649C131.786 70.1278 132.006 69.8565 132.31 69.6634C132.614 69.4673 132.979 69.3693 133.405 69.3693C133.837 69.3693 134.196 69.4673 134.483 69.6634C134.773 69.8565 134.999 70.1278 135.161 70.4773H135.229C135.396 70.1392 135.648 69.8707 135.983 69.6719C136.318 69.4702 136.72 69.3693 137.189 69.3693C137.774 69.3693 138.253 69.5526 138.625 69.919C138.997 70.2827 139.183 70.8494 139.183 71.6193V76H138.178V71.6193C138.178 71.1364 138.045 70.7912 137.781 70.5838C137.517 70.3764 137.206 70.2727 136.848 70.2727C136.388 70.2727 136.031 70.4119 135.778 70.6903C135.526 70.9659 135.399 71.3153 135.399 71.7386V76H134.376V71.517C134.376 71.1449 134.256 70.8452 134.014 70.6179C133.773 70.3878 133.462 70.2727 133.081 70.2727C132.82 70.2727 132.575 70.3423 132.348 70.4815C132.124 70.6207 131.942 70.8139 131.803 71.0611C131.666 71.3054 131.598 71.5881 131.598 71.9091V76H130.592ZM147.056 76.1364C146.465 76.1364 145.947 75.9957 145.501 75.7145C145.058 75.4332 144.711 75.0398 144.461 74.5341C144.214 74.0284 144.09 73.4375 144.09 72.7614C144.09 72.0795 144.214 71.4844 144.461 70.9759C144.711 70.4673 145.058 70.0724 145.501 69.7912C145.947 69.5099 146.465 69.3693 147.056 69.3693C147.647 69.3693 148.164 69.5099 148.607 69.7912C149.053 70.0724 149.4 70.4673 149.647 70.9759C149.897 71.4844 150.022 72.0795 150.022 72.7614C150.022 73.4375 149.897 74.0284 149.647 74.5341C149.4 75.0398 149.053 75.4332 148.607 75.7145C148.164 75.9957 147.647 76.1364 147.056 76.1364ZM147.056 75.233C147.505 75.233 147.874 75.1179 148.164 74.8878C148.454 74.6577 148.668 74.3551 148.808 73.9801C148.947 73.6051 149.016 73.1989 149.016 72.7614C149.016 72.3239 148.947 71.9162 148.808 71.5384C148.668 71.1605 148.454 70.8551 148.164 70.6222C147.874 70.3892 147.505 70.2727 147.056 70.2727C146.607 70.2727 146.238 70.3892 145.948 70.6222C145.658 70.8551 145.444 71.1605 145.305 71.5384C145.165 71.9162 145.096 72.3239 145.096 72.7614C145.096 73.1989 145.165 73.6051 145.305 73.9801C145.444 74.3551 145.658 74.6577 145.948 74.8878C146.238 75.1179 146.607 75.233 147.056 75.233ZM155.682 73.3239V69.4545H156.688V76H155.682V74.892H155.614C155.461 75.2244 155.222 75.5071 154.898 75.7401C154.574 75.9702 154.165 76.0852 153.671 76.0852C153.262 76.0852 152.898 75.9957 152.58 75.8168C152.262 75.6349 152.012 75.3622 151.83 74.9986C151.648 74.6321 151.557 74.1705 151.557 73.6136V69.4545H152.563V73.5455C152.563 74.0227 152.696 74.4034 152.963 74.6875C153.233 74.9716 153.577 75.1136 153.995 75.1136C154.245 75.1136 154.499 75.0497 154.757 74.9219C155.019 74.794 155.238 74.598 155.414 74.3338C155.593 74.0696 155.682 73.733 155.682 73.3239ZM158.53 76V69.4545H159.501V70.4432H159.57C159.689 70.1193 159.905 69.8565 160.217 69.6548C160.53 69.4531 160.882 69.3523 161.274 69.3523C161.348 69.3523 161.44 69.3537 161.551 69.3565C161.662 69.3594 161.746 69.3636 161.803 69.3693V70.392C161.768 70.3835 161.69 70.3707 161.568 70.3537C161.449 70.3338 161.322 70.3239 161.189 70.3239C160.871 70.3239 160.587 70.3906 160.337 70.5241C160.089 70.6548 159.893 70.8366 159.749 71.0696C159.607 71.2997 159.536 71.5625 159.536 71.858V76H158.53ZM169.029 76.1364C168.415 76.1364 167.887 75.9915 167.444 75.7017C167 75.4119 166.659 75.0128 166.421 74.5043C166.182 73.9957 166.063 73.4148 166.063 72.7614C166.063 72.0966 166.185 71.5099 166.429 71.0014C166.676 70.4901 167.02 70.0909 167.461 69.804C167.904 69.5142 168.421 69.3693 169.012 69.3693C169.472 69.3693 169.887 69.4545 170.256 69.625C170.625 69.7955 170.928 70.0341 171.164 70.3409C171.4 70.6477 171.546 71.0057 171.603 71.4148H170.597C170.52 71.1165 170.35 70.8523 170.086 70.6222C169.824 70.3892 169.472 70.2727 169.029 70.2727C168.637 70.2727 168.293 70.375 167.998 70.5795C167.705 70.7812 167.476 71.0668 167.311 71.4361C167.15 71.8026 167.069 72.233 167.069 72.7273C167.069 73.233 167.148 73.6733 167.307 74.0483C167.469 74.4233 167.696 74.7145 167.989 74.9219C168.284 75.1293 168.631 75.233 169.029 75.233C169.29 75.233 169.527 75.1875 169.74 75.0966C169.953 75.0057 170.134 74.875 170.282 74.7045C170.429 74.5341 170.534 74.3295 170.597 74.0909H171.603C171.546 74.4773 171.405 74.8253 171.181 75.1349C170.959 75.4418 170.665 75.6861 170.299 75.8679C169.935 76.0469 169.512 76.1364 169.029 76.1364ZM175.732 76.1364C175.141 76.1364 174.623 75.9957 174.176 75.7145C173.733 75.4332 173.387 75.0398 173.137 74.5341C172.89 74.0284 172.766 73.4375 172.766 72.7614C172.766 72.0795 172.89 71.4844 173.137 70.9759C173.387 70.4673 173.733 70.0724 174.176 69.7912C174.623 69.5099 175.141 69.3693 175.732 69.3693C176.323 69.3693 176.84 69.5099 177.283 69.7912C177.729 70.0724 178.076 70.4673 178.323 70.9759C178.573 71.4844 178.698 72.0795 178.698 72.7614C178.698 73.4375 178.573 74.0284 178.323 74.5341C178.076 75.0398 177.729 75.4332 177.283 75.7145C176.84 75.9957 176.323 76.1364 175.732 76.1364ZM175.732 75.233C176.181 75.233 176.55 75.1179 176.84 74.8878C177.13 74.6577 177.344 74.3551 177.483 73.9801C177.623 73.6051 177.692 73.1989 177.692 72.7614C177.692 72.3239 177.623 71.9162 177.483 71.5384C177.344 71.1605 177.13 70.8551 176.84 70.6222C176.55 70.3892 176.181 70.2727 175.732 70.2727C175.283 70.2727 174.914 70.3892 174.624 70.6222C174.334 70.8551 174.12 71.1605 173.98 71.5384C173.841 71.9162 173.772 72.3239 173.772 72.7614C173.772 73.1989 173.841 73.6051 173.98 73.9801C174.12 74.3551 174.334 74.6577 174.624 74.8878C174.914 75.1179 175.283 75.233 175.732 75.233ZM180.233 76V69.4545H181.205V70.4773H181.29C181.426 70.1278 181.646 69.8565 181.95 69.6634C182.254 69.4673 182.619 69.3693 183.045 69.3693C183.477 69.3693 183.837 69.4673 184.124 69.6634C184.413 69.8565 184.639 70.1278 184.801 70.4773H184.869C185.037 70.1392 185.288 69.8707 185.624 69.6719C185.959 69.4702 186.361 69.3693 186.83 69.3693C187.415 69.3693 187.893 69.5526 188.266 69.919C188.638 70.2827 188.824 70.8494 188.824 71.6193V76H187.818V71.6193C187.818 71.1364 187.686 70.7912 187.422 70.5838C187.158 70.3764 186.847 70.2727 186.489 70.2727C186.028 70.2727 185.672 70.4119 185.419 70.6903C185.166 70.9659 185.04 71.3153 185.04 71.7386V76H184.017V71.517C184.017 71.1449 183.896 70.8452 183.655 70.6179C183.413 70.3878 183.102 70.2727 182.722 70.2727C182.46 70.2727 182.216 70.3423 181.989 70.4815C181.764 70.6207 181.582 70.8139 181.443 71.0611C181.307 71.3054 181.239 71.5881 181.239 71.9091V76H180.233ZM190.663 76V69.4545H191.634V70.4773H191.719C191.856 70.1278 192.076 69.8565 192.38 69.6634C192.684 69.4673 193.049 69.3693 193.475 69.3693C193.907 69.3693 194.266 69.4673 194.553 69.6634C194.843 69.8565 195.069 70.1278 195.231 70.4773H195.299C195.467 70.1392 195.718 69.8707 196.053 69.6719C196.388 69.4702 196.79 69.3693 197.259 69.3693C197.844 69.3693 198.323 69.5526 198.695 69.919C199.067 70.2827 199.254 70.8494 199.254 71.6193V76H198.248V71.6193C198.248 71.1364 198.116 70.7912 197.852 70.5838C197.587 70.3764 197.276 70.2727 196.918 70.2727C196.458 70.2727 196.102 70.4119 195.849 70.6903C195.596 70.9659 195.469 71.3153 195.469 71.7386V76H194.447V71.517C194.447 71.1449 194.326 70.8452 194.085 70.6179C193.843 70.3878 193.532 70.2727 193.151 70.2727C192.89 70.2727 192.646 70.3423 192.418 70.4815C192.194 70.6207 192.012 70.8139 191.873 71.0611C191.737 71.3054 191.668 71.5881 191.668 71.9091V76H190.663ZM205.217 73.3239V69.4545H206.223V76H205.217V74.892H205.149C204.996 75.2244 204.757 75.5071 204.433 75.7401C204.109 75.9702 203.7 76.0852 203.206 76.0852C202.797 76.0852 202.433 75.9957 202.115 75.8168C201.797 75.6349 201.547 75.3622 201.365 74.9986C201.183 74.6321 201.092 74.1705 201.092 73.6136V69.4545H202.098V73.5455C202.098 74.0227 202.232 74.4034 202.499 74.6875C202.768 74.9716 203.112 75.1136 203.53 75.1136C203.78 75.1136 204.034 75.0497 204.293 74.9219C204.554 74.794 204.773 74.598 204.949 74.3338C205.128 74.0696 205.217 73.733 205.217 73.3239ZM209.071 72.0625V76H208.065V69.4545H209.037V70.4773H209.122C209.275 70.1449 209.508 69.8778 209.821 69.6761C210.133 69.4716 210.537 69.3693 211.031 69.3693C211.474 69.3693 211.862 69.4602 212.194 69.642C212.527 69.821 212.785 70.0938 212.97 70.4602C213.154 70.8239 213.247 71.2841 213.247 71.8409V76H212.241V71.9091C212.241 71.3949 212.108 70.9943 211.841 70.7074C211.574 70.4176 211.207 70.2727 210.741 70.2727C210.42 70.2727 210.133 70.3423 209.88 70.4815C209.63 70.6207 209.433 70.8239 209.288 71.0909C209.143 71.358 209.071 71.6818 209.071 72.0625ZM215.085 76V69.4545H216.09V76H215.085ZM215.596 68.3636C215.4 68.3636 215.231 68.2969 215.089 68.1634C214.95 68.0298 214.88 67.8693 214.88 67.6818C214.88 67.4943 214.95 67.3338 215.089 67.2003C215.231 67.0668 215.4 67 215.596 67C215.792 67 215.96 67.0668 216.099 67.2003C216.241 67.3338 216.312 67.4943 216.312 67.6818C216.312 67.8693 216.241 68.0298 216.099 68.1634C215.96 68.2969 215.792 68.3636 215.596 68.3636ZM220.779 69.4545V70.3068H217.387V69.4545H220.779ZM218.375 67.8864H219.381V74.125C219.381 74.4091 219.422 74.6222 219.505 74.7642C219.59 74.9034 219.698 74.9972 219.828 75.0455C219.962 75.0909 220.103 75.1136 220.25 75.1136C220.361 75.1136 220.452 75.108 220.523 75.0966C220.594 75.0824 220.651 75.071 220.694 75.0625L220.898 75.9659C220.83 75.9915 220.735 76.017 220.613 76.0426C220.49 76.071 220.336 76.0852 220.148 76.0852C219.864 76.0852 219.586 76.0241 219.313 75.902C219.043 75.7798 218.819 75.5938 218.64 75.3438C218.463 75.0938 218.375 74.7784 218.375 74.3977V67.8864ZM222.939 78.4545C222.769 78.4545 222.617 78.4403 222.483 78.4119C222.35 78.3864 222.257 78.3608 222.206 78.3352L222.462 77.4489C222.706 77.5114 222.922 77.5341 223.11 77.517C223.297 77.5 223.463 77.4162 223.608 77.2656C223.756 77.1179 223.891 76.8778 224.013 76.5455L224.201 76.0341L221.78 69.4545H222.871L224.678 74.6705H224.746L226.553 69.4545H227.644L224.865 76.9545C224.74 77.2926 224.586 77.5724 224.401 77.794C224.216 78.0185 224.002 78.1847 223.757 78.2926C223.516 78.4006 223.243 78.4545 222.939 78.4545ZM230.301 67.2727L230.216 73.5455H229.227L229.142 67.2727H230.301ZM229.721 76.0682C229.511 76.0682 229.331 75.9929 229.18 75.8423C229.029 75.6918 228.954 75.5114 228.954 75.3011C228.954 75.0909 229.029 74.9105 229.18 74.7599C229.331 74.6094 229.511 74.5341 229.721 74.5341C229.931 74.5341 230.112 74.6094 230.262 74.7599C230.413 74.9105 230.488 75.0909 230.488 75.3011C230.488 75.4403 230.453 75.5682 230.382 75.6847C230.314 75.8011 230.221 75.8949 230.105 75.9659C229.991 76.0341 229.863 76.0682 229.721 76.0682Z" fill="#888EA5"/>
<g filter="url(#filter0_iii_445_1683)">
<rect x="64" y="100" width="180" height="32" rx="6" fill="#F2F3F5" fill-opacity="0.24"/>
<g clip-path="url(#clip1_445_1683)">
<g clip-path="url(#clip2_445_1683)">
<path d="M107.226 111.291C106.423 110.929 105.562 110.663 104.662 110.51C104.645 110.507 104.629 110.514 104.62 110.529C104.51 110.722 104.387 110.975 104.301 111.173C103.333 111.031 102.369 111.031 101.421 111.173C101.335 110.97 101.207 110.722 101.096 110.529C101.088 110.515 101.071 110.507 101.055 110.51C100.155 110.662 99.2939 110.929 98.4903 111.291C98.4834 111.294 98.4774 111.299 98.4734 111.305C96.84 113.702 96.3925 116.04 96.612 118.349C96.613 118.36 96.6195 118.371 96.6284 118.378C97.7061 119.155 98.7501 119.627 99.7747 119.94C99.7911 119.945 99.8084 119.939 99.8189 119.926C100.061 119.601 100.277 119.258 100.463 118.898C100.473 118.877 100.463 118.852 100.441 118.843C100.098 118.715 99.7717 118.56 99.4578 118.383C99.433 118.369 99.431 118.334 99.4538 118.317C99.5199 118.269 99.5859 118.218 99.649 118.167C99.6604 118.158 99.6763 118.156 99.6897 118.162C101.752 119.086 103.984 119.086 106.022 118.162C106.035 118.155 106.051 118.157 106.063 118.166C106.126 118.218 106.192 118.269 106.259 118.317C106.282 118.334 106.28 118.369 106.255 118.383C105.942 118.563 105.615 118.715 105.272 118.843C105.25 118.851 105.24 118.877 105.251 118.898C105.44 119.258 105.656 119.6 105.894 119.925C105.904 119.939 105.922 119.945 105.938 119.94C106.968 119.627 108.012 119.155 109.089 118.378C109.099 118.371 109.105 118.361 109.106 118.35C109.368 115.68 108.666 113.361 107.243 111.306C107.239 111.299 107.233 111.294 107.226 111.291ZM100.77 116.943C100.15 116.943 99.6381 116.383 99.6381 115.696C99.6381 115.008 100.14 114.449 100.77 114.449C101.406 114.449 101.913 115.013 101.903 115.696C101.903 116.383 101.401 116.943 100.77 116.943ZM104.957 116.943C104.336 116.943 103.825 116.383 103.825 115.696C103.825 115.008 104.326 114.449 104.957 114.449C105.593 114.449 106.099 115.013 106.09 115.696C106.09 116.383 105.593 116.943 104.957 116.943Z" fill="#5865F2"/>
</g>
</g>
<path d="M123.961 111.273H125.273V117.46C125.273 118.02 125.163 118.499 124.941 118.896C124.722 119.294 124.414 119.598 124.016 119.808C123.619 120.016 123.153 120.119 122.619 120.119C122.127 120.119 121.685 120.03 121.293 119.851C120.904 119.672 120.596 119.412 120.369 119.071C120.144 118.727 120.032 118.31 120.032 117.818H121.34C121.34 118.06 121.395 118.268 121.506 118.445C121.62 118.621 121.775 118.759 121.971 118.858C122.17 118.955 122.397 119.003 122.653 119.003C122.931 119.003 123.167 118.945 123.36 118.828C123.556 118.709 123.705 118.534 123.807 118.304C123.91 118.074 123.961 117.793 123.961 117.46V111.273ZM129.845 120.132C129.231 120.132 128.696 119.991 128.238 119.71C127.781 119.429 127.426 119.036 127.173 118.53C126.92 118.024 126.794 117.433 126.794 116.757C126.794 116.078 126.92 115.484 127.173 114.976C127.426 114.467 127.781 114.072 128.238 113.791C128.696 113.51 129.231 113.369 129.845 113.369C130.458 113.369 130.994 113.51 131.451 113.791C131.909 114.072 132.264 114.467 132.517 114.976C132.769 115.484 132.896 116.078 132.896 116.757C132.896 117.433 132.769 118.024 132.517 118.53C132.264 119.036 131.909 119.429 131.451 119.71C130.994 119.991 130.458 120.132 129.845 120.132ZM129.849 119.062C130.247 119.062 130.576 118.957 130.838 118.747C131.099 118.537 131.292 118.257 131.417 117.908C131.545 117.558 131.609 117.173 131.609 116.753C131.609 116.335 131.545 115.952 131.417 115.602C131.292 115.25 131.099 114.967 130.838 114.754C130.576 114.541 130.247 114.435 129.849 114.435C129.448 114.435 129.116 114.541 128.852 114.754C128.59 114.967 128.396 115.25 128.268 115.602C128.143 115.952 128.081 116.335 128.081 116.753C128.081 117.173 128.143 117.558 128.268 117.908C128.396 118.257 128.59 118.537 128.852 118.747C129.116 118.957 129.448 119.062 129.849 119.062ZM134.318 120V113.455H135.592V120H134.318ZM134.962 112.445C134.74 112.445 134.55 112.371 134.391 112.223C134.234 112.072 134.156 111.893 134.156 111.686C134.156 111.476 134.234 111.297 134.391 111.149C134.55 110.999 134.74 110.923 134.962 110.923C135.183 110.923 135.372 110.999 135.528 111.149C135.687 111.297 135.767 111.476 135.767 111.686C135.767 111.893 135.687 112.072 135.528 112.223C135.372 112.371 135.183 112.445 134.962 112.445ZM138.581 116.114V120H137.306V113.455H138.529V114.52H138.61C138.761 114.173 138.997 113.895 139.318 113.685C139.642 113.474 140.049 113.369 140.541 113.369C140.987 113.369 141.377 113.463 141.713 113.651C142.048 113.835 142.308 114.111 142.492 114.477C142.677 114.844 142.769 115.297 142.769 115.837V120H141.495V115.99C141.495 115.516 141.372 115.145 141.125 114.878C140.877 114.608 140.538 114.473 140.106 114.473C139.811 114.473 139.548 114.537 139.318 114.665C139.09 114.793 138.91 114.98 138.777 115.227C138.646 115.472 138.581 115.767 138.581 116.114ZM150.411 120.132C149.797 120.132 149.262 119.991 148.805 119.71C148.347 119.429 147.992 119.036 147.739 118.53C147.486 118.024 147.36 117.433 147.36 116.757C147.36 116.078 147.486 115.484 147.739 114.976C147.992 114.467 148.347 114.072 148.805 113.791C149.262 113.51 149.797 113.369 150.411 113.369C151.025 113.369 151.56 113.51 152.018 113.791C152.475 114.072 152.83 114.467 153.083 114.976C153.336 115.484 153.462 116.078 153.462 116.757C153.462 117.433 153.336 118.024 153.083 118.53C152.83 119.036 152.475 119.429 152.018 119.71C151.56 119.991 151.025 120.132 150.411 120.132ZM150.415 119.062C150.813 119.062 151.143 118.957 151.404 118.747C151.665 118.537 151.859 118.257 151.984 117.908C152.111 117.558 152.175 117.173 152.175 116.753C152.175 116.335 152.111 115.952 151.984 115.602C151.859 115.25 151.665 114.967 151.404 114.754C151.143 114.541 150.813 114.435 150.415 114.435C150.015 114.435 149.682 114.541 149.418 114.754C149.157 114.967 148.962 115.25 148.834 115.602C148.709 115.952 148.647 116.335 148.647 116.753C148.647 117.173 148.709 117.558 148.834 117.908C148.962 118.257 149.157 118.537 149.418 118.747C149.682 118.957 150.015 119.062 150.415 119.062ZM156.159 116.114V120H154.884V113.455H156.107V114.52H156.188C156.339 114.173 156.575 113.895 156.896 113.685C157.22 113.474 157.627 113.369 158.119 113.369C158.565 113.369 158.956 113.463 159.291 113.651C159.626 113.835 159.886 114.111 160.071 114.477C160.255 114.844 160.348 115.297 160.348 115.837V120H159.073V115.99C159.073 115.516 158.95 115.145 158.703 114.878C158.456 114.608 158.116 114.473 157.684 114.473C157.389 114.473 157.126 114.537 156.896 114.665C156.669 114.793 156.488 114.98 156.355 115.227C156.224 115.472 156.159 115.767 156.159 116.114ZM168.16 120H165.334V111.273H168.249C169.104 111.273 169.839 111.447 170.452 111.797C171.066 112.143 171.536 112.642 171.863 113.293C172.192 113.94 172.357 114.717 172.357 115.624C172.357 116.533 172.191 117.314 171.859 117.967C171.529 118.621 171.052 119.124 170.427 119.476C169.802 119.825 169.046 120 168.16 120ZM166.651 118.849H168.087C168.752 118.849 169.305 118.724 169.745 118.474C170.185 118.222 170.515 117.857 170.734 117.379C170.952 116.899 171.062 116.314 171.062 115.624C171.062 114.939 170.952 114.358 170.734 113.881C170.518 113.403 170.195 113.041 169.766 112.794C169.337 112.547 168.805 112.423 168.168 112.423H166.651V118.849ZM173.892 120V113.455H175.166V120H173.892ZM174.536 112.445C174.314 112.445 174.124 112.371 173.965 112.223C173.808 112.072 173.73 111.893 173.73 111.686C173.73 111.476 173.808 111.297 173.965 111.149C174.124 110.999 174.314 110.923 174.536 110.923C174.757 110.923 174.946 110.999 175.103 111.149C175.262 111.297 175.341 111.476 175.341 111.686C175.341 111.893 175.262 112.072 175.103 112.223C174.946 112.371 174.757 112.445 174.536 112.445ZM181.785 115.053L180.631 115.257C180.582 115.109 180.506 114.969 180.4 114.835C180.298 114.702 180.159 114.592 179.983 114.507C179.807 114.422 179.587 114.379 179.322 114.379C178.962 114.379 178.66 114.46 178.419 114.622C178.177 114.781 178.057 114.987 178.057 115.24C178.057 115.459 178.138 115.635 178.3 115.768C178.462 115.902 178.723 116.011 179.084 116.097L180.123 116.335C180.726 116.474 181.175 116.689 181.47 116.979C181.766 117.268 181.913 117.645 181.913 118.108C181.913 118.5 181.8 118.849 181.572 119.156C181.348 119.46 181.034 119.699 180.631 119.872C180.23 120.045 179.766 120.132 179.237 120.132C178.504 120.132 177.906 119.976 177.443 119.663C176.98 119.348 176.696 118.901 176.591 118.321L177.822 118.134C177.899 118.455 178.057 118.697 178.295 118.862C178.534 119.024 178.845 119.105 179.229 119.105C179.646 119.105 179.98 119.018 180.23 118.845C180.48 118.669 180.605 118.455 180.605 118.202C180.605 117.997 180.528 117.825 180.375 117.686C180.224 117.547 179.993 117.442 179.68 117.371L178.572 117.128C177.962 116.989 177.51 116.767 177.217 116.463C176.927 116.159 176.783 115.774 176.783 115.308C176.783 114.922 176.891 114.584 177.106 114.294C177.322 114.004 177.621 113.778 178.001 113.616C178.382 113.452 178.818 113.369 179.31 113.369C180.017 113.369 180.574 113.523 180.98 113.83C181.386 114.134 181.655 114.541 181.785 115.053ZM186.071 120.132C185.438 120.132 184.892 119.989 184.435 119.702C183.98 119.412 183.631 119.013 183.387 118.504C183.142 117.996 183.02 117.413 183.02 116.757C183.02 116.092 183.145 115.506 183.395 114.997C183.645 114.486 183.997 114.087 184.452 113.8C184.907 113.513 185.442 113.369 186.058 113.369C186.556 113.369 186.999 113.462 187.388 113.646C187.777 113.828 188.091 114.084 188.33 114.413C188.571 114.743 188.715 115.128 188.76 115.568H187.52C187.452 115.261 187.296 114.997 187.051 114.776C186.81 114.554 186.486 114.443 186.08 114.443C185.725 114.443 185.414 114.537 185.147 114.724C184.882 114.909 184.676 115.173 184.529 115.517C184.381 115.858 184.307 116.261 184.307 116.727C184.307 117.205 184.38 117.616 184.524 117.963C184.669 118.31 184.874 118.578 185.138 118.768C185.405 118.959 185.719 119.054 186.08 119.054C186.321 119.054 186.54 119.01 186.736 118.922C186.935 118.831 187.101 118.702 187.235 118.534C187.371 118.366 187.466 118.165 187.52 117.929H188.76C188.715 118.352 188.577 118.73 188.347 119.062C188.117 119.395 187.808 119.656 187.422 119.847C187.039 120.037 186.588 120.132 186.071 120.132ZM192.88 120.132C192.266 120.132 191.731 119.991 191.273 119.71C190.816 119.429 190.461 119.036 190.208 118.53C189.955 118.024 189.829 117.433 189.829 116.757C189.829 116.078 189.955 115.484 190.208 114.976C190.461 114.467 190.816 114.072 191.273 113.791C191.731 113.51 192.266 113.369 192.88 113.369C193.494 113.369 194.029 113.51 194.486 113.791C194.944 114.072 195.299 114.467 195.552 114.976C195.805 115.484 195.931 116.078 195.931 116.757C195.931 117.433 195.805 118.024 195.552 118.53C195.299 119.036 194.944 119.429 194.486 119.71C194.029 119.991 193.494 120.132 192.88 120.132ZM192.884 119.062C193.282 119.062 193.611 118.957 193.873 118.747C194.134 118.537 194.327 118.257 194.452 117.908C194.58 117.558 194.644 117.173 194.644 116.753C194.644 116.335 194.58 115.952 194.452 115.602C194.327 115.25 194.134 114.967 193.873 114.754C193.611 114.541 193.282 114.435 192.884 114.435C192.484 114.435 192.151 114.541 191.887 114.754C191.626 114.967 191.431 115.25 191.303 115.602C191.178 115.952 191.116 116.335 191.116 116.753C191.116 117.173 191.178 117.558 191.303 117.908C191.431 118.257 191.626 118.537 191.887 118.747C192.151 118.957 192.484 119.062 192.884 119.062ZM197.353 120V113.455H198.585V114.494H198.653C198.772 114.142 198.982 113.865 199.284 113.663C199.588 113.459 199.931 113.357 200.315 113.357C200.394 113.357 200.488 113.359 200.596 113.365C200.707 113.371 200.794 113.378 200.856 113.386V114.605C200.805 114.591 200.714 114.575 200.583 114.558C200.453 114.538 200.322 114.528 200.191 114.528C199.89 114.528 199.622 114.592 199.386 114.72C199.153 114.845 198.968 115.02 198.832 115.244C198.696 115.466 198.627 115.719 198.627 116.003V120H197.353ZM204.175 120.128C203.646 120.128 203.175 119.993 202.76 119.723C202.348 119.45 202.024 119.062 201.788 118.56C201.555 118.054 201.439 117.447 201.439 116.74C201.439 116.033 201.557 115.428 201.793 114.925C202.031 114.422 202.358 114.037 202.773 113.77C203.187 113.503 203.658 113.369 204.183 113.369C204.589 113.369 204.916 113.438 205.163 113.574C205.413 113.707 205.606 113.864 205.743 114.043C205.882 114.222 205.99 114.379 206.067 114.516H206.143V111.273H207.418V120H206.173V118.982H206.067C205.99 119.121 205.879 119.28 205.734 119.459C205.592 119.638 205.396 119.794 205.146 119.928C204.896 120.061 204.572 120.128 204.175 120.128ZM204.456 119.041C204.822 119.041 205.132 118.945 205.385 118.751C205.641 118.555 205.834 118.284 205.964 117.938C206.098 117.591 206.165 117.187 206.165 116.727C206.165 116.273 206.099 115.875 205.969 115.534C205.838 115.193 205.646 114.928 205.393 114.737C205.141 114.547 204.828 114.452 204.456 114.452C204.072 114.452 203.753 114.551 203.497 114.75C203.241 114.949 203.048 115.22 202.918 115.564C202.79 115.908 202.726 116.295 202.726 116.727C202.726 117.165 202.791 117.558 202.922 117.908C203.052 118.257 203.246 118.534 203.501 118.739C203.76 118.94 204.078 119.041 204.456 119.041Z" fill="#161A26"/>
</g>
<g filter="url(#filter1_iii_445_1683)">
<rect x="64" y="144" width="180" height="32" rx="6" fill="#F2F3F5" fill-opacity="0.24"/>
<g clip-path="url(#clip3_445_1683)">
<g clip-path="url(#clip4_445_1683)">
<path d="M95.9918 156.831C95.9918 156.719 96.03 156.603 96.1065 156.484C96.1829 156.366 96.2683 156.288 96.3624 156.25C96.7036 156.125 97.0448 156.031 97.3859 155.969C97.7271 155.906 98.0859 155.875 98.4624 155.875C98.6977 155.875 98.93 155.891 99.1594 155.922C99.3889 155.953 99.6153 155.994 99.8388 156.044C99.9447 156.069 100.036 156.131 100.112 156.231C100.189 156.331 100.227 156.444 100.227 156.569C100.227 156.781 100.162 156.937 100.033 157.037C99.9036 157.137 99.7389 157.162 99.5389 157.112C99.3742 157.075 99.2006 157.047 99.0182 157.028C98.8359 157.009 98.6506 157 98.4624 157C98.1565 157 97.8565 157.031 97.5624 157.094C97.2683 157.156 96.9859 157.238 96.7154 157.338C96.5036 157.425 96.33 157.419 96.1947 157.319C96.0594 157.219 95.9918 157.056 95.9918 156.831ZM95.9918 160.956C95.9918 160.844 96.03 160.728 96.1065 160.609C96.1829 160.491 96.2683 160.413 96.3624 160.375C96.7036 160.25 97.0448 160.156 97.3859 160.094C97.7271 160.031 98.0859 160 98.4624 160C98.6977 160 98.93 160.016 99.1594 160.047C99.3889 160.078 99.6153 160.119 99.8388 160.169C99.9447 160.194 100.036 160.256 100.112 160.356C100.189 160.456 100.227 160.569 100.227 160.694C100.227 160.906 100.162 161.062 100.033 161.162C99.9036 161.262 99.7389 161.288 99.5389 161.238C99.3742 161.2 99.2006 161.172 99.0182 161.153C98.8359 161.134 98.6506 161.125 98.4624 161.125C98.1565 161.125 97.8565 161.153 97.5624 161.209C97.2683 161.266 96.9859 161.344 96.7154 161.444C96.5036 161.531 96.33 161.528 96.1947 161.434C96.0594 161.341 95.9918 161.181 95.9918 160.956ZM95.9918 158.894C95.9918 158.781 96.03 158.666 96.1065 158.547C96.1829 158.428 96.2683 158.35 96.3624 158.312C96.7036 158.188 97.0448 158.094 97.3859 158.031C97.7271 157.969 98.0859 157.938 98.4624 157.938C98.6977 157.938 98.93 157.953 99.1594 157.984C99.3889 158.016 99.6153 158.056 99.8388 158.106C99.9447 158.131 100.036 158.194 100.112 158.294C100.189 158.394 100.227 158.506 100.227 158.631C100.227 158.844 100.162 159 100.033 159.1C99.9036 159.2 99.7389 159.225 99.5389 159.175C99.3742 159.138 99.2006 159.109 99.0182 159.091C98.8359 159.072 98.6506 159.062 98.4624 159.062C98.1565 159.062 97.8565 159.094 97.5624 159.156C97.2683 159.219 96.9859 159.3 96.7154 159.4C96.5036 159.488 96.33 159.481 96.1947 159.381C96.0594 159.281 95.9918 159.119 95.9918 158.894ZM90.6977 162.25C91.2506 162.25 91.7888 162.316 92.3124 162.447C92.8359 162.578 93.3565 162.775 93.8741 163.038V155.65C93.3918 155.35 92.88 155.125 92.3388 154.975C91.7977 154.825 91.2506 154.75 90.6977 154.75C90.2741 154.75 89.8535 154.794 89.4359 154.881C89.0183 154.969 88.6153 155.1 88.2271 155.275V162.7C88.6388 162.55 89.0477 162.438 89.4535 162.363C89.8594 162.288 90.2741 162.25 90.6977 162.25ZM95.2859 163.038C95.8035 162.775 96.3241 162.578 96.8477 162.447C97.3712 162.316 97.9094 162.25 98.4624 162.25C98.8859 162.25 99.3006 162.288 99.7065 162.363C100.112 162.438 100.521 162.55 100.933 162.7V155.275C100.545 155.1 100.142 154.969 99.7241 154.881C99.3065 154.794 98.8859 154.75 98.4624 154.75C97.9094 154.75 97.3624 154.825 96.8212 154.975C96.2801 155.125 95.7682 155.35 95.2859 155.65V163.038ZM94.58 164.856C94.4153 164.856 94.2594 164.834 94.1124 164.791C93.9653 164.747 93.8271 164.688 93.6977 164.613C93.2388 164.325 92.7565 164.109 92.2506 163.966C91.7447 163.822 91.2271 163.75 90.6977 163.75C90.2035 163.75 89.7183 163.819 89.2418 163.956C88.7653 164.094 88.3094 164.288 87.8741 164.538C87.6271 164.675 87.3888 164.669 87.1594 164.519C86.93 164.369 86.8153 164.15 86.8153 163.863V154.825C86.8153 154.688 86.8477 154.556 86.9124 154.431C86.9771 154.306 87.0741 154.212 87.2035 154.15C87.7447 153.85 88.3094 153.625 88.8977 153.475C89.4859 153.325 90.0859 153.25 90.6977 153.25C91.38 153.25 92.0477 153.344 92.7006 153.531C93.3535 153.719 93.98 154 94.58 154.375C95.18 154 95.8065 153.719 96.4594 153.531C97.1123 153.344 97.78 153.25 98.4624 153.25C99.0741 153.25 99.6741 153.325 100.262 153.475C100.851 153.625 101.415 153.85 101.956 154.15C102.086 154.212 102.183 154.306 102.248 154.431C102.312 154.556 102.345 154.688 102.345 154.825V163.863C102.345 164.15 102.23 164.369 102.001 164.519C101.771 164.669 101.533 164.675 101.286 164.538C100.851 164.288 100.395 164.094 99.9183 163.956C99.4418 163.819 98.9565 163.75 98.4624 163.75C97.933 163.75 97.4153 163.822 96.9094 163.966C96.4035 164.109 95.9212 164.325 95.4624 164.613C95.333 164.688 95.1947 164.747 95.0477 164.791C94.9006 164.834 94.7447 164.856 94.58 164.856Z" fill="#161A26"/>
</g>
</g>
<path d="M112.302 155.273L114.731 162.381H114.829L117.258 155.273H118.681L115.54 164H114.019L110.878 155.273H112.302ZM119.839 164V157.455H121.113V164H119.839ZM120.482 156.445C120.261 156.445 120.07 156.371 119.911 156.223C119.755 156.072 119.677 155.893 119.677 155.686C119.677 155.476 119.755 155.297 119.911 155.149C120.07 154.999 120.261 154.923 120.482 154.923C120.704 154.923 120.893 154.999 121.049 155.149C121.208 155.297 121.288 155.476 121.288 155.686C121.288 155.893 121.208 156.072 121.049 156.223C120.893 156.371 120.704 156.445 120.482 156.445ZM125.648 164.132C125.003 164.132 124.448 163.994 123.982 163.719C123.519 163.44 123.161 163.05 122.908 162.547C122.658 162.041 122.533 161.449 122.533 160.77C122.533 160.099 122.658 159.509 122.908 158.997C123.161 158.486 123.513 158.087 123.965 157.8C124.419 157.513 124.951 157.369 125.559 157.369C125.928 157.369 126.286 157.43 126.633 157.553C126.979 157.675 127.29 157.866 127.566 158.128C127.841 158.389 128.059 158.729 128.218 159.146C128.377 159.561 128.456 160.065 128.456 160.659V161.111H123.253V160.156H127.208C127.208 159.821 127.14 159.524 127.003 159.266C126.867 159.004 126.675 158.798 126.428 158.648C126.184 158.497 125.897 158.422 125.567 158.422C125.209 158.422 124.897 158.51 124.63 158.686C124.365 158.859 124.161 159.087 124.016 159.368C123.874 159.646 123.803 159.949 123.803 160.276V161.021C123.803 161.459 123.88 161.831 124.033 162.138C124.189 162.445 124.407 162.679 124.685 162.841C124.963 163 125.289 163.08 125.661 163.08C125.902 163.08 126.123 163.045 126.321 162.977C126.52 162.906 126.692 162.801 126.837 162.662C126.982 162.523 127.093 162.351 127.169 162.146L128.375 162.364C128.279 162.719 128.106 163.03 127.856 163.297C127.608 163.561 127.297 163.767 126.922 163.915C126.55 164.06 126.125 164.132 125.648 164.132ZM131.277 164L129.351 157.455H130.668L131.951 162.261H132.015L133.302 157.455H134.618L135.897 162.24H135.961L137.235 157.455H138.552L136.63 164H135.33L134 159.274H133.902L132.573 164H131.277ZM145.387 164.128C144.858 164.128 144.387 163.993 143.972 163.723C143.56 163.45 143.236 163.062 143 162.56C142.767 162.054 142.651 161.447 142.651 160.74C142.651 160.033 142.769 159.428 143.005 158.925C143.243 158.422 143.57 158.037 143.985 157.77C144.4 157.503 144.87 157.369 145.395 157.369C145.802 157.369 146.128 157.438 146.375 157.574C146.625 157.707 146.819 157.864 146.955 158.043C147.094 158.222 147.202 158.379 147.279 158.516H147.356V155.273H148.63V164H147.385V162.982H147.279C147.202 163.121 147.091 163.28 146.946 163.459C146.804 163.638 146.608 163.794 146.358 163.928C146.108 164.061 145.785 164.128 145.387 164.128ZM145.668 163.041C146.035 163.041 146.344 162.945 146.597 162.751C146.853 162.555 147.046 162.284 147.177 161.938C147.31 161.591 147.377 161.187 147.377 160.727C147.377 160.273 147.311 159.875 147.181 159.534C147.05 159.193 146.858 158.928 146.606 158.737C146.353 158.547 146.04 158.452 145.668 158.452C145.285 158.452 144.965 158.551 144.709 158.75C144.454 158.949 144.26 159.22 144.13 159.564C144.002 159.908 143.938 160.295 143.938 160.727C143.938 161.165 144.003 161.558 144.134 161.908C144.265 162.257 144.458 162.534 144.713 162.739C144.972 162.94 145.29 163.041 145.668 163.041ZM153.205 164.132C152.592 164.132 152.056 163.991 151.599 163.71C151.141 163.429 150.786 163.036 150.533 162.53C150.281 162.024 150.154 161.433 150.154 160.757C150.154 160.078 150.281 159.484 150.533 158.976C150.786 158.467 151.141 158.072 151.599 157.791C152.056 157.51 152.592 157.369 153.205 157.369C153.819 157.369 154.354 157.51 154.812 157.791C155.269 158.072 155.624 158.467 155.877 158.976C156.13 159.484 156.256 160.078 156.256 160.757C156.256 161.433 156.13 162.024 155.877 162.53C155.624 163.036 155.269 163.429 154.812 163.71C154.354 163.991 153.819 164.132 153.205 164.132ZM153.21 163.062C153.607 163.062 153.937 162.957 154.198 162.747C154.46 162.537 154.653 162.257 154.778 161.908C154.906 161.558 154.97 161.173 154.97 160.753C154.97 160.335 154.906 159.952 154.778 159.602C154.653 159.25 154.46 158.967 154.198 158.754C153.937 158.541 153.607 158.435 153.21 158.435C152.809 158.435 152.477 158.541 152.212 158.754C151.951 158.967 151.756 159.25 151.629 159.602C151.504 159.952 151.441 160.335 151.441 160.753C151.441 161.173 151.504 161.558 151.629 161.908C151.756 162.257 151.951 162.537 152.212 162.747C152.477 162.957 152.809 163.062 153.21 163.062ZM160.436 164.132C159.802 164.132 159.257 163.989 158.799 163.702C158.345 163.412 157.995 163.013 157.751 162.504C157.507 161.996 157.385 161.413 157.385 160.757C157.385 160.092 157.51 159.506 157.76 158.997C158.01 158.486 158.362 158.087 158.816 157.8C159.271 157.513 159.807 157.369 160.423 157.369C160.92 157.369 161.363 157.462 161.753 157.646C162.142 157.828 162.456 158.084 162.694 158.413C162.936 158.743 163.079 159.128 163.125 159.568H161.885C161.816 159.261 161.66 158.997 161.416 158.776C161.174 158.554 160.851 158.443 160.444 158.443C160.089 158.443 159.778 158.537 159.511 158.724C159.247 158.909 159.041 159.173 158.893 159.517C158.745 159.858 158.672 160.261 158.672 160.727C158.672 161.205 158.744 161.616 158.889 161.963C159.034 162.31 159.238 162.578 159.503 162.768C159.77 162.959 160.084 163.054 160.444 163.054C160.686 163.054 160.905 163.01 161.101 162.922C161.299 162.831 161.466 162.702 161.599 162.534C161.735 162.366 161.831 162.165 161.885 161.929H163.125C163.079 162.352 162.941 162.73 162.711 163.062C162.481 163.395 162.173 163.656 161.787 163.847C161.403 164.037 160.953 164.132 160.436 164.132ZM168.634 161.286V157.455H169.912V164H168.659V162.866H168.591C168.44 163.216 168.199 163.507 167.867 163.74C167.537 163.97 167.126 164.085 166.635 164.085C166.215 164.085 165.842 163.993 165.519 163.808C165.197 163.621 164.945 163.344 164.76 162.977C164.578 162.611 164.487 162.158 164.487 161.618V157.455H165.761V161.464C165.761 161.911 165.885 162.266 166.132 162.53C166.379 162.794 166.7 162.926 167.095 162.926C167.334 162.926 167.571 162.866 167.807 162.747C168.046 162.628 168.243 162.447 168.399 162.206C168.558 161.964 168.636 161.658 168.634 161.286ZM171.624 164V157.455H172.847V158.52H172.928C173.064 158.159 173.287 157.878 173.597 157.676C173.907 157.472 174.277 157.369 174.709 157.369C175.147 157.369 175.513 157.472 175.809 157.676C176.107 157.881 176.327 158.162 176.469 158.52H176.537C176.694 158.17 176.942 157.892 177.283 157.685C177.624 157.474 178.03 157.369 178.502 157.369C179.096 157.369 179.58 157.555 179.955 157.928C180.333 158.3 180.522 158.861 180.522 159.611V164H179.248V159.73C179.248 159.287 179.127 158.966 178.885 158.767C178.644 158.568 178.356 158.469 178.02 158.469C177.606 158.469 177.283 158.597 177.053 158.852C176.823 159.105 176.708 159.43 176.708 159.828V164H175.438V159.649C175.438 159.294 175.327 159.009 175.106 158.793C174.884 158.577 174.596 158.469 174.24 158.469C173.999 158.469 173.776 158.533 173.571 158.661C173.37 158.786 173.206 158.96 173.081 159.185C172.959 159.409 172.898 159.669 172.898 159.964V164H171.624ZM185.05 164.132C184.406 164.132 183.85 163.994 183.384 163.719C182.921 163.44 182.563 163.05 182.31 162.547C182.06 162.041 181.935 161.449 181.935 160.77C181.935 160.099 182.06 159.509 182.31 158.997C182.563 158.486 182.916 158.087 183.367 157.8C183.822 157.513 184.353 157.369 184.961 157.369C185.33 157.369 185.688 157.43 186.035 157.553C186.381 157.675 186.693 157.866 186.968 158.128C187.244 158.389 187.461 158.729 187.62 159.146C187.779 159.561 187.859 160.065 187.859 160.659V161.111H182.656V160.156H186.61C186.61 159.821 186.542 159.524 186.406 159.266C186.269 159.004 186.077 158.798 185.83 158.648C185.586 158.497 185.299 158.422 184.97 158.422C184.612 158.422 184.299 158.51 184.032 158.686C183.768 158.859 183.563 159.087 183.418 159.368C183.276 159.646 183.205 159.949 183.205 160.276V161.021C183.205 161.459 183.282 161.831 183.435 162.138C183.592 162.445 183.809 162.679 184.087 162.841C184.366 163 184.691 163.08 185.063 163.08C185.305 163.08 185.525 163.045 185.724 162.977C185.923 162.906 186.095 162.801 186.239 162.662C186.384 162.523 186.495 162.351 186.572 162.146L187.778 162.364C187.681 162.719 187.508 163.03 187.258 163.297C187.011 163.561 186.7 163.767 186.325 163.915C185.952 164.06 185.528 164.132 185.05 164.132ZM190.547 160.114V164H189.272V157.455H190.495V158.52H190.576C190.727 158.173 190.963 157.895 191.284 157.685C191.608 157.474 192.015 157.369 192.507 157.369C192.953 157.369 193.343 157.463 193.679 157.651C194.014 157.835 194.274 158.111 194.459 158.477C194.643 158.844 194.735 159.297 194.735 159.837V164H193.461V159.99C193.461 159.516 193.338 159.145 193.091 158.878C192.843 158.608 192.504 158.473 192.072 158.473C191.777 158.473 191.514 158.537 191.284 158.665C191.057 158.793 190.876 158.98 190.743 159.227C190.612 159.472 190.547 159.767 190.547 160.114ZM199.5 157.455V158.477H195.924V157.455H199.5ZM196.883 155.886H198.157V162.078C198.157 162.325 198.194 162.511 198.268 162.636C198.342 162.759 198.437 162.842 198.554 162.888C198.673 162.93 198.802 162.952 198.941 162.952C199.044 162.952 199.133 162.945 199.21 162.93C199.287 162.916 199.346 162.905 199.389 162.896L199.619 163.949C199.545 163.977 199.44 164.006 199.304 164.034C199.167 164.065 198.997 164.082 198.792 164.085C198.457 164.091 198.145 164.031 197.855 163.906C197.565 163.781 197.331 163.588 197.152 163.327C196.973 163.065 196.883 162.737 196.883 162.342V155.886ZM200.909 164V157.455H202.183V164H200.909ZM201.553 156.445C201.331 156.445 201.141 156.371 200.982 156.223C200.825 156.072 200.747 155.893 200.747 155.686C200.747 155.476 200.825 155.297 200.982 155.149C201.141 154.999 201.331 154.923 201.553 154.923C201.774 154.923 201.963 154.999 202.119 155.149C202.278 155.297 202.358 155.476 202.358 155.686C202.358 155.893 202.278 156.072 202.119 156.223C201.963 156.371 201.774 156.445 201.553 156.445ZM206.655 164.132C206.041 164.132 205.505 163.991 205.048 163.71C204.591 163.429 204.235 163.036 203.983 162.53C203.73 162.024 203.603 161.433 203.603 160.757C203.603 160.078 203.73 159.484 203.983 158.976C204.235 158.467 204.591 158.072 205.048 157.791C205.505 157.51 206.041 157.369 206.655 157.369C207.268 157.369 207.804 157.51 208.261 157.791C208.718 158.072 209.074 158.467 209.326 158.976C209.579 159.484 209.706 160.078 209.706 160.757C209.706 161.433 209.579 162.024 209.326 162.53C209.074 163.036 208.718 163.429 208.261 163.71C207.804 163.991 207.268 164.132 206.655 164.132ZM206.659 163.062C207.057 163.062 207.386 162.957 207.647 162.747C207.909 162.537 208.102 162.257 208.227 161.908C208.355 161.558 208.419 161.173 208.419 160.753C208.419 160.335 208.355 159.952 208.227 159.602C208.102 159.25 207.909 158.967 207.647 158.754C207.386 158.541 207.057 158.435 206.659 158.435C206.258 158.435 205.926 158.541 205.662 158.754C205.4 158.967 205.206 159.25 205.078 159.602C204.953 159.952 204.89 160.335 204.89 160.753C204.89 161.173 204.953 161.558 205.078 161.908C205.206 162.257 205.4 162.537 205.662 162.747C205.926 162.957 206.258 163.062 206.659 163.062ZM212.402 160.114V164H211.128V157.455H212.351V158.52H212.432C212.582 158.173 212.818 157.895 213.139 157.685C213.463 157.474 213.871 157.369 214.362 157.369C214.808 157.369 215.199 157.463 215.534 157.651C215.869 157.835 216.129 158.111 216.314 158.477C216.499 158.844 216.591 159.297 216.591 159.837V164H215.317V159.99C215.317 159.516 215.193 159.145 214.946 158.878C214.699 158.608 214.359 158.473 213.928 158.473C213.632 158.473 213.369 158.537 213.139 158.665C212.912 158.793 212.732 158.98 212.598 159.227C212.467 159.472 212.402 159.767 212.402 160.114Z" fill="#161A26"/>
</g>
<g filter="url(#filter2_iii_445_1683)">
<rect x="64" y="188" width="180" height="32" rx="6" fill="#F2F3F5" fill-opacity="0.24"/>
<g clip-path="url(#clip5_445_1683)">
<g clip-path="url(#clip6_445_1683)">
<path fill-rule="evenodd" clip-rule="evenodd" d="M108.232 207.27L107.946 208.99L110.416 208.372L110.729 208.426C111.007 208.475 111.295 208.5 111.59 208.5H114.59C117.351 208.5 119.59 206.261 119.59 203.5C119.59 200.739 117.351 198.5 114.59 198.5H111.59C108.829 198.5 106.59 200.739 106.59 203.5C106.59 204.737 107.037 205.865 107.78 206.739L108.232 207.27ZM106.09 211L106.638 207.711C105.673 206.577 105.09 205.106 105.09 203.5C105.09 199.91 108 197 111.59 197H114.59C118.18 197 121.09 199.91 121.09 203.5C121.09 207.09 118.18 210 114.59 210H111.59C111.209 210 110.836 209.967 110.473 209.904L106.09 211Z" fill="#161A26"/>
</g>
</g>
<path d="M135.955 202.03C135.873 201.771 135.762 201.54 135.623 201.335C135.486 201.128 135.323 200.952 135.133 200.807C134.942 200.659 134.725 200.547 134.481 200.47C134.239 200.393 133.973 200.355 133.684 200.355C133.192 200.355 132.749 200.482 132.354 200.734C131.959 200.987 131.647 201.358 131.417 201.847C131.189 202.332 131.076 202.928 131.076 203.632C131.076 204.339 131.191 204.937 131.421 205.426C131.651 205.915 131.966 206.286 132.367 206.538C132.768 206.791 133.223 206.918 133.735 206.918C134.209 206.918 134.623 206.821 134.975 206.628C135.33 206.435 135.604 206.162 135.797 205.81C135.993 205.455 136.091 205.037 136.091 204.557L136.432 204.621H133.935V203.534H137.366V204.527C137.366 205.26 137.209 205.896 136.897 206.436C136.587 206.973 136.158 207.388 135.61 207.68C135.064 207.973 134.439 208.119 133.735 208.119C132.945 208.119 132.252 207.938 131.655 207.574C131.062 207.21 130.598 206.695 130.266 206.027C129.934 205.357 129.768 204.561 129.768 203.641C129.768 202.945 129.864 202.32 130.057 201.766C130.25 201.212 130.522 200.741 130.871 200.355C131.223 199.966 131.637 199.669 132.111 199.464C132.589 199.257 133.11 199.153 133.675 199.153C134.147 199.153 134.586 199.223 134.992 199.362C135.401 199.501 135.765 199.699 136.083 199.955C136.404 200.21 136.67 200.514 136.88 200.866C137.09 201.216 137.232 201.604 137.306 202.03H135.955ZM141.756 208.132C141.111 208.132 140.556 207.994 140.09 207.719C139.627 207.44 139.269 207.05 139.016 206.547C138.766 206.041 138.641 205.449 138.641 204.77C138.641 204.099 138.766 203.509 139.016 202.997C139.269 202.486 139.621 202.087 140.073 201.8C140.527 201.513 141.058 201.369 141.666 201.369C142.036 201.369 142.394 201.43 142.74 201.553C143.087 201.675 143.398 201.866 143.673 202.128C143.949 202.389 144.166 202.729 144.325 203.146C144.484 203.561 144.564 204.065 144.564 204.659V205.111H139.361V204.156H143.315C143.315 203.821 143.247 203.524 143.111 203.266C142.975 203.004 142.783 202.798 142.536 202.648C142.291 202.497 142.004 202.422 141.675 202.422C141.317 202.422 141.004 202.51 140.737 202.686C140.473 202.859 140.269 203.087 140.124 203.368C139.982 203.646 139.911 203.949 139.911 204.276V205.021C139.911 205.459 139.987 205.831 140.141 206.138C140.297 206.445 140.514 206.679 140.793 206.841C141.071 207 141.396 207.08 141.769 207.08C142.01 207.08 142.23 207.045 142.429 206.977C142.628 206.906 142.8 206.801 142.945 206.662C143.09 206.523 143.2 206.351 143.277 206.146L144.483 206.364C144.386 206.719 144.213 207.03 143.963 207.297C143.716 207.561 143.405 207.767 143.03 207.915C142.658 208.06 142.233 208.132 141.756 208.132ZM149.033 201.455V202.477H145.458V201.455H149.033ZM146.417 199.886H147.691V206.078C147.691 206.325 147.728 206.511 147.802 206.636C147.875 206.759 147.971 206.842 148.087 206.888C148.206 206.93 148.336 206.952 148.475 206.952C148.577 206.952 148.667 206.945 148.743 206.93C148.82 206.916 148.88 206.905 148.922 206.896L149.152 207.949C149.079 207.977 148.973 208.006 148.837 208.034C148.701 208.065 148.53 208.082 148.326 208.085C147.991 208.091 147.678 208.031 147.388 207.906C147.098 207.781 146.864 207.588 146.685 207.327C146.506 207.065 146.417 206.737 146.417 206.342V199.886ZM153.618 208V201.455H154.893V208H153.618ZM154.262 200.445C154.04 200.445 153.85 200.371 153.691 200.223C153.535 200.072 153.456 199.893 153.456 199.686C153.456 199.476 153.535 199.297 153.691 199.149C153.85 198.999 154.04 198.923 154.262 198.923C154.483 198.923 154.672 198.999 154.829 199.149C154.988 199.297 155.067 199.476 155.067 199.686C155.067 199.893 154.988 200.072 154.829 200.223C154.672 200.371 154.483 200.445 154.262 200.445ZM157.881 204.114V208H156.607V201.455H157.83V202.52H157.911C158.061 202.173 158.297 201.895 158.618 201.685C158.942 201.474 159.35 201.369 159.841 201.369C160.287 201.369 160.678 201.463 161.013 201.651C161.348 201.835 161.608 202.111 161.793 202.477C161.977 202.844 162.07 203.297 162.07 203.837V208H160.796V203.99C160.796 203.516 160.672 203.145 160.425 202.878C160.178 202.608 159.838 202.473 159.406 202.473C159.111 202.473 158.848 202.537 158.618 202.665C158.391 202.793 158.21 202.98 158.077 203.227C157.946 203.472 157.881 203.767 157.881 204.114ZM170.01 201.455V202.477H166.434V201.455H170.01ZM167.393 199.886H168.667V206.078C168.667 206.325 168.704 206.511 168.778 206.636C168.852 206.759 168.947 206.842 169.064 206.888C169.183 206.93 169.312 206.952 169.451 206.952C169.554 206.952 169.643 206.945 169.72 206.93C169.797 206.916 169.856 206.905 169.899 206.896L170.129 207.949C170.055 207.977 169.95 208.006 169.814 208.034C169.677 208.065 169.507 208.082 169.302 208.085C168.967 208.091 168.655 208.031 168.365 207.906C168.075 207.781 167.841 207.588 167.662 207.327C167.483 207.065 167.393 206.737 167.393 206.342V199.886ZM174.106 208.132C173.492 208.132 172.957 207.991 172.499 207.71C172.042 207.429 171.687 207.036 171.434 206.53C171.181 206.024 171.055 205.433 171.055 204.757C171.055 204.078 171.181 203.484 171.434 202.976C171.687 202.467 172.042 202.072 172.499 201.791C172.957 201.51 173.492 201.369 174.106 201.369C174.72 201.369 175.255 201.51 175.712 201.791C176.17 202.072 176.525 202.467 176.778 202.976C177.031 203.484 177.157 204.078 177.157 204.757C177.157 205.433 177.031 206.024 176.778 206.53C176.525 207.036 176.17 207.429 175.712 207.71C175.255 207.991 174.72 208.132 174.106 208.132ZM174.11 207.062C174.508 207.062 174.837 206.957 175.099 206.747C175.36 206.537 175.553 206.257 175.678 205.908C175.806 205.558 175.87 205.173 175.87 204.753C175.87 204.335 175.806 203.952 175.678 203.602C175.553 203.25 175.36 202.967 175.099 202.754C174.837 202.541 174.508 202.435 174.11 202.435C173.71 202.435 173.377 202.541 173.113 202.754C172.852 202.967 172.657 203.25 172.529 203.602C172.404 203.952 172.342 204.335 172.342 204.753C172.342 205.173 172.404 205.558 172.529 205.908C172.657 206.257 172.852 206.537 173.113 206.747C173.377 206.957 173.71 207.062 174.11 207.062ZM182.726 205.286V201.455H184.004V208H182.751V206.866H182.683C182.532 207.216 182.291 207.507 181.959 207.74C181.629 207.97 181.219 208.085 180.727 208.085C180.307 208.085 179.934 207.993 179.611 207.808C179.29 207.621 179.037 207.344 178.852 206.977C178.67 206.611 178.579 206.158 178.579 205.618V201.455H179.853V205.464C179.853 205.911 179.977 206.266 180.224 206.53C180.471 206.794 180.792 206.926 181.187 206.926C181.426 206.926 181.663 206.866 181.899 206.747C182.138 206.628 182.335 206.447 182.491 206.206C182.65 205.964 182.728 205.658 182.726 205.286ZM188.473 208.132C187.84 208.132 187.294 207.989 186.837 207.702C186.382 207.412 186.033 207.013 185.788 206.504C185.544 205.996 185.422 205.413 185.422 204.757C185.422 204.092 185.547 203.506 185.797 202.997C186.047 202.486 186.399 202.087 186.854 201.8C187.308 201.513 187.844 201.369 188.46 201.369C188.958 201.369 189.401 201.462 189.79 201.646C190.179 201.828 190.493 202.084 190.732 202.413C190.973 202.743 191.117 203.128 191.162 203.568H189.922C189.854 203.261 189.698 202.997 189.453 202.776C189.212 202.554 188.888 202.443 188.482 202.443C188.127 202.443 187.815 202.537 187.548 202.724C187.284 202.909 187.078 203.173 186.931 203.517C186.783 203.858 186.709 204.261 186.709 204.727C186.709 205.205 186.781 205.616 186.926 205.963C187.071 206.31 187.276 206.578 187.54 206.768C187.807 206.959 188.121 207.054 188.482 207.054C188.723 207.054 188.942 207.01 189.138 206.922C189.337 206.831 189.503 206.702 189.636 206.534C189.773 206.366 189.868 206.165 189.922 205.929H191.162C191.117 206.352 190.979 206.73 190.749 207.062C190.519 207.395 190.21 207.656 189.824 207.847C189.44 208.037 188.99 208.132 188.473 208.132ZM193.799 204.114V208H192.525V199.273H193.782V202.52H193.863C194.016 202.168 194.25 201.888 194.566 201.68C194.881 201.473 195.293 201.369 195.802 201.369C196.25 201.369 196.643 201.462 196.978 201.646C197.316 201.831 197.577 202.107 197.762 202.473C197.949 202.837 198.043 203.291 198.043 203.837V208H196.769V203.99C196.769 203.51 196.645 203.138 196.398 202.874C196.151 202.607 195.807 202.473 195.367 202.473C195.066 202.473 194.796 202.537 194.557 202.665C194.322 202.793 194.135 202.98 193.999 203.227C193.866 203.472 193.799 203.767 193.799 204.114Z" fill="#161A26"/>
</g>
</g>
<rect x="220" y="254" width="48" height="48" rx="24" fill="white"/>
<g clip-path="url(#clip7_445_1683)">
<g clip-path="url(#clip8_445_1683)">
<path d="M244 279.3L239.1 283.85C238.917 284.02 238.683 284.105 238.4 284.105C238.117 284.105 237.883 284.02 237.7 283.85C237.517 283.68 237.425 283.463 237.425 283.2C237.425 282.937 237.517 282.72 237.7 282.55L242.6 278L237.7 273.45C237.517 273.28 237.425 273.063 237.425 272.8C237.425 272.537 237.517 272.32 237.7 272.15C237.883 271.98 238.117 271.894 238.4 271.894C238.683 271.894 238.917 271.98 239.1 272.15L244 276.7L248.9 272.15C249.083 271.98 249.317 271.894 249.6 271.894C249.883 271.894 250.117 271.98 250.3 272.15C250.483 272.32 250.575 272.537 250.575 272.8C250.575 273.063 250.483 273.28 250.3 273.45L245.4 278L250.3 282.55C250.483 282.72 250.575 282.937 250.575 283.2C250.575 283.463 250.483 283.68 250.3 283.85C250.117 284.02 249.883 284.105 249.6 284.105C249.317 284.105 249.083 284.02 248.9 283.85L244 279.3Z" fill="#888EA5"/>
</g>
</g>
<defs>
<filter id="filter0_iii_445_1683" x="64" y="99" width="180" height="33" filterUnits="userSpaceOnUse" color-interpolation-filters="sRGB">
<feFlood flood-opacity="0" result="BackgroundImageFix"/>
<feBlend mode="normal" in="SourceGraphic" in2="BackgroundImageFix" result="shape"/>
<feColorMatrix in="SourceAlpha" type="matrix" values="0 0 0 0 0 0 0 0 0 0 0 0 0 0 0 0 0 0 127 0" result="hardAlpha"/>
<feOffset dy="-1"/>
<feGaussianBlur stdDeviation="1"/>
<feComposite in2="hardAlpha" operator="arithmetic" k2="-1" k3="1"/>
<feColorMatrix type="matrix" values="0 0 0 0 0 0 0 0 0 0 0 0 0 0 0 0 0 0 0.12 0"/>
<feBlend mode="normal" in2="shape" result="effect1_innerShadow_445_1683"/>
<feColorMatrix in="SourceAlpha" type="matrix" values="0 0 0 0 0 0 0 0 0 0 0 0 0 0 0 0 0 0 127 0" result="hardAlpha"/>
<feMorphology radius="1" operator="erode" in="SourceAlpha" result="effect2_innerShadow_445_1683"/>
<feOffset/>
<feGaussianBlur stdDeviation="1.5"/>
<feComposite in2="hardAlpha" operator="arithmetic" k2="-1" k3="1"/>
<feColorMatrix type="matrix" values="0 0 0 0 1 0 0 0 0 1 0 0 0 0 1 0 0 0 0.2 0"/>
<feBlend mode="normal" in2="effect1_innerShadow_445_1683" result="effect2_innerShadow_445_1683"/>
<feColorMatrix in="SourceAlpha" type="matrix" values="0 0 0 0 0 0 0 0 0 0 0 0 0 0 0 0 0 0 127 0" result="hardAlpha"/>
<feMorphology radius="1" operator="erode" in="SourceAlpha" result="effect3_innerShadow_445_1683"/>
<feOffset/>
<feComposite in2="hardAlpha" operator="arithmetic" k2="-1" k3="1"/>
<feColorMatrix type="matrix" values="0 0 0 0 0.0862745 0 0 0 0 0.101961 0 0 0 0 0.14902 0 0 0 0.08 0"/>
<feBlend mode="normal" in2="effect2_innerShadow_445_1683" result="effect3_innerShadow_445_1683"/>
</filter>
<filter id="filter1_iii_445_1683" x="64" y="143" width="180" height="33" filterUnits="userSpaceOnUse" color-interpolation-filters="sRGB">
<feFlood flood-opacity="0" result="BackgroundImageFix"/>
<feBlend mode="normal" in="SourceGraphic" in2="BackgroundImageFix" result="shape"/>
<feColorMatrix in="SourceAlpha" type="matrix" values="0 0 0 0 0 0 0 0 0 0 0 0 0 0 0 0 0 0 127 0" result="hardAlpha"/>
<feOffset dy="-1"/>
<feGaussianBlur stdDeviation="1"/>
<feComposite in2="hardAlpha" operator="arithmetic" k2="-1" k3="1"/>
<feColorMatrix type="matrix" values="0 0 0 0 0 0 0 0 0 0 0 0 0 0 0 0 0 0 0.12 0"/>
<feBlend mode="normal" in2="shape" result="effect1_innerShadow_445_1683"/>
<feColorMatrix in="SourceAlpha" type="matrix" values="0 0 0 0 0 0 0 0 0 0 0 0 0 0 0 0 0 0 127 0" result="hardAlpha"/>
<feMorphology radius="1" operator="erode" in="SourceAlpha" result="effect2_innerShadow_445_1683"/>
<feOffset/>
<feGaussianBlur stdDeviation="1.5"/>
<feComposite in2="hardAlpha" operator="arithmetic" k2="-1" k3="1"/>
<feColorMatrix type="matrix" values="0 0 0 0 1 0 0 0 0 1 0 0 0 0 1 0 0 0 0.2 0"/>
<feBlend mode="normal" in2="effect1_innerShadow_445_1683" result="effect2_innerShadow_445_1683"/>
<feColorMatrix in="SourceAlpha" type="matrix" values="0 0 0 0 0 0 0 0 0 0 0 0 0 0 0 0 0 0 127 0" result="hardAlpha"/>
<feMorphology radius="1" operator="erode" in="SourceAlpha" result="effect3_innerShadow_445_1683"/>
<feOffset/>
<feComposite in2="hardAlpha" operator="arithmetic" k2="-1" k3="1"/>
<feColorMatrix type="matrix" values="0 0 0 0 0.0862745 0 0 0 0 0.101961 0 0 0 0 0.14902 0 0 0 0.08 0"/>
<feBlend mode="normal" in2="effect2_innerShadow_445_1683" result="effect3_innerShadow_445_1683"/>
</filter>
<filter id="filter2_iii_445_1683" x="64" y="187" width="180" height="33" filterUnits="userSpaceOnUse" color-interpolation-filters="sRGB">
<feFlood flood-opacity="0" result="BackgroundImageFix"/>
<feBlend mode="normal" in="SourceGraphic" in2="BackgroundImageFix" result="shape"/>
<feColorMatrix in="SourceAlpha" type="matrix" values="0 0 0 0 0 0 0 0 0 0 0 0 0 0 0 0 0 0 127 0" result="hardAlpha"/>
<feOffset dy="-1"/>
<feGaussianBlur stdDeviation="1"/>
<feComposite in2="hardAlpha" operator="arithmetic" k2="-1" k3="1"/>
<feColorMatrix type="matrix" values="0 0 0 0 0 0 0 0 0 0 0 0 0 0 0 0 0 0 0.12 0"/>
<feBlend mode="normal" in2="shape" result="effect1_innerShadow_445_1683"/>
<feColorMatrix in="SourceAlpha" type="matrix" values="0 0 0 0 0 0 0 0 0 0 0 0 0 0 0 0 0 0 127 0" result="hardAlpha"/>
<feMorphology radius="1" operator="erode" in="SourceAlpha" result="effect2_innerShadow_445_1683"/>
<feOffset/>
<feGaussianBlur stdDeviation="1.5"/>
<feComposite in2="hardAlpha" operator="arithmetic" k2="-1" k3="1"/>
<feColorMatrix type="matrix" values="0 0 0 0 1 0 0 0 0 1 0 0 0 0 1 0 0 0 0.2 0"/>
<feBlend mode="normal" in2="effect1_innerShadow_445_1683" result="effect2_innerShadow_445_1683"/>
<feColorMatrix in="SourceAlpha" type="matrix" values="0 0 0 0 0 0 0 0 0 0 0 0 0 0 0 0 0 0 127 0" result="hardAlpha"/>
<feMorphology radius="1" operator="erode" in="SourceAlpha" result="effect3_innerShadow_445_1683"/>
<feOffset/>
<feComposite in2="hardAlpha" operator="arithmetic" k2="-1" k3="1"/>
<feColorMatrix type="matrix" values="0 0 0 0 0.0862745 0 0 0 0 0.101961 0 0 0 0 0.14902 0 0 0 0.08 0"/>
<feBlend mode="normal" in2="effect2_innerShadow_445_1683" result="effect3_innerShadow_445_1683"/>
</filter>
<clipPath id="clip0_445_1683">
<rect x="40" width="228" height="244" rx="8" fill="white"/>
</clipPath>
<clipPath id="clip1_445_1683">
<rect width="14" height="11" fill="white" transform="translate(95.86 109.75)"/>
</clipPath>
<clipPath id="clip2_445_1683">
<rect width="14" height="11" fill="white" transform="translate(95.86 109.75)"/>
</clipPath>
<clipPath id="clip3_445_1683">
<rect width="16" height="12" fill="white" transform="translate(86.58 153.25)"/>
</clipPath>
<clipPath id="clip4_445_1683">
<rect width="16" height="12" fill="white" transform="translate(86.58 153.25)"/>
</clipPath>
<clipPath id="clip5_445_1683">
<rect width="16" height="14" fill="white" transform="translate(105.09 197)"/>
</clipPath>
<clipPath id="clip6_445_1683">
<rect width="16" height="14" fill="white" transform="translate(105.09 197)"/>
</clipPath>
<clipPath id="clip7_445_1683">
<rect width="14" height="13" fill="white" transform="translate(237 271.5)"/>
</clipPath>
<clipPath id="clip8_445_1683">
<rect width="14" height="13" fill="white" transform="translate(237 271.5)"/>
</clipPath>
</defs>
</svg>
