<svg width="100" height="41" viewBox="0 0 100 41" fill="none" xmlns="http://www.w3.org/2000/svg">
<g id="logo" clip-path="url(#clip0_58_1457)">
<path id="Vector" d="M81.774 6.604H77.663V10.716H81.773L81.774 6.604Z" fill="#1C1D1F"/>
<path id="Vector_2" fill-rule="evenodd" clip-rule="evenodd" d="M65.769 17.16H62.159V23.841C62.159 24.398 62.297 24.805 62.575 25.061C62.854 25.319 63.261 25.469 63.795 25.511C64.33 25.532 64.995 25.523 65.788 25.48V29.238C62.983 29.559 60.981 29.301 59.782 28.468C58.604 27.612 58.016 26.07 58.016 23.843V17.163H55.222V13.178H58.016V9.93401L62.159 8.68201V13.18H68.563V9.93601L72.706 8.68401V13.182H76.335V17.166H72.705V23.846C72.705 24.404 72.844 24.811 73.122 25.066C73.401 25.325 73.808 25.474 74.342 25.517C74.877 25.537 75.542 25.529 76.332 25.485V29.244C73.528 29.564 71.527 29.307 70.327 28.474C69.15 27.618 68.561 26.076 68.561 23.849V17.168H65.767L65.769 17.16Z" fill="#1C1D1F"/>
<path id="Vector_3" d="M81.793 13.174H77.65V29.236H81.793V13.174Z" fill="#1C1D1F"/>
<path id="Vector_4" fill-rule="evenodd" clip-rule="evenodd" d="M91.553 12.757C89.3126 12.7575 87.1642 13.6479 85.5803 15.2324C83.9964 16.8168 83.1068 18.9656 83.107 21.206C83.0859 22.3286 83.2887 23.4441 83.7037 24.4874C84.1186 25.5307 84.7374 26.4808 85.5239 27.2822C86.3103 28.0836 87.2486 28.7202 88.2839 29.1548C89.3192 29.5893 90.4307 29.8131 91.5535 29.8131C92.6763 29.8131 93.7879 29.5893 94.8232 29.1548C95.8585 28.7202 96.7968 28.0836 97.5832 27.2822C98.3696 26.4808 98.9884 25.5307 99.4034 24.4874C99.8183 23.4441 100.021 22.3286 100 21.206C100 20.0965 99.7822 18.9978 99.3579 17.9727C98.9335 16.9475 98.3114 16.0161 97.527 15.2314C96.7425 14.4468 95.8112 13.8245 94.7862 13.3999C93.7611 12.9753 92.6625 12.7568 91.553 12.757ZM91.539 25.672C90.367 25.6472 89.2513 25.1642 88.4311 24.3266C87.611 23.4889 87.1517 22.3633 87.1517 21.191C87.1517 20.0187 87.611 18.893 88.4311 18.0554C89.2513 17.2177 90.367 16.7347 91.539 16.71C92.727 16.7102 93.8663 17.1823 94.7062 18.0225C95.5462 18.8626 96.018 20.002 96.018 21.19C96.0183 21.7784 95.9026 22.3612 95.6776 22.905C95.4525 23.4488 95.1226 23.9429 94.7066 24.3591C94.2905 24.7753 93.7966 25.1055 93.2529 25.3307C92.7092 25.556 92.1275 25.672 91.539 25.672ZM49.791 13.142V14.034C48.512 13.2386 47.0435 12.7997 45.5378 12.7626C44.032 12.7256 42.5438 13.0918 41.2272 13.8233C39.9105 14.5548 38.8134 15.625 38.0494 16.923C37.2855 18.2211 36.8824 19.6998 36.882 21.206C36.8823 22.7123 37.2853 24.1912 38.0493 25.4894C38.8134 26.7876 39.9106 27.8579 41.2274 28.5894C42.5442 29.3209 44.0326 29.687 45.5385 29.6499C47.0444 29.6127 48.5129 29.1736 49.792 28.378V29.269H53.902V13.142H49.791ZM45.314 25.672C44.142 25.6472 43.0263 25.1642 42.2061 24.3266C41.386 23.4889 40.9267 22.3633 40.9267 21.191C40.9267 20.0187 41.386 18.893 42.2061 18.0554C43.0263 17.2177 44.142 16.7347 45.314 16.71C46.4904 16.7059 47.6207 17.1666 48.4592 17.9917C49.2976 18.8168 49.7763 19.9397 49.791 21.116V21.264C49.7721 22.4389 49.2921 23.5593 48.4546 24.3836C47.6171 25.2078 46.4891 25.6698 45.314 25.67V25.672Z" fill="#1C1D1F"/>
<path id="Vector_5" d="M29.754 22.862L27.242 18.842C27.242 18.842 27.233 18.825 27.227 18.818L27.029 18.502C26.8468 18.2083 26.5927 17.966 26.2906 17.798C25.9886 17.63 25.6486 17.5419 25.303 17.542L21.257 17.528L20.975 17.981L16.14 25.717L15.873 26.145L17.9 29.38C18.274 29.982 18.92 30.341 19.632 30.341H25.302C26.001 30.341 26.662 29.973 27.032 29.382L27.232 29.062C27.232 29.062 27.24 29.054 27.242 29.05L29.757 25.025C29.9594 24.7004 30.0667 24.3256 30.0667 23.943C30.0667 23.5605 29.9594 23.1856 29.757 22.861H29.755L29.754 22.862ZM28.988 24.545L26.472 28.57C26.462 28.59 26.448 28.604 26.437 28.62C26.4016 28.6596 26.3574 28.6904 26.308 28.7098C26.2586 28.7293 26.2053 28.7369 26.1524 28.732C26.0995 28.7271 26.0485 28.71 26.0035 28.6818C25.9584 28.6537 25.9206 28.6154 25.893 28.57L23.378 24.543C23.321 24.4531 23.2773 24.3554 23.248 24.253C23.2043 24.1012 23.1931 23.942 23.215 23.7855C23.2369 23.6291 23.2914 23.479 23.375 23.345L25.887 19.325L25.893 19.315C25.953 19.225 26.028 19.184 26.093 19.171C26.119 19.163 26.142 19.161 26.16 19.158H26.188C26.246 19.158 26.39 19.176 26.48 19.322L28.991 23.342C29.221 23.708 29.221 24.179 28.991 24.545H28.988ZM22.322 13.136C22.5235 12.8111 22.6303 12.4364 22.6303 12.054C22.6303 11.6717 22.5235 11.297 22.322 10.972L19.81 6.95204L19.6 6.61404C19.4171 6.31971 19.1619 6.07707 18.8587 5.90921C18.5556 5.74135 18.2145 5.65386 17.868 5.65504H12.198C11.491 5.65504 10.844 6.01504 10.467 6.61504L0.313985 22.866C0.109994 23.1896 0.00157542 23.5642 0.00122157 23.9468C0.000867724 24.3293 0.108593 24.7041 0.311985 25.028L3.03498 29.387C3.21735 29.6814 3.47213 29.9241 3.775 30.092C4.07786 30.2599 4.4187 30.3474 4.76498 30.346H10.435C11.147 30.346 11.793 29.986 12.167 29.386L12.375 29.056V29.052L12.378 29.045L14.402 25.808L20.401 16.208L22.318 13.138L22.322 13.137V13.136ZM21.729 12.054C21.729 12.261 21.671 12.47 21.554 12.655L11.608 28.573C11.5772 28.6224 11.5343 28.663 11.4833 28.691C11.4324 28.719 11.3751 28.7335 11.317 28.733C11.2587 28.7335 11.2013 28.719 11.1502 28.691C11.0991 28.663 11.056 28.6224 11.025 28.573L8.51198 24.546C8.40013 24.3655 8.34087 24.1574 8.34087 23.945C8.34087 23.7327 8.40013 23.5245 8.51198 23.344L18.457 7.43104C18.4874 7.38095 18.5303 7.3396 18.5815 7.31103C18.6327 7.28246 18.6904 7.26765 18.749 7.26804C18.807 7.26804 18.951 7.28504 19.042 7.43204L21.554 11.452C21.671 11.637 21.729 11.846 21.729 12.054Z" fill="#1C1D1F"/>
</g>
<defs>
<clipPath id="clip0_58_1457">
<rect width="100" height="40" fill="white" transform="translate(0 0.5)"/>
</clipPath>
</defs>
</svg>
